<?xml version="1.0" encoding="utf-8" standalone="no"?>
<!DOCTYPE svg PUBLIC "-//W3C//DTD SVG 1.1//EN"
  "http://www.w3.org/Graphics/SVG/1.1/DTD/svg11.dtd">
<svg xmlns:xlink="http://www.w3.org/1999/xlink" width="864pt" height="432pt" viewBox="0 0 864 432" xmlns="http://www.w3.org/2000/svg" version="1.1">
 <metadata>
  <rdf:RDF xmlns:dc="http://purl.org/dc/elements/1.1/" xmlns:cc="http://creativecommons.org/ns#" xmlns:rdf="http://www.w3.org/1999/02/22-rdf-syntax-ns#">
   <cc:Work>
    <dc:type rdf:resource="http://purl.org/dc/dcmitype/StillImage"/>
    <dc:date>2023-10-06T15:28:22.849582</dc:date>
    <dc:format>image/svg+xml</dc:format>
    <dc:creator>
     <cc:Agent>
      <dc:title>Matplotlib v3.7.2, https://matplotlib.org/</dc:title>
     </cc:Agent>
    </dc:creator>
   </cc:Work>
  </rdf:RDF>
 </metadata>
 <defs>
  <style type="text/css">*{stroke-linejoin: round; stroke-linecap: butt}</style>
 </defs>
 <g id="figure_1">
  <g id="patch_1">
   <path d="M 0 432 
L 864 432 
L 864 0 
L 0 0 
z
" style="fill: #ffffff"/>
  </g>
  <g id="axes_1">
   <g id="patch_2">
    <path d="M 44.57 390.04 
L 285.196392 390.04 
L 285.196392 50.64 
L 44.57 50.64 
z
" style="fill: #ffffff"/>
   </g>
   <g id="PathCollection_1">
    <path d="M 52.59088 390.04 
L 60.611759 390.04 
L 68.632639 390.04 
L 76.653519 390.04 
L 84.674399 390.04 
L 92.695278 390.04 
L 100.716158 390.04 
L 108.737038 390.04 
L 116.757918 390.04 
L 124.778797 390.04 
L 132.799677 390.04 
L 134.656893 390.04 
L 140.820557 90.053559 
L 141.787086 50.64 
L 140.820557 50.64 
L 132.799677 50.64 
L 124.778797 50.64 
L 116.757918 50.64 
L 108.737038 50.64 
L 100.716158 50.64 
L 92.695278 50.64 
L 84.674399 50.64 
L 76.653519 50.64 
L 68.632639 50.64 
L 60.611759 50.64 
L 52.59088 50.64 
L 44.57 50.64 
L 44.57 390.04 
z
" clip-path="url(#pfbe4b33c96)" style="fill: #481c6e"/>
   </g>
   <g id="PathCollection_2">
    <path d="M 140.820557 390.04 
L 148.841437 390.04 
L 150.411952 390.04 
L 156.862316 124.481641 
L 162.948242 50.64 
L 156.862316 50.64 
L 148.841437 50.64 
L 141.787086 50.64 
L 140.820557 90.053559 
L 134.656893 390.04 
z
" clip-path="url(#pfbe4b33c96)" style="fill: #3e4a89"/>
   </g>
   <g id="PathCollection_3">
    <path d="M 156.862316 390.04 
L 162.872625 390.04 
L 164.883196 370.111171 
L 172.904076 208.478604 
L 180.924956 84.540045 
L 187.75239 50.64 
L 180.924956 50.64 
L 172.904076 50.64 
L 164.883196 50.64 
L 162.948242 50.64 
L 156.862316 124.481641 
L 150.411952 390.04 
z
" clip-path="url(#pfbe4b33c96)" style="fill: #2c728e"/>
   </g>
   <g id="PathCollection_4">
    <path d="M 164.883196 390.04 
L 172.904076 390.04 
L 180.924956 390.04 
L 188.945835 390.04 
L 196.966715 390.04 
L 204.987595 390.04 
L 213.008475 390.04 
L 221.029354 390.04 
L 229.050234 390.04 
L 237.071114 390.04 
L 245.091993 390.04 
L 253.112873 390.04 
L 261.133753 390.04 
L 269.154633 390.04 
L 277.175512 390.04 
L 285.196392 390.04 
L 285.196392 50.64 
L 277.175512 50.64 
L 269.154633 50.64 
L 261.133753 50.64 
L 253.112873 50.64 
L 245.091993 50.64 
L 237.071114 50.64 
L 229.050234 50.64 
L 221.029354 50.64 
L 213.008475 50.64 
L 204.987595 50.64 
L 196.966715 50.64 
L 188.945835 50.64 
L 187.75239 50.64 
L 180.924956 84.540045 
L 172.904076 208.478604 
L 164.883196 370.111171 
L 162.872625 390.04 
z
" clip-path="url(#pfbe4b33c96)" style="fill: #1f968b"/>
   </g>
   <g id="matplotlib.axis_1">
    <g id="xtick_1">
     <g id="line2d_1">
      <defs>
       <path id="mb4f3ac5b77" d="M 0 0 
L 0 3.5 
" style="stroke: #000000; stroke-width: 0.8"/>
      </defs>
      <g>
       <use xlink:href="#mb4f3ac5b77" x="44.57" y="390.04" style="stroke: #000000; stroke-width: 0.8"/>
      </g>
     </g>
     <g id="text_1">
      <!-- −18 -->
      <g transform="translate(34.017656 404.638438) scale(0.1 -0.1)">
       <defs>
        <path id="DejaVuSans-2212" d="M 678 2272 
L 4684 2272 
L 4684 1741 
L 678 1741 
L 678 2272 
z
" transform="scale(0.015625)"/>
        <path id="DejaVuSans-31" d="M 794 531 
L 1825 531 
L 1825 4091 
L 703 3866 
L 703 4441 
L 1819 4666 
L 2450 4666 
L 2450 531 
L 3481 531 
L 3481 0 
L 794 0 
L 794 531 
z
" transform="scale(0.015625)"/>
        <path id="DejaVuSans-38" d="M 2034 2216 
Q 1584 2216 1326 1975 
Q 1069 1734 1069 1313 
Q 1069 891 1326 650 
Q 1584 409 2034 409 
Q 2484 409 2743 651 
Q 3003 894 3003 1313 
Q 3003 1734 2745 1975 
Q 2488 2216 2034 2216 
z
M 1403 2484 
Q 997 2584 770 2862 
Q 544 3141 544 3541 
Q 544 4100 942 4425 
Q 1341 4750 2034 4750 
Q 2731 4750 3128 4425 
Q 3525 4100 3525 3541 
Q 3525 3141 3298 2862 
Q 3072 2584 2669 2484 
Q 3125 2378 3379 2068 
Q 3634 1759 3634 1313 
Q 3634 634 3220 271 
Q 2806 -91 2034 -91 
Q 1263 -91 848 271 
Q 434 634 434 1313 
Q 434 1759 690 2068 
Q 947 2378 1403 2484 
z
M 1172 3481 
Q 1172 3119 1398 2916 
Q 1625 2713 2034 2713 
Q 2441 2713 2670 2916 
Q 2900 3119 2900 3481 
Q 2900 3844 2670 4047 
Q 2441 4250 2034 4250 
Q 1625 4250 1398 4047 
Q 1172 3844 1172 3481 
z
" transform="scale(0.015625)"/>
       </defs>
       <use xlink:href="#DejaVuSans-2212"/>
       <use xlink:href="#DejaVuSans-31" x="83.789062"/>
       <use xlink:href="#DejaVuSans-38" x="147.412109"/>
      </g>
     </g>
    </g>
    <g id="xtick_2">
     <g id="line2d_2">
      <g>
       <use xlink:href="#mb4f3ac5b77" x="92.695278" y="390.04" style="stroke: #000000; stroke-width: 0.8"/>
      </g>
     </g>
     <g id="text_2">
      <!-- −12 -->
      <g transform="translate(82.142935 404.638438) scale(0.1 -0.1)">
       <defs>
        <path id="DejaVuSans-32" d="M 1228 531 
L 3431 531 
L 3431 0 
L 469 0 
L 469 531 
Q 828 903 1448 1529 
Q 2069 2156 2228 2338 
Q 2531 2678 2651 2914 
Q 2772 3150 2772 3378 
Q 2772 3750 2511 3984 
Q 2250 4219 1831 4219 
Q 1534 4219 1204 4116 
Q 875 4013 500 3803 
L 500 4441 
Q 881 4594 1212 4672 
Q 1544 4750 1819 4750 
Q 2544 4750 2975 4387 
Q 3406 4025 3406 3419 
Q 3406 3131 3298 2873 
Q 3191 2616 2906 2266 
Q 2828 2175 2409 1742 
Q 1991 1309 1228 531 
z
" transform="scale(0.015625)"/>
       </defs>
       <use xlink:href="#DejaVuSans-2212"/>
       <use xlink:href="#DejaVuSans-31" x="83.789062"/>
       <use xlink:href="#DejaVuSans-32" x="147.412109"/>
      </g>
     </g>
    </g>
    <g id="xtick_3">
     <g id="line2d_3">
      <g>
       <use xlink:href="#mb4f3ac5b77" x="140.820557" y="390.04" style="stroke: #000000; stroke-width: 0.8"/>
      </g>
     </g>
     <g id="text_3">
      <!-- −6 -->
      <g transform="translate(133.449463 404.638438) scale(0.1 -0.1)">
       <defs>
        <path id="DejaVuSans-36" d="M 2113 2584 
Q 1688 2584 1439 2293 
Q 1191 2003 1191 1497 
Q 1191 994 1439 701 
Q 1688 409 2113 409 
Q 2538 409 2786 701 
Q 3034 994 3034 1497 
Q 3034 2003 2786 2293 
Q 2538 2584 2113 2584 
z
M 3366 4563 
L 3366 3988 
Q 3128 4100 2886 4159 
Q 2644 4219 2406 4219 
Q 1781 4219 1451 3797 
Q 1122 3375 1075 2522 
Q 1259 2794 1537 2939 
Q 1816 3084 2150 3084 
Q 2853 3084 3261 2657 
Q 3669 2231 3669 1497 
Q 3669 778 3244 343 
Q 2819 -91 2113 -91 
Q 1303 -91 875 529 
Q 447 1150 447 2328 
Q 447 3434 972 4092 
Q 1497 4750 2381 4750 
Q 2619 4750 2861 4703 
Q 3103 4656 3366 4563 
z
" transform="scale(0.015625)"/>
       </defs>
       <use xlink:href="#DejaVuSans-2212"/>
       <use xlink:href="#DejaVuSans-36" x="83.789062"/>
      </g>
     </g>
    </g>
    <g id="xtick_4">
     <g id="line2d_4">
      <g>
       <use xlink:href="#mb4f3ac5b77" x="188.945835" y="390.04" style="stroke: #000000; stroke-width: 0.8"/>
      </g>
     </g>
     <g id="text_4">
      <!-- 0 -->
      <g transform="translate(185.764585 404.638438) scale(0.1 -0.1)">
       <defs>
        <path id="DejaVuSans-30" d="M 2034 4250 
Q 1547 4250 1301 3770 
Q 1056 3291 1056 2328 
Q 1056 1369 1301 889 
Q 1547 409 2034 409 
Q 2525 409 2770 889 
Q 3016 1369 3016 2328 
Q 3016 3291 2770 3770 
Q 2525 4250 2034 4250 
z
M 2034 4750 
Q 2819 4750 3233 4129 
Q 3647 3509 3647 2328 
Q 3647 1150 3233 529 
Q 2819 -91 2034 -91 
Q 1250 -91 836 529 
Q 422 1150 422 2328 
Q 422 3509 836 4129 
Q 1250 4750 2034 4750 
z
" transform="scale(0.015625)"/>
       </defs>
       <use xlink:href="#DejaVuSans-30"/>
      </g>
     </g>
    </g>
    <g id="xtick_5">
     <g id="line2d_5">
      <g>
       <use xlink:href="#mb4f3ac5b77" x="237.071114" y="390.04" style="stroke: #000000; stroke-width: 0.8"/>
      </g>
     </g>
     <g id="text_5">
      <!-- 6 -->
      <g transform="translate(233.889864 404.638438) scale(0.1 -0.1)">
       <use xlink:href="#DejaVuSans-36"/>
      </g>
     </g>
    </g>
    <g id="xtick_6">
     <g id="line2d_6">
      <g>
       <use xlink:href="#mb4f3ac5b77" x="285.196392" y="390.04" style="stroke: #000000; stroke-width: 0.8"/>
      </g>
     </g>
     <g id="text_6">
      <!-- 12 -->
      <g transform="translate(278.833892 404.638438) scale(0.1 -0.1)">
       <use xlink:href="#DejaVuSans-31"/>
       <use xlink:href="#DejaVuSans-32" x="63.623047"/>
      </g>
     </g>
    </g>
    <g id="text_7">
     <!-- SNR [dB] -->
     <g transform="translate(142.398821 418.316562) scale(0.1 -0.1)">
      <defs>
       <path id="DejaVuSans-53" d="M 3425 4513 
L 3425 3897 
Q 3066 4069 2747 4153 
Q 2428 4238 2131 4238 
Q 1616 4238 1336 4038 
Q 1056 3838 1056 3469 
Q 1056 3159 1242 3001 
Q 1428 2844 1947 2747 
L 2328 2669 
Q 3034 2534 3370 2195 
Q 3706 1856 3706 1288 
Q 3706 609 3251 259 
Q 2797 -91 1919 -91 
Q 1588 -91 1214 -16 
Q 841 59 441 206 
L 441 856 
Q 825 641 1194 531 
Q 1563 422 1919 422 
Q 2459 422 2753 634 
Q 3047 847 3047 1241 
Q 3047 1584 2836 1778 
Q 2625 1972 2144 2069 
L 1759 2144 
Q 1053 2284 737 2584 
Q 422 2884 422 3419 
Q 422 4038 858 4394 
Q 1294 4750 2059 4750 
Q 2388 4750 2728 4690 
Q 3069 4631 3425 4513 
z
" transform="scale(0.015625)"/>
       <path id="DejaVuSans-4e" d="M 628 4666 
L 1478 4666 
L 3547 763 
L 3547 4666 
L 4159 4666 
L 4159 0 
L 3309 0 
L 1241 3903 
L 1241 0 
L 628 0 
L 628 4666 
z
" transform="scale(0.015625)"/>
       <path id="DejaVuSans-52" d="M 2841 2188 
Q 3044 2119 3236 1894 
Q 3428 1669 3622 1275 
L 4263 0 
L 3584 0 
L 2988 1197 
Q 2756 1666 2539 1819 
Q 2322 1972 1947 1972 
L 1259 1972 
L 1259 0 
L 628 0 
L 628 4666 
L 2053 4666 
Q 2853 4666 3247 4331 
Q 3641 3997 3641 3322 
Q 3641 2881 3436 2590 
Q 3231 2300 2841 2188 
z
M 1259 4147 
L 1259 2491 
L 2053 2491 
Q 2509 2491 2742 2702 
Q 2975 2913 2975 3322 
Q 2975 3731 2742 3939 
Q 2509 4147 2053 4147 
L 1259 4147 
z
" transform="scale(0.015625)"/>
       <path id="DejaVuSans-20" transform="scale(0.015625)"/>
       <path id="DejaVuSans-5b" d="M 550 4863 
L 1875 4863 
L 1875 4416 
L 1125 4416 
L 1125 -397 
L 1875 -397 
L 1875 -844 
L 550 -844 
L 550 4863 
z
" transform="scale(0.015625)"/>
       <path id="DejaVuSans-64" d="M 2906 2969 
L 2906 4863 
L 3481 4863 
L 3481 0 
L 2906 0 
L 2906 525 
Q 2725 213 2448 61 
Q 2172 -91 1784 -91 
Q 1150 -91 751 415 
Q 353 922 353 1747 
Q 353 2572 751 3078 
Q 1150 3584 1784 3584 
Q 2172 3584 2448 3432 
Q 2725 3281 2906 2969 
z
M 947 1747 
Q 947 1113 1208 752 
Q 1469 391 1925 391 
Q 2381 391 2643 752 
Q 2906 1113 2906 1747 
Q 2906 2381 2643 2742 
Q 2381 3103 1925 3103 
Q 1469 3103 1208 2742 
Q 947 2381 947 1747 
z
" transform="scale(0.015625)"/>
       <path id="DejaVuSans-42" d="M 1259 2228 
L 1259 519 
L 2272 519 
Q 2781 519 3026 730 
Q 3272 941 3272 1375 
Q 3272 1813 3026 2020 
Q 2781 2228 2272 2228 
L 1259 2228 
z
M 1259 4147 
L 1259 2741 
L 2194 2741 
Q 2656 2741 2882 2914 
Q 3109 3088 3109 3444 
Q 3109 3797 2882 3972 
Q 2656 4147 2194 4147 
L 1259 4147 
z
M 628 4666 
L 2241 4666 
Q 2963 4666 3353 4366 
Q 3744 4066 3744 3513 
Q 3744 3084 3544 2831 
Q 3344 2578 2956 2516 
Q 3422 2416 3680 2098 
Q 3938 1781 3938 1306 
Q 3938 681 3513 340 
Q 3088 0 2303 0 
L 628 0 
L 628 4666 
z
" transform="scale(0.015625)"/>
       <path id="DejaVuSans-5d" d="M 1947 4863 
L 1947 -844 
L 622 -844 
L 622 -397 
L 1369 -397 
L 1369 4416 
L 622 4416 
L 622 4863 
L 1947 4863 
z
" transform="scale(0.015625)"/>
      </defs>
      <use xlink:href="#DejaVuSans-53"/>
      <use xlink:href="#DejaVuSans-4e" x="63.476562"/>
      <use xlink:href="#DejaVuSans-52" x="138.28125"/>
      <use xlink:href="#DejaVuSans-20" x="207.763672"/>
      <use xlink:href="#DejaVuSans-5b" x="239.550781"/>
      <use xlink:href="#DejaVuSans-64" x="278.564453"/>
      <use xlink:href="#DejaVuSans-42" x="342.041016"/>
      <use xlink:href="#DejaVuSans-5d" x="410.644531"/>
     </g>
    </g>
   </g>
   <g id="matplotlib.axis_2">
    <g id="ytick_1">
     <g id="line2d_7">
      <defs>
       <path id="md25c92fda5" d="M 0 0 
L -3.5 0 
" style="stroke: #000000; stroke-width: 0.8"/>
      </defs>
      <g>
       <use xlink:href="#md25c92fda5" x="44.57" y="390.04" style="stroke: #000000; stroke-width: 0.8"/>
      </g>
     </g>
     <g id="text_8">
      <!-- 10 -->
      <g transform="translate(24.845 393.839219) scale(0.1 -0.1)">
       <use xlink:href="#DejaVuSans-31"/>
       <use xlink:href="#DejaVuSans-30" x="63.623047"/>
      </g>
     </g>
    </g>
    <g id="ytick_2">
     <g id="line2d_8">
      <g>
       <use xlink:href="#md25c92fda5" x="44.57" y="333.473333" style="stroke: #000000; stroke-width: 0.8"/>
      </g>
     </g>
     <g id="text_9">
      <!-- 20 -->
      <g transform="translate(24.845 337.272552) scale(0.1 -0.1)">
       <use xlink:href="#DejaVuSans-32"/>
       <use xlink:href="#DejaVuSans-30" x="63.623047"/>
      </g>
     </g>
    </g>
    <g id="ytick_3">
     <g id="line2d_9">
      <g>
       <use xlink:href="#md25c92fda5" x="44.57" y="276.906667" style="stroke: #000000; stroke-width: 0.8"/>
      </g>
     </g>
     <g id="text_10">
      <!-- 30 -->
      <g transform="translate(24.845 280.705885) scale(0.1 -0.1)">
       <defs>
        <path id="DejaVuSans-33" d="M 2597 2516 
Q 3050 2419 3304 2112 
Q 3559 1806 3559 1356 
Q 3559 666 3084 287 
Q 2609 -91 1734 -91 
Q 1441 -91 1130 -33 
Q 819 25 488 141 
L 488 750 
Q 750 597 1062 519 
Q 1375 441 1716 441 
Q 2309 441 2620 675 
Q 2931 909 2931 1356 
Q 2931 1769 2642 2001 
Q 2353 2234 1838 2234 
L 1294 2234 
L 1294 2753 
L 1863 2753 
Q 2328 2753 2575 2939 
Q 2822 3125 2822 3475 
Q 2822 3834 2567 4026 
Q 2313 4219 1838 4219 
Q 1578 4219 1281 4162 
Q 984 4106 628 3988 
L 628 4550 
Q 988 4650 1302 4700 
Q 1616 4750 1894 4750 
Q 2613 4750 3031 4423 
Q 3450 4097 3450 3541 
Q 3450 3153 3228 2886 
Q 3006 2619 2597 2516 
z
" transform="scale(0.015625)"/>
       </defs>
       <use xlink:href="#DejaVuSans-33"/>
       <use xlink:href="#DejaVuSans-30" x="63.623047"/>
      </g>
     </g>
    </g>
    <g id="ytick_4">
     <g id="line2d_10">
      <g>
       <use xlink:href="#md25c92fda5" x="44.57" y="220.34" style="stroke: #000000; stroke-width: 0.8"/>
      </g>
     </g>
     <g id="text_11">
      <!-- 40 -->
      <g transform="translate(24.845 224.139219) scale(0.1 -0.1)">
       <defs>
        <path id="DejaVuSans-34" d="M 2419 4116 
L 825 1625 
L 2419 1625 
L 2419 4116 
z
M 2253 4666 
L 3047 4666 
L 3047 1625 
L 3713 1625 
L 3713 1100 
L 3047 1100 
L 3047 0 
L 2419 0 
L 2419 1100 
L 313 1100 
L 313 1709 
L 2253 4666 
z
" transform="scale(0.015625)"/>
       </defs>
       <use xlink:href="#DejaVuSans-34"/>
       <use xlink:href="#DejaVuSans-30" x="63.623047"/>
      </g>
     </g>
    </g>
    <g id="ytick_5">
     <g id="line2d_11">
      <g>
       <use xlink:href="#md25c92fda5" x="44.57" y="163.773333" style="stroke: #000000; stroke-width: 0.8"/>
      </g>
     </g>
     <g id="text_12">
      <!-- 50 -->
      <g transform="translate(24.845 167.572552) scale(0.1 -0.1)">
       <defs>
        <path id="DejaVuSans-35" d="M 691 4666 
L 3169 4666 
L 3169 4134 
L 1269 4134 
L 1269 2991 
Q 1406 3038 1543 3061 
Q 1681 3084 1819 3084 
Q 2600 3084 3056 2656 
Q 3513 2228 3513 1497 
Q 3513 744 3044 326 
Q 2575 -91 1722 -91 
Q 1428 -91 1123 -41 
Q 819 9 494 109 
L 494 744 
Q 775 591 1075 516 
Q 1375 441 1709 441 
Q 2250 441 2565 725 
Q 2881 1009 2881 1497 
Q 2881 1984 2565 2268 
Q 2250 2553 1709 2553 
Q 1456 2553 1204 2497 
Q 953 2441 691 2322 
L 691 4666 
z
" transform="scale(0.015625)"/>
       </defs>
       <use xlink:href="#DejaVuSans-35"/>
       <use xlink:href="#DejaVuSans-30" x="63.623047"/>
      </g>
     </g>
    </g>
    <g id="ytick_6">
     <g id="line2d_12">
      <g>
       <use xlink:href="#md25c92fda5" x="44.57" y="107.206667" style="stroke: #000000; stroke-width: 0.8"/>
      </g>
     </g>
     <g id="text_13">
      <!-- 60 -->
      <g transform="translate(24.845 111.005885) scale(0.1 -0.1)">
       <use xlink:href="#DejaVuSans-36"/>
       <use xlink:href="#DejaVuSans-30" x="63.623047"/>
      </g>
     </g>
    </g>
    <g id="ytick_7">
     <g id="line2d_13">
      <g>
       <use xlink:href="#md25c92fda5" x="44.57" y="50.64" style="stroke: #000000; stroke-width: 0.8"/>
      </g>
     </g>
     <g id="text_14">
      <!-- 70 -->
      <g transform="translate(24.845 54.439219) scale(0.1 -0.1)">
       <defs>
        <path id="DejaVuSans-37" d="M 525 4666 
L 3525 4666 
L 3525 4397 
L 1831 0 
L 1172 0 
L 2766 4134 
L 525 4134 
L 525 4666 
z
" transform="scale(0.015625)"/>
       </defs>
       <use xlink:href="#DejaVuSans-37"/>
       <use xlink:href="#DejaVuSans-30" x="63.623047"/>
      </g>
     </g>
    </g>
    <g id="text_15">
     <!-- Firing Rate [Hz] -->
     <g transform="translate(18.765312 258.956406) rotate(-90) scale(0.1 -0.1)">
      <defs>
       <path id="DejaVuSans-46" d="M 628 4666 
L 3309 4666 
L 3309 4134 
L 1259 4134 
L 1259 2759 
L 3109 2759 
L 3109 2228 
L 1259 2228 
L 1259 0 
L 628 0 
L 628 4666 
z
" transform="scale(0.015625)"/>
       <path id="DejaVuSans-69" d="M 603 3500 
L 1178 3500 
L 1178 0 
L 603 0 
L 603 3500 
z
M 603 4863 
L 1178 4863 
L 1178 4134 
L 603 4134 
L 603 4863 
z
" transform="scale(0.015625)"/>
       <path id="DejaVuSans-72" d="M 2631 2963 
Q 2534 3019 2420 3045 
Q 2306 3072 2169 3072 
Q 1681 3072 1420 2755 
Q 1159 2438 1159 1844 
L 1159 0 
L 581 0 
L 581 3500 
L 1159 3500 
L 1159 2956 
Q 1341 3275 1631 3429 
Q 1922 3584 2338 3584 
Q 2397 3584 2469 3576 
Q 2541 3569 2628 3553 
L 2631 2963 
z
" transform="scale(0.015625)"/>
       <path id="DejaVuSans-6e" d="M 3513 2113 
L 3513 0 
L 2938 0 
L 2938 2094 
Q 2938 2591 2744 2837 
Q 2550 3084 2163 3084 
Q 1697 3084 1428 2787 
Q 1159 2491 1159 1978 
L 1159 0 
L 581 0 
L 581 3500 
L 1159 3500 
L 1159 2956 
Q 1366 3272 1645 3428 
Q 1925 3584 2291 3584 
Q 2894 3584 3203 3211 
Q 3513 2838 3513 2113 
z
" transform="scale(0.015625)"/>
       <path id="DejaVuSans-67" d="M 2906 1791 
Q 2906 2416 2648 2759 
Q 2391 3103 1925 3103 
Q 1463 3103 1205 2759 
Q 947 2416 947 1791 
Q 947 1169 1205 825 
Q 1463 481 1925 481 
Q 2391 481 2648 825 
Q 2906 1169 2906 1791 
z
M 3481 434 
Q 3481 -459 3084 -895 
Q 2688 -1331 1869 -1331 
Q 1566 -1331 1297 -1286 
Q 1028 -1241 775 -1147 
L 775 -588 
Q 1028 -725 1275 -790 
Q 1522 -856 1778 -856 
Q 2344 -856 2625 -561 
Q 2906 -266 2906 331 
L 2906 616 
Q 2728 306 2450 153 
Q 2172 0 1784 0 
Q 1141 0 747 490 
Q 353 981 353 1791 
Q 353 2603 747 3093 
Q 1141 3584 1784 3584 
Q 2172 3584 2450 3431 
Q 2728 3278 2906 2969 
L 2906 3500 
L 3481 3500 
L 3481 434 
z
" transform="scale(0.015625)"/>
       <path id="DejaVuSans-61" d="M 2194 1759 
Q 1497 1759 1228 1600 
Q 959 1441 959 1056 
Q 959 750 1161 570 
Q 1363 391 1709 391 
Q 2188 391 2477 730 
Q 2766 1069 2766 1631 
L 2766 1759 
L 2194 1759 
z
M 3341 1997 
L 3341 0 
L 2766 0 
L 2766 531 
Q 2569 213 2275 61 
Q 1981 -91 1556 -91 
Q 1019 -91 701 211 
Q 384 513 384 1019 
Q 384 1609 779 1909 
Q 1175 2209 1959 2209 
L 2766 2209 
L 2766 2266 
Q 2766 2663 2505 2880 
Q 2244 3097 1772 3097 
Q 1472 3097 1187 3025 
Q 903 2953 641 2809 
L 641 3341 
Q 956 3463 1253 3523 
Q 1550 3584 1831 3584 
Q 2591 3584 2966 3190 
Q 3341 2797 3341 1997 
z
" transform="scale(0.015625)"/>
       <path id="DejaVuSans-74" d="M 1172 4494 
L 1172 3500 
L 2356 3500 
L 2356 3053 
L 1172 3053 
L 1172 1153 
Q 1172 725 1289 603 
Q 1406 481 1766 481 
L 2356 481 
L 2356 0 
L 1766 0 
Q 1100 0 847 248 
Q 594 497 594 1153 
L 594 3053 
L 172 3053 
L 172 3500 
L 594 3500 
L 594 4494 
L 1172 4494 
z
" transform="scale(0.015625)"/>
       <path id="DejaVuSans-65" d="M 3597 1894 
L 3597 1613 
L 953 1613 
Q 991 1019 1311 708 
Q 1631 397 2203 397 
Q 2534 397 2845 478 
Q 3156 559 3463 722 
L 3463 178 
Q 3153 47 2828 -22 
Q 2503 -91 2169 -91 
Q 1331 -91 842 396 
Q 353 884 353 1716 
Q 353 2575 817 3079 
Q 1281 3584 2069 3584 
Q 2775 3584 3186 3129 
Q 3597 2675 3597 1894 
z
M 3022 2063 
Q 3016 2534 2758 2815 
Q 2500 3097 2075 3097 
Q 1594 3097 1305 2825 
Q 1016 2553 972 2059 
L 3022 2063 
z
" transform="scale(0.015625)"/>
       <path id="DejaVuSans-48" d="M 628 4666 
L 1259 4666 
L 1259 2753 
L 3553 2753 
L 3553 4666 
L 4184 4666 
L 4184 0 
L 3553 0 
L 3553 2222 
L 1259 2222 
L 1259 0 
L 628 0 
L 628 4666 
z
" transform="scale(0.015625)"/>
       <path id="DejaVuSans-7a" d="M 353 3500 
L 3084 3500 
L 3084 2975 
L 922 459 
L 3084 459 
L 3084 0 
L 275 0 
L 275 525 
L 2438 3041 
L 353 3041 
L 353 3500 
z
" transform="scale(0.015625)"/>
      </defs>
      <use xlink:href="#DejaVuSans-46"/>
      <use xlink:href="#DejaVuSans-69" x="50.269531"/>
      <use xlink:href="#DejaVuSans-72" x="78.052734"/>
      <use xlink:href="#DejaVuSans-69" x="119.166016"/>
      <use xlink:href="#DejaVuSans-6e" x="146.949219"/>
      <use xlink:href="#DejaVuSans-67" x="210.328125"/>
      <use xlink:href="#DejaVuSans-20" x="273.804688"/>
      <use xlink:href="#DejaVuSans-52" x="305.591797"/>
      <use xlink:href="#DejaVuSans-61" x="372.824219"/>
      <use xlink:href="#DejaVuSans-74" x="434.103516"/>
      <use xlink:href="#DejaVuSans-65" x="473.3125"/>
      <use xlink:href="#DejaVuSans-20" x="534.835938"/>
      <use xlink:href="#DejaVuSans-5b" x="566.623047"/>
      <use xlink:href="#DejaVuSans-48" x="605.636719"/>
      <use xlink:href="#DejaVuSans-7a" x="680.832031"/>
      <use xlink:href="#DejaVuSans-5d" x="733.322266"/>
     </g>
    </g>
   </g>
   <g id="PathCollection_5">
    <path d="M 155.304806 50.64 
L 149.092932 300.082992 
" clip-path="url(#pfbe4b33c96)" style="fill: none; stroke: #000000; stroke-width: 1.5"/>
    <path d="M 148.598352 320.28115 
L 146.919268 390.04 
" clip-path="url(#pfbe4b33c96)" style="fill: none; stroke: #000000; stroke-width: 1.5"/>
   </g>
   <g id="PathCollection_6">
    <path d="M 211.992427 390.04 
L 212.813854 347.411881 
" clip-path="url(#pfbe4b33c96)" style="fill: none; stroke: #000000; stroke-width: 1.5"/>
    <path d="M 214.517517 347.334273 
L 220.94767 390.04 
" clip-path="url(#pfbe4b33c96)" style="fill: none; stroke: #000000; stroke-width: 1.5"/>
    <path d="M 206.595337 50.64 
L 204.987595 106.663503 
L 197.153768 189.061552 
" clip-path="url(#pfbe4b33c96)" style="fill: none; stroke: #000000; stroke-width: 1.5"/>
    <path d="M 185.532505 196.116215 
L 180.924956 209.197358 
L 172.904076 337.56349 
L 170.259696 390.04 
" clip-path="url(#pfbe4b33c96)" style="fill: none; stroke: #000000; stroke-width: 1.5"/>
    <path d="M 221.052687 390.04 
L 229.050234 277.11157 
L 236.824413 325.433447 
" clip-path="url(#pfbe4b33c96)" style="fill: none; stroke: #000000; stroke-width: 1.5"/>
    <path d="M 246.576406 322.262371 
L 253.112873 278.118947 
L 261.133753 352.635877 
L 265.46156 390.04 
" clip-path="url(#pfbe4b33c96)" style="fill: none; stroke: #000000; stroke-width: 1.5"/>
   </g>
   <g id="PathCollection_7"/>
   <g id="PathCollection_8"/>
   <g id="patch_3">
    <path d="M 44.57 390.04 
L 44.57 50.64 
" style="fill: none; stroke: #000000; stroke-width: 0.8; stroke-linejoin: miter; stroke-linecap: square"/>
   </g>
   <g id="patch_4">
    <path d="M 285.196392 390.04 
L 285.196392 50.64 
" style="fill: none; stroke: #000000; stroke-width: 0.8; stroke-linejoin: miter; stroke-linecap: square"/>
   </g>
   <g id="patch_5">
    <path d="M 44.57 390.04 
L 285.196392 390.04 
" style="fill: none; stroke: #000000; stroke-width: 0.8; stroke-linejoin: miter; stroke-linecap: square"/>
   </g>
   <g id="patch_6">
    <path d="M 44.57 50.64 
L 285.196392 50.64 
" style="fill: none; stroke: #000000; stroke-width: 0.8; stroke-linejoin: miter; stroke-linecap: square"/>
   </g>
   <g id="text_16">
    <!-- Accuracy [%] -->
    <g transform="translate(125.199759 44.64) scale(0.12 -0.12)">
     <defs>
      <path id="DejaVuSans-41" d="M 2188 4044 
L 1331 1722 
L 3047 1722 
L 2188 4044 
z
M 1831 4666 
L 2547 4666 
L 4325 0 
L 3669 0 
L 3244 1197 
L 1141 1197 
L 716 0 
L 50 0 
L 1831 4666 
z
" transform="scale(0.015625)"/>
      <path id="DejaVuSans-63" d="M 3122 3366 
L 3122 2828 
Q 2878 2963 2633 3030 
Q 2388 3097 2138 3097 
Q 1578 3097 1268 2742 
Q 959 2388 959 1747 
Q 959 1106 1268 751 
Q 1578 397 2138 397 
Q 2388 397 2633 464 
Q 2878 531 3122 666 
L 3122 134 
Q 2881 22 2623 -34 
Q 2366 -91 2075 -91 
Q 1284 -91 818 406 
Q 353 903 353 1747 
Q 353 2603 823 3093 
Q 1294 3584 2113 3584 
Q 2378 3584 2631 3529 
Q 2884 3475 3122 3366 
z
" transform="scale(0.015625)"/>
      <path id="DejaVuSans-75" d="M 544 1381 
L 544 3500 
L 1119 3500 
L 1119 1403 
Q 1119 906 1312 657 
Q 1506 409 1894 409 
Q 2359 409 2629 706 
Q 2900 1003 2900 1516 
L 2900 3500 
L 3475 3500 
L 3475 0 
L 2900 0 
L 2900 538 
Q 2691 219 2414 64 
Q 2138 -91 1772 -91 
Q 1169 -91 856 284 
Q 544 659 544 1381 
z
M 1991 3584 
L 1991 3584 
z
" transform="scale(0.015625)"/>
      <path id="DejaVuSans-79" d="M 2059 -325 
Q 1816 -950 1584 -1140 
Q 1353 -1331 966 -1331 
L 506 -1331 
L 506 -850 
L 844 -850 
Q 1081 -850 1212 -737 
Q 1344 -625 1503 -206 
L 1606 56 
L 191 3500 
L 800 3500 
L 1894 763 
L 2988 3500 
L 3597 3500 
L 2059 -325 
z
" transform="scale(0.015625)"/>
      <path id="DejaVuSans-25" d="M 4653 2053 
Q 4381 2053 4226 1822 
Q 4072 1591 4072 1178 
Q 4072 772 4226 539 
Q 4381 306 4653 306 
Q 4919 306 5073 539 
Q 5228 772 5228 1178 
Q 5228 1588 5073 1820 
Q 4919 2053 4653 2053 
z
M 4653 2450 
Q 5147 2450 5437 2106 
Q 5728 1763 5728 1178 
Q 5728 594 5436 251 
Q 5144 -91 4653 -91 
Q 4153 -91 3862 251 
Q 3572 594 3572 1178 
Q 3572 1766 3864 2108 
Q 4156 2450 4653 2450 
z
M 1428 4353 
Q 1159 4353 1004 4120 
Q 850 3888 850 3481 
Q 850 3069 1003 2837 
Q 1156 2606 1428 2606 
Q 1700 2606 1854 2837 
Q 2009 3069 2009 3481 
Q 2009 3884 1853 4118 
Q 1697 4353 1428 4353 
z
M 4250 4750 
L 4750 4750 
L 1831 -91 
L 1331 -91 
L 4250 4750 
z
M 1428 4750 
Q 1922 4750 2215 4408 
Q 2509 4066 2509 3481 
Q 2509 2891 2217 2550 
Q 1925 2209 1428 2209 
Q 931 2209 642 2551 
Q 353 2894 353 3481 
Q 353 4063 643 4406 
Q 934 4750 1428 4750 
z
" transform="scale(0.015625)"/>
     </defs>
     <use xlink:href="#DejaVuSans-41"/>
     <use xlink:href="#DejaVuSans-63" x="66.658203"/>
     <use xlink:href="#DejaVuSans-63" x="121.638672"/>
     <use xlink:href="#DejaVuSans-75" x="176.619141"/>
     <use xlink:href="#DejaVuSans-72" x="239.998047"/>
     <use xlink:href="#DejaVuSans-61" x="281.111328"/>
     <use xlink:href="#DejaVuSans-63" x="342.390625"/>
     <use xlink:href="#DejaVuSans-79" x="397.371094"/>
     <use xlink:href="#DejaVuSans-20" x="456.550781"/>
     <use xlink:href="#DejaVuSans-5b" x="488.337891"/>
     <use xlink:href="#DejaVuSans-25" x="527.351562"/>
     <use xlink:href="#DejaVuSans-5d" x="622.371094"/>
    </g>
   </g>
   <g id="text_17">
    <g clip-path="url(#pfbe4b33c96)">
     <!-- 25 -->
     <g transform="translate(151.47016 316.599582) rotate(-88.828566) scale(0.1 -0.1)">
      <use xlink:href="#DejaVuSans-32"/>
      <use xlink:href="#DejaVuSans-35" x="63.623047"/>
     </g>
    </g>
   </g>
   <g id="text_18">
    <g clip-path="url(#pfbe4b33c96)">
     <!-- 50 -->
     <g transform="translate(206.805719 340.413833) rotate(-3.122362) scale(0.1 -0.1)">
      <use xlink:href="#DejaVuSans-35"/>
      <use xlink:href="#DejaVuSans-30" x="63.623047"/>
     </g>
    </g>
   </g>
   <g id="text_19">
    <g clip-path="url(#pfbe4b33c96)">
     <!-- 50 -->
     <g transform="translate(183.873886 191.155329) rotate(-19.55465) scale(0.1 -0.1)">
      <use xlink:href="#DejaVuSans-35"/>
      <use xlink:href="#DejaVuSans-30" x="63.623047"/>
     </g>
    </g>
   </g>
   <g id="text_20">
    <g clip-path="url(#pfbe4b33c96)">
     <!-- 50 -->
     <g transform="translate(240.24767 337.249881) rotate(-22.24532) scale(0.1 -0.1)">
      <use xlink:href="#DejaVuSans-35"/>
      <use xlink:href="#DejaVuSans-30" x="63.623047"/>
     </g>
    </g>
   </g>
  </g>
  <g id="axes_2">
   <g id="patch_7">
    <path d="M 322.031392 390.04 
L 562.657784 390.04 
L 562.657784 50.64 
L 322.031392 50.64 
z
" style="fill: #ffffff"/>
   </g>
   <g id="PathCollection_9">
    <path d="M 330.052272 390.04 
L 338.073152 390.04 
L 346.094031 390.04 
L 354.114911 390.04 
L 362.135791 390.04 
L 370.156671 390.04 
L 378.17755 390.04 
L 386.19843 390.04 
L 394.21931 390.04 
L 394.703911 390.04 
L 394.21931 388.569807 
L 386.19843 296.684172 
L 378.17755 277.625273 
L 370.156671 194.545821 
L 362.135791 204.641516 
L 354.114911 159.691168 
L 346.094031 100.734033 
L 338.073152 64.998741 
L 336.530361 50.64 
L 330.052272 50.64 
L 322.031392 50.64 
L 322.031392 390.04 
z
" clip-path="url(#pc5587706fa)" style="fill: #482475"/>
   </g>
   <g id="PathCollection_10">
    <path d="M 338.073152 64.998741 
L 346.094031 100.734033 
L 354.114911 159.691168 
L 362.135791 204.641516 
L 370.156671 194.545821 
L 378.17755 277.625273 
L 386.19843 296.684172 
L 394.21931 388.569807 
L 394.703911 390.04 
L 402.24019 390.04 
L 410.261069 390.04 
L 418.281949 390.04 
L 422.178447 390.04 
L 418.281949 339.860769 
L 410.261069 290.27399 
L 402.24019 244.08464 
L 394.21931 219.138118 
L 386.19843 116.19273 
L 378.17755 60.882249 
L 377.501869 50.64 
L 370.156671 50.64 
L 362.135791 50.64 
L 354.114911 50.64 
L 346.094031 50.64 
L 338.073152 50.64 
L 336.530361 50.64 
z
" clip-path="url(#pc5587706fa)" style="fill: #355f8d"/>
   </g>
   <g id="PathCollection_11">
    <path d="M 378.17755 60.882249 
L 386.19843 116.19273 
L 394.21931 219.138118 
L 402.24019 244.08464 
L 410.261069 290.27399 
L 418.281949 339.860769 
L 422.178447 390.04 
L 426.302829 390.04 
L 434.323708 390.04 
L 442.344588 390.04 
L 444.689439 390.04 
L 442.344588 372.787279 
L 434.323708 320.040413 
L 426.302829 216.854846 
L 418.281949 146.895893 
L 410.261069 123.276916 
L 402.24019 75.361137 
L 394.510013 50.64 
L 394.21931 50.64 
L 386.19843 50.64 
L 378.17755 50.64 
L 377.501869 50.64 
z
" clip-path="url(#pc5587706fa)" style="fill: #21918c"/>
   </g>
   <g id="PathCollection_12">
    <path d="M 402.24019 75.361137 
L 410.261069 123.276916 
L 418.281949 146.895893 
L 426.302829 216.854846 
L 434.323708 320.040413 
L 442.344588 372.787279 
L 444.689439 390.04 
L 450.365468 390.04 
L 458.386348 390.04 
L 466.407227 390.04 
L 474.428107 390.04 
L 482.448987 390.04 
L 490.469867 390.04 
L 498.490746 390.04 
L 506.511626 390.04 
L 514.532506 390.04 
L 522.553386 390.04 
L 530.574265 390.04 
L 538.595145 390.04 
L 546.616025 390.04 
L 554.636905 390.04 
L 562.657784 390.04 
L 562.657784 50.64 
L 554.636905 50.64 
L 546.616025 50.64 
L 538.595145 50.64 
L 530.574265 50.64 
L 522.553386 50.64 
L 514.532506 50.64 
L 506.511626 50.64 
L 498.490746 50.64 
L 490.469867 50.64 
L 482.448987 50.64 
L 474.428107 50.64 
L 466.407227 50.64 
L 460.325272 50.64 
L 458.386348 75.494313 
L 450.365468 85.87229 
L 445.940192 50.64 
L 442.344588 50.64 
L 434.323708 50.64 
L 426.302829 50.64 
L 418.281949 50.64 
L 410.261069 50.64 
L 402.24019 50.64 
L 394.510013 50.64 
z
" clip-path="url(#pc5587706fa)" style="fill: #44bf70"/>
   </g>
   <g id="PathCollection_13">
    <path d="M 450.365468 85.87229 
L 458.386348 75.494313 
L 460.325272 50.64 
L 458.386348 50.64 
L 450.365468 50.64 
L 445.940192 50.64 
z
" clip-path="url(#pc5587706fa)" style="fill: #bddf26"/>
   </g>
   <g id="matplotlib.axis_3">
    <g id="xtick_7">
     <g id="line2d_14">
      <g>
       <use xlink:href="#mb4f3ac5b77" x="322.031392" y="390.04" style="stroke: #000000; stroke-width: 0.8"/>
      </g>
     </g>
     <g id="text_21">
      <!-- −18 -->
      <g transform="translate(311.479048 404.638438) scale(0.1 -0.1)">
       <use xlink:href="#DejaVuSans-2212"/>
       <use xlink:href="#DejaVuSans-31" x="83.789062"/>
       <use xlink:href="#DejaVuSans-38" x="147.412109"/>
      </g>
     </g>
    </g>
    <g id="xtick_8">
     <g id="line2d_15">
      <g>
       <use xlink:href="#mb4f3ac5b77" x="370.156671" y="390.04" style="stroke: #000000; stroke-width: 0.8"/>
      </g>
     </g>
     <g id="text_22">
      <!-- −12 -->
      <g transform="translate(359.604327 404.638438) scale(0.1 -0.1)">
       <use xlink:href="#DejaVuSans-2212"/>
       <use xlink:href="#DejaVuSans-31" x="83.789062"/>
       <use xlink:href="#DejaVuSans-32" x="147.412109"/>
      </g>
     </g>
    </g>
    <g id="xtick_9">
     <g id="line2d_16">
      <g>
       <use xlink:href="#mb4f3ac5b77" x="418.281949" y="390.04" style="stroke: #000000; stroke-width: 0.8"/>
      </g>
     </g>
     <g id="text_23">
      <!-- −6 -->
      <g transform="translate(410.910855 404.638438) scale(0.1 -0.1)">
       <use xlink:href="#DejaVuSans-2212"/>
       <use xlink:href="#DejaVuSans-36" x="83.789062"/>
      </g>
     </g>
    </g>
    <g id="xtick_10">
     <g id="line2d_17">
      <g>
       <use xlink:href="#mb4f3ac5b77" x="466.407227" y="390.04" style="stroke: #000000; stroke-width: 0.8"/>
      </g>
     </g>
     <g id="text_24">
      <!-- 0 -->
      <g transform="translate(463.225977 404.638438) scale(0.1 -0.1)">
       <use xlink:href="#DejaVuSans-30"/>
      </g>
     </g>
    </g>
    <g id="xtick_11">
     <g id="line2d_18">
      <g>
       <use xlink:href="#mb4f3ac5b77" x="514.532506" y="390.04" style="stroke: #000000; stroke-width: 0.8"/>
      </g>
     </g>
     <g id="text_25">
      <!-- 6 -->
      <g transform="translate(511.351256 404.638438) scale(0.1 -0.1)">
       <use xlink:href="#DejaVuSans-36"/>
      </g>
     </g>
    </g>
    <g id="xtick_12">
     <g id="line2d_19">
      <g>
       <use xlink:href="#mb4f3ac5b77" x="562.657784" y="390.04" style="stroke: #000000; stroke-width: 0.8"/>
      </g>
     </g>
     <g id="text_26">
      <!-- 12 -->
      <g transform="translate(556.295284 404.638438) scale(0.1 -0.1)">
       <use xlink:href="#DejaVuSans-31"/>
       <use xlink:href="#DejaVuSans-32" x="63.623047"/>
      </g>
     </g>
    </g>
    <g id="text_27">
     <!-- SNR [dB] -->
     <g transform="translate(419.860213 418.316562) scale(0.1 -0.1)">
      <use xlink:href="#DejaVuSans-53"/>
      <use xlink:href="#DejaVuSans-4e" x="63.476562"/>
      <use xlink:href="#DejaVuSans-52" x="138.28125"/>
      <use xlink:href="#DejaVuSans-20" x="207.763672"/>
      <use xlink:href="#DejaVuSans-5b" x="239.550781"/>
      <use xlink:href="#DejaVuSans-64" x="278.564453"/>
      <use xlink:href="#DejaVuSans-42" x="342.041016"/>
      <use xlink:href="#DejaVuSans-5d" x="410.644531"/>
     </g>
    </g>
   </g>
   <g id="matplotlib.axis_4">
    <g id="ytick_8">
     <g id="line2d_20">
      <g>
       <use xlink:href="#md25c92fda5" x="322.031392" y="390.04" style="stroke: #000000; stroke-width: 0.8"/>
      </g>
     </g>
     <g id="text_28">
      <!-- 10 -->
      <g transform="translate(302.306392 393.839219) scale(0.1 -0.1)">
       <use xlink:href="#DejaVuSans-31"/>
       <use xlink:href="#DejaVuSans-30" x="63.623047"/>
      </g>
     </g>
    </g>
    <g id="ytick_9">
     <g id="line2d_21">
      <g>
       <use xlink:href="#md25c92fda5" x="322.031392" y="333.473333" style="stroke: #000000; stroke-width: 0.8"/>
      </g>
     </g>
     <g id="text_29">
      <!-- 20 -->
      <g transform="translate(302.306392 337.272552) scale(0.1 -0.1)">
       <use xlink:href="#DejaVuSans-32"/>
       <use xlink:href="#DejaVuSans-30" x="63.623047"/>
      </g>
     </g>
    </g>
    <g id="ytick_10">
     <g id="line2d_22">
      <g>
       <use xlink:href="#md25c92fda5" x="322.031392" y="276.906667" style="stroke: #000000; stroke-width: 0.8"/>
      </g>
     </g>
     <g id="text_30">
      <!-- 30 -->
      <g transform="translate(302.306392 280.705885) scale(0.1 -0.1)">
       <use xlink:href="#DejaVuSans-33"/>
       <use xlink:href="#DejaVuSans-30" x="63.623047"/>
      </g>
     </g>
    </g>
    <g id="ytick_11">
     <g id="line2d_23">
      <g>
       <use xlink:href="#md25c92fda5" x="322.031392" y="220.34" style="stroke: #000000; stroke-width: 0.8"/>
      </g>
     </g>
     <g id="text_31">
      <!-- 40 -->
      <g transform="translate(302.306392 224.139219) scale(0.1 -0.1)">
       <use xlink:href="#DejaVuSans-34"/>
       <use xlink:href="#DejaVuSans-30" x="63.623047"/>
      </g>
     </g>
    </g>
    <g id="ytick_12">
     <g id="line2d_24">
      <g>
       <use xlink:href="#md25c92fda5" x="322.031392" y="163.773333" style="stroke: #000000; stroke-width: 0.8"/>
      </g>
     </g>
     <g id="text_32">
      <!-- 50 -->
      <g transform="translate(302.306392 167.572552) scale(0.1 -0.1)">
       <use xlink:href="#DejaVuSans-35"/>
       <use xlink:href="#DejaVuSans-30" x="63.623047"/>
      </g>
     </g>
    </g>
    <g id="ytick_13">
     <g id="line2d_25">
      <g>
       <use xlink:href="#md25c92fda5" x="322.031392" y="107.206667" style="stroke: #000000; stroke-width: 0.8"/>
      </g>
     </g>
     <g id="text_33">
      <!-- 60 -->
      <g transform="translate(302.306392 111.005885) scale(0.1 -0.1)">
       <use xlink:href="#DejaVuSans-36"/>
       <use xlink:href="#DejaVuSans-30" x="63.623047"/>
      </g>
     </g>
    </g>
    <g id="ytick_14">
     <g id="line2d_26">
      <g>
       <use xlink:href="#md25c92fda5" x="322.031392" y="50.64" style="stroke: #000000; stroke-width: 0.8"/>
      </g>
     </g>
     <g id="text_34">
      <!-- 70 -->
      <g transform="translate(302.306392 54.439219) scale(0.1 -0.1)">
       <use xlink:href="#DejaVuSans-37"/>
       <use xlink:href="#DejaVuSans-30" x="63.623047"/>
      </g>
     </g>
    </g>
   </g>
   <g id="PathCollection_14">
    <path d="M 349.791426 50.64 
L 354.114911 86.70097 
L 362.135791 138.239638 
L 370.156671 120.565495 
L 377.391645 213.35967 
" clip-path="url(#pc5587706fa)" style="fill: none; stroke: #000000; stroke-width: 1.5"/>
    <path d="M 380.980203 233.265825 
L 386.19843 251.561312 
L 394.21931 346.211885 
L 402.24019 370.627268 
L 405.688246 390.04 
" clip-path="url(#pc5587706fa)" style="fill: none; stroke: #000000; stroke-width: 1.5"/>
   </g>
   <g id="PathCollection_15">
    <path d="M 387.936645 50.64 
L 394.21931 134.422273 
L 402.24019 159.722889 
L 408.556342 196.775081 
" clip-path="url(#pc5587706fa)" style="fill: none; stroke: #000000; stroke-width: 1.5"/>
    <path d="M 412.438412 216.711647 
L 418.281949 243.378331 
L 426.302829 336.334385 
L 429.858279 390.04 
" clip-path="url(#pc5587706fa)" style="fill: none; stroke: #000000; stroke-width: 1.5"/>
   </g>
   <g id="PathCollection_16">
    <path d="M 429.368689 50.64 
L 434.323708 78.917392 
L 442.344588 109.329314 
L 450.365468 172.174491 
L 454.11116 180.453412 
" clip-path="url(#pc5587706fa)" style="fill: none; stroke: #000000; stroke-width: 1.5"/>
    <path d="M 459.404723 179.837323 
L 466.407227 110.62661 
L 474.428107 76.8519 
L 480.192351 50.64 
" clip-path="url(#pc5587706fa)" style="fill: none; stroke: #000000; stroke-width: 1.5"/>
    <path d="M 483.738198 50.64 
L 490.469867 90.832307 
L 496.279512 64.740348 
" clip-path="url(#pc5587706fa)" style="fill: none; stroke: #000000; stroke-width: 1.5"/>
    <path d="M 513.5815 50.64 
L 514.532506 54.794356 
L 516.999774 50.64 
" clip-path="url(#pc5587706fa)" style="fill: none; stroke: #000000; stroke-width: 1.5"/>
   </g>
   <g id="PathCollection_17"/>
   <g id="patch_8">
    <path d="M 322.031392 390.04 
L 322.031392 50.64 
" style="fill: none; stroke: #000000; stroke-width: 0.8; stroke-linejoin: miter; stroke-linecap: square"/>
   </g>
   <g id="patch_9">
    <path d="M 562.657784 390.04 
L 562.657784 50.64 
" style="fill: none; stroke: #000000; stroke-width: 0.8; stroke-linejoin: miter; stroke-linecap: square"/>
   </g>
   <g id="patch_10">
    <path d="M 322.031392 390.04 
L 562.657784 390.04 
" style="fill: none; stroke: #000000; stroke-width: 0.8; stroke-linejoin: miter; stroke-linecap: square"/>
   </g>
   <g id="patch_11">
    <path d="M 322.031392 50.64 
L 562.657784 50.64 
" style="fill: none; stroke: #000000; stroke-width: 0.8; stroke-linejoin: miter; stroke-linecap: square"/>
   </g>
   <g id="text_35">
    <!-- Precision (TPR) [%] -->
    <g transform="translate(385.246151 44.64) scale(0.12 -0.12)">
     <defs>
      <path id="DejaVuSans-50" d="M 1259 4147 
L 1259 2394 
L 2053 2394 
Q 2494 2394 2734 2622 
Q 2975 2850 2975 3272 
Q 2975 3691 2734 3919 
Q 2494 4147 2053 4147 
L 1259 4147 
z
M 628 4666 
L 2053 4666 
Q 2838 4666 3239 4311 
Q 3641 3956 3641 3272 
Q 3641 2581 3239 2228 
Q 2838 1875 2053 1875 
L 1259 1875 
L 1259 0 
L 628 0 
L 628 4666 
z
" transform="scale(0.015625)"/>
      <path id="DejaVuSans-73" d="M 2834 3397 
L 2834 2853 
Q 2591 2978 2328 3040 
Q 2066 3103 1784 3103 
Q 1356 3103 1142 2972 
Q 928 2841 928 2578 
Q 928 2378 1081 2264 
Q 1234 2150 1697 2047 
L 1894 2003 
Q 2506 1872 2764 1633 
Q 3022 1394 3022 966 
Q 3022 478 2636 193 
Q 2250 -91 1575 -91 
Q 1294 -91 989 -36 
Q 684 19 347 128 
L 347 722 
Q 666 556 975 473 
Q 1284 391 1588 391 
Q 1994 391 2212 530 
Q 2431 669 2431 922 
Q 2431 1156 2273 1281 
Q 2116 1406 1581 1522 
L 1381 1569 
Q 847 1681 609 1914 
Q 372 2147 372 2553 
Q 372 3047 722 3315 
Q 1072 3584 1716 3584 
Q 2034 3584 2315 3537 
Q 2597 3491 2834 3397 
z
" transform="scale(0.015625)"/>
      <path id="DejaVuSans-6f" d="M 1959 3097 
Q 1497 3097 1228 2736 
Q 959 2375 959 1747 
Q 959 1119 1226 758 
Q 1494 397 1959 397 
Q 2419 397 2687 759 
Q 2956 1122 2956 1747 
Q 2956 2369 2687 2733 
Q 2419 3097 1959 3097 
z
M 1959 3584 
Q 2709 3584 3137 3096 
Q 3566 2609 3566 1747 
Q 3566 888 3137 398 
Q 2709 -91 1959 -91 
Q 1206 -91 779 398 
Q 353 888 353 1747 
Q 353 2609 779 3096 
Q 1206 3584 1959 3584 
z
" transform="scale(0.015625)"/>
      <path id="DejaVuSans-28" d="M 1984 4856 
Q 1566 4138 1362 3434 
Q 1159 2731 1159 2009 
Q 1159 1288 1364 580 
Q 1569 -128 1984 -844 
L 1484 -844 
Q 1016 -109 783 600 
Q 550 1309 550 2009 
Q 550 2706 781 3412 
Q 1013 4119 1484 4856 
L 1984 4856 
z
" transform="scale(0.015625)"/>
      <path id="DejaVuSans-54" d="M -19 4666 
L 3928 4666 
L 3928 4134 
L 2272 4134 
L 2272 0 
L 1638 0 
L 1638 4134 
L -19 4134 
L -19 4666 
z
" transform="scale(0.015625)"/>
      <path id="DejaVuSans-29" d="M 513 4856 
L 1013 4856 
Q 1481 4119 1714 3412 
Q 1947 2706 1947 2009 
Q 1947 1309 1714 600 
Q 1481 -109 1013 -844 
L 513 -844 
Q 928 -128 1133 580 
Q 1338 1288 1338 2009 
Q 1338 2731 1133 3434 
Q 928 4138 513 4856 
z
" transform="scale(0.015625)"/>
     </defs>
     <use xlink:href="#DejaVuSans-50"/>
     <use xlink:href="#DejaVuSans-72" x="58.552734"/>
     <use xlink:href="#DejaVuSans-65" x="97.416016"/>
     <use xlink:href="#DejaVuSans-63" x="158.939453"/>
     <use xlink:href="#DejaVuSans-69" x="213.919922"/>
     <use xlink:href="#DejaVuSans-73" x="241.703125"/>
     <use xlink:href="#DejaVuSans-69" x="293.802734"/>
     <use xlink:href="#DejaVuSans-6f" x="321.585938"/>
     <use xlink:href="#DejaVuSans-6e" x="382.767578"/>
     <use xlink:href="#DejaVuSans-20" x="446.146484"/>
     <use xlink:href="#DejaVuSans-28" x="477.933594"/>
     <use xlink:href="#DejaVuSans-54" x="516.947266"/>
     <use xlink:href="#DejaVuSans-50" x="578.03125"/>
     <use xlink:href="#DejaVuSans-52" x="638.333984"/>
     <use xlink:href="#DejaVuSans-29" x="707.816406"/>
     <use xlink:href="#DejaVuSans-20" x="746.830078"/>
     <use xlink:href="#DejaVuSans-5b" x="778.617188"/>
     <use xlink:href="#DejaVuSans-25" x="817.630859"/>
     <use xlink:href="#DejaVuSans-5d" x="912.650391"/>
    </g>
   </g>
   <g id="text_36">
    <g clip-path="url(#pc5587706fa)">
     <!-- 25 -->
     <g transform="translate(374.501759 217.558691) rotate(-278.561243) scale(0.1 -0.1)">
      <use xlink:href="#DejaVuSans-32"/>
      <use xlink:href="#DejaVuSans-35" x="63.623047"/>
     </g>
    </g>
   </g>
   <g id="text_37">
    <g clip-path="url(#pc5587706fa)">
     <!-- 50 -->
     <g transform="translate(406.516283 200.938319) rotate(-279.235951) scale(0.1 -0.1)">
      <use xlink:href="#DejaVuSans-35"/>
      <use xlink:href="#DejaVuSans-30" x="63.623047"/>
     </g>
    </g>
   </g>
   <g id="text_38">
    <g clip-path="url(#pc5587706fa)">
     <!-- 75 -->
     <g transform="translate(452.465642 193.513855) rotate(-7.934117) scale(0.1 -0.1)">
      <use xlink:href="#DejaVuSans-37"/>
      <use xlink:href="#DejaVuSans-35" x="63.623047"/>
     </g>
    </g>
   </g>
   <g id="text_39">
    <g clip-path="url(#pc5587706fa)">
     <!-- 75 -->
     <g transform="translate(500.082168 61.559407) rotate(-79.820021) scale(0.1 -0.1)">
      <use xlink:href="#DejaVuSans-37"/>
      <use xlink:href="#DejaVuSans-35" x="63.623047"/>
     </g>
    </g>
   </g>
  </g>
  <g id="axes_3">
   <g id="patch_12">
    <path d="M 599.492784 390.04 
L 791.993898 390.04 
L 791.993898 50.64 
L 599.492784 50.64 
z
" style="fill: #ffffff"/>
   </g>
   <g id="PathCollection_18">
    <path d="M 605.909488 390.04 
L 612.326192 390.04 
L 618.742896 390.04 
L 625.159599 390.04 
L 631.576303 390.04 
L 637.993007 390.04 
L 644.409711 390.04 
L 650.826415 390.04 
L 657.243118 390.04 
L 663.659822 390.04 
L 668.290433 390.04 
L 670.076526 331.297692 
L 676.49323 165.666778 
L 682.909934 53.484134 
L 683.028032 50.64 
L 682.909934 50.64 
L 676.49323 50.64 
L 670.076526 50.64 
L 663.659822 50.64 
L 657.243118 50.64 
L 650.826415 50.64 
L 644.409711 50.64 
L 637.993007 50.64 
L 631.576303 50.64 
L 625.159599 50.64 
L 618.742896 50.64 
L 612.326192 50.64 
L 605.909488 50.64 
L 599.492784 50.64 
L 599.492784 390.04 
z
" clip-path="url(#p3d1e699d0c)" style="fill: #482475"/>
   </g>
   <g id="PathCollection_19">
    <path d="M 670.076526 390.04 
L 676.49323 390.04 
L 682.909934 390.04 
L 682.985247 390.04 
L 689.326637 159.947568 
L 695.743341 112.245378 
L 700.272779 50.64 
L 695.743341 50.64 
L 689.326637 50.64 
L 683.028032 50.64 
L 682.909934 53.484134 
L 676.49323 165.666778 
L 670.076526 331.297692 
L 668.290433 390.04 
z
" clip-path="url(#p3d1e699d0c)" style="fill: #355f8d"/>
   </g>
   <g id="PathCollection_20">
    <path d="M 689.326637 356.701192 
L 695.743341 317.596639 
L 702.160045 229.420936 
L 708.576749 170.80753 
L 714.993453 148.226469 
L 721.410156 141.333664 
L 727.82686 73.946438 
L 729.195757 50.64 
L 727.82686 50.64 
L 721.410156 50.64 
L 714.993453 50.64 
L 708.576749 50.64 
L 702.160045 50.64 
L 700.272779 50.64 
L 695.743341 112.245378 
L 689.326637 159.947568 
L 682.985247 390.04 
L 688.407814 390.04 
z
" clip-path="url(#p3d1e699d0c)" style="fill: #21918c"/>
   </g>
   <g id="PathCollection_21">
    <path d="M 689.326637 390.04 
L 695.743341 390.04 
L 702.160045 390.04 
L 707.589564 390.04 
L 708.576749 381.833437 
L 711.004691 390.04 
L 714.993453 390.04 
L 721.410156 390.04 
L 727.82686 390.04 
L 734.243564 390.04 
L 740.660268 390.04 
L 747.076972 390.04 
L 753.493675 390.04 
L 759.910379 390.04 
L 766.327083 390.04 
L 772.743787 390.04 
L 779.16049 390.04 
L 785.577194 390.04 
L 791.993898 390.04 
L 791.993898 50.64 
L 785.577194 50.64 
L 779.16049 50.64 
L 772.743787 50.64 
L 766.327083 50.64 
L 759.910379 50.64 
L 753.493675 50.64 
L 747.076972 50.64 
L 740.660268 50.64 
L 734.243564 50.64 
L 729.195757 50.64 
L 727.82686 73.946438 
L 721.410156 141.333664 
L 714.993453 148.226469 
L 708.576749 170.80753 
L 702.160045 229.420936 
L 695.743341 317.596639 
L 689.326637 356.701192 
L 688.407814 390.04 
z
" clip-path="url(#p3d1e699d0c)" style="fill: #44bf70"/>
   </g>
   <g id="PathCollection_22">
    <path d="M 708.576749 390.04 
L 711.004691 390.04 
L 708.576749 381.833437 
L 707.589564 390.04 
z
" clip-path="url(#p3d1e699d0c)" style="fill: #bddf26"/>
   </g>
   <g id="matplotlib.axis_5">
    <g id="xtick_13">
     <g id="line2d_27">
      <g>
       <use xlink:href="#mb4f3ac5b77" x="599.492784" y="390.04" style="stroke: #000000; stroke-width: 0.8"/>
      </g>
     </g>
     <g id="text_40">
      <!-- −18 -->
      <g transform="translate(588.940441 404.638438) scale(0.1 -0.1)">
       <use xlink:href="#DejaVuSans-2212"/>
       <use xlink:href="#DejaVuSans-31" x="83.789062"/>
       <use xlink:href="#DejaVuSans-38" x="147.412109"/>
      </g>
     </g>
    </g>
    <g id="xtick_14">
     <g id="line2d_28">
      <g>
       <use xlink:href="#mb4f3ac5b77" x="637.993007" y="390.04" style="stroke: #000000; stroke-width: 0.8"/>
      </g>
     </g>
     <g id="text_41">
      <!-- −12 -->
      <g transform="translate(627.440663 404.638438) scale(0.1 -0.1)">
       <use xlink:href="#DejaVuSans-2212"/>
       <use xlink:href="#DejaVuSans-31" x="83.789062"/>
       <use xlink:href="#DejaVuSans-32" x="147.412109"/>
      </g>
     </g>
    </g>
    <g id="xtick_15">
     <g id="line2d_29">
      <g>
       <use xlink:href="#mb4f3ac5b77" x="676.49323" y="390.04" style="stroke: #000000; stroke-width: 0.8"/>
      </g>
     </g>
     <g id="text_42">
      <!-- −6 -->
      <g transform="translate(669.122136 404.638438) scale(0.1 -0.1)">
       <use xlink:href="#DejaVuSans-2212"/>
       <use xlink:href="#DejaVuSans-36" x="83.789062"/>
      </g>
     </g>
    </g>
    <g id="xtick_16">
     <g id="line2d_30">
      <g>
       <use xlink:href="#mb4f3ac5b77" x="714.993453" y="390.04" style="stroke: #000000; stroke-width: 0.8"/>
      </g>
     </g>
     <g id="text_43">
      <!-- 0 -->
      <g transform="translate(711.812203 404.638438) scale(0.1 -0.1)">
       <use xlink:href="#DejaVuSans-30"/>
      </g>
     </g>
    </g>
    <g id="xtick_17">
     <g id="line2d_31">
      <g>
       <use xlink:href="#mb4f3ac5b77" x="753.493675" y="390.04" style="stroke: #000000; stroke-width: 0.8"/>
      </g>
     </g>
     <g id="text_44">
      <!-- 6 -->
      <g transform="translate(750.312425 404.638438) scale(0.1 -0.1)">
       <use xlink:href="#DejaVuSans-36"/>
      </g>
     </g>
    </g>
    <g id="xtick_18">
     <g id="line2d_32">
      <g>
       <use xlink:href="#mb4f3ac5b77" x="791.993898" y="390.04" style="stroke: #000000; stroke-width: 0.8"/>
      </g>
     </g>
     <g id="text_45">
      <!-- 12 -->
      <g transform="translate(785.631398 404.638438) scale(0.1 -0.1)">
       <use xlink:href="#DejaVuSans-31"/>
       <use xlink:href="#DejaVuSans-32" x="63.623047"/>
      </g>
     </g>
    </g>
    <g id="text_46">
     <!-- SNR [dB] -->
     <g transform="translate(673.258966 418.316562) scale(0.1 -0.1)">
      <use xlink:href="#DejaVuSans-53"/>
      <use xlink:href="#DejaVuSans-4e" x="63.476562"/>
      <use xlink:href="#DejaVuSans-52" x="138.28125"/>
      <use xlink:href="#DejaVuSans-20" x="207.763672"/>
      <use xlink:href="#DejaVuSans-5b" x="239.550781"/>
      <use xlink:href="#DejaVuSans-64" x="278.564453"/>
      <use xlink:href="#DejaVuSans-42" x="342.041016"/>
      <use xlink:href="#DejaVuSans-5d" x="410.644531"/>
     </g>
    </g>
   </g>
   <g id="matplotlib.axis_6">
    <g id="ytick_15">
     <g id="line2d_33">
      <g>
       <use xlink:href="#md25c92fda5" x="599.492784" y="390.04" style="stroke: #000000; stroke-width: 0.8"/>
      </g>
     </g>
     <g id="text_47">
      <!-- 10 -->
      <g transform="translate(579.767784 393.839219) scale(0.1 -0.1)">
       <use xlink:href="#DejaVuSans-31"/>
       <use xlink:href="#DejaVuSans-30" x="63.623047"/>
      </g>
     </g>
    </g>
    <g id="ytick_16">
     <g id="line2d_34">
      <g>
       <use xlink:href="#md25c92fda5" x="599.492784" y="333.473333" style="stroke: #000000; stroke-width: 0.8"/>
      </g>
     </g>
     <g id="text_48">
      <!-- 20 -->
      <g transform="translate(579.767784 337.272552) scale(0.1 -0.1)">
       <use xlink:href="#DejaVuSans-32"/>
       <use xlink:href="#DejaVuSans-30" x="63.623047"/>
      </g>
     </g>
    </g>
    <g id="ytick_17">
     <g id="line2d_35">
      <g>
       <use xlink:href="#md25c92fda5" x="599.492784" y="276.906667" style="stroke: #000000; stroke-width: 0.8"/>
      </g>
     </g>
     <g id="text_49">
      <!-- 30 -->
      <g transform="translate(579.767784 280.705885) scale(0.1 -0.1)">
       <use xlink:href="#DejaVuSans-33"/>
       <use xlink:href="#DejaVuSans-30" x="63.623047"/>
      </g>
     </g>
    </g>
    <g id="ytick_18">
     <g id="line2d_36">
      <g>
       <use xlink:href="#md25c92fda5" x="599.492784" y="220.34" style="stroke: #000000; stroke-width: 0.8"/>
      </g>
     </g>
     <g id="text_50">
      <!-- 40 -->
      <g transform="translate(579.767784 224.139219) scale(0.1 -0.1)">
       <use xlink:href="#DejaVuSans-34"/>
       <use xlink:href="#DejaVuSans-30" x="63.623047"/>
      </g>
     </g>
    </g>
    <g id="ytick_19">
     <g id="line2d_37">
      <g>
       <use xlink:href="#md25c92fda5" x="599.492784" y="163.773333" style="stroke: #000000; stroke-width: 0.8"/>
      </g>
     </g>
     <g id="text_51">
      <!-- 50 -->
      <g transform="translate(579.767784 167.572552) scale(0.1 -0.1)">
       <use xlink:href="#DejaVuSans-35"/>
       <use xlink:href="#DejaVuSans-30" x="63.623047"/>
      </g>
     </g>
    </g>
    <g id="ytick_20">
     <g id="line2d_38">
      <g>
       <use xlink:href="#md25c92fda5" x="599.492784" y="107.206667" style="stroke: #000000; stroke-width: 0.8"/>
      </g>
     </g>
     <g id="text_52">
      <!-- 60 -->
      <g transform="translate(579.767784 111.005885) scale(0.1 -0.1)">
       <use xlink:href="#DejaVuSans-36"/>
       <use xlink:href="#DejaVuSans-30" x="63.623047"/>
      </g>
     </g>
    </g>
    <g id="ytick_21">
     <g id="line2d_39">
      <g>
       <use xlink:href="#md25c92fda5" x="599.492784" y="50.64" style="stroke: #000000; stroke-width: 0.8"/>
      </g>
     </g>
     <g id="text_53">
      <!-- 70 -->
      <g transform="translate(579.767784 54.439219) scale(0.1 -0.1)">
       <use xlink:href="#DejaVuSans-37"/>
       <use xlink:href="#DejaVuSans-30" x="63.623047"/>
      </g>
     </g>
    </g>
   </g>
   <g id="PathCollection_23">
    <path d="M 686.570998 50.64 
L 682.909934 138.808156 
L 676.91191 283.382578 
" clip-path="url(#p3d1e699d0c)" style="fill: none; stroke: #000000; stroke-width: 1.5"/>
    <path d="M 676.145038 303.568959 
L 673.162422 390.04 
" clip-path="url(#p3d1e699d0c)" style="fill: none; stroke: #000000; stroke-width: 1.5"/>
   </g>
   <g id="PathCollection_24">
    <path d="M 710.901641 50.64 
L 708.576749 65.294577 
L 702.160045 127.260401 
L 696.480593 204.849177 
" clip-path="url(#p3d1e699d0c)" style="fill: none; stroke: #000000; stroke-width: 1.5"/>
    <path d="M 694.267464 224.904023 
L 689.326637 258.32438 
L 685.69653 390.04 
" clip-path="url(#p3d1e699d0c)" style="fill: none; stroke: #000000; stroke-width: 1.5"/>
   </g>
   <g id="PathCollection_25">
    <path d="M 721.048652 390.04 
L 714.993453 341.964313 
L 713.039434 338.039848 
" clip-path="url(#p3d1e699d0c)" style="fill: none; stroke: #000000; stroke-width: 1.5"/>
    <path d="M 707.376486 339.100148 
L 702.160045 382.661739 
L 701.62532 390.04 
" clip-path="url(#p3d1e699d0c)" style="fill: none; stroke: #000000; stroke-width: 1.5"/>
   </g>
   <g id="PathCollection_26"/>
   <g id="patch_13">
    <path d="M 599.492784 390.04 
L 599.492784 50.64 
" style="fill: none; stroke: #000000; stroke-width: 0.8; stroke-linejoin: miter; stroke-linecap: square"/>
   </g>
   <g id="patch_14">
    <path d="M 791.993898 390.04 
L 791.993898 50.64 
" style="fill: none; stroke: #000000; stroke-width: 0.8; stroke-linejoin: miter; stroke-linecap: square"/>
   </g>
   <g id="patch_15">
    <path d="M 599.492784 390.04 
L 791.993898 390.04 
" style="fill: none; stroke: #000000; stroke-width: 0.8; stroke-linejoin: miter; stroke-linecap: square"/>
   </g>
   <g id="patch_16">
    <path d="M 599.492784 50.64 
L 791.993898 50.64 
" style="fill: none; stroke: #000000; stroke-width: 0.8; stroke-linejoin: miter; stroke-linecap: square"/>
   </g>
   <g id="text_54">
    <!-- Recall (FPR) [%] -->
    <g transform="translate(647.726466 44.64) scale(0.12 -0.12)">
     <defs>
      <path id="DejaVuSans-6c" d="M 603 4863 
L 1178 4863 
L 1178 0 
L 603 0 
L 603 4863 
z
" transform="scale(0.015625)"/>
     </defs>
     <use xlink:href="#DejaVuSans-52"/>
     <use xlink:href="#DejaVuSans-65" x="64.982422"/>
     <use xlink:href="#DejaVuSans-63" x="126.505859"/>
     <use xlink:href="#DejaVuSans-61" x="181.486328"/>
     <use xlink:href="#DejaVuSans-6c" x="242.765625"/>
     <use xlink:href="#DejaVuSans-6c" x="270.548828"/>
     <use xlink:href="#DejaVuSans-20" x="298.332031"/>
     <use xlink:href="#DejaVuSans-28" x="330.119141"/>
     <use xlink:href="#DejaVuSans-46" x="369.132812"/>
     <use xlink:href="#DejaVuSans-50" x="426.652344"/>
     <use xlink:href="#DejaVuSans-52" x="486.955078"/>
     <use xlink:href="#DejaVuSans-29" x="556.4375"/>
     <use xlink:href="#DejaVuSans-20" x="595.451172"/>
     <use xlink:href="#DejaVuSans-5b" x="627.238281"/>
     <use xlink:href="#DejaVuSans-25" x="666.251953"/>
     <use xlink:href="#DejaVuSans-5d" x="761.271484"/>
    </g>
   </g>
   <g id="text_55">
    <g clip-path="url(#p3d1e699d0c)">
     <!-- 25 -->
     <g transform="translate(678.998327 299.941152) rotate(-87.72909) scale(0.1 -0.1)">
      <use xlink:href="#DejaVuSans-32"/>
      <use xlink:href="#DejaVuSans-35" x="63.623047"/>
     </g>
    </g>
   </g>
   <g id="text_56">
    <g clip-path="url(#p3d1e699d0c)">
     <!-- 50 -->
     <g transform="translate(697.756485 221.557484) rotate(-83.42886) scale(0.1 -0.1)">
      <use xlink:href="#DejaVuSans-35"/>
      <use xlink:href="#DejaVuSans-30" x="63.623047"/>
     </g>
    </g>
   </g>
   <g id="text_57">
    <g clip-path="url(#p3d1e699d0c)">
     <!-- 75 -->
     <g transform="translate(702.801363 332.916293) rotate(-10.16891) scale(0.1 -0.1)">
      <use xlink:href="#DejaVuSans-37"/>
      <use xlink:href="#DejaVuSans-35" x="63.623047"/>
     </g>
    </g>
   </g>
  </g>
  <g id="axes_4">
   <g id="patch_17">
    <path d="M 804.025218 390.04 
L 820.995218 390.04 
L 820.995218 50.64 
L 804.025218 50.64 
z
" style="fill: #ffffff"/>
   </g>
   <g id="QuadMesh_1">
    <path d="M 804.025218 390.04 
L 820.995218 390.04 
L 820.995218 322.16 
L 804.025218 322.16 
L 804.025218 390.04 
" clip-path="url(#pc7df7b10e1)" style="fill: #482475"/>
    <path d="M 804.025218 322.16 
L 820.995218 322.16 
L 820.995218 254.28 
L 804.025218 254.28 
L 804.025218 322.16 
" clip-path="url(#pc7df7b10e1)" style="fill: #355f8d"/>
    <path d="M 804.025218 254.28 
L 820.995218 254.28 
L 820.995218 186.4 
L 804.025218 186.4 
L 804.025218 254.28 
" clip-path="url(#pc7df7b10e1)" style="fill: #21918c"/>
    <path d="M 804.025218 186.4 
L 820.995218 186.4 
L 820.995218 118.52 
L 804.025218 118.52 
L 804.025218 186.4 
" clip-path="url(#pc7df7b10e1)" style="fill: #44bf70"/>
    <path d="M 804.025218 118.52 
L 820.995218 118.52 
L 820.995218 50.64 
L 804.025218 50.64 
L 804.025218 118.52 
" clip-path="url(#pc7df7b10e1)" style="fill: #bddf26"/>
   </g>
   <g id="matplotlib.axis_7"/>
   <g id="matplotlib.axis_8">
    <g id="ytick_22">
     <g id="line2d_40">
      <defs>
       <path id="ma9d9c48b0b" d="M 0 0 
L 3.5 0 
" style="stroke: #000000; stroke-width: 0.8"/>
      </defs>
      <g>
       <use xlink:href="#ma9d9c48b0b" x="820.995218" y="390.04" style="stroke: #000000; stroke-width: 0.8"/>
      </g>
     </g>
     <g id="text_58">
      <!-- 0 -->
      <g transform="translate(827.995218 393.839219) scale(0.1 -0.1)">
       <use xlink:href="#DejaVuSans-30"/>
      </g>
     </g>
    </g>
    <g id="ytick_23">
     <g id="line2d_41">
      <g>
       <use xlink:href="#ma9d9c48b0b" x="820.995218" y="322.16" style="stroke: #000000; stroke-width: 0.8"/>
      </g>
     </g>
     <g id="text_59">
      <!-- 20 -->
      <g transform="translate(827.995218 325.959219) scale(0.1 -0.1)">
       <use xlink:href="#DejaVuSans-32"/>
       <use xlink:href="#DejaVuSans-30" x="63.623047"/>
      </g>
     </g>
    </g>
    <g id="ytick_24">
     <g id="line2d_42">
      <g>
       <use xlink:href="#ma9d9c48b0b" x="820.995218" y="254.28" style="stroke: #000000; stroke-width: 0.8"/>
      </g>
     </g>
     <g id="text_60">
      <!-- 40 -->
      <g transform="translate(827.995218 258.079219) scale(0.1 -0.1)">
       <use xlink:href="#DejaVuSans-34"/>
       <use xlink:href="#DejaVuSans-30" x="63.623047"/>
      </g>
     </g>
    </g>
    <g id="ytick_25">
     <g id="line2d_43">
      <g>
       <use xlink:href="#ma9d9c48b0b" x="820.995218" y="186.4" style="stroke: #000000; stroke-width: 0.8"/>
      </g>
     </g>
     <g id="text_61">
      <!-- 60 -->
      <g transform="translate(827.995218 190.199219) scale(0.1 -0.1)">
       <use xlink:href="#DejaVuSans-36"/>
       <use xlink:href="#DejaVuSans-30" x="63.623047"/>
      </g>
     </g>
    </g>
    <g id="ytick_26">
     <g id="line2d_44">
      <g>
       <use xlink:href="#ma9d9c48b0b" x="820.995218" y="118.52" style="stroke: #000000; stroke-width: 0.8"/>
      </g>
     </g>
     <g id="text_62">
      <!-- 80 -->
      <g transform="translate(827.995218 122.319219) scale(0.1 -0.1)">
       <use xlink:href="#DejaVuSans-38"/>
       <use xlink:href="#DejaVuSans-30" x="63.623047"/>
      </g>
     </g>
    </g>
    <g id="ytick_27">
     <g id="line2d_45">
      <g>
       <use xlink:href="#ma9d9c48b0b" x="820.995218" y="50.64" style="stroke: #000000; stroke-width: 0.8"/>
      </g>
     </g>
     <g id="text_63">
      <!-- 100 -->
      <g transform="translate(827.995218 54.439219) scale(0.1 -0.1)">
       <use xlink:href="#DejaVuSans-31"/>
       <use xlink:href="#DejaVuSans-30" x="63.623047"/>
       <use xlink:href="#DejaVuSans-30" x="127.246094"/>
      </g>
     </g>
    </g>
   </g>
   <g id="LineCollection_1"/>
   <g id="patch_18">
    <path d="M 804.025218 390.04 
L 812.510218 390.04 
L 820.995218 390.04 
L 820.995218 50.64 
L 812.510218 50.64 
L 804.025218 50.64 
L 804.025218 390.04 
z
" style="fill: none; stroke: #000000; stroke-width: 0.8; stroke-linejoin: miter; stroke-linecap: square"/>
   </g>
  </g>
  <g id="text_64">
   <!-- MTEO+RMS_BL -->
   <g transform="translate(386.001562 17.54625) scale(0.12 -0.12)">
    <defs>
     <path id="DejaVuSans-4d" d="M 628 4666 
L 1569 4666 
L 2759 1491 
L 3956 4666 
L 4897 4666 
L 4897 0 
L 4281 0 
L 4281 4097 
L 3078 897 
L 2444 897 
L 1241 4097 
L 1241 0 
L 628 0 
L 628 4666 
z
" transform="scale(0.015625)"/>
     <path id="DejaVuSans-45" d="M 628 4666 
L 3578 4666 
L 3578 4134 
L 1259 4134 
L 1259 2753 
L 3481 2753 
L 3481 2222 
L 1259 2222 
L 1259 531 
L 3634 531 
L 3634 0 
L 628 0 
L 628 4666 
z
" transform="scale(0.015625)"/>
     <path id="DejaVuSans-4f" d="M 2522 4238 
Q 1834 4238 1429 3725 
Q 1025 3213 1025 2328 
Q 1025 1447 1429 934 
Q 1834 422 2522 422 
Q 3209 422 3611 934 
Q 4013 1447 4013 2328 
Q 4013 3213 3611 3725 
Q 3209 4238 2522 4238 
z
M 2522 4750 
Q 3503 4750 4090 4092 
Q 4678 3434 4678 2328 
Q 4678 1225 4090 567 
Q 3503 -91 2522 -91 
Q 1538 -91 948 565 
Q 359 1222 359 2328 
Q 359 3434 948 4092 
Q 1538 4750 2522 4750 
z
" transform="scale(0.015625)"/>
     <path id="DejaVuSans-2b" d="M 2944 4013 
L 2944 2272 
L 4684 2272 
L 4684 1741 
L 2944 1741 
L 2944 0 
L 2419 0 
L 2419 1741 
L 678 1741 
L 678 2272 
L 2419 2272 
L 2419 4013 
L 2944 4013 
z
" transform="scale(0.015625)"/>
     <path id="DejaVuSans-5f" d="M 3263 -1063 
L 3263 -1509 
L -63 -1509 
L -63 -1063 
L 3263 -1063 
z
" transform="scale(0.015625)"/>
     <path id="DejaVuSans-4c" d="M 628 4666 
L 1259 4666 
L 1259 531 
L 3531 531 
L 3531 0 
L 628 0 
L 628 4666 
z
" transform="scale(0.015625)"/>
    </defs>
    <use xlink:href="#DejaVuSans-4d"/>
    <use xlink:href="#DejaVuSans-54" x="86.279297"/>
    <use xlink:href="#DejaVuSans-45" x="147.363281"/>
    <use xlink:href="#DejaVuSans-4f" x="210.546875"/>
    <use xlink:href="#DejaVuSans-2b" x="289.257812"/>
    <use xlink:href="#DejaVuSans-52" x="373.046875"/>
    <use xlink:href="#DejaVuSans-4d" x="442.529297"/>
    <use xlink:href="#DejaVuSans-53" x="528.808594"/>
    <use xlink:href="#DejaVuSans-5f" x="592.285156"/>
    <use xlink:href="#DejaVuSans-42" x="642.285156"/>
    <use xlink:href="#DejaVuSans-4c" x="710.888672"/>
   </g>
  </g>
 </g>
 <defs>
  <clipPath id="pfbe4b33c96">
   <rect x="44.57" y="50.64" width="240.626392" height="339.4"/>
  </clipPath>
  <clipPath id="pc5587706fa">
   <rect x="322.031392" y="50.64" width="240.626392" height="339.4"/>
  </clipPath>
  <clipPath id="p3d1e699d0c">
   <rect x="599.492784" y="50.64" width="192.501114" height="339.4"/>
  </clipPath>
  <clipPath id="pc7df7b10e1">
   <rect x="804.025218" y="50.64" width="16.97" height="339.4"/>
  </clipPath>
 </defs>
</svg>
