<?xml version="1.0" encoding="utf-8" standalone="no"?>
<!DOCTYPE svg PUBLIC "-//W3C//DTD SVG 1.1//EN"
  "http://www.w3.org/Graphics/SVG/1.1/DTD/svg11.dtd">
<svg xmlns:xlink="http://www.w3.org/1999/xlink" width="864pt" height="432pt" viewBox="0 0 864 432" xmlns="http://www.w3.org/2000/svg" version="1.1">
 <metadata>
  <rdf:RDF xmlns:dc="http://purl.org/dc/elements/1.1/" xmlns:cc="http://creativecommons.org/ns#" xmlns:rdf="http://www.w3.org/1999/02/22-rdf-syntax-ns#">
   <cc:Work>
    <dc:type rdf:resource="http://purl.org/dc/dcmitype/StillImage"/>
    <dc:date>2023-10-05T23:39:49.942724</dc:date>
    <dc:format>image/svg+xml</dc:format>
    <dc:creator>
     <cc:Agent>
      <dc:title>Matplotlib v3.7.2, https://matplotlib.org/</dc:title>
     </cc:Agent>
    </dc:creator>
   </cc:Work>
  </rdf:RDF>
 </metadata>
 <defs>
  <style type="text/css">*{stroke-linejoin: round; stroke-linecap: butt}</style>
 </defs>
 <g id="figure_1">
  <g id="patch_1">
   <path d="M 0 432 
L 864 432 
L 864 0 
L 0 0 
z
" style="fill: #ffffff"/>
  </g>
  <g id="axes_1">
   <g id="patch_2">
    <path d="M 50.87 390.04 
L 285.196392 390.04 
L 285.196392 50.83125 
L 50.87 50.83125 
z
" style="fill: #ffffff"/>
   </g>
   <g id="PathCollection_1">
    <path d="M 63.202968 390.04 
L 75.535936 390.04 
L 87.868904 390.04 
L 100.201872 390.04 
L 112.53484 390.04 
L 124.867808 390.04 
L 137.200776 390.04 
L 149.533744 390.04 
L 161.866712 390.04 
L 174.19968 390.04 
L 186.532648 390.04 
L 197.069813 390.04 
L 196.606065 379.051534 
L 190.443478 364.859384 
L 187.146323 346.529517 
L 191.72156 322.855584 
L 193.081661 292.279523 
L 190.376042 252.789023 
L 190.336546 201.78508 
L 192.733784 135.910954 
L 190.399369 50.83125 
L 186.532648 50.83125 
L 174.19968 50.83125 
L 161.866712 50.83125 
L 149.533744 50.83125 
L 137.200776 50.83125 
L 124.867808 50.83125 
L 112.53484 50.83125 
L 100.201872 50.83125 
L 87.868904 50.83125 
L 75.535936 50.83125 
L 63.202968 50.83125 
L 50.87 50.83125 
L 50.87 135.910954 
L 50.87 201.78508 
L 50.87 252.789023 
L 50.87 292.279523 
L 50.87 322.855584 
L 50.87 346.529517 
L 50.87 364.859384 
L 50.87 379.051534 
L 50.87 390.04 
z
" clip-path="url(#p6c259e2d78)" style="fill: #482475"/>
   </g>
   <g id="PathCollection_2">
    <path d="M 198.865616 390.04 
L 209.50641 390.04 
L 211.198584 388.32812 
L 223.531552 383.401498 
L 235.86452 379.828253 
L 245.952001 379.051534 
L 235.86452 375.655795 
L 223.531552 366.798571 
L 222.152828 364.859384 
L 211.198584 360.405 
L 201.670815 346.529517 
L 210.513634 322.855584 
L 210.061177 292.279523 
L 211.198584 284.172379 
L 217.214068 252.789023 
L 211.198584 223.967675 
L 208.61879 201.78508 
L 211.198584 185.797125 
L 221.964135 135.910954 
L 222.839727 50.83125 
L 211.198584 50.83125 
L 198.865616 50.83125 
L 190.399369 50.83125 
L 192.733784 135.910954 
L 190.336546 201.78508 
L 190.376042 252.789023 
L 193.081661 292.279523 
L 191.72156 322.855584 
L 187.146323 346.529517 
L 190.443478 364.859384 
L 196.606065 379.051534 
L 197.069813 390.04 
z
" clip-path="url(#p6c259e2d78)" style="fill: #355f8d"/>
   </g>
   <g id="PathCollection_3">
    <path d="M 211.198584 390.04 
L 223.531552 390.04 
L 231.032623 390.04 
L 235.86452 388.494801 
L 248.197488 384.180597 
L 260.530456 382.524825 
L 272.863424 381.827491 
L 285.196392 380.906084 
L 285.196392 379.051534 
L 285.196392 364.859384 
L 285.196392 361.651657 
L 272.863424 361.510223 
L 260.530456 360.887445 
L 248.197488 359.482281 
L 235.86452 359.17964 
L 223.531552 355.216657 
L 211.198584 352.929828 
L 206.803733 346.529517 
L 211.198584 335.351412 
L 223.531552 331.489504 
L 235.86452 327.914724 
L 248.197488 326.073003 
L 260.530456 324.23691 
L 272.863424 325.644568 
L 285.196392 324.952418 
L 285.196392 322.855584 
L 285.196392 292.279523 
L 285.196392 252.789023 
L 285.196392 201.78508 
L 285.196392 135.910954 
L 285.196392 50.83125 
L 272.863424 50.83125 
L 260.530456 50.83125 
L 248.197488 50.83125 
L 235.86452 50.83125 
L 223.531552 50.83125 
L 222.839727 50.83125 
L 221.964135 135.910954 
L 211.198584 185.797125 
L 208.61879 201.78508 
L 211.198584 223.967675 
L 217.214068 252.789023 
L 211.198584 284.172379 
L 210.061177 292.279523 
L 210.513634 322.855584 
L 201.670815 346.529517 
L 211.198584 360.405 
L 222.152828 364.859384 
L 223.531552 366.798571 
L 235.86452 375.655795 
L 245.952001 379.051534 
L 235.86452 379.828253 
L 223.531552 383.401498 
L 211.198584 388.32812 
L 209.50641 390.04 
z
" clip-path="url(#p6c259e2d78)" style="fill: #21918c"/>
   </g>
   <g id="PathCollection_4">
    <path d="M 235.86452 390.04 
L 246.630476 390.04 
L 248.197488 389.41407 
L 260.530456 387.51068 
L 272.863424 387.141468 
L 285.196392 387.437325 
L 285.196392 380.906084 
L 272.863424 381.827491 
L 260.530456 382.524825 
L 248.197488 384.180597 
L 235.86452 388.494801 
L 231.032623 390.04 
z
" clip-path="url(#p6c259e2d78)" style="fill: #44bf70"/>
    <path d="M 211.198584 352.929828 
L 223.531552 355.216657 
L 235.86452 359.17964 
L 248.197488 359.482281 
L 260.530456 360.887445 
L 272.863424 361.510223 
L 285.196392 361.651657 
L 285.196392 354.090587 
L 272.863424 354.01987 
L 260.530456 353.489164 
L 248.197488 352.088764 
L 235.86452 351.236539 
L 226.238789 346.529517 
L 235.86452 339.603082 
L 248.197488 337.749706 
L 260.530456 335.723732 
L 272.863424 336.087042 
L 285.196392 335.740967 
L 285.196392 324.952418 
L 272.863424 325.644568 
L 260.530456 324.23691 
L 248.197488 326.073003 
L 235.86452 327.914724 
L 223.531552 331.489504 
L 211.198584 335.351412 
L 206.803733 346.529517 
z
" clip-path="url(#p6c259e2d78)" style="fill: #44bf70"/>
   </g>
   <g id="PathCollection_5">
    <path d="M 248.197488 390.04 
L 260.530456 390.04 
L 272.863424 390.04 
L 285.196392 390.04 
L 285.196392 387.437325 
L 272.863424 387.141468 
L 260.530456 387.51068 
L 248.197488 389.41407 
L 246.630476 390.04 
z
" clip-path="url(#p6c259e2d78)" style="fill: #bddf26"/>
    <path d="M 235.86452 351.236539 
L 248.197488 352.088764 
L 260.530456 353.489164 
L 272.863424 354.01987 
L 285.196392 354.090587 
L 285.196392 346.529517 
L 285.196392 335.740967 
L 272.863424 336.087042 
L 260.530456 335.723732 
L 248.197488 337.749706 
L 235.86452 339.603082 
L 226.238789 346.529517 
z
" clip-path="url(#p6c259e2d78)" style="fill: #bddf26"/>
   </g>
   <g id="matplotlib.axis_1">
    <g id="xtick_1">
     <g id="line2d_1">
      <defs>
       <path id="m35b26cf881" d="M 0 0 
L 0 3.5 
" style="stroke: #000000; stroke-width: 0.8"/>
      </defs>
      <g>
       <use xlink:href="#m35b26cf881" x="50.87" y="390.04" style="stroke: #000000; stroke-width: 0.8"/>
      </g>
     </g>
     <g id="text_1">
      <!-- −18 -->
      <g transform="translate(40.317656 404.638438) scale(0.1 -0.1)">
       <defs>
        <path id="DejaVuSans-2212" d="M 678 2272 
L 4684 2272 
L 4684 1741 
L 678 1741 
L 678 2272 
z
" transform="scale(0.015625)"/>
        <path id="DejaVuSans-31" d="M 794 531 
L 1825 531 
L 1825 4091 
L 703 3866 
L 703 4441 
L 1819 4666 
L 2450 4666 
L 2450 531 
L 3481 531 
L 3481 0 
L 794 0 
L 794 531 
z
" transform="scale(0.015625)"/>
        <path id="DejaVuSans-38" d="M 2034 2216 
Q 1584 2216 1326 1975 
Q 1069 1734 1069 1313 
Q 1069 891 1326 650 
Q 1584 409 2034 409 
Q 2484 409 2743 651 
Q 3003 894 3003 1313 
Q 3003 1734 2745 1975 
Q 2488 2216 2034 2216 
z
M 1403 2484 
Q 997 2584 770 2862 
Q 544 3141 544 3541 
Q 544 4100 942 4425 
Q 1341 4750 2034 4750 
Q 2731 4750 3128 4425 
Q 3525 4100 3525 3541 
Q 3525 3141 3298 2862 
Q 3072 2584 2669 2484 
Q 3125 2378 3379 2068 
Q 3634 1759 3634 1313 
Q 3634 634 3220 271 
Q 2806 -91 2034 -91 
Q 1263 -91 848 271 
Q 434 634 434 1313 
Q 434 1759 690 2068 
Q 947 2378 1403 2484 
z
M 1172 3481 
Q 1172 3119 1398 2916 
Q 1625 2713 2034 2713 
Q 2441 2713 2670 2916 
Q 2900 3119 2900 3481 
Q 2900 3844 2670 4047 
Q 2441 4250 2034 4250 
Q 1625 4250 1398 4047 
Q 1172 3844 1172 3481 
z
" transform="scale(0.015625)"/>
       </defs>
       <use xlink:href="#DejaVuSans-2212"/>
       <use xlink:href="#DejaVuSans-31" x="83.789062"/>
       <use xlink:href="#DejaVuSans-38" x="147.412109"/>
      </g>
     </g>
    </g>
    <g id="xtick_2">
     <g id="line2d_2">
      <g>
       <use xlink:href="#m35b26cf881" x="97.735278" y="390.04" style="stroke: #000000; stroke-width: 0.8"/>
      </g>
     </g>
     <g id="text_2">
      <!-- −12 -->
      <g transform="translate(87.182935 404.638438) scale(0.1 -0.1)">
       <defs>
        <path id="DejaVuSans-32" d="M 1228 531 
L 3431 531 
L 3431 0 
L 469 0 
L 469 531 
Q 828 903 1448 1529 
Q 2069 2156 2228 2338 
Q 2531 2678 2651 2914 
Q 2772 3150 2772 3378 
Q 2772 3750 2511 3984 
Q 2250 4219 1831 4219 
Q 1534 4219 1204 4116 
Q 875 4013 500 3803 
L 500 4441 
Q 881 4594 1212 4672 
Q 1544 4750 1819 4750 
Q 2544 4750 2975 4387 
Q 3406 4025 3406 3419 
Q 3406 3131 3298 2873 
Q 3191 2616 2906 2266 
Q 2828 2175 2409 1742 
Q 1991 1309 1228 531 
z
" transform="scale(0.015625)"/>
       </defs>
       <use xlink:href="#DejaVuSans-2212"/>
       <use xlink:href="#DejaVuSans-31" x="83.789062"/>
       <use xlink:href="#DejaVuSans-32" x="147.412109"/>
      </g>
     </g>
    </g>
    <g id="xtick_3">
     <g id="line2d_3">
      <g>
       <use xlink:href="#m35b26cf881" x="144.600557" y="390.04" style="stroke: #000000; stroke-width: 0.8"/>
      </g>
     </g>
     <g id="text_3">
      <!-- −6 -->
      <g transform="translate(137.229463 404.638438) scale(0.1 -0.1)">
       <defs>
        <path id="DejaVuSans-36" d="M 2113 2584 
Q 1688 2584 1439 2293 
Q 1191 2003 1191 1497 
Q 1191 994 1439 701 
Q 1688 409 2113 409 
Q 2538 409 2786 701 
Q 3034 994 3034 1497 
Q 3034 2003 2786 2293 
Q 2538 2584 2113 2584 
z
M 3366 4563 
L 3366 3988 
Q 3128 4100 2886 4159 
Q 2644 4219 2406 4219 
Q 1781 4219 1451 3797 
Q 1122 3375 1075 2522 
Q 1259 2794 1537 2939 
Q 1816 3084 2150 3084 
Q 2853 3084 3261 2657 
Q 3669 2231 3669 1497 
Q 3669 778 3244 343 
Q 2819 -91 2113 -91 
Q 1303 -91 875 529 
Q 447 1150 447 2328 
Q 447 3434 972 4092 
Q 1497 4750 2381 4750 
Q 2619 4750 2861 4703 
Q 3103 4656 3366 4563 
z
" transform="scale(0.015625)"/>
       </defs>
       <use xlink:href="#DejaVuSans-2212"/>
       <use xlink:href="#DejaVuSans-36" x="83.789062"/>
      </g>
     </g>
    </g>
    <g id="xtick_4">
     <g id="line2d_4">
      <g>
       <use xlink:href="#m35b26cf881" x="191.465835" y="390.04" style="stroke: #000000; stroke-width: 0.8"/>
      </g>
     </g>
     <g id="text_4">
      <!-- 0 -->
      <g transform="translate(188.284585 404.638438) scale(0.1 -0.1)">
       <defs>
        <path id="DejaVuSans-30" d="M 2034 4250 
Q 1547 4250 1301 3770 
Q 1056 3291 1056 2328 
Q 1056 1369 1301 889 
Q 1547 409 2034 409 
Q 2525 409 2770 889 
Q 3016 1369 3016 2328 
Q 3016 3291 2770 3770 
Q 2525 4250 2034 4250 
z
M 2034 4750 
Q 2819 4750 3233 4129 
Q 3647 3509 3647 2328 
Q 3647 1150 3233 529 
Q 2819 -91 2034 -91 
Q 1250 -91 836 529 
Q 422 1150 422 2328 
Q 422 3509 836 4129 
Q 1250 4750 2034 4750 
z
" transform="scale(0.015625)"/>
       </defs>
       <use xlink:href="#DejaVuSans-30"/>
      </g>
     </g>
    </g>
    <g id="xtick_5">
     <g id="line2d_5">
      <g>
       <use xlink:href="#m35b26cf881" x="238.331114" y="390.04" style="stroke: #000000; stroke-width: 0.8"/>
      </g>
     </g>
     <g id="text_5">
      <!-- 6 -->
      <g transform="translate(235.149864 404.638438) scale(0.1 -0.1)">
       <use xlink:href="#DejaVuSans-36"/>
      </g>
     </g>
    </g>
    <g id="xtick_6">
     <g id="line2d_6">
      <g>
       <use xlink:href="#m35b26cf881" x="285.196392" y="390.04" style="stroke: #000000; stroke-width: 0.8"/>
      </g>
     </g>
     <g id="text_6">
      <!-- 12 -->
      <g transform="translate(278.833892 404.638438) scale(0.1 -0.1)">
       <use xlink:href="#DejaVuSans-31"/>
       <use xlink:href="#DejaVuSans-32" x="63.623047"/>
      </g>
     </g>
    </g>
    <g id="text_7">
     <!-- SNR [dB] -->
     <g transform="translate(145.548821 418.316562) scale(0.1 -0.1)">
      <defs>
       <path id="DejaVuSans-53" d="M 3425 4513 
L 3425 3897 
Q 3066 4069 2747 4153 
Q 2428 4238 2131 4238 
Q 1616 4238 1336 4038 
Q 1056 3838 1056 3469 
Q 1056 3159 1242 3001 
Q 1428 2844 1947 2747 
L 2328 2669 
Q 3034 2534 3370 2195 
Q 3706 1856 3706 1288 
Q 3706 609 3251 259 
Q 2797 -91 1919 -91 
Q 1588 -91 1214 -16 
Q 841 59 441 206 
L 441 856 
Q 825 641 1194 531 
Q 1563 422 1919 422 
Q 2459 422 2753 634 
Q 3047 847 3047 1241 
Q 3047 1584 2836 1778 
Q 2625 1972 2144 2069 
L 1759 2144 
Q 1053 2284 737 2584 
Q 422 2884 422 3419 
Q 422 4038 858 4394 
Q 1294 4750 2059 4750 
Q 2388 4750 2728 4690 
Q 3069 4631 3425 4513 
z
" transform="scale(0.015625)"/>
       <path id="DejaVuSans-4e" d="M 628 4666 
L 1478 4666 
L 3547 763 
L 3547 4666 
L 4159 4666 
L 4159 0 
L 3309 0 
L 1241 3903 
L 1241 0 
L 628 0 
L 628 4666 
z
" transform="scale(0.015625)"/>
       <path id="DejaVuSans-52" d="M 2841 2188 
Q 3044 2119 3236 1894 
Q 3428 1669 3622 1275 
L 4263 0 
L 3584 0 
L 2988 1197 
Q 2756 1666 2539 1819 
Q 2322 1972 1947 1972 
L 1259 1972 
L 1259 0 
L 628 0 
L 628 4666 
L 2053 4666 
Q 2853 4666 3247 4331 
Q 3641 3997 3641 3322 
Q 3641 2881 3436 2590 
Q 3231 2300 2841 2188 
z
M 1259 4147 
L 1259 2491 
L 2053 2491 
Q 2509 2491 2742 2702 
Q 2975 2913 2975 3322 
Q 2975 3731 2742 3939 
Q 2509 4147 2053 4147 
L 1259 4147 
z
" transform="scale(0.015625)"/>
       <path id="DejaVuSans-20" transform="scale(0.015625)"/>
       <path id="DejaVuSans-5b" d="M 550 4863 
L 1875 4863 
L 1875 4416 
L 1125 4416 
L 1125 -397 
L 1875 -397 
L 1875 -844 
L 550 -844 
L 550 4863 
z
" transform="scale(0.015625)"/>
       <path id="DejaVuSans-64" d="M 2906 2969 
L 2906 4863 
L 3481 4863 
L 3481 0 
L 2906 0 
L 2906 525 
Q 2725 213 2448 61 
Q 2172 -91 1784 -91 
Q 1150 -91 751 415 
Q 353 922 353 1747 
Q 353 2572 751 3078 
Q 1150 3584 1784 3584 
Q 2172 3584 2448 3432 
Q 2725 3281 2906 2969 
z
M 947 1747 
Q 947 1113 1208 752 
Q 1469 391 1925 391 
Q 2381 391 2643 752 
Q 2906 1113 2906 1747 
Q 2906 2381 2643 2742 
Q 2381 3103 1925 3103 
Q 1469 3103 1208 2742 
Q 947 2381 947 1747 
z
" transform="scale(0.015625)"/>
       <path id="DejaVuSans-42" d="M 1259 2228 
L 1259 519 
L 2272 519 
Q 2781 519 3026 730 
Q 3272 941 3272 1375 
Q 3272 1813 3026 2020 
Q 2781 2228 2272 2228 
L 1259 2228 
z
M 1259 4147 
L 1259 2741 
L 2194 2741 
Q 2656 2741 2882 2914 
Q 3109 3088 3109 3444 
Q 3109 3797 2882 3972 
Q 2656 4147 2194 4147 
L 1259 4147 
z
M 628 4666 
L 2241 4666 
Q 2963 4666 3353 4366 
Q 3744 4066 3744 3513 
Q 3744 3084 3544 2831 
Q 3344 2578 2956 2516 
Q 3422 2416 3680 2098 
Q 3938 1781 3938 1306 
Q 3938 681 3513 340 
Q 3088 0 2303 0 
L 628 0 
L 628 4666 
z
" transform="scale(0.015625)"/>
       <path id="DejaVuSans-5d" d="M 1947 4863 
L 1947 -844 
L 622 -844 
L 622 -397 
L 1369 -397 
L 1369 4416 
L 622 4416 
L 622 4863 
L 1947 4863 
z
" transform="scale(0.015625)"/>
      </defs>
      <use xlink:href="#DejaVuSans-53"/>
      <use xlink:href="#DejaVuSans-4e" x="63.476562"/>
      <use xlink:href="#DejaVuSans-52" x="138.28125"/>
      <use xlink:href="#DejaVuSans-20" x="207.763672"/>
      <use xlink:href="#DejaVuSans-5b" x="239.550781"/>
      <use xlink:href="#DejaVuSans-64" x="278.564453"/>
      <use xlink:href="#DejaVuSans-42" x="342.041016"/>
      <use xlink:href="#DejaVuSans-5d" x="410.644531"/>
     </g>
    </g>
   </g>
   <g id="matplotlib.axis_2">
    <g id="ytick_1">
     <g id="line2d_7">
      <defs>
       <path id="m6452750767" d="M 0 0 
L -3.5 0 
" style="stroke: #000000; stroke-width: 0.8"/>
      </defs>
      <g>
       <use xlink:href="#m6452750767" x="50.87" y="390.04" style="stroke: #000000; stroke-width: 0.8"/>
      </g>
     </g>
     <g id="text_8">
      <!-- 10 -->
      <g transform="translate(31.145 393.839219) scale(0.1 -0.1)">
       <use xlink:href="#DejaVuSans-31"/>
       <use xlink:href="#DejaVuSans-30" x="63.623047"/>
      </g>
     </g>
    </g>
    <g id="ytick_2">
     <g id="line2d_8">
      <g>
       <use xlink:href="#m6452750767" x="50.87" y="352.350139" style="stroke: #000000; stroke-width: 0.8"/>
      </g>
     </g>
     <g id="text_9">
      <!-- 20 -->
      <g transform="translate(31.145 356.149358) scale(0.1 -0.1)">
       <use xlink:href="#DejaVuSans-32"/>
       <use xlink:href="#DejaVuSans-30" x="63.623047"/>
      </g>
     </g>
    </g>
    <g id="ytick_3">
     <g id="line2d_9">
      <g>
       <use xlink:href="#m6452750767" x="50.87" y="314.660278" style="stroke: #000000; stroke-width: 0.8"/>
      </g>
     </g>
     <g id="text_10">
      <!-- 30 -->
      <g transform="translate(31.145 318.459497) scale(0.1 -0.1)">
       <defs>
        <path id="DejaVuSans-33" d="M 2597 2516 
Q 3050 2419 3304 2112 
Q 3559 1806 3559 1356 
Q 3559 666 3084 287 
Q 2609 -91 1734 -91 
Q 1441 -91 1130 -33 
Q 819 25 488 141 
L 488 750 
Q 750 597 1062 519 
Q 1375 441 1716 441 
Q 2309 441 2620 675 
Q 2931 909 2931 1356 
Q 2931 1769 2642 2001 
Q 2353 2234 1838 2234 
L 1294 2234 
L 1294 2753 
L 1863 2753 
Q 2328 2753 2575 2939 
Q 2822 3125 2822 3475 
Q 2822 3834 2567 4026 
Q 2313 4219 1838 4219 
Q 1578 4219 1281 4162 
Q 984 4106 628 3988 
L 628 4550 
Q 988 4650 1302 4700 
Q 1616 4750 1894 4750 
Q 2613 4750 3031 4423 
Q 3450 4097 3450 3541 
Q 3450 3153 3228 2886 
Q 3006 2619 2597 2516 
z
" transform="scale(0.015625)"/>
       </defs>
       <use xlink:href="#DejaVuSans-33"/>
       <use xlink:href="#DejaVuSans-30" x="63.623047"/>
      </g>
     </g>
    </g>
    <g id="ytick_4">
     <g id="line2d_10">
      <g>
       <use xlink:href="#m6452750767" x="50.87" y="276.970417" style="stroke: #000000; stroke-width: 0.8"/>
      </g>
     </g>
     <g id="text_11">
      <!-- 40 -->
      <g transform="translate(31.145 280.769635) scale(0.1 -0.1)">
       <defs>
        <path id="DejaVuSans-34" d="M 2419 4116 
L 825 1625 
L 2419 1625 
L 2419 4116 
z
M 2253 4666 
L 3047 4666 
L 3047 1625 
L 3713 1625 
L 3713 1100 
L 3047 1100 
L 3047 0 
L 2419 0 
L 2419 1100 
L 313 1100 
L 313 1709 
L 2253 4666 
z
" transform="scale(0.015625)"/>
       </defs>
       <use xlink:href="#DejaVuSans-34"/>
       <use xlink:href="#DejaVuSans-30" x="63.623047"/>
      </g>
     </g>
    </g>
    <g id="ytick_5">
     <g id="line2d_11">
      <g>
       <use xlink:href="#m6452750767" x="50.87" y="239.280556" style="stroke: #000000; stroke-width: 0.8"/>
      </g>
     </g>
     <g id="text_12">
      <!-- 50 -->
      <g transform="translate(31.145 243.079774) scale(0.1 -0.1)">
       <defs>
        <path id="DejaVuSans-35" d="M 691 4666 
L 3169 4666 
L 3169 4134 
L 1269 4134 
L 1269 2991 
Q 1406 3038 1543 3061 
Q 1681 3084 1819 3084 
Q 2600 3084 3056 2656 
Q 3513 2228 3513 1497 
Q 3513 744 3044 326 
Q 2575 -91 1722 -91 
Q 1428 -91 1123 -41 
Q 819 9 494 109 
L 494 744 
Q 775 591 1075 516 
Q 1375 441 1709 441 
Q 2250 441 2565 725 
Q 2881 1009 2881 1497 
Q 2881 1984 2565 2268 
Q 2250 2553 1709 2553 
Q 1456 2553 1204 2497 
Q 953 2441 691 2322 
L 691 4666 
z
" transform="scale(0.015625)"/>
       </defs>
       <use xlink:href="#DejaVuSans-35"/>
       <use xlink:href="#DejaVuSans-30" x="63.623047"/>
      </g>
     </g>
    </g>
    <g id="ytick_6">
     <g id="line2d_12">
      <g>
       <use xlink:href="#m6452750767" x="50.87" y="201.590694" style="stroke: #000000; stroke-width: 0.8"/>
      </g>
     </g>
     <g id="text_13">
      <!-- 60 -->
      <g transform="translate(31.145 205.389913) scale(0.1 -0.1)">
       <use xlink:href="#DejaVuSans-36"/>
       <use xlink:href="#DejaVuSans-30" x="63.623047"/>
      </g>
     </g>
    </g>
    <g id="ytick_7">
     <g id="line2d_13">
      <g>
       <use xlink:href="#m6452750767" x="50.87" y="163.900833" style="stroke: #000000; stroke-width: 0.8"/>
      </g>
     </g>
     <g id="text_14">
      <!-- 70 -->
      <g transform="translate(31.145 167.700052) scale(0.1 -0.1)">
       <defs>
        <path id="DejaVuSans-37" d="M 525 4666 
L 3525 4666 
L 3525 4397 
L 1831 0 
L 1172 0 
L 2766 4134 
L 525 4134 
L 525 4666 
z
" transform="scale(0.015625)"/>
       </defs>
       <use xlink:href="#DejaVuSans-37"/>
       <use xlink:href="#DejaVuSans-30" x="63.623047"/>
      </g>
     </g>
    </g>
    <g id="ytick_8">
     <g id="line2d_14">
      <g>
       <use xlink:href="#m6452750767" x="50.87" y="126.210972" style="stroke: #000000; stroke-width: 0.8"/>
      </g>
     </g>
     <g id="text_15">
      <!-- 80 -->
      <g transform="translate(31.145 130.010191) scale(0.1 -0.1)">
       <use xlink:href="#DejaVuSans-38"/>
       <use xlink:href="#DejaVuSans-30" x="63.623047"/>
      </g>
     </g>
    </g>
    <g id="ytick_9">
     <g id="line2d_15">
      <g>
       <use xlink:href="#m6452750767" x="50.87" y="88.521111" style="stroke: #000000; stroke-width: 0.8"/>
      </g>
     </g>
     <g id="text_16">
      <!-- 90 -->
      <g transform="translate(31.145 92.32033) scale(0.1 -0.1)">
       <defs>
        <path id="DejaVuSans-39" d="M 703 97 
L 703 672 
Q 941 559 1184 500 
Q 1428 441 1663 441 
Q 2288 441 2617 861 
Q 2947 1281 2994 2138 
Q 2813 1869 2534 1725 
Q 2256 1581 1919 1581 
Q 1219 1581 811 2004 
Q 403 2428 403 3163 
Q 403 3881 828 4315 
Q 1253 4750 1959 4750 
Q 2769 4750 3195 4129 
Q 3622 3509 3622 2328 
Q 3622 1225 3098 567 
Q 2575 -91 1691 -91 
Q 1453 -91 1209 -44 
Q 966 3 703 97 
z
M 1959 2075 
Q 2384 2075 2632 2365 
Q 2881 2656 2881 3163 
Q 2881 3666 2632 3958 
Q 2384 4250 1959 4250 
Q 1534 4250 1286 3958 
Q 1038 3666 1038 3163 
Q 1038 2656 1286 2365 
Q 1534 2075 1959 2075 
z
" transform="scale(0.015625)"/>
       </defs>
       <use xlink:href="#DejaVuSans-39"/>
       <use xlink:href="#DejaVuSans-30" x="63.623047"/>
      </g>
     </g>
    </g>
    <g id="ytick_10">
     <g id="line2d_16">
      <g>
       <use xlink:href="#m6452750767" x="50.87" y="50.83125" style="stroke: #000000; stroke-width: 0.8"/>
      </g>
     </g>
     <g id="text_17">
      <!-- 100 -->
      <g transform="translate(24.7825 54.630469) scale(0.1 -0.1)">
       <use xlink:href="#DejaVuSans-31"/>
       <use xlink:href="#DejaVuSans-30" x="63.623047"/>
       <use xlink:href="#DejaVuSans-30" x="127.246094"/>
      </g>
     </g>
    </g>
    <g id="text_18">
     <!-- Firing Rate [Hz] -->
     <g transform="translate(18.702813 259.052031) rotate(-90) scale(0.1 -0.1)">
      <defs>
       <path id="DejaVuSans-46" d="M 628 4666 
L 3309 4666 
L 3309 4134 
L 1259 4134 
L 1259 2759 
L 3109 2759 
L 3109 2228 
L 1259 2228 
L 1259 0 
L 628 0 
L 628 4666 
z
" transform="scale(0.015625)"/>
       <path id="DejaVuSans-69" d="M 603 3500 
L 1178 3500 
L 1178 0 
L 603 0 
L 603 3500 
z
M 603 4863 
L 1178 4863 
L 1178 4134 
L 603 4134 
L 603 4863 
z
" transform="scale(0.015625)"/>
       <path id="DejaVuSans-72" d="M 2631 2963 
Q 2534 3019 2420 3045 
Q 2306 3072 2169 3072 
Q 1681 3072 1420 2755 
Q 1159 2438 1159 1844 
L 1159 0 
L 581 0 
L 581 3500 
L 1159 3500 
L 1159 2956 
Q 1341 3275 1631 3429 
Q 1922 3584 2338 3584 
Q 2397 3584 2469 3576 
Q 2541 3569 2628 3553 
L 2631 2963 
z
" transform="scale(0.015625)"/>
       <path id="DejaVuSans-6e" d="M 3513 2113 
L 3513 0 
L 2938 0 
L 2938 2094 
Q 2938 2591 2744 2837 
Q 2550 3084 2163 3084 
Q 1697 3084 1428 2787 
Q 1159 2491 1159 1978 
L 1159 0 
L 581 0 
L 581 3500 
L 1159 3500 
L 1159 2956 
Q 1366 3272 1645 3428 
Q 1925 3584 2291 3584 
Q 2894 3584 3203 3211 
Q 3513 2838 3513 2113 
z
" transform="scale(0.015625)"/>
       <path id="DejaVuSans-67" d="M 2906 1791 
Q 2906 2416 2648 2759 
Q 2391 3103 1925 3103 
Q 1463 3103 1205 2759 
Q 947 2416 947 1791 
Q 947 1169 1205 825 
Q 1463 481 1925 481 
Q 2391 481 2648 825 
Q 2906 1169 2906 1791 
z
M 3481 434 
Q 3481 -459 3084 -895 
Q 2688 -1331 1869 -1331 
Q 1566 -1331 1297 -1286 
Q 1028 -1241 775 -1147 
L 775 -588 
Q 1028 -725 1275 -790 
Q 1522 -856 1778 -856 
Q 2344 -856 2625 -561 
Q 2906 -266 2906 331 
L 2906 616 
Q 2728 306 2450 153 
Q 2172 0 1784 0 
Q 1141 0 747 490 
Q 353 981 353 1791 
Q 353 2603 747 3093 
Q 1141 3584 1784 3584 
Q 2172 3584 2450 3431 
Q 2728 3278 2906 2969 
L 2906 3500 
L 3481 3500 
L 3481 434 
z
" transform="scale(0.015625)"/>
       <path id="DejaVuSans-61" d="M 2194 1759 
Q 1497 1759 1228 1600 
Q 959 1441 959 1056 
Q 959 750 1161 570 
Q 1363 391 1709 391 
Q 2188 391 2477 730 
Q 2766 1069 2766 1631 
L 2766 1759 
L 2194 1759 
z
M 3341 1997 
L 3341 0 
L 2766 0 
L 2766 531 
Q 2569 213 2275 61 
Q 1981 -91 1556 -91 
Q 1019 -91 701 211 
Q 384 513 384 1019 
Q 384 1609 779 1909 
Q 1175 2209 1959 2209 
L 2766 2209 
L 2766 2266 
Q 2766 2663 2505 2880 
Q 2244 3097 1772 3097 
Q 1472 3097 1187 3025 
Q 903 2953 641 2809 
L 641 3341 
Q 956 3463 1253 3523 
Q 1550 3584 1831 3584 
Q 2591 3584 2966 3190 
Q 3341 2797 3341 1997 
z
" transform="scale(0.015625)"/>
       <path id="DejaVuSans-74" d="M 1172 4494 
L 1172 3500 
L 2356 3500 
L 2356 3053 
L 1172 3053 
L 1172 1153 
Q 1172 725 1289 603 
Q 1406 481 1766 481 
L 2356 481 
L 2356 0 
L 1766 0 
Q 1100 0 847 248 
Q 594 497 594 1153 
L 594 3053 
L 172 3053 
L 172 3500 
L 594 3500 
L 594 4494 
L 1172 4494 
z
" transform="scale(0.015625)"/>
       <path id="DejaVuSans-65" d="M 3597 1894 
L 3597 1613 
L 953 1613 
Q 991 1019 1311 708 
Q 1631 397 2203 397 
Q 2534 397 2845 478 
Q 3156 559 3463 722 
L 3463 178 
Q 3153 47 2828 -22 
Q 2503 -91 2169 -91 
Q 1331 -91 842 396 
Q 353 884 353 1716 
Q 353 2575 817 3079 
Q 1281 3584 2069 3584 
Q 2775 3584 3186 3129 
Q 3597 2675 3597 1894 
z
M 3022 2063 
Q 3016 2534 2758 2815 
Q 2500 3097 2075 3097 
Q 1594 3097 1305 2825 
Q 1016 2553 972 2059 
L 3022 2063 
z
" transform="scale(0.015625)"/>
       <path id="DejaVuSans-48" d="M 628 4666 
L 1259 4666 
L 1259 2753 
L 3553 2753 
L 3553 4666 
L 4184 4666 
L 4184 0 
L 3553 0 
L 3553 2222 
L 1259 2222 
L 1259 0 
L 628 0 
L 628 4666 
z
" transform="scale(0.015625)"/>
       <path id="DejaVuSans-7a" d="M 353 3500 
L 3084 3500 
L 3084 2975 
L 922 459 
L 3084 459 
L 3084 0 
L 275 0 
L 275 525 
L 2438 3041 
L 353 3041 
L 353 3500 
z
" transform="scale(0.015625)"/>
      </defs>
      <use xlink:href="#DejaVuSans-46"/>
      <use xlink:href="#DejaVuSans-69" x="50.269531"/>
      <use xlink:href="#DejaVuSans-72" x="78.052734"/>
      <use xlink:href="#DejaVuSans-69" x="119.166016"/>
      <use xlink:href="#DejaVuSans-6e" x="146.949219"/>
      <use xlink:href="#DejaVuSans-67" x="210.328125"/>
      <use xlink:href="#DejaVuSans-20" x="273.804688"/>
      <use xlink:href="#DejaVuSans-52" x="305.591797"/>
      <use xlink:href="#DejaVuSans-61" x="372.824219"/>
      <use xlink:href="#DejaVuSans-74" x="434.103516"/>
      <use xlink:href="#DejaVuSans-65" x="473.3125"/>
      <use xlink:href="#DejaVuSans-20" x="534.835938"/>
      <use xlink:href="#DejaVuSans-5b" x="566.623047"/>
      <use xlink:href="#DejaVuSans-48" x="605.636719"/>
      <use xlink:href="#DejaVuSans-7a" x="680.832031"/>
      <use xlink:href="#DejaVuSans-5d" x="733.322266"/>
     </g>
    </g>
   </g>
   <g id="PathCollection_6">
    <path d="M 193.661914 50.83125 
L 196.794051 135.910954 
L 198.865616 192.456085 
L 199.131805 201.78508 
L 198.865616 205.607645 
L 194.539718 252.789023 
L 197.514225 292.279523 
L 198.045635 312.76258 
" clip-path="url(#p6c259e2d78)" style="fill: none; stroke: #000000; stroke-width: 1.5"/>
    <path d="M 196.331404 332.80801 
L 193.606959 346.529517 
L 197.098197 364.859384 
L 198.865616 369.038404 
L 211.198584 375.285408 
L 213.26793 379.051534 
L 211.198584 379.692504 
L 200.970204 390.04 
" clip-path="url(#p6c259e2d78)" style="fill: none; stroke: #000000; stroke-width: 1.5"/>
   </g>
   <g id="PathCollection_7">
    <path d="M 285.196392 304.779927 
L 272.863424 304.113047 
L 272.267278 304.069533 
" clip-path="url(#p6c259e2d78)" style="fill: none; stroke: #000000; stroke-width: 1.5"/>
    <path d="M 249.462887 306.668909 
L 248.197488 307.064055 
L 235.86452 312.14838 
L 223.531552 320.855611 
L 222.974771 322.855584 
L 211.198584 328.823741 
L 204.237274 346.529517 
L 211.198584 356.667414 
L 223.531552 360.428942 
L 235.86452 363.15119 
L 248.197488 363.179039 
L 260.530456 364.586586 
L 265.597751 364.859384 
L 272.863424 374.829603 
L 274.021427 379.051534 
L 272.863424 379.170503 
L 260.530456 380.031898 
L 248.197488 381.563861 
L 235.86452 384.161527 
L 223.531552 387.99108 
L 218.74006 390.04 
" clip-path="url(#p6c259e2d78)" style="fill: none; stroke: #000000; stroke-width: 1.5"/>
    <path d="M 285.196392 150.447178 
L 272.863424 146.780185 
L 260.530456 157.649416 
L 255.618296 145.453852 
" clip-path="url(#p6c259e2d78)" style="fill: none; stroke: #000000; stroke-width: 1.5"/>
    <path d="M 260.285001 128.931101 
L 260.530456 128.72979 
L 272.863424 133.374769 
L 285.196392 133.374769 
" clip-path="url(#p6c259e2d78)" style="fill: none; stroke: #000000; stroke-width: 1.5"/>
    <path d="M 232.402411 50.83125 
L 235.86452 92.948521 
L 247.291677 135.910954 
L 235.86452 194.727138 
L 223.531552 194.709376 
L 221.779579 201.78508 
L 223.531552 211.020013 
L 231.660099 252.789023 
L 233.661143 261.795634 
" clip-path="url(#p6c259e2d78)" style="fill: none; stroke: #000000; stroke-width: 1.5"/>
    <path d="M 239.785729 262.193231 
L 243.659363 252.789023 
L 248.197488 238.391395 
L 256.696314 252.789023 
L 260.530456 257.714565 
L 264.674333 252.789023 
L 272.863424 230.347288 
L 281.052515 252.789023 
L 285.196392 257.714565 
" clip-path="url(#p6c259e2d78)" style="fill: none; stroke: #000000; stroke-width: 1.5"/>
   </g>
   <g id="PathCollection_8">
    <path d="M 285.196392 385.804515 
L 272.863424 385.812973 
L 272.299047 385.833623 
" clip-path="url(#p6c259e2d78)" style="fill: none; stroke: #000000; stroke-width: 1.5"/>
    <path d="M 248.925939 387.996934 
L 248.197488 388.105702 
L 243.354985 390.04 
" clip-path="url(#p6c259e2d78)" style="fill: none; stroke: #000000; stroke-width: 1.5"/>
    <path d="M 285.196392 333.04383 
L 272.863424 333.476424 
L 260.530456 332.852027 
L 248.197488 334.83053 
L 235.86452 336.680993 
L 223.531552 345.025516 
L 221.270027 345.047044 
" clip-path="url(#p6c259e2d78)" style="fill: none; stroke: #000000; stroke-width: 1.5"/>
    <path d="M 221.902765 347.388355 
L 223.531552 347.398231 
L 235.86452 353.222314 
L 248.197488 353.937143 
L 260.530456 355.338735 
L 272.863424 355.892458 
L 285.196392 355.980854 
" clip-path="url(#p6c259e2d78)" style="fill: none; stroke: #000000; stroke-width: 1.5"/>
   </g>
   <g id="PathCollection_9">
    <path d="M 285.196392 343.832379 
L 272.863424 343.918898 
L 260.530456 344.338848 
L 259.642001 344.495057 
" clip-path="url(#p6c259e2d78)" style="fill: none; stroke: #000000; stroke-width: 1.5"/>
    <path d="M 259.780986 347.855569 
L 260.530456 347.940454 
L 272.863424 348.402105 
L 285.196392 348.419784 
" clip-path="url(#p6c259e2d78)" style="fill: none; stroke: #000000; stroke-width: 1.5"/>
   </g>
   <g id="patch_3">
    <path d="M 50.87 390.04 
L 50.87 50.83125 
" style="fill: none; stroke: #000000; stroke-width: 0.8; stroke-linejoin: miter; stroke-linecap: square"/>
   </g>
   <g id="patch_4">
    <path d="M 285.196392 390.04 
L 285.196392 50.83125 
" style="fill: none; stroke: #000000; stroke-width: 0.8; stroke-linejoin: miter; stroke-linecap: square"/>
   </g>
   <g id="patch_5">
    <path d="M 50.87 390.04 
L 285.196392 390.04 
" style="fill: none; stroke: #000000; stroke-width: 0.8; stroke-linejoin: miter; stroke-linecap: square"/>
   </g>
   <g id="patch_6">
    <path d="M 50.87 50.83125 
L 285.196392 50.83125 
" style="fill: none; stroke: #000000; stroke-width: 0.8; stroke-linejoin: miter; stroke-linecap: square"/>
   </g>
   <g id="text_19">
    <!-- Accuracy [%] -->
    <g transform="translate(128.349759 44.83125) scale(0.12 -0.12)">
     <defs>
      <path id="DejaVuSans-41" d="M 2188 4044 
L 1331 1722 
L 3047 1722 
L 2188 4044 
z
M 1831 4666 
L 2547 4666 
L 4325 0 
L 3669 0 
L 3244 1197 
L 1141 1197 
L 716 0 
L 50 0 
L 1831 4666 
z
" transform="scale(0.015625)"/>
      <path id="DejaVuSans-63" d="M 3122 3366 
L 3122 2828 
Q 2878 2963 2633 3030 
Q 2388 3097 2138 3097 
Q 1578 3097 1268 2742 
Q 959 2388 959 1747 
Q 959 1106 1268 751 
Q 1578 397 2138 397 
Q 2388 397 2633 464 
Q 2878 531 3122 666 
L 3122 134 
Q 2881 22 2623 -34 
Q 2366 -91 2075 -91 
Q 1284 -91 818 406 
Q 353 903 353 1747 
Q 353 2603 823 3093 
Q 1294 3584 2113 3584 
Q 2378 3584 2631 3529 
Q 2884 3475 3122 3366 
z
" transform="scale(0.015625)"/>
      <path id="DejaVuSans-75" d="M 544 1381 
L 544 3500 
L 1119 3500 
L 1119 1403 
Q 1119 906 1312 657 
Q 1506 409 1894 409 
Q 2359 409 2629 706 
Q 2900 1003 2900 1516 
L 2900 3500 
L 3475 3500 
L 3475 0 
L 2900 0 
L 2900 538 
Q 2691 219 2414 64 
Q 2138 -91 1772 -91 
Q 1169 -91 856 284 
Q 544 659 544 1381 
z
M 1991 3584 
L 1991 3584 
z
" transform="scale(0.015625)"/>
      <path id="DejaVuSans-79" d="M 2059 -325 
Q 1816 -950 1584 -1140 
Q 1353 -1331 966 -1331 
L 506 -1331 
L 506 -850 
L 844 -850 
Q 1081 -850 1212 -737 
Q 1344 -625 1503 -206 
L 1606 56 
L 191 3500 
L 800 3500 
L 1894 763 
L 2988 3500 
L 3597 3500 
L 2059 -325 
z
" transform="scale(0.015625)"/>
      <path id="DejaVuSans-25" d="M 4653 2053 
Q 4381 2053 4226 1822 
Q 4072 1591 4072 1178 
Q 4072 772 4226 539 
Q 4381 306 4653 306 
Q 4919 306 5073 539 
Q 5228 772 5228 1178 
Q 5228 1588 5073 1820 
Q 4919 2053 4653 2053 
z
M 4653 2450 
Q 5147 2450 5437 2106 
Q 5728 1763 5728 1178 
Q 5728 594 5436 251 
Q 5144 -91 4653 -91 
Q 4153 -91 3862 251 
Q 3572 594 3572 1178 
Q 3572 1766 3864 2108 
Q 4156 2450 4653 2450 
z
M 1428 4353 
Q 1159 4353 1004 4120 
Q 850 3888 850 3481 
Q 850 3069 1003 2837 
Q 1156 2606 1428 2606 
Q 1700 2606 1854 2837 
Q 2009 3069 2009 3481 
Q 2009 3884 1853 4118 
Q 1697 4353 1428 4353 
z
M 4250 4750 
L 4750 4750 
L 1831 -91 
L 1331 -91 
L 4250 4750 
z
M 1428 4750 
Q 1922 4750 2215 4408 
Q 2509 4066 2509 3481 
Q 2509 2891 2217 2550 
Q 1925 2209 1428 2209 
Q 931 2209 642 2551 
Q 353 2894 353 3481 
Q 353 4063 643 4406 
Q 934 4750 1428 4750 
z
" transform="scale(0.015625)"/>
     </defs>
     <use xlink:href="#DejaVuSans-41"/>
     <use xlink:href="#DejaVuSans-63" x="66.658203"/>
     <use xlink:href="#DejaVuSans-63" x="121.638672"/>
     <use xlink:href="#DejaVuSans-75" x="176.619141"/>
     <use xlink:href="#DejaVuSans-72" x="239.998047"/>
     <use xlink:href="#DejaVuSans-61" x="281.111328"/>
     <use xlink:href="#DejaVuSans-63" x="342.390625"/>
     <use xlink:href="#DejaVuSans-79" x="397.371094"/>
     <use xlink:href="#DejaVuSans-20" x="456.550781"/>
     <use xlink:href="#DejaVuSans-5b" x="488.337891"/>
     <use xlink:href="#DejaVuSans-25" x="527.351562"/>
     <use xlink:href="#DejaVuSans-5d" x="622.371094"/>
    </g>
   </g>
   <g id="text_20">
    <g clip-path="url(#p6c259e2d78)">
     <!-- 25 -->
     <g transform="translate(200.594401 329.402765) rotate(-85.808122) scale(0.1 -0.1)">
      <use xlink:href="#DejaVuSans-32"/>
      <use xlink:href="#DejaVuSans-35" x="63.623047"/>
     </g>
    </g>
   </g>
   <g id="text_21">
    <g clip-path="url(#p6c259e2d78)">
     <!-- 50 -->
     <g transform="translate(254.587277 306.786938) rotate(-7.575725) scale(0.1 -0.1)">
      <use xlink:href="#DejaVuSans-35"/>
      <use xlink:href="#DejaVuSans-30" x="63.623047"/>
     </g>
    </g>
   </g>
   <g id="text_22">
    <g clip-path="url(#p6c259e2d78)">
     <!-- 50 -->
     <g transform="translate(252.959581 142.74406) rotate(-76.392329) scale(0.1 -0.1)">
      <use xlink:href="#DejaVuSans-35"/>
      <use xlink:href="#DejaVuSans-30" x="63.623047"/>
     </g>
    </g>
   </g>
   <g id="text_23">
    <g clip-path="url(#p6c259e2d78)">
     <!-- 50 -->
     <g transform="translate(229.31178 273.983878) rotate(-355.668353) scale(0.1 -0.1)">
      <use xlink:href="#DejaVuSans-35"/>
      <use xlink:href="#DejaVuSans-30" x="63.623047"/>
     </g>
    </g>
   </g>
   <g id="text_24">
    <g clip-path="url(#p6c259e2d78)">
     <!-- 75 -->
     <g transform="translate(254.501006 389.690772) rotate(-6.163641) scale(0.1 -0.1)">
      <use xlink:href="#DejaVuSans-37"/>
      <use xlink:href="#DejaVuSans-35" x="63.623047"/>
     </g>
    </g>
   </g>
   <g id="text_25">
    <g clip-path="url(#p6c259e2d78)">
     <!-- 75 -->
     <g transform="translate(206.49403 340.980191) rotate(-283.40663) scale(0.1 -0.1)">
      <use xlink:href="#DejaVuSans-37"/>
      <use xlink:href="#DejaVuSans-35" x="63.623047"/>
     </g>
    </g>
   </g>
   <g id="text_26">
    <g clip-path="url(#p6c259e2d78)">
     <!-- 95 -->
     <g transform="translate(245.06688 340.268685) rotate(-272.028671) scale(0.1 -0.1)">
      <use xlink:href="#DejaVuSans-39"/>
      <use xlink:href="#DejaVuSans-35" x="63.623047"/>
     </g>
    </g>
   </g>
  </g>
  <g id="axes_2">
   <g id="patch_7">
    <path d="M 328.331392 390.04 
L 562.657784 390.04 
L 562.657784 50.83125 
L 328.331392 50.83125 
z
" style="fill: #ffffff"/>
   </g>
   <g id="PathCollection_10">
    <path d="M 340.66436 390.04 
L 352.997328 390.04 
L 365.330296 390.04 
L 377.663264 390.04 
L 389.996232 390.04 
L 402.3292 390.04 
L 414.662168 390.04 
L 426.995136 390.04 
L 439.328104 390.04 
L 451.661072 390.04 
L 463.99404 390.04 
L 465.50325 390.04 
L 463.99404 383.559944 
L 462.712002 379.051534 
L 457.205616 364.859384 
L 451.661072 356.623517 
L 439.328104 347.622945 
L 438.737888 346.529517 
L 439.328104 341.887569 
L 445.120862 322.855584 
L 443.496995 292.279523 
L 439.328104 282.43844 
L 428.631142 252.789023 
L 426.995136 214.171752 
L 419.775838 252.789023 
L 414.662168 257.434964 
L 412.586322 252.789023 
L 411.816099 201.78508 
L 402.3292 135.910954 
L 402.3292 50.83125 
L 402.3292 50.83125 
L 402.3292 50.83125 
L 389.996232 111.189682 
L 377.663264 103.425976 
L 372.275342 50.83125 
L 365.330296 50.83125 
L 352.997328 50.83125 
L 349.248106 50.83125 
L 341.203928 135.910954 
L 340.66436 140.254303 
L 340.243918 135.910954 
L 328.331392 56.599366 
L 328.331392 135.910954 
L 328.331392 201.78508 
L 328.331392 252.789023 
L 328.331392 292.279523 
L 328.331392 322.855584 
L 328.331392 346.529517 
L 328.331392 364.859384 
L 328.331392 379.051534 
L 328.331392 390.04 
z
" clip-path="url(#pae0f19619b)" style="fill: #482475"/>
   </g>
   <g id="PathCollection_11">
    <path d="M 463.99404 383.559944 
L 465.50325 390.04 
L 476.327008 390.04 
L 483.839014 390.04 
L 488.659976 384.827368 
L 500.992944 380.328993 
L 503.407791 379.051534 
L 500.992944 377.098259 
L 489.087638 364.859384 
L 488.659976 364.659457 
L 476.327008 362.608754 
L 466.892205 346.529517 
L 464.830537 322.855584 
L 468.120661 292.279523 
L 463.99404 275.226807 
L 459.163047 252.789023 
L 455.772062 201.78508 
L 451.661072 166.99762 
L 439.328104 143.534124 
L 436.00769 135.910954 
L 431.27922 50.83125 
L 426.995136 50.83125 
L 414.662168 50.83125 
L 402.3292 50.83125 
L 402.3292 135.910954 
L 411.816099 201.78508 
L 412.586322 252.789023 
L 414.662168 257.434964 
L 419.775838 252.789023 
L 426.995136 214.171752 
L 428.631142 252.789023 
L 439.328104 282.43844 
L 443.496995 292.279523 
L 445.120862 322.855584 
L 439.328104 341.887569 
L 438.737888 346.529517 
L 439.328104 347.622945 
L 451.661072 356.623517 
L 457.205616 364.859384 
L 462.712002 379.051534 
z
" clip-path="url(#pae0f19619b)" style="fill: #355f8d"/>
    <path d="M 340.66436 140.254303 
L 341.203928 135.910954 
L 349.248106 50.83125 
L 340.66436 50.83125 
L 328.331392 50.83125 
L 328.331392 56.599366 
L 340.243918 135.910954 
z
" clip-path="url(#pae0f19619b)" style="fill: #355f8d"/>
    <path d="M 377.663264 103.425976 
L 389.996232 111.189682 
L 402.3292 50.83125 
L 389.996232 50.83125 
L 377.663264 50.83125 
L 372.275342 50.83125 
z
" clip-path="url(#pae0f19619b)" style="fill: #355f8d"/>
   </g>
   <g id="PathCollection_12">
    <path d="M 488.659976 390.04 
L 500.992944 390.04 
L 507.546529 390.04 
L 513.325912 387.137893 
L 525.65888 381.955913 
L 536.974931 379.051534 
L 527.016508 364.859384 
L 525.65888 364.530165 
L 513.325912 363.908218 
L 500.992944 360.236339 
L 488.659976 355.777003 
L 479.888279 346.529517 
L 488.659976 324.340514 
L 491.786843 322.855584 
L 488.659976 309.420382 
L 486.237429 292.279523 
L 476.327008 259.871558 
L 474.838434 252.789023 
L 463.99404 201.78508 
L 468.073945 135.910954 
L 463.99404 110.324021 
L 452.761552 50.83125 
L 451.661072 50.83125 
L 439.328104 50.83125 
L 431.27922 50.83125 
L 436.00769 135.910954 
L 439.328104 143.534124 
L 451.661072 166.99762 
L 455.772062 201.78508 
L 459.163047 252.789023 
L 463.99404 275.226807 
L 468.120661 292.279523 
L 464.830537 322.855584 
L 466.892205 346.529517 
L 476.327008 362.608754 
L 488.659976 364.659457 
L 489.087638 364.859384 
L 500.992944 377.098259 
L 503.407791 379.051534 
L 500.992944 380.328993 
L 488.659976 384.827368 
L 483.839014 390.04 
z
" clip-path="url(#pae0f19619b)" style="fill: #21918c"/>
    <path d="M 488.659976 140.503415 
L 489.905039 135.910954 
L 488.659976 132.068984 
L 486.813724 135.910954 
z
" clip-path="url(#pae0f19619b)" style="fill: #21918c"/>
   </g>
   <g id="PathCollection_13">
    <path d="M 513.325912 390.04 
L 523.719215 390.04 
L 525.65888 389.002974 
L 537.991848 386.012312 
L 550.324816 384.424916 
L 562.657784 383.598485 
L 562.657784 379.051534 
L 562.657784 364.859384 
L 562.657784 357.985684 
L 550.324816 357.844249 
L 537.991848 356.799434 
L 525.65888 354.360968 
L 513.325912 353.225897 
L 500.992944 347.855984 
L 488.659976 346.894549 
L 488.313725 346.529517 
L 488.659976 345.653635 
L 500.992944 343.717486 
L 513.325912 335.056765 
L 525.65888 331.945538 
L 537.991848 329.213242 
L 550.324816 330.379354 
L 562.657784 329.687204 
L 562.657784 322.855584 
L 562.657784 292.279523 
L 562.657784 252.789023 
L 562.657784 201.78508 
L 562.657784 135.910954 
L 562.657784 50.83125 
L 550.324816 50.83125 
L 537.991848 50.83125 
L 525.65888 50.83125 
L 513.325912 50.83125 
L 500.992944 50.83125 
L 488.659976 50.83125 
L 476.327008 50.83125 
L 463.99404 50.83125 
L 452.761552 50.83125 
L 463.99404 110.324021 
L 468.073945 135.910954 
L 463.99404 201.78508 
L 474.838434 252.789023 
L 476.327008 259.871558 
L 486.237429 292.279523 
L 488.659976 309.420382 
L 491.786843 322.855584 
L 488.659976 324.340514 
L 479.888279 346.529517 
L 488.659976 355.777003 
L 500.992944 360.236339 
L 513.325912 363.908218 
L 525.65888 364.530165 
L 527.016508 364.859384 
L 536.974931 379.051534 
L 525.65888 381.955913 
L 513.325912 387.137893 
L 507.546529 390.04 
z
M 486.813724 135.910954 
L 488.659976 132.068984 
L 489.905039 135.910954 
L 488.659976 140.503415 
z
" clip-path="url(#pae0f19619b)" style="fill: #44bf70"/>
   </g>
   <g id="PathCollection_14">
    <path d="M 525.65888 390.04 
L 537.991848 390.04 
L 550.324816 390.04 
L 562.657784 390.04 
L 562.657784 383.598485 
L 550.324816 384.424916 
L 537.991848 386.012312 
L 525.65888 389.002974 
L 523.719215 390.04 
z
" clip-path="url(#pae0f19619b)" style="fill: #bddf26"/>
    <path d="M 488.659976 346.894549 
L 500.992944 347.855984 
L 513.325912 353.225897 
L 525.65888 354.360968 
L 537.991848 356.799434 
L 550.324816 357.844249 
L 562.657784 357.985684 
L 562.657784 346.529517 
L 562.657784 329.687204 
L 550.324816 330.379354 
L 537.991848 329.213242 
L 525.65888 331.945538 
L 513.325912 335.056765 
L 500.992944 343.717486 
L 488.659976 345.653635 
L 488.313725 346.529517 
z
" clip-path="url(#pae0f19619b)" style="fill: #bddf26"/>
   </g>
   <g id="matplotlib.axis_3">
    <g id="xtick_7">
     <g id="line2d_17">
      <g>
       <use xlink:href="#m35b26cf881" x="328.331392" y="390.04" style="stroke: #000000; stroke-width: 0.8"/>
      </g>
     </g>
     <g id="text_27">
      <!-- −18 -->
      <g transform="translate(317.779048 404.638438) scale(0.1 -0.1)">
       <use xlink:href="#DejaVuSans-2212"/>
       <use xlink:href="#DejaVuSans-31" x="83.789062"/>
       <use xlink:href="#DejaVuSans-38" x="147.412109"/>
      </g>
     </g>
    </g>
    <g id="xtick_8">
     <g id="line2d_18">
      <g>
       <use xlink:href="#m35b26cf881" x="375.196671" y="390.04" style="stroke: #000000; stroke-width: 0.8"/>
      </g>
     </g>
     <g id="text_28">
      <!-- −12 -->
      <g transform="translate(364.644327 404.638438) scale(0.1 -0.1)">
       <use xlink:href="#DejaVuSans-2212"/>
       <use xlink:href="#DejaVuSans-31" x="83.789062"/>
       <use xlink:href="#DejaVuSans-32" x="147.412109"/>
      </g>
     </g>
    </g>
    <g id="xtick_9">
     <g id="line2d_19">
      <g>
       <use xlink:href="#m35b26cf881" x="422.061949" y="390.04" style="stroke: #000000; stroke-width: 0.8"/>
      </g>
     </g>
     <g id="text_29">
      <!-- −6 -->
      <g transform="translate(414.690855 404.638438) scale(0.1 -0.1)">
       <use xlink:href="#DejaVuSans-2212"/>
       <use xlink:href="#DejaVuSans-36" x="83.789062"/>
      </g>
     </g>
    </g>
    <g id="xtick_10">
     <g id="line2d_20">
      <g>
       <use xlink:href="#m35b26cf881" x="468.927227" y="390.04" style="stroke: #000000; stroke-width: 0.8"/>
      </g>
     </g>
     <g id="text_30">
      <!-- 0 -->
      <g transform="translate(465.745977 404.638438) scale(0.1 -0.1)">
       <use xlink:href="#DejaVuSans-30"/>
      </g>
     </g>
    </g>
    <g id="xtick_11">
     <g id="line2d_21">
      <g>
       <use xlink:href="#m35b26cf881" x="515.792506" y="390.04" style="stroke: #000000; stroke-width: 0.8"/>
      </g>
     </g>
     <g id="text_31">
      <!-- 6 -->
      <g transform="translate(512.611256 404.638438) scale(0.1 -0.1)">
       <use xlink:href="#DejaVuSans-36"/>
      </g>
     </g>
    </g>
    <g id="xtick_12">
     <g id="line2d_22">
      <g>
       <use xlink:href="#m35b26cf881" x="562.657784" y="390.04" style="stroke: #000000; stroke-width: 0.8"/>
      </g>
     </g>
     <g id="text_32">
      <!-- 12 -->
      <g transform="translate(556.295284 404.638438) scale(0.1 -0.1)">
       <use xlink:href="#DejaVuSans-31"/>
       <use xlink:href="#DejaVuSans-32" x="63.623047"/>
      </g>
     </g>
    </g>
    <g id="text_33">
     <!-- SNR [dB] -->
     <g transform="translate(423.010213 418.316562) scale(0.1 -0.1)">
      <use xlink:href="#DejaVuSans-53"/>
      <use xlink:href="#DejaVuSans-4e" x="63.476562"/>
      <use xlink:href="#DejaVuSans-52" x="138.28125"/>
      <use xlink:href="#DejaVuSans-20" x="207.763672"/>
      <use xlink:href="#DejaVuSans-5b" x="239.550781"/>
      <use xlink:href="#DejaVuSans-64" x="278.564453"/>
      <use xlink:href="#DejaVuSans-42" x="342.041016"/>
      <use xlink:href="#DejaVuSans-5d" x="410.644531"/>
     </g>
    </g>
   </g>
   <g id="matplotlib.axis_4">
    <g id="ytick_11">
     <g id="line2d_23">
      <g>
       <use xlink:href="#m6452750767" x="328.331392" y="390.04" style="stroke: #000000; stroke-width: 0.8"/>
      </g>
     </g>
     <g id="text_34">
      <!-- 10 -->
      <g transform="translate(308.606392 393.839219) scale(0.1 -0.1)">
       <use xlink:href="#DejaVuSans-31"/>
       <use xlink:href="#DejaVuSans-30" x="63.623047"/>
      </g>
     </g>
    </g>
    <g id="ytick_12">
     <g id="line2d_24">
      <g>
       <use xlink:href="#m6452750767" x="328.331392" y="352.350139" style="stroke: #000000; stroke-width: 0.8"/>
      </g>
     </g>
     <g id="text_35">
      <!-- 20 -->
      <g transform="translate(308.606392 356.149358) scale(0.1 -0.1)">
       <use xlink:href="#DejaVuSans-32"/>
       <use xlink:href="#DejaVuSans-30" x="63.623047"/>
      </g>
     </g>
    </g>
    <g id="ytick_13">
     <g id="line2d_25">
      <g>
       <use xlink:href="#m6452750767" x="328.331392" y="314.660278" style="stroke: #000000; stroke-width: 0.8"/>
      </g>
     </g>
     <g id="text_36">
      <!-- 30 -->
      <g transform="translate(308.606392 318.459497) scale(0.1 -0.1)">
       <use xlink:href="#DejaVuSans-33"/>
       <use xlink:href="#DejaVuSans-30" x="63.623047"/>
      </g>
     </g>
    </g>
    <g id="ytick_14">
     <g id="line2d_26">
      <g>
       <use xlink:href="#m6452750767" x="328.331392" y="276.970417" style="stroke: #000000; stroke-width: 0.8"/>
      </g>
     </g>
     <g id="text_37">
      <!-- 40 -->
      <g transform="translate(308.606392 280.769635) scale(0.1 -0.1)">
       <use xlink:href="#DejaVuSans-34"/>
       <use xlink:href="#DejaVuSans-30" x="63.623047"/>
      </g>
     </g>
    </g>
    <g id="ytick_15">
     <g id="line2d_27">
      <g>
       <use xlink:href="#m6452750767" x="328.331392" y="239.280556" style="stroke: #000000; stroke-width: 0.8"/>
      </g>
     </g>
     <g id="text_38">
      <!-- 50 -->
      <g transform="translate(308.606392 243.079774) scale(0.1 -0.1)">
       <use xlink:href="#DejaVuSans-35"/>
       <use xlink:href="#DejaVuSans-30" x="63.623047"/>
      </g>
     </g>
    </g>
    <g id="ytick_16">
     <g id="line2d_28">
      <g>
       <use xlink:href="#m6452750767" x="328.331392" y="201.590694" style="stroke: #000000; stroke-width: 0.8"/>
      </g>
     </g>
     <g id="text_39">
      <!-- 60 -->
      <g transform="translate(308.606392 205.389913) scale(0.1 -0.1)">
       <use xlink:href="#DejaVuSans-36"/>
       <use xlink:href="#DejaVuSans-30" x="63.623047"/>
      </g>
     </g>
    </g>
    <g id="ytick_17">
     <g id="line2d_29">
      <g>
       <use xlink:href="#m6452750767" x="328.331392" y="163.900833" style="stroke: #000000; stroke-width: 0.8"/>
      </g>
     </g>
     <g id="text_40">
      <!-- 70 -->
      <g transform="translate(308.606392 167.700052) scale(0.1 -0.1)">
       <use xlink:href="#DejaVuSans-37"/>
       <use xlink:href="#DejaVuSans-30" x="63.623047"/>
      </g>
     </g>
    </g>
    <g id="ytick_18">
     <g id="line2d_30">
      <g>
       <use xlink:href="#m6452750767" x="328.331392" y="126.210972" style="stroke: #000000; stroke-width: 0.8"/>
      </g>
     </g>
     <g id="text_41">
      <!-- 80 -->
      <g transform="translate(308.606392 130.010191) scale(0.1 -0.1)">
       <use xlink:href="#DejaVuSans-38"/>
       <use xlink:href="#DejaVuSans-30" x="63.623047"/>
      </g>
     </g>
    </g>
    <g id="ytick_19">
     <g id="line2d_31">
      <g>
       <use xlink:href="#m6452750767" x="328.331392" y="88.521111" style="stroke: #000000; stroke-width: 0.8"/>
      </g>
     </g>
     <g id="text_42">
      <!-- 90 -->
      <g transform="translate(308.606392 92.32033) scale(0.1 -0.1)">
       <use xlink:href="#DejaVuSans-39"/>
       <use xlink:href="#DejaVuSans-30" x="63.623047"/>
      </g>
     </g>
    </g>
    <g id="ytick_20">
     <g id="line2d_32">
      <g>
       <use xlink:href="#m6452750767" x="328.331392" y="50.83125" style="stroke: #000000; stroke-width: 0.8"/>
      </g>
     </g>
     <g id="text_43">
      <!-- 100 -->
      <g transform="translate(302.243892 54.630469) scale(0.1 -0.1)">
       <use xlink:href="#DejaVuSans-31"/>
       <use xlink:href="#DejaVuSans-30" x="63.623047"/>
       <use xlink:href="#DejaVuSans-30" x="127.246094"/>
      </g>
     </g>
    </g>
   </g>
   <g id="PathCollection_15">
    <path d="M 337.484767 50.83125 
L 339.03778 60.377804 
" clip-path="url(#pae0f19619b)" style="fill: none; stroke: #000000; stroke-width: 1.5"/>
    <path d="M 341.585211 60.311985 
L 342.452641 50.83125 
" clip-path="url(#pae0f19619b)" style="fill: none; stroke: #000000; stroke-width: 1.5"/>
    <path d="M 374.493898 50.83125 
L 377.663264 81.769324 
L 382.238065 77.289819 
" clip-path="url(#pae0f19619b)" style="fill: none; stroke: #000000; stroke-width: 1.5"/>
    <path d="M 392.028113 59.74909 
L 393.850285 50.83125 
" clip-path="url(#pae0f19619b)" style="fill: none; stroke: #000000; stroke-width: 1.5"/>
    <path d="M 414.662168 50.83125 
L 414.662168 50.83125 
L 410.257537 135.910954 
L 414.662168 167.581207 
L 426.995136 181.117401 
L 439.328104 197.849204 
L 441.53042 201.78508 
L 439.328104 206.617815 
L 433.672439 242.782998 
" clip-path="url(#pae0f19619b)" style="fill: none; stroke: #000000; stroke-width: 1.5"/>
    <path d="M 435.587373 262.433967 
L 439.328104 272.802379 
L 447.579034 292.279523 
L 451.661072 315.398008 
L 452.891614 322.855584 
L 451.661072 329.083591 
L 445.319287 346.529517 
L 451.661072 351.320973 
L 460.775391 364.859384 
L 463.99404 372.318147 
L 469.187422 379.051534 
L 471.147067 390.04 
" clip-path="url(#pae0f19619b)" style="fill: none; stroke: #000000; stroke-width: 1.5"/>
   </g>
   <g id="PathCollection_16">
    <path d="M 441.03079 50.83125 
L 451.661072 127.310001 
L 453.170709 135.910954 
L 459.883051 201.78508 
L 463.99404 245.83394 
L 465.472821 252.789023 
L 474.568505 292.279523 
L 476.327008 304.965336 
L 478.021577 312.92409 
" clip-path="url(#pae0f19619b)" style="fill: none; stroke: #000000; stroke-width: 1.5"/>
    <path d="M 477.900108 332.767515 
L 476.327008 339.740668 
L 475.063418 346.529517 
L 476.327008 348.682986 
L 488.659976 360.21823 
L 498.587832 364.859384 
L 500.992944 367.331884 
L 513.325912 376.51846 
L 519.542046 379.051534 
L 513.325912 380.27674 
L 500.992944 386.716292 
L 493.462489 390.04 
" clip-path="url(#pae0f19619b)" style="fill: none; stroke: #000000; stroke-width: 1.5"/>
   </g>
   <g id="PathCollection_17">
    <path d="M 562.657784 381.230281 
L 550.324816 382.487101 
L 549.618569 382.585487 
" clip-path="url(#pae0f19619b)" style="fill: none; stroke: #000000; stroke-width: 1.5"/>
    <path d="M 526.670302 386.992226 
L 525.65888 387.241209 
L 520.423987 390.04 
" clip-path="url(#pae0f19619b)" style="fill: none; stroke: #000000; stroke-width: 1.5"/>
    <path d="M 562.657784 325.476626 
L 550.324816 326.341814 
L 537.991848 324.611332 
L 525.65888 327.211187 
L 513.325912 330.481322 
L 500.992944 337.156081 
L 492.621886 339.30724 
" clip-path="url(#pae0f19619b)" style="fill: none; stroke: #000000; stroke-width: 1.5"/>
    <path d="M 496.434822 350.272541 
L 500.992944 350.951072 
L 513.325912 355.896477 
L 525.65888 356.903267 
L 537.991848 359.528729 
L 550.324816 360.672933 
L 562.657784 360.849725 
" clip-path="url(#pae0f19619b)" style="fill: none; stroke: #000000; stroke-width: 1.5"/>
    <path d="M 475.115436 50.83125 
L 476.327008 58.655678 
L 478.097723 59.404904 
" clip-path="url(#pae0f19619b)" style="fill: none; stroke: #000000; stroke-width: 1.5"/>
    <path d="M 493.386051 54.626706 
L 495.325818 50.83125 
" clip-path="url(#pae0f19619b)" style="fill: none; stroke: #000000; stroke-width: 1.5"/>
   </g>
   <g id="PathCollection_18">
    <path d="M 562.657784 342.318939 
L 550.324816 342.491976 
L 537.991848 343.018969 
L 535.290506 343.704464 
" clip-path="url(#pae0f19619b)" style="fill: none; stroke: #000000; stroke-width: 1.5"/>
    <path d="M 535.588161 348.245629 
L 537.991848 348.611548 
L 550.324816 349.3582 
L 562.657784 349.393559 
" clip-path="url(#pae0f19619b)" style="fill: none; stroke: #000000; stroke-width: 1.5"/>
   </g>
   <g id="patch_8">
    <path d="M 328.331392 390.04 
L 328.331392 50.83125 
" style="fill: none; stroke: #000000; stroke-width: 0.8; stroke-linejoin: miter; stroke-linecap: square"/>
   </g>
   <g id="patch_9">
    <path d="M 562.657784 390.04 
L 562.657784 50.83125 
" style="fill: none; stroke: #000000; stroke-width: 0.8; stroke-linejoin: miter; stroke-linecap: square"/>
   </g>
   <g id="patch_10">
    <path d="M 328.331392 390.04 
L 562.657784 390.04 
" style="fill: none; stroke: #000000; stroke-width: 0.8; stroke-linejoin: miter; stroke-linecap: square"/>
   </g>
   <g id="patch_11">
    <path d="M 328.331392 50.83125 
L 562.657784 50.83125 
" style="fill: none; stroke: #000000; stroke-width: 0.8; stroke-linejoin: miter; stroke-linecap: square"/>
   </g>
   <g id="text_44">
    <!-- Precision (TPR) [%] -->
    <g transform="translate(388.396151 44.83125) scale(0.12 -0.12)">
     <defs>
      <path id="DejaVuSans-50" d="M 1259 4147 
L 1259 2394 
L 2053 2394 
Q 2494 2394 2734 2622 
Q 2975 2850 2975 3272 
Q 2975 3691 2734 3919 
Q 2494 4147 2053 4147 
L 1259 4147 
z
M 628 4666 
L 2053 4666 
Q 2838 4666 3239 4311 
Q 3641 3956 3641 3272 
Q 3641 2581 3239 2228 
Q 2838 1875 2053 1875 
L 1259 1875 
L 1259 0 
L 628 0 
L 628 4666 
z
" transform="scale(0.015625)"/>
      <path id="DejaVuSans-73" d="M 2834 3397 
L 2834 2853 
Q 2591 2978 2328 3040 
Q 2066 3103 1784 3103 
Q 1356 3103 1142 2972 
Q 928 2841 928 2578 
Q 928 2378 1081 2264 
Q 1234 2150 1697 2047 
L 1894 2003 
Q 2506 1872 2764 1633 
Q 3022 1394 3022 966 
Q 3022 478 2636 193 
Q 2250 -91 1575 -91 
Q 1294 -91 989 -36 
Q 684 19 347 128 
L 347 722 
Q 666 556 975 473 
Q 1284 391 1588 391 
Q 1994 391 2212 530 
Q 2431 669 2431 922 
Q 2431 1156 2273 1281 
Q 2116 1406 1581 1522 
L 1381 1569 
Q 847 1681 609 1914 
Q 372 2147 372 2553 
Q 372 3047 722 3315 
Q 1072 3584 1716 3584 
Q 2034 3584 2315 3537 
Q 2597 3491 2834 3397 
z
" transform="scale(0.015625)"/>
      <path id="DejaVuSans-6f" d="M 1959 3097 
Q 1497 3097 1228 2736 
Q 959 2375 959 1747 
Q 959 1119 1226 758 
Q 1494 397 1959 397 
Q 2419 397 2687 759 
Q 2956 1122 2956 1747 
Q 2956 2369 2687 2733 
Q 2419 3097 1959 3097 
z
M 1959 3584 
Q 2709 3584 3137 3096 
Q 3566 2609 3566 1747 
Q 3566 888 3137 398 
Q 2709 -91 1959 -91 
Q 1206 -91 779 398 
Q 353 888 353 1747 
Q 353 2609 779 3096 
Q 1206 3584 1959 3584 
z
" transform="scale(0.015625)"/>
      <path id="DejaVuSans-28" d="M 1984 4856 
Q 1566 4138 1362 3434 
Q 1159 2731 1159 2009 
Q 1159 1288 1364 580 
Q 1569 -128 1984 -844 
L 1484 -844 
Q 1016 -109 783 600 
Q 550 1309 550 2009 
Q 550 2706 781 3412 
Q 1013 4119 1484 4856 
L 1984 4856 
z
" transform="scale(0.015625)"/>
      <path id="DejaVuSans-54" d="M -19 4666 
L 3928 4666 
L 3928 4134 
L 2272 4134 
L 2272 0 
L 1638 0 
L 1638 4134 
L -19 4134 
L -19 4666 
z
" transform="scale(0.015625)"/>
      <path id="DejaVuSans-29" d="M 513 4856 
L 1013 4856 
Q 1481 4119 1714 3412 
Q 1947 2706 1947 2009 
Q 1947 1309 1714 600 
Q 1481 -109 1013 -844 
L 513 -844 
Q 928 -128 1133 580 
Q 1338 1288 1338 2009 
Q 1338 2731 1133 3434 
Q 928 4138 513 4856 
z
" transform="scale(0.015625)"/>
     </defs>
     <use xlink:href="#DejaVuSans-50"/>
     <use xlink:href="#DejaVuSans-72" x="58.552734"/>
     <use xlink:href="#DejaVuSans-65" x="97.416016"/>
     <use xlink:href="#DejaVuSans-63" x="158.939453"/>
     <use xlink:href="#DejaVuSans-69" x="213.919922"/>
     <use xlink:href="#DejaVuSans-73" x="241.703125"/>
     <use xlink:href="#DejaVuSans-69" x="293.802734"/>
     <use xlink:href="#DejaVuSans-6f" x="321.585938"/>
     <use xlink:href="#DejaVuSans-6e" x="382.767578"/>
     <use xlink:href="#DejaVuSans-20" x="446.146484"/>
     <use xlink:href="#DejaVuSans-28" x="477.933594"/>
     <use xlink:href="#DejaVuSans-54" x="516.947266"/>
     <use xlink:href="#DejaVuSans-50" x="578.03125"/>
     <use xlink:href="#DejaVuSans-52" x="638.333984"/>
     <use xlink:href="#DejaVuSans-29" x="707.816406"/>
     <use xlink:href="#DejaVuSans-20" x="746.830078"/>
     <use xlink:href="#DejaVuSans-5b" x="778.617188"/>
     <use xlink:href="#DejaVuSans-25" x="817.630859"/>
     <use xlink:href="#DejaVuSans-5d" x="912.650391"/>
    </g>
   </g>
   <g id="text_45">
    <g clip-path="url(#pae0f19619b)">
     <!-- 25 -->
     <g transform="translate(334.387898 73.326432) rotate(-1.726766) scale(0.1 -0.1)">
      <use xlink:href="#DejaVuSans-32"/>
      <use xlink:href="#DejaVuSans-35" x="63.623047"/>
     </g>
    </g>
   </g>
   <g id="text_46">
    <g clip-path="url(#pae0f19619b)">
     <!-- 25 -->
     <g transform="translate(389.739925 76.623618) rotate(-64.435916) scale(0.1 -0.1)">
      <use xlink:href="#DejaVuSans-32"/>
      <use xlink:href="#DejaVuSans-35" x="63.623047"/>
     </g>
    </g>
   </g>
   <g id="text_47">
    <g clip-path="url(#pae0f19619b)">
     <!-- 25 -->
     <g transform="translate(428.828317 246.678254) rotate(-274.774121) scale(0.1 -0.1)">
      <use xlink:href="#DejaVuSans-32"/>
      <use xlink:href="#DejaVuSans-35" x="63.623047"/>
     </g>
    </g>
   </g>
   <g id="text_48">
    <g clip-path="url(#pae0f19619b)">
     <!-- 50 -->
     <g transform="translate(482.862136 329.232473) rotate(-89.699411) scale(0.1 -0.1)">
      <use xlink:href="#DejaVuSans-35"/>
      <use xlink:href="#DejaVuSans-30" x="63.623047"/>
     </g>
    </g>
   </g>
   <g id="text_49">
    <g clip-path="url(#pae0f19619b)">
     <!-- 75 -->
     <g transform="translate(532.386581 388.288878) rotate(-12.628975) scale(0.1 -0.1)">
      <use xlink:href="#DejaVuSans-37"/>
      <use xlink:href="#DejaVuSans-35" x="63.623047"/>
     </g>
    </g>
   </g>
   <g id="text_50">
    <g clip-path="url(#pae0f19619b)">
     <!-- 75 -->
     <g transform="translate(481.567241 341.37541) rotate(-288.549907) scale(0.1 -0.1)">
      <use xlink:href="#DejaVuSans-37"/>
      <use xlink:href="#DejaVuSans-35" x="63.623047"/>
     </g>
    </g>
   </g>
   <g id="text_51">
    <g clip-path="url(#pae0f19619b)">
     <!-- 75 -->
     <g transform="translate(483.627878 68.646168) rotate(-20.035235) scale(0.1 -0.1)">
      <use xlink:href="#DejaVuSans-37"/>
      <use xlink:href="#DejaVuSans-35" x="63.623047"/>
     </g>
    </g>
   </g>
   <g id="text_52">
    <g clip-path="url(#pae0f19619b)">
     <!-- 95 -->
     <g transform="translate(520.814907 340.33195) rotate(-273.218043) scale(0.1 -0.1)">
      <use xlink:href="#DejaVuSans-39"/>
      <use xlink:href="#DejaVuSans-35" x="63.623047"/>
     </g>
    </g>
   </g>
  </g>
  <g id="axes_3">
   <g id="patch_12">
    <path d="M 605.792784 390.04 
L 793.253898 390.04 
L 793.253898 50.83125 
L 605.792784 50.83125 
z
" style="fill: #ffffff"/>
   </g>
   <g id="PathCollection_19">
    <path d="M 615.659159 390.04 
L 625.525533 390.04 
L 635.391908 390.04 
L 645.258282 390.04 
L 655.124656 390.04 
L 664.991031 390.04 
L 674.857405 390.04 
L 684.72378 390.04 
L 694.590154 390.04 
L 704.456528 390.04 
L 707.871812 390.04 
L 712.913421 379.051534 
L 709.893102 364.859384 
L 704.851183 346.529517 
L 713.007386 322.855584 
L 714.322903 314.094535 
L 716.076925 292.279523 
L 715.162594 252.789023 
L 714.322903 211.985868 
L 714.048837 201.78508 
L 714.322903 197.910131 
L 717.681669 135.910954 
L 716.51543 50.83125 
L 714.322903 50.83125 
L 704.456528 50.83125 
L 694.590154 50.83125 
L 684.72378 50.83125 
L 674.857405 50.83125 
L 664.991031 50.83125 
L 655.124656 50.83125 
L 645.258282 50.83125 
L 635.391908 50.83125 
L 625.525533 50.83125 
L 615.659159 50.83125 
L 605.792784 50.83125 
L 605.792784 135.910954 
L 605.792784 201.78508 
L 605.792784 252.789023 
L 605.792784 292.279523 
L 605.792784 322.855584 
L 605.792784 346.529517 
L 605.792784 364.859384 
L 605.792784 379.051534 
L 605.792784 390.04 
z
" clip-path="url(#p140d9aecfc)" style="fill: #482475"/>
   </g>
   <g id="PathCollection_20">
    <path d="M 714.322903 390.04 
L 722.264131 390.04 
L 722.727592 379.051534 
L 720.900486 364.859384 
L 724.189277 346.529517 
L 724.189277 346.529517 
L 725.976394 322.855584 
L 726.655871 292.279523 
L 728.251902 252.789023 
L 728.556361 201.78508 
L 734.055652 156.990675 
L 737.414417 135.910954 
L 736.111146 50.83125 
L 734.055652 50.83125 
L 724.189277 50.83125 
L 716.51543 50.83125 
L 717.681669 135.910954 
L 714.322903 197.910131 
L 714.048837 201.78508 
L 714.322903 211.985868 
L 715.162594 252.789023 
L 716.076925 292.279523 
L 714.322903 314.094535 
L 713.007386 322.855584 
L 704.851183 346.529517 
L 709.893102 364.859384 
L 712.913421 379.051534 
L 707.871812 390.04 
z
" clip-path="url(#p140d9aecfc)" style="fill: #355f8d"/>
   </g>
   <g id="PathCollection_21">
    <path d="M 724.189277 390.04 
L 728.212459 390.04 
L 734.055652 382.832511 
L 743.341651 379.051534 
L 740.250817 364.859384 
L 734.055652 360.479681 
L 727.816621 346.529517 
L 734.055652 324.501464 
L 736.028926 322.855584 
L 743.922026 293.424574 
L 744.680978 292.279523 
L 744.370498 252.789023 
L 743.922026 245.502745 
L 741.231197 201.78508 
L 743.922026 185.97529 
L 753.7884 135.910954 
L 753.7884 135.910954 
L 753.7884 135.910954 
L 750.718862 50.83125 
L 743.922026 50.83125 
L 736.111146 50.83125 
L 737.414417 135.910954 
L 734.055652 156.990675 
L 728.556361 201.78508 
L 728.251902 252.789023 
L 726.655871 292.279523 
L 725.976394 322.855584 
L 724.189277 346.529517 
L 724.189277 346.529517 
L 720.900486 364.859384 
L 722.727592 379.051534 
L 722.264131 390.04 
z
" clip-path="url(#p140d9aecfc)" style="fill: #21918c"/>
   </g>
   <g id="PathCollection_22">
    <path d="M 734.055652 388.740289 
L 743.922026 384.784647 
L 753.7884 384.022507 
L 763.654775 383.906902 
L 773.521149 383.817615 
L 783.387524 384.100288 
L 793.253898 383.598485 
L 793.253898 379.051534 
L 793.253898 364.859384 
L 793.253898 357.985684 
L 783.387524 357.844249 
L 773.521149 357.571605 
L 763.654775 357.221939 
L 753.7884 357.809435 
L 743.922026 355.121642 
L 734.055652 352.36912 
L 731.443964 346.529517 
L 734.055652 337.308472 
L 743.922026 333.449319 
L 753.7884 331.440414 
L 763.654775 330.483427 
L 773.521149 328.933071 
L 783.387524 330.379354 
L 793.253898 329.687204 
L 793.253898 322.855584 
L 793.253898 292.279523 
L 793.253898 252.789023 
L 793.253898 201.78508 
L 793.253898 135.910954 
L 793.253898 50.83125 
L 783.387524 50.83125 
L 773.521149 50.83125 
L 763.654775 50.83125 
L 753.7884 50.83125 
L 750.718862 50.83125 
L 753.7884 135.910954 
L 753.7884 135.910954 
L 753.7884 135.910954 
L 743.922026 185.97529 
L 741.231197 201.78508 
L 743.922026 245.502745 
L 744.370498 252.789023 
L 744.680978 292.279523 
L 743.922026 293.424574 
L 736.028926 322.855584 
L 734.055652 324.501464 
L 727.816621 346.529517 
L 734.055652 360.479681 
L 740.250817 364.859384 
L 743.341651 379.051534 
L 734.055652 382.832511 
L 728.212459 390.04 
L 733.001961 390.04 
z
" clip-path="url(#p140d9aecfc)" style="fill: #44bf70"/>
   </g>
   <g id="PathCollection_23">
    <path d="M 734.055652 390.04 
L 743.922026 390.04 
L 753.7884 390.04 
L 763.654775 390.04 
L 773.521149 390.04 
L 783.387524 390.04 
L 793.253898 390.04 
L 793.253898 383.598485 
L 783.387524 384.100288 
L 773.521149 383.817615 
L 763.654775 383.906902 
L 753.7884 384.022507 
L 743.922026 384.784647 
L 734.055652 388.740289 
L 733.001961 390.04 
z
" clip-path="url(#p140d9aecfc)" style="fill: #bddf26"/>
    <path d="M 734.055652 352.36912 
L 743.922026 355.121642 
L 753.7884 357.809435 
L 763.654775 357.221939 
L 773.521149 357.571605 
L 783.387524 357.844249 
L 793.253898 357.985684 
L 793.253898 346.529517 
L 793.253898 329.687204 
L 783.387524 330.379354 
L 773.521149 328.933071 
L 763.654775 330.483427 
L 753.7884 331.440414 
L 743.922026 333.449319 
L 734.055652 337.308472 
L 731.443964 346.529517 
z
" clip-path="url(#p140d9aecfc)" style="fill: #bddf26"/>
   </g>
   <g id="matplotlib.axis_5">
    <g id="xtick_13">
     <g id="line2d_33">
      <g>
       <use xlink:href="#m35b26cf881" x="605.792784" y="390.04" style="stroke: #000000; stroke-width: 0.8"/>
      </g>
     </g>
     <g id="text_53">
      <!-- −18 -->
      <g transform="translate(595.240441 404.638438) scale(0.1 -0.1)">
       <use xlink:href="#DejaVuSans-2212"/>
       <use xlink:href="#DejaVuSans-31" x="83.789062"/>
       <use xlink:href="#DejaVuSans-38" x="147.412109"/>
      </g>
     </g>
    </g>
    <g id="xtick_14">
     <g id="line2d_34">
      <g>
       <use xlink:href="#m35b26cf881" x="643.285007" y="390.04" style="stroke: #000000; stroke-width: 0.8"/>
      </g>
     </g>
     <g id="text_54">
      <!-- −12 -->
      <g transform="translate(632.732663 404.638438) scale(0.1 -0.1)">
       <use xlink:href="#DejaVuSans-2212"/>
       <use xlink:href="#DejaVuSans-31" x="83.789062"/>
       <use xlink:href="#DejaVuSans-32" x="147.412109"/>
      </g>
     </g>
    </g>
    <g id="xtick_15">
     <g id="line2d_35">
      <g>
       <use xlink:href="#m35b26cf881" x="680.77723" y="390.04" style="stroke: #000000; stroke-width: 0.8"/>
      </g>
     </g>
     <g id="text_55">
      <!-- −6 -->
      <g transform="translate(673.406136 404.638438) scale(0.1 -0.1)">
       <use xlink:href="#DejaVuSans-2212"/>
       <use xlink:href="#DejaVuSans-36" x="83.789062"/>
      </g>
     </g>
    </g>
    <g id="xtick_16">
     <g id="line2d_36">
      <g>
       <use xlink:href="#m35b26cf881" x="718.269453" y="390.04" style="stroke: #000000; stroke-width: 0.8"/>
      </g>
     </g>
     <g id="text_56">
      <!-- 0 -->
      <g transform="translate(715.088203 404.638438) scale(0.1 -0.1)">
       <use xlink:href="#DejaVuSans-30"/>
      </g>
     </g>
    </g>
    <g id="xtick_17">
     <g id="line2d_37">
      <g>
       <use xlink:href="#m35b26cf881" x="755.761675" y="390.04" style="stroke: #000000; stroke-width: 0.8"/>
      </g>
     </g>
     <g id="text_57">
      <!-- 6 -->
      <g transform="translate(752.580425 404.638438) scale(0.1 -0.1)">
       <use xlink:href="#DejaVuSans-36"/>
      </g>
     </g>
    </g>
    <g id="xtick_18">
     <g id="line2d_38">
      <g>
       <use xlink:href="#m35b26cf881" x="793.253898" y="390.04" style="stroke: #000000; stroke-width: 0.8"/>
      </g>
     </g>
     <g id="text_58">
      <!-- 12 -->
      <g transform="translate(786.891398 404.638438) scale(0.1 -0.1)">
       <use xlink:href="#DejaVuSans-31"/>
       <use xlink:href="#DejaVuSans-32" x="63.623047"/>
      </g>
     </g>
    </g>
    <g id="text_59">
     <!-- SNR [dB] -->
     <g transform="translate(677.038966 418.316562) scale(0.1 -0.1)">
      <use xlink:href="#DejaVuSans-53"/>
      <use xlink:href="#DejaVuSans-4e" x="63.476562"/>
      <use xlink:href="#DejaVuSans-52" x="138.28125"/>
      <use xlink:href="#DejaVuSans-20" x="207.763672"/>
      <use xlink:href="#DejaVuSans-5b" x="239.550781"/>
      <use xlink:href="#DejaVuSans-64" x="278.564453"/>
      <use xlink:href="#DejaVuSans-42" x="342.041016"/>
      <use xlink:href="#DejaVuSans-5d" x="410.644531"/>
     </g>
    </g>
   </g>
   <g id="matplotlib.axis_6">
    <g id="ytick_21">
     <g id="line2d_39">
      <g>
       <use xlink:href="#m6452750767" x="605.792784" y="390.04" style="stroke: #000000; stroke-width: 0.8"/>
      </g>
     </g>
     <g id="text_60">
      <!-- 10 -->
      <g transform="translate(586.067784 393.839219) scale(0.1 -0.1)">
       <use xlink:href="#DejaVuSans-31"/>
       <use xlink:href="#DejaVuSans-30" x="63.623047"/>
      </g>
     </g>
    </g>
    <g id="ytick_22">
     <g id="line2d_40">
      <g>
       <use xlink:href="#m6452750767" x="605.792784" y="352.350139" style="stroke: #000000; stroke-width: 0.8"/>
      </g>
     </g>
     <g id="text_61">
      <!-- 20 -->
      <g transform="translate(586.067784 356.149358) scale(0.1 -0.1)">
       <use xlink:href="#DejaVuSans-32"/>
       <use xlink:href="#DejaVuSans-30" x="63.623047"/>
      </g>
     </g>
    </g>
    <g id="ytick_23">
     <g id="line2d_41">
      <g>
       <use xlink:href="#m6452750767" x="605.792784" y="314.660278" style="stroke: #000000; stroke-width: 0.8"/>
      </g>
     </g>
     <g id="text_62">
      <!-- 30 -->
      <g transform="translate(586.067784 318.459497) scale(0.1 -0.1)">
       <use xlink:href="#DejaVuSans-33"/>
       <use xlink:href="#DejaVuSans-30" x="63.623047"/>
      </g>
     </g>
    </g>
    <g id="ytick_24">
     <g id="line2d_42">
      <g>
       <use xlink:href="#m6452750767" x="605.792784" y="276.970417" style="stroke: #000000; stroke-width: 0.8"/>
      </g>
     </g>
     <g id="text_63">
      <!-- 40 -->
      <g transform="translate(586.067784 280.769635) scale(0.1 -0.1)">
       <use xlink:href="#DejaVuSans-34"/>
       <use xlink:href="#DejaVuSans-30" x="63.623047"/>
      </g>
     </g>
    </g>
    <g id="ytick_25">
     <g id="line2d_43">
      <g>
       <use xlink:href="#m6452750767" x="605.792784" y="239.280556" style="stroke: #000000; stroke-width: 0.8"/>
      </g>
     </g>
     <g id="text_64">
      <!-- 50 -->
      <g transform="translate(586.067784 243.079774) scale(0.1 -0.1)">
       <use xlink:href="#DejaVuSans-35"/>
       <use xlink:href="#DejaVuSans-30" x="63.623047"/>
      </g>
     </g>
    </g>
    <g id="ytick_26">
     <g id="line2d_44">
      <g>
       <use xlink:href="#m6452750767" x="605.792784" y="201.590694" style="stroke: #000000; stroke-width: 0.8"/>
      </g>
     </g>
     <g id="text_65">
      <!-- 60 -->
      <g transform="translate(586.067784 205.389913) scale(0.1 -0.1)">
       <use xlink:href="#DejaVuSans-36"/>
       <use xlink:href="#DejaVuSans-30" x="63.623047"/>
      </g>
     </g>
    </g>
    <g id="ytick_27">
     <g id="line2d_45">
      <g>
       <use xlink:href="#m6452750767" x="605.792784" y="163.900833" style="stroke: #000000; stroke-width: 0.8"/>
      </g>
     </g>
     <g id="text_66">
      <!-- 70 -->
      <g transform="translate(586.067784 167.700052) scale(0.1 -0.1)">
       <use xlink:href="#DejaVuSans-37"/>
       <use xlink:href="#DejaVuSans-30" x="63.623047"/>
      </g>
     </g>
    </g>
    <g id="ytick_28">
     <g id="line2d_46">
      <g>
       <use xlink:href="#m6452750767" x="605.792784" y="126.210972" style="stroke: #000000; stroke-width: 0.8"/>
      </g>
     </g>
     <g id="text_67">
      <!-- 80 -->
      <g transform="translate(586.067784 130.010191) scale(0.1 -0.1)">
       <use xlink:href="#DejaVuSans-38"/>
       <use xlink:href="#DejaVuSans-30" x="63.623047"/>
      </g>
     </g>
    </g>
    <g id="ytick_29">
     <g id="line2d_47">
      <g>
       <use xlink:href="#m6452750767" x="605.792784" y="88.521111" style="stroke: #000000; stroke-width: 0.8"/>
      </g>
     </g>
     <g id="text_68">
      <!-- 90 -->
      <g transform="translate(586.067784 92.32033) scale(0.1 -0.1)">
       <use xlink:href="#DejaVuSans-39"/>
       <use xlink:href="#DejaVuSans-30" x="63.623047"/>
      </g>
     </g>
    </g>
    <g id="ytick_30">
     <g id="line2d_48">
      <g>
       <use xlink:href="#m6452750767" x="605.792784" y="50.83125" style="stroke: #000000; stroke-width: 0.8"/>
      </g>
     </g>
     <g id="text_69">
      <!-- 100 -->
      <g transform="translate(579.705284 54.630469) scale(0.1 -0.1)">
       <use xlink:href="#DejaVuSans-31"/>
       <use xlink:href="#DejaVuSans-30" x="63.623047"/>
       <use xlink:href="#DejaVuSans-30" x="127.246094"/>
      </g>
     </g>
    </g>
   </g>
   <g id="PathCollection_24">
    <path d="M 718.799313 50.83125 
L 720.305704 135.910954 
L 719.480326 201.78508 
L 717.78663 252.789023 
L 718.817584 292.279523 
L 716.789496 322.855584 
L 716.607026 323.638025 
" clip-path="url(#p140d9aecfc)" style="fill: none; stroke: #000000; stroke-width: 1.5"/>
    <path d="M 711.043214 342.896815 
L 709.784371 346.529517 
L 712.410034 364.859384 
L 714.322903 372.349685 
L 715.875943 379.051534 
L 714.322903 386.2363 
L 712.615261 390.04 
" clip-path="url(#p140d9aecfc)" style="fill: none; stroke: #000000; stroke-width: 1.5"/>
   </g>
   <g id="PathCollection_25">
    <path d="M 745.237543 50.83125 
L 743.922026 93.371102 
L 742.662489 135.910954 
L 734.055652 189.927737 
L 732.599957 201.78508 
L 734.055652 220.911558 
L 737.850411 252.789023 
L 734.055652 273.215144 
L 732.79056 282.294654 
" clip-path="url(#p140d9aecfc)" style="fill: none; stroke: #000000; stroke-width: 1.5"/>
    <path d="M 731.139375 302.37118 
L 730.611728 322.855584 
L 726.002949 346.529517 
L 734.055652 364.534961 
L 734.514553 364.859384 
L 736.086964 379.051534 
L 734.055652 379.878622 
L 725.817708 390.04 
" clip-path="url(#p140d9aecfc)" style="fill: none; stroke: #000000; stroke-width: 1.5"/>
   </g>
   <g id="PathCollection_26">
    <path d="M 793.253898 381.230281 
L 783.387524 382.244129 
L 773.521149 382.162726 
L 763.654775 382.309742 
L 763.211595 382.313226 
" clip-path="url(#p140d9aecfc)" style="fill: none; stroke: #000000; stroke-width: 1.5"/>
    <path d="M 744.399253 383.247907 
L 743.922026 383.291648 
L 734.055652 387.263345 
L 731.804586 390.04 
" clip-path="url(#p140d9aecfc)" style="fill: none; stroke: #000000; stroke-width: 1.5"/>
    <path d="M 793.253898 325.476626 
L 783.387524 326.341814 
L 773.521149 324.53396 
L 763.654775 326.390037 
L 753.7884 327.510961 
L 743.922026 327.999236 
L 734.055652 334.10672 
L 733.273301 336.868952 
" clip-path="url(#p140d9aecfc)" style="fill: none; stroke: #000000; stroke-width: 1.5"/>
    <path d="M 735.241579 354.914209 
L 743.922026 358.701694 
L 753.7884 360.746913 
L 763.654775 359.949598 
L 773.521149 360.332127 
L 783.387524 360.672933 
L 793.253898 360.849725 
" clip-path="url(#p140d9aecfc)" style="fill: none; stroke: #000000; stroke-width: 1.5"/>
   </g>
   <g id="PathCollection_27">
    <path d="M 787.498513 390.04 
L 783.387524 389.668768 
L 773.521149 388.782284 
L 773.120759 388.778879 
" clip-path="url(#p140d9aecfc)" style="fill: none; stroke: #000000; stroke-width: 1.5"/>
    <path d="M 754.190727 388.918706 
L 753.7884 388.928072 
L 743.922026 389.263641 
L 741.978649 390.04 
" clip-path="url(#p140d9aecfc)" style="fill: none; stroke: #000000; stroke-width: 1.5"/>
    <path d="M 793.253898 342.318939 
L 783.387524 342.491976 
L 773.521149 342.130405 
L 763.654775 342.763598 
L 756.723664 343.090384 
" clip-path="url(#p140d9aecfc)" style="fill: none; stroke: #000000; stroke-width: 1.5"/>
    <path d="M 757.05552 349.010895 
L 763.654775 349.038963 
L 773.521149 349.290039 
L 783.387524 349.3582 
L 793.253898 349.393559 
" clip-path="url(#p140d9aecfc)" style="fill: none; stroke: #000000; stroke-width: 1.5"/>
   </g>
   <g id="patch_13">
    <path d="M 605.792784 390.04 
L 605.792784 50.83125 
" style="fill: none; stroke: #000000; stroke-width: 0.8; stroke-linejoin: miter; stroke-linecap: square"/>
   </g>
   <g id="patch_14">
    <path d="M 793.253898 390.04 
L 793.253898 50.83125 
" style="fill: none; stroke: #000000; stroke-width: 0.8; stroke-linejoin: miter; stroke-linecap: square"/>
   </g>
   <g id="patch_15">
    <path d="M 605.792784 390.04 
L 793.253898 390.04 
" style="fill: none; stroke: #000000; stroke-width: 0.8; stroke-linejoin: miter; stroke-linecap: square"/>
   </g>
   <g id="patch_16">
    <path d="M 605.792784 50.83125 
L 793.253898 50.83125 
" style="fill: none; stroke: #000000; stroke-width: 0.8; stroke-linejoin: miter; stroke-linecap: square"/>
   </g>
   <g id="text_70">
    <!-- Recall (FPR) [%] -->
    <g transform="translate(651.506466 44.83125) scale(0.12 -0.12)">
     <defs>
      <path id="DejaVuSans-6c" d="M 603 4863 
L 1178 4863 
L 1178 0 
L 603 0 
L 603 4863 
z
" transform="scale(0.015625)"/>
     </defs>
     <use xlink:href="#DejaVuSans-52"/>
     <use xlink:href="#DejaVuSans-65" x="64.982422"/>
     <use xlink:href="#DejaVuSans-63" x="126.505859"/>
     <use xlink:href="#DejaVuSans-61" x="181.486328"/>
     <use xlink:href="#DejaVuSans-6c" x="242.765625"/>
     <use xlink:href="#DejaVuSans-6c" x="270.548828"/>
     <use xlink:href="#DejaVuSans-20" x="298.332031"/>
     <use xlink:href="#DejaVuSans-28" x="330.119141"/>
     <use xlink:href="#DejaVuSans-46" x="369.132812"/>
     <use xlink:href="#DejaVuSans-50" x="426.652344"/>
     <use xlink:href="#DejaVuSans-52" x="486.955078"/>
     <use xlink:href="#DejaVuSans-29" x="556.4375"/>
     <use xlink:href="#DejaVuSans-20" x="595.451172"/>
     <use xlink:href="#DejaVuSans-5b" x="627.238281"/>
     <use xlink:href="#DejaVuSans-25" x="666.251953"/>
     <use xlink:href="#DejaVuSans-5d" x="761.271484"/>
    </g>
   </g>
   <g id="text_71">
    <g clip-path="url(#p140d9aecfc)">
     <!-- 25 -->
     <g transform="translate(715.077754 340.326364) rotate(-72.802677) scale(0.1 -0.1)">
      <use xlink:href="#DejaVuSans-32"/>
      <use xlink:href="#DejaVuSans-35" x="63.623047"/>
     </g>
    </g>
   </g>
   <g id="text_72">
    <g clip-path="url(#p140d9aecfc)">
     <!-- 50 -->
     <g transform="translate(733.58961 298.859659) rotate(-84.964673) scale(0.1 -0.1)">
      <use xlink:href="#DejaVuSans-35"/>
      <use xlink:href="#DejaVuSans-30" x="63.623047"/>
     </g>
    </g>
   </g>
   <g id="text_73">
    <g clip-path="url(#p140d9aecfc)">
     <!-- 75 -->
     <g transform="translate(747.560566 385.438487) rotate(-2.655302) scale(0.1 -0.1)">
      <use xlink:href="#DejaVuSans-37"/>
      <use xlink:href="#DejaVuSans-35" x="63.623047"/>
     </g>
    </g>
   </g>
   <g id="text_74">
    <g clip-path="url(#p140d9aecfc)">
     <!-- 75 -->
     <g transform="translate(727.301978 340.39524) rotate(-274.360607) scale(0.1 -0.1)">
      <use xlink:href="#DejaVuSans-37"/>
      <use xlink:href="#DejaVuSans-35" x="63.623047"/>
     </g>
    </g>
   </g>
   <g id="text_75">
    <g clip-path="url(#p140d9aecfc)">
     <!-- 95 -->
     <g transform="translate(757.311451 391.501561) rotate(-0.395036) scale(0.1 -0.1)">
      <use xlink:href="#DejaVuSans-39"/>
      <use xlink:href="#DejaVuSans-35" x="63.623047"/>
     </g>
    </g>
   </g>
   <g id="text_76">
    <g clip-path="url(#p140d9aecfc)">
     <!-- 95 -->
     <g transform="translate(744.925442 340.329634) rotate(-273.17538) scale(0.1 -0.1)">
      <use xlink:href="#DejaVuSans-39"/>
      <use xlink:href="#DejaVuSans-35" x="63.623047"/>
     </g>
    </g>
   </g>
  </g>
  <g id="axes_4">
   <g id="patch_17">
    <path d="M 804.970218 390.04 
L 821.930655 390.04 
L 821.930655 50.83125 
L 804.970218 50.83125 
z
" style="fill: #ffffff"/>
   </g>
   <g id="QuadMesh_1">
    <path d="M 804.970218 390.04 
L 821.930655 390.04 
L 821.930655 322.19825 
L 804.970218 322.19825 
L 804.970218 390.04 
" clip-path="url(#p48935b6a5a)" style="fill: #482475"/>
    <path d="M 804.970218 322.19825 
L 821.930655 322.19825 
L 821.930655 254.3565 
L 804.970218 254.3565 
L 804.970218 322.19825 
" clip-path="url(#p48935b6a5a)" style="fill: #355f8d"/>
    <path d="M 804.970218 254.3565 
L 821.930655 254.3565 
L 821.930655 186.51475 
L 804.970218 186.51475 
L 804.970218 254.3565 
" clip-path="url(#p48935b6a5a)" style="fill: #21918c"/>
    <path d="M 804.970218 186.51475 
L 821.930655 186.51475 
L 821.930655 118.673 
L 804.970218 118.673 
L 804.970218 186.51475 
" clip-path="url(#p48935b6a5a)" style="fill: #44bf70"/>
    <path d="M 804.970218 118.673 
L 821.930655 118.673 
L 821.930655 50.83125 
L 804.970218 50.83125 
L 804.970218 118.673 
" clip-path="url(#p48935b6a5a)" style="fill: #bddf26"/>
   </g>
   <g id="matplotlib.axis_7"/>
   <g id="matplotlib.axis_8">
    <g id="ytick_31">
     <g id="line2d_49">
      <defs>
       <path id="ma2e9d08fbc" d="M 0 0 
L 3.5 0 
" style="stroke: #000000; stroke-width: 0.8"/>
      </defs>
      <g>
       <use xlink:href="#ma2e9d08fbc" x="821.930655" y="390.04" style="stroke: #000000; stroke-width: 0.8"/>
      </g>
     </g>
     <g id="text_77">
      <!-- 0 -->
      <g transform="translate(828.930655 393.839219) scale(0.1 -0.1)">
       <use xlink:href="#DejaVuSans-30"/>
      </g>
     </g>
    </g>
    <g id="ytick_32">
     <g id="line2d_50">
      <g>
       <use xlink:href="#ma2e9d08fbc" x="821.930655" y="322.19825" style="stroke: #000000; stroke-width: 0.8"/>
      </g>
     </g>
     <g id="text_78">
      <!-- 20 -->
      <g transform="translate(828.930655 325.997469) scale(0.1 -0.1)">
       <use xlink:href="#DejaVuSans-32"/>
       <use xlink:href="#DejaVuSans-30" x="63.623047"/>
      </g>
     </g>
    </g>
    <g id="ytick_33">
     <g id="line2d_51">
      <g>
       <use xlink:href="#ma2e9d08fbc" x="821.930655" y="254.3565" style="stroke: #000000; stroke-width: 0.8"/>
      </g>
     </g>
     <g id="text_79">
      <!-- 40 -->
      <g transform="translate(828.930655 258.155719) scale(0.1 -0.1)">
       <use xlink:href="#DejaVuSans-34"/>
       <use xlink:href="#DejaVuSans-30" x="63.623047"/>
      </g>
     </g>
    </g>
    <g id="ytick_34">
     <g id="line2d_52">
      <g>
       <use xlink:href="#ma2e9d08fbc" x="821.930655" y="186.51475" style="stroke: #000000; stroke-width: 0.8"/>
      </g>
     </g>
     <g id="text_80">
      <!-- 60 -->
      <g transform="translate(828.930655 190.313969) scale(0.1 -0.1)">
       <use xlink:href="#DejaVuSans-36"/>
       <use xlink:href="#DejaVuSans-30" x="63.623047"/>
      </g>
     </g>
    </g>
    <g id="ytick_35">
     <g id="line2d_53">
      <g>
       <use xlink:href="#ma2e9d08fbc" x="821.930655" y="118.673" style="stroke: #000000; stroke-width: 0.8"/>
      </g>
     </g>
     <g id="text_81">
      <!-- 80 -->
      <g transform="translate(828.930655 122.472219) scale(0.1 -0.1)">
       <use xlink:href="#DejaVuSans-38"/>
       <use xlink:href="#DejaVuSans-30" x="63.623047"/>
      </g>
     </g>
    </g>
    <g id="ytick_36">
     <g id="line2d_54">
      <g>
       <use xlink:href="#ma2e9d08fbc" x="821.930655" y="50.83125" style="stroke: #000000; stroke-width: 0.8"/>
      </g>
     </g>
     <g id="text_82">
      <!-- 100 -->
      <g transform="translate(828.930655 54.630469) scale(0.1 -0.1)">
       <use xlink:href="#DejaVuSans-31"/>
       <use xlink:href="#DejaVuSans-30" x="63.623047"/>
       <use xlink:href="#DejaVuSans-30" x="127.246094"/>
      </g>
     </g>
    </g>
   </g>
   <g id="LineCollection_1"/>
   <g id="patch_18">
    <path d="M 804.970218 390.04 
L 813.450436 390.04 
L 821.930655 390.04 
L 821.930655 50.83125 
L 813.450436 50.83125 
L 804.970218 50.83125 
L 804.970218 390.04 
z
" style="fill: none; stroke: #000000; stroke-width: 0.8; stroke-linejoin: miter; stroke-linecap: square"/>
   </g>
  </g>
  <g id="text_83">
   <!-- ASO+RMS_BL+Smooth -->
   <g transform="translate(362.5425 17.758125) scale(0.12 -0.12)">
    <defs>
     <path id="DejaVuSans-4f" d="M 2522 4238 
Q 1834 4238 1429 3725 
Q 1025 3213 1025 2328 
Q 1025 1447 1429 934 
Q 1834 422 2522 422 
Q 3209 422 3611 934 
Q 4013 1447 4013 2328 
Q 4013 3213 3611 3725 
Q 3209 4238 2522 4238 
z
M 2522 4750 
Q 3503 4750 4090 4092 
Q 4678 3434 4678 2328 
Q 4678 1225 4090 567 
Q 3503 -91 2522 -91 
Q 1538 -91 948 565 
Q 359 1222 359 2328 
Q 359 3434 948 4092 
Q 1538 4750 2522 4750 
z
" transform="scale(0.015625)"/>
     <path id="DejaVuSans-2b" d="M 2944 4013 
L 2944 2272 
L 4684 2272 
L 4684 1741 
L 2944 1741 
L 2944 0 
L 2419 0 
L 2419 1741 
L 678 1741 
L 678 2272 
L 2419 2272 
L 2419 4013 
L 2944 4013 
z
" transform="scale(0.015625)"/>
     <path id="DejaVuSans-4d" d="M 628 4666 
L 1569 4666 
L 2759 1491 
L 3956 4666 
L 4897 4666 
L 4897 0 
L 4281 0 
L 4281 4097 
L 3078 897 
L 2444 897 
L 1241 4097 
L 1241 0 
L 628 0 
L 628 4666 
z
" transform="scale(0.015625)"/>
     <path id="DejaVuSans-5f" d="M 3263 -1063 
L 3263 -1509 
L -63 -1509 
L -63 -1063 
L 3263 -1063 
z
" transform="scale(0.015625)"/>
     <path id="DejaVuSans-4c" d="M 628 4666 
L 1259 4666 
L 1259 531 
L 3531 531 
L 3531 0 
L 628 0 
L 628 4666 
z
" transform="scale(0.015625)"/>
     <path id="DejaVuSans-6d" d="M 3328 2828 
Q 3544 3216 3844 3400 
Q 4144 3584 4550 3584 
Q 5097 3584 5394 3201 
Q 5691 2819 5691 2113 
L 5691 0 
L 5113 0 
L 5113 2094 
Q 5113 2597 4934 2840 
Q 4756 3084 4391 3084 
Q 3944 3084 3684 2787 
Q 3425 2491 3425 1978 
L 3425 0 
L 2847 0 
L 2847 2094 
Q 2847 2600 2669 2842 
Q 2491 3084 2119 3084 
Q 1678 3084 1418 2786 
Q 1159 2488 1159 1978 
L 1159 0 
L 581 0 
L 581 3500 
L 1159 3500 
L 1159 2956 
Q 1356 3278 1631 3431 
Q 1906 3584 2284 3584 
Q 2666 3584 2933 3390 
Q 3200 3197 3328 2828 
z
" transform="scale(0.015625)"/>
     <path id="DejaVuSans-68" d="M 3513 2113 
L 3513 0 
L 2938 0 
L 2938 2094 
Q 2938 2591 2744 2837 
Q 2550 3084 2163 3084 
Q 1697 3084 1428 2787 
Q 1159 2491 1159 1978 
L 1159 0 
L 581 0 
L 581 4863 
L 1159 4863 
L 1159 2956 
Q 1366 3272 1645 3428 
Q 1925 3584 2291 3584 
Q 2894 3584 3203 3211 
Q 3513 2838 3513 2113 
z
" transform="scale(0.015625)"/>
    </defs>
    <use xlink:href="#DejaVuSans-41"/>
    <use xlink:href="#DejaVuSans-53" x="68.408203"/>
    <use xlink:href="#DejaVuSans-4f" x="131.884766"/>
    <use xlink:href="#DejaVuSans-2b" x="210.595703"/>
    <use xlink:href="#DejaVuSans-52" x="294.384766"/>
    <use xlink:href="#DejaVuSans-4d" x="363.867188"/>
    <use xlink:href="#DejaVuSans-53" x="450.146484"/>
    <use xlink:href="#DejaVuSans-5f" x="513.623047"/>
    <use xlink:href="#DejaVuSans-42" x="563.623047"/>
    <use xlink:href="#DejaVuSans-4c" x="632.226562"/>
    <use xlink:href="#DejaVuSans-2b" x="687.939453"/>
    <use xlink:href="#DejaVuSans-53" x="771.728516"/>
    <use xlink:href="#DejaVuSans-6d" x="835.205078"/>
    <use xlink:href="#DejaVuSans-6f" x="932.617188"/>
    <use xlink:href="#DejaVuSans-6f" x="993.798828"/>
    <use xlink:href="#DejaVuSans-74" x="1054.980469"/>
    <use xlink:href="#DejaVuSans-68" x="1094.189453"/>
   </g>
  </g>
 </g>
 <defs>
  <clipPath id="p6c259e2d78">
   <rect x="50.87" y="50.83125" width="234.326392" height="339.20875"/>
  </clipPath>
  <clipPath id="pae0f19619b">
   <rect x="328.331392" y="50.83125" width="234.326392" height="339.20875"/>
  </clipPath>
  <clipPath id="p140d9aecfc">
   <rect x="605.792784" y="50.83125" width="187.461114" height="339.20875"/>
  </clipPath>
  <clipPath id="p48935b6a5a">
   <rect x="804.970218" y="50.83125" width="16.960438" height="339.20875"/>
  </clipPath>
 </defs>
</svg>
