<?xml version="1.0" encoding="utf-8" standalone="no"?>
<!DOCTYPE svg PUBLIC "-//W3C//DTD SVG 1.1//EN"
  "http://www.w3.org/Graphics/SVG/1.1/DTD/svg11.dtd">
<svg xmlns:xlink="http://www.w3.org/1999/xlink" width="864pt" height="432pt" viewBox="0 0 864 432" xmlns="http://www.w3.org/2000/svg" version="1.1">
 <metadata>
  <rdf:RDF xmlns:dc="http://purl.org/dc/elements/1.1/" xmlns:cc="http://creativecommons.org/ns#" xmlns:rdf="http://www.w3.org/1999/02/22-rdf-syntax-ns#">
   <cc:Work>
    <dc:type rdf:resource="http://purl.org/dc/dcmitype/StillImage"/>
    <dc:date>2023-10-05T23:38:24.194509</dc:date>
    <dc:format>image/svg+xml</dc:format>
    <dc:creator>
     <cc:Agent>
      <dc:title>Matplotlib v3.7.2, https://matplotlib.org/</dc:title>
     </cc:Agent>
    </dc:creator>
   </cc:Work>
  </rdf:RDF>
 </metadata>
 <defs>
  <style type="text/css">*{stroke-linejoin: round; stroke-linecap: butt}</style>
 </defs>
 <g id="figure_1">
  <g id="patch_1">
   <path d="M 0 432 
L 864 432 
L 864 0 
L 0 0 
z
" style="fill: #ffffff"/>
  </g>
  <g id="axes_1">
   <g id="patch_2">
    <path d="M 50.87 390.04 
L 285.196392 390.04 
L 285.196392 50.83125 
L 50.87 50.83125 
z
" style="fill: #ffffff"/>
   </g>
   <g id="PathCollection_1">
    <path d="M 63.202968 390.04 
L 75.535936 390.04 
L 87.868904 390.04 
L 100.201872 390.04 
L 112.53484 390.04 
L 124.867808 390.04 
L 137.200776 390.04 
L 148.201226 390.04 
L 149.533744 387.135437 
L 152.801156 379.051534 
L 149.533744 369.546513 
L 147.366132 364.859384 
L 140.979953 346.529517 
L 145.885266 322.855584 
L 143.693337 292.279523 
L 146.100559 252.789023 
L 145.753365 201.78508 
L 144.826626 135.910954 
L 149.010764 50.83125 
L 137.200776 50.83125 
L 124.867808 50.83125 
L 112.53484 50.83125 
L 100.201872 50.83125 
L 87.868904 50.83125 
L 75.535936 50.83125 
L 63.202968 50.83125 
L 50.87 50.83125 
L 50.87 135.910954 
L 50.87 201.78508 
L 50.87 252.789023 
L 50.87 292.279523 
L 50.87 322.855584 
L 50.87 346.529517 
L 50.87 364.859384 
L 50.87 379.051534 
L 50.87 390.04 
z
" clip-path="url(#p3f7260796e)" style="fill: #482475"/>
   </g>
   <g id="PathCollection_2">
    <path d="M 149.533744 390.04 
L 161.866712 390.04 
L 168.786312 390.04 
L 174.19968 384.009424 
L 178.683601 379.051534 
L 175.1871 364.859384 
L 174.19968 364.256827 
L 161.866712 362.703612 
L 153.829336 346.529517 
L 161.083308 322.855584 
L 161.866712 319.699773 
L 170.154687 292.279523 
L 168.945488 252.789023 
L 162.448859 201.78508 
L 165.091615 135.910954 
L 168.82153 50.83125 
L 161.866712 50.83125 
L 149.533744 50.83125 
L 149.010764 50.83125 
L 144.826626 135.910954 
L 145.753365 201.78508 
L 146.100559 252.789023 
L 143.693337 292.279523 
L 145.885266 322.855584 
L 140.979953 346.529517 
L 147.366132 364.859384 
L 149.533744 369.546513 
L 152.801156 379.051534 
L 149.533744 387.135437 
L 148.201226 390.04 
z
" clip-path="url(#p3f7260796e)" style="fill: #355f8d"/>
   </g>
   <g id="PathCollection_3">
    <path d="M 174.19968 390.04 
L 186.532648 390.04 
L 198.865616 390.04 
L 203.729223 390.04 
L 211.198584 379.4806 
L 223.531552 379.904623 
L 227.388484 379.051534 
L 223.531552 375.794435 
L 211.198584 377.419571 
L 202.829563 364.859384 
L 198.865616 363.134952 
L 186.532648 360.366084 
L 174.19968 350.220808 
L 161.866712 351.06835 
L 159.611234 346.529517 
L 161.866712 339.583659 
L 174.19968 336.465121 
L 186.214908 322.855584 
L 186.532648 322.097749 
L 198.865616 307.505743 
L 206.149947 292.279523 
L 202.915051 252.789023 
L 198.865616 207.992536 
L 198.415817 201.78508 
L 197.618097 135.910954 
L 191.516693 50.83125 
L 186.532648 50.83125 
L 174.19968 50.83125 
L 168.82153 50.83125 
L 165.091615 135.910954 
L 162.448859 201.78508 
L 168.945488 252.789023 
L 170.154687 292.279523 
L 161.866712 319.699773 
L 161.083308 322.855584 
L 153.829336 346.529517 
L 161.866712 362.703612 
L 174.19968 364.256827 
L 175.1871 364.859384 
L 178.683601 379.051534 
L 174.19968 384.009424 
L 168.786312 390.04 
z
" clip-path="url(#p3f7260796e)" style="fill: #21918c"/>
    <path d="M 223.531552 146.802143 
L 235.86452 151.984241 
L 240.205725 135.910954 
L 235.86452 126.846099 
L 223.531552 133.246377 
L 218.079545 135.910954 
z
" clip-path="url(#p3f7260796e)" style="fill: #21918c"/>
   </g>
   <g id="PathCollection_4">
    <path d="M 211.198584 388.920064 
L 215.454525 390.04 
L 223.531552 390.04 
L 227.717706 390.04 
L 235.86452 386.321376 
L 248.197488 385.251854 
L 260.530456 384.996235 
L 272.863424 385.347772 
L 285.196392 385.327706 
L 285.196392 379.051534 
L 285.196392 364.859384 
L 285.196392 357.909309 
L 272.863424 359.81867 
L 260.530456 359.273138 
L 248.197488 358.545763 
L 235.86452 357.008667 
L 223.531552 356.730227 
L 211.198584 357.549169 
L 198.865616 352.727859 
L 186.532648 351.498988 
L 181.205376 346.529517 
L 186.532648 337.975353 
L 198.865616 336.364625 
L 211.198584 332.719255 
L 223.531552 331.993907 
L 235.86452 331.062547 
L 248.197488 329.78454 
L 260.530456 330.126863 
L 272.863424 330.126863 
L 285.196392 331.347321 
L 285.196392 322.855584 
L 285.196392 292.279523 
L 285.196392 252.789023 
L 285.196392 201.78508 
L 285.196392 135.910954 
L 285.196392 68.534446 
L 272.863424 59.74995 
L 265.956962 50.83125 
L 260.530456 50.83125 
L 248.197488 50.83125 
L 235.86452 50.83125 
L 223.531552 50.83125 
L 211.198584 50.83125 
L 198.865616 50.83125 
L 191.516693 50.83125 
L 197.618097 135.910954 
L 198.415817 201.78508 
L 198.865616 207.992536 
L 202.915051 252.789023 
L 206.149947 292.279523 
L 198.865616 307.505743 
L 186.532648 322.097749 
L 186.214908 322.855584 
L 174.19968 336.465121 
L 161.866712 339.583659 
L 159.611234 346.529517 
L 161.866712 351.06835 
L 174.19968 350.220808 
L 186.532648 360.366084 
L 198.865616 363.134952 
L 202.829563 364.859384 
L 211.198584 377.419571 
L 223.531552 375.794435 
L 227.388484 379.051534 
L 223.531552 379.904623 
L 211.198584 379.4806 
L 203.729223 390.04 
L 210.406379 390.04 
z
M 218.079545 135.910954 
L 223.531552 133.246377 
L 235.86452 126.846099 
L 240.205725 135.910954 
L 235.86452 151.984241 
L 223.531552 146.802143 
z
" clip-path="url(#p3f7260796e)" style="fill: #44bf70"/>
   </g>
   <g id="PathCollection_5">
    <path d="M 211.198584 390.04 
L 215.454525 390.04 
L 211.198584 388.920064 
L 210.406379 390.04 
z
" clip-path="url(#p3f7260796e)" style="fill: #bddf26"/>
    <path d="M 235.86452 390.04 
L 248.197488 390.04 
L 260.530456 390.04 
L 272.863424 390.04 
L 285.196392 390.04 
L 285.196392 385.327706 
L 272.863424 385.347772 
L 260.530456 384.996235 
L 248.197488 385.251854 
L 235.86452 386.321376 
L 227.717706 390.04 
z
" clip-path="url(#p3f7260796e)" style="fill: #bddf26"/>
    <path d="M 186.532648 351.498988 
L 198.865616 352.727859 
L 211.198584 357.549169 
L 223.531552 356.730227 
L 235.86452 357.008667 
L 248.197488 358.545763 
L 260.530456 359.273138 
L 272.863424 359.81867 
L 285.196392 357.909309 
L 285.196392 346.529517 
L 285.196392 331.347321 
L 272.863424 330.126863 
L 260.530456 330.126863 
L 248.197488 329.78454 
L 235.86452 331.062547 
L 223.531552 331.993907 
L 211.198584 332.719255 
L 198.865616 336.364625 
L 186.532648 337.975353 
L 181.205376 346.529517 
z
" clip-path="url(#p3f7260796e)" style="fill: #bddf26"/>
    <path d="M 272.863424 59.74995 
L 285.196392 68.534446 
L 285.196392 50.83125 
L 272.863424 50.83125 
L 265.956962 50.83125 
z
" clip-path="url(#p3f7260796e)" style="fill: #bddf26"/>
   </g>
   <g id="matplotlib.axis_1">
    <g id="xtick_1">
     <g id="line2d_1">
      <defs>
       <path id="m1daad20416" d="M 0 0 
L 0 3.5 
" style="stroke: #000000; stroke-width: 0.8"/>
      </defs>
      <g>
       <use xlink:href="#m1daad20416" x="50.87" y="390.04" style="stroke: #000000; stroke-width: 0.8"/>
      </g>
     </g>
     <g id="text_1">
      <!-- −18 -->
      <g transform="translate(40.317656 404.638438) scale(0.1 -0.1)">
       <defs>
        <path id="DejaVuSans-2212" d="M 678 2272 
L 4684 2272 
L 4684 1741 
L 678 1741 
L 678 2272 
z
" transform="scale(0.015625)"/>
        <path id="DejaVuSans-31" d="M 794 531 
L 1825 531 
L 1825 4091 
L 703 3866 
L 703 4441 
L 1819 4666 
L 2450 4666 
L 2450 531 
L 3481 531 
L 3481 0 
L 794 0 
L 794 531 
z
" transform="scale(0.015625)"/>
        <path id="DejaVuSans-38" d="M 2034 2216 
Q 1584 2216 1326 1975 
Q 1069 1734 1069 1313 
Q 1069 891 1326 650 
Q 1584 409 2034 409 
Q 2484 409 2743 651 
Q 3003 894 3003 1313 
Q 3003 1734 2745 1975 
Q 2488 2216 2034 2216 
z
M 1403 2484 
Q 997 2584 770 2862 
Q 544 3141 544 3541 
Q 544 4100 942 4425 
Q 1341 4750 2034 4750 
Q 2731 4750 3128 4425 
Q 3525 4100 3525 3541 
Q 3525 3141 3298 2862 
Q 3072 2584 2669 2484 
Q 3125 2378 3379 2068 
Q 3634 1759 3634 1313 
Q 3634 634 3220 271 
Q 2806 -91 2034 -91 
Q 1263 -91 848 271 
Q 434 634 434 1313 
Q 434 1759 690 2068 
Q 947 2378 1403 2484 
z
M 1172 3481 
Q 1172 3119 1398 2916 
Q 1625 2713 2034 2713 
Q 2441 2713 2670 2916 
Q 2900 3119 2900 3481 
Q 2900 3844 2670 4047 
Q 2441 4250 2034 4250 
Q 1625 4250 1398 4047 
Q 1172 3844 1172 3481 
z
" transform="scale(0.015625)"/>
       </defs>
       <use xlink:href="#DejaVuSans-2212"/>
       <use xlink:href="#DejaVuSans-31" x="83.789062"/>
       <use xlink:href="#DejaVuSans-38" x="147.412109"/>
      </g>
     </g>
    </g>
    <g id="xtick_2">
     <g id="line2d_2">
      <g>
       <use xlink:href="#m1daad20416" x="97.735278" y="390.04" style="stroke: #000000; stroke-width: 0.8"/>
      </g>
     </g>
     <g id="text_2">
      <!-- −12 -->
      <g transform="translate(87.182935 404.638438) scale(0.1 -0.1)">
       <defs>
        <path id="DejaVuSans-32" d="M 1228 531 
L 3431 531 
L 3431 0 
L 469 0 
L 469 531 
Q 828 903 1448 1529 
Q 2069 2156 2228 2338 
Q 2531 2678 2651 2914 
Q 2772 3150 2772 3378 
Q 2772 3750 2511 3984 
Q 2250 4219 1831 4219 
Q 1534 4219 1204 4116 
Q 875 4013 500 3803 
L 500 4441 
Q 881 4594 1212 4672 
Q 1544 4750 1819 4750 
Q 2544 4750 2975 4387 
Q 3406 4025 3406 3419 
Q 3406 3131 3298 2873 
Q 3191 2616 2906 2266 
Q 2828 2175 2409 1742 
Q 1991 1309 1228 531 
z
" transform="scale(0.015625)"/>
       </defs>
       <use xlink:href="#DejaVuSans-2212"/>
       <use xlink:href="#DejaVuSans-31" x="83.789062"/>
       <use xlink:href="#DejaVuSans-32" x="147.412109"/>
      </g>
     </g>
    </g>
    <g id="xtick_3">
     <g id="line2d_3">
      <g>
       <use xlink:href="#m1daad20416" x="144.600557" y="390.04" style="stroke: #000000; stroke-width: 0.8"/>
      </g>
     </g>
     <g id="text_3">
      <!-- −6 -->
      <g transform="translate(137.229463 404.638438) scale(0.1 -0.1)">
       <defs>
        <path id="DejaVuSans-36" d="M 2113 2584 
Q 1688 2584 1439 2293 
Q 1191 2003 1191 1497 
Q 1191 994 1439 701 
Q 1688 409 2113 409 
Q 2538 409 2786 701 
Q 3034 994 3034 1497 
Q 3034 2003 2786 2293 
Q 2538 2584 2113 2584 
z
M 3366 4563 
L 3366 3988 
Q 3128 4100 2886 4159 
Q 2644 4219 2406 4219 
Q 1781 4219 1451 3797 
Q 1122 3375 1075 2522 
Q 1259 2794 1537 2939 
Q 1816 3084 2150 3084 
Q 2853 3084 3261 2657 
Q 3669 2231 3669 1497 
Q 3669 778 3244 343 
Q 2819 -91 2113 -91 
Q 1303 -91 875 529 
Q 447 1150 447 2328 
Q 447 3434 972 4092 
Q 1497 4750 2381 4750 
Q 2619 4750 2861 4703 
Q 3103 4656 3366 4563 
z
" transform="scale(0.015625)"/>
       </defs>
       <use xlink:href="#DejaVuSans-2212"/>
       <use xlink:href="#DejaVuSans-36" x="83.789062"/>
      </g>
     </g>
    </g>
    <g id="xtick_4">
     <g id="line2d_4">
      <g>
       <use xlink:href="#m1daad20416" x="191.465835" y="390.04" style="stroke: #000000; stroke-width: 0.8"/>
      </g>
     </g>
     <g id="text_4">
      <!-- 0 -->
      <g transform="translate(188.284585 404.638438) scale(0.1 -0.1)">
       <defs>
        <path id="DejaVuSans-30" d="M 2034 4250 
Q 1547 4250 1301 3770 
Q 1056 3291 1056 2328 
Q 1056 1369 1301 889 
Q 1547 409 2034 409 
Q 2525 409 2770 889 
Q 3016 1369 3016 2328 
Q 3016 3291 2770 3770 
Q 2525 4250 2034 4250 
z
M 2034 4750 
Q 2819 4750 3233 4129 
Q 3647 3509 3647 2328 
Q 3647 1150 3233 529 
Q 2819 -91 2034 -91 
Q 1250 -91 836 529 
Q 422 1150 422 2328 
Q 422 3509 836 4129 
Q 1250 4750 2034 4750 
z
" transform="scale(0.015625)"/>
       </defs>
       <use xlink:href="#DejaVuSans-30"/>
      </g>
     </g>
    </g>
    <g id="xtick_5">
     <g id="line2d_5">
      <g>
       <use xlink:href="#m1daad20416" x="238.331114" y="390.04" style="stroke: #000000; stroke-width: 0.8"/>
      </g>
     </g>
     <g id="text_5">
      <!-- 6 -->
      <g transform="translate(235.149864 404.638438) scale(0.1 -0.1)">
       <use xlink:href="#DejaVuSans-36"/>
      </g>
     </g>
    </g>
    <g id="xtick_6">
     <g id="line2d_6">
      <g>
       <use xlink:href="#m1daad20416" x="285.196392" y="390.04" style="stroke: #000000; stroke-width: 0.8"/>
      </g>
     </g>
     <g id="text_6">
      <!-- 12 -->
      <g transform="translate(278.833892 404.638438) scale(0.1 -0.1)">
       <use xlink:href="#DejaVuSans-31"/>
       <use xlink:href="#DejaVuSans-32" x="63.623047"/>
      </g>
     </g>
    </g>
    <g id="text_7">
     <!-- SNR [dB] -->
     <g transform="translate(145.548821 418.316562) scale(0.1 -0.1)">
      <defs>
       <path id="DejaVuSans-53" d="M 3425 4513 
L 3425 3897 
Q 3066 4069 2747 4153 
Q 2428 4238 2131 4238 
Q 1616 4238 1336 4038 
Q 1056 3838 1056 3469 
Q 1056 3159 1242 3001 
Q 1428 2844 1947 2747 
L 2328 2669 
Q 3034 2534 3370 2195 
Q 3706 1856 3706 1288 
Q 3706 609 3251 259 
Q 2797 -91 1919 -91 
Q 1588 -91 1214 -16 
Q 841 59 441 206 
L 441 856 
Q 825 641 1194 531 
Q 1563 422 1919 422 
Q 2459 422 2753 634 
Q 3047 847 3047 1241 
Q 3047 1584 2836 1778 
Q 2625 1972 2144 2069 
L 1759 2144 
Q 1053 2284 737 2584 
Q 422 2884 422 3419 
Q 422 4038 858 4394 
Q 1294 4750 2059 4750 
Q 2388 4750 2728 4690 
Q 3069 4631 3425 4513 
z
" transform="scale(0.015625)"/>
       <path id="DejaVuSans-4e" d="M 628 4666 
L 1478 4666 
L 3547 763 
L 3547 4666 
L 4159 4666 
L 4159 0 
L 3309 0 
L 1241 3903 
L 1241 0 
L 628 0 
L 628 4666 
z
" transform="scale(0.015625)"/>
       <path id="DejaVuSans-52" d="M 2841 2188 
Q 3044 2119 3236 1894 
Q 3428 1669 3622 1275 
L 4263 0 
L 3584 0 
L 2988 1197 
Q 2756 1666 2539 1819 
Q 2322 1972 1947 1972 
L 1259 1972 
L 1259 0 
L 628 0 
L 628 4666 
L 2053 4666 
Q 2853 4666 3247 4331 
Q 3641 3997 3641 3322 
Q 3641 2881 3436 2590 
Q 3231 2300 2841 2188 
z
M 1259 4147 
L 1259 2491 
L 2053 2491 
Q 2509 2491 2742 2702 
Q 2975 2913 2975 3322 
Q 2975 3731 2742 3939 
Q 2509 4147 2053 4147 
L 1259 4147 
z
" transform="scale(0.015625)"/>
       <path id="DejaVuSans-20" transform="scale(0.015625)"/>
       <path id="DejaVuSans-5b" d="M 550 4863 
L 1875 4863 
L 1875 4416 
L 1125 4416 
L 1125 -397 
L 1875 -397 
L 1875 -844 
L 550 -844 
L 550 4863 
z
" transform="scale(0.015625)"/>
       <path id="DejaVuSans-64" d="M 2906 2969 
L 2906 4863 
L 3481 4863 
L 3481 0 
L 2906 0 
L 2906 525 
Q 2725 213 2448 61 
Q 2172 -91 1784 -91 
Q 1150 -91 751 415 
Q 353 922 353 1747 
Q 353 2572 751 3078 
Q 1150 3584 1784 3584 
Q 2172 3584 2448 3432 
Q 2725 3281 2906 2969 
z
M 947 1747 
Q 947 1113 1208 752 
Q 1469 391 1925 391 
Q 2381 391 2643 752 
Q 2906 1113 2906 1747 
Q 2906 2381 2643 2742 
Q 2381 3103 1925 3103 
Q 1469 3103 1208 2742 
Q 947 2381 947 1747 
z
" transform="scale(0.015625)"/>
       <path id="DejaVuSans-42" d="M 1259 2228 
L 1259 519 
L 2272 519 
Q 2781 519 3026 730 
Q 3272 941 3272 1375 
Q 3272 1813 3026 2020 
Q 2781 2228 2272 2228 
L 1259 2228 
z
M 1259 4147 
L 1259 2741 
L 2194 2741 
Q 2656 2741 2882 2914 
Q 3109 3088 3109 3444 
Q 3109 3797 2882 3972 
Q 2656 4147 2194 4147 
L 1259 4147 
z
M 628 4666 
L 2241 4666 
Q 2963 4666 3353 4366 
Q 3744 4066 3744 3513 
Q 3744 3084 3544 2831 
Q 3344 2578 2956 2516 
Q 3422 2416 3680 2098 
Q 3938 1781 3938 1306 
Q 3938 681 3513 340 
Q 3088 0 2303 0 
L 628 0 
L 628 4666 
z
" transform="scale(0.015625)"/>
       <path id="DejaVuSans-5d" d="M 1947 4863 
L 1947 -844 
L 622 -844 
L 622 -397 
L 1369 -397 
L 1369 4416 
L 622 4416 
L 622 4863 
L 1947 4863 
z
" transform="scale(0.015625)"/>
      </defs>
      <use xlink:href="#DejaVuSans-53"/>
      <use xlink:href="#DejaVuSans-4e" x="63.476562"/>
      <use xlink:href="#DejaVuSans-52" x="138.28125"/>
      <use xlink:href="#DejaVuSans-20" x="207.763672"/>
      <use xlink:href="#DejaVuSans-5b" x="239.550781"/>
      <use xlink:href="#DejaVuSans-64" x="278.564453"/>
      <use xlink:href="#DejaVuSans-42" x="342.041016"/>
      <use xlink:href="#DejaVuSans-5d" x="410.644531"/>
     </g>
    </g>
   </g>
   <g id="matplotlib.axis_2">
    <g id="ytick_1">
     <g id="line2d_7">
      <defs>
       <path id="m3ce07d8afb" d="M 0 0 
L -3.5 0 
" style="stroke: #000000; stroke-width: 0.8"/>
      </defs>
      <g>
       <use xlink:href="#m3ce07d8afb" x="50.87" y="390.04" style="stroke: #000000; stroke-width: 0.8"/>
      </g>
     </g>
     <g id="text_8">
      <!-- 10 -->
      <g transform="translate(31.145 393.839219) scale(0.1 -0.1)">
       <use xlink:href="#DejaVuSans-31"/>
       <use xlink:href="#DejaVuSans-30" x="63.623047"/>
      </g>
     </g>
    </g>
    <g id="ytick_2">
     <g id="line2d_8">
      <g>
       <use xlink:href="#m3ce07d8afb" x="50.87" y="352.350139" style="stroke: #000000; stroke-width: 0.8"/>
      </g>
     </g>
     <g id="text_9">
      <!-- 20 -->
      <g transform="translate(31.145 356.149358) scale(0.1 -0.1)">
       <use xlink:href="#DejaVuSans-32"/>
       <use xlink:href="#DejaVuSans-30" x="63.623047"/>
      </g>
     </g>
    </g>
    <g id="ytick_3">
     <g id="line2d_9">
      <g>
       <use xlink:href="#m3ce07d8afb" x="50.87" y="314.660278" style="stroke: #000000; stroke-width: 0.8"/>
      </g>
     </g>
     <g id="text_10">
      <!-- 30 -->
      <g transform="translate(31.145 318.459497) scale(0.1 -0.1)">
       <defs>
        <path id="DejaVuSans-33" d="M 2597 2516 
Q 3050 2419 3304 2112 
Q 3559 1806 3559 1356 
Q 3559 666 3084 287 
Q 2609 -91 1734 -91 
Q 1441 -91 1130 -33 
Q 819 25 488 141 
L 488 750 
Q 750 597 1062 519 
Q 1375 441 1716 441 
Q 2309 441 2620 675 
Q 2931 909 2931 1356 
Q 2931 1769 2642 2001 
Q 2353 2234 1838 2234 
L 1294 2234 
L 1294 2753 
L 1863 2753 
Q 2328 2753 2575 2939 
Q 2822 3125 2822 3475 
Q 2822 3834 2567 4026 
Q 2313 4219 1838 4219 
Q 1578 4219 1281 4162 
Q 984 4106 628 3988 
L 628 4550 
Q 988 4650 1302 4700 
Q 1616 4750 1894 4750 
Q 2613 4750 3031 4423 
Q 3450 4097 3450 3541 
Q 3450 3153 3228 2886 
Q 3006 2619 2597 2516 
z
" transform="scale(0.015625)"/>
       </defs>
       <use xlink:href="#DejaVuSans-33"/>
       <use xlink:href="#DejaVuSans-30" x="63.623047"/>
      </g>
     </g>
    </g>
    <g id="ytick_4">
     <g id="line2d_10">
      <g>
       <use xlink:href="#m3ce07d8afb" x="50.87" y="276.970417" style="stroke: #000000; stroke-width: 0.8"/>
      </g>
     </g>
     <g id="text_11">
      <!-- 40 -->
      <g transform="translate(31.145 280.769635) scale(0.1 -0.1)">
       <defs>
        <path id="DejaVuSans-34" d="M 2419 4116 
L 825 1625 
L 2419 1625 
L 2419 4116 
z
M 2253 4666 
L 3047 4666 
L 3047 1625 
L 3713 1625 
L 3713 1100 
L 3047 1100 
L 3047 0 
L 2419 0 
L 2419 1100 
L 313 1100 
L 313 1709 
L 2253 4666 
z
" transform="scale(0.015625)"/>
       </defs>
       <use xlink:href="#DejaVuSans-34"/>
       <use xlink:href="#DejaVuSans-30" x="63.623047"/>
      </g>
     </g>
    </g>
    <g id="ytick_5">
     <g id="line2d_11">
      <g>
       <use xlink:href="#m3ce07d8afb" x="50.87" y="239.280556" style="stroke: #000000; stroke-width: 0.8"/>
      </g>
     </g>
     <g id="text_12">
      <!-- 50 -->
      <g transform="translate(31.145 243.079774) scale(0.1 -0.1)">
       <defs>
        <path id="DejaVuSans-35" d="M 691 4666 
L 3169 4666 
L 3169 4134 
L 1269 4134 
L 1269 2991 
Q 1406 3038 1543 3061 
Q 1681 3084 1819 3084 
Q 2600 3084 3056 2656 
Q 3513 2228 3513 1497 
Q 3513 744 3044 326 
Q 2575 -91 1722 -91 
Q 1428 -91 1123 -41 
Q 819 9 494 109 
L 494 744 
Q 775 591 1075 516 
Q 1375 441 1709 441 
Q 2250 441 2565 725 
Q 2881 1009 2881 1497 
Q 2881 1984 2565 2268 
Q 2250 2553 1709 2553 
Q 1456 2553 1204 2497 
Q 953 2441 691 2322 
L 691 4666 
z
" transform="scale(0.015625)"/>
       </defs>
       <use xlink:href="#DejaVuSans-35"/>
       <use xlink:href="#DejaVuSans-30" x="63.623047"/>
      </g>
     </g>
    </g>
    <g id="ytick_6">
     <g id="line2d_12">
      <g>
       <use xlink:href="#m3ce07d8afb" x="50.87" y="201.590694" style="stroke: #000000; stroke-width: 0.8"/>
      </g>
     </g>
     <g id="text_13">
      <!-- 60 -->
      <g transform="translate(31.145 205.389913) scale(0.1 -0.1)">
       <use xlink:href="#DejaVuSans-36"/>
       <use xlink:href="#DejaVuSans-30" x="63.623047"/>
      </g>
     </g>
    </g>
    <g id="ytick_7">
     <g id="line2d_13">
      <g>
       <use xlink:href="#m3ce07d8afb" x="50.87" y="163.900833" style="stroke: #000000; stroke-width: 0.8"/>
      </g>
     </g>
     <g id="text_14">
      <!-- 70 -->
      <g transform="translate(31.145 167.700052) scale(0.1 -0.1)">
       <defs>
        <path id="DejaVuSans-37" d="M 525 4666 
L 3525 4666 
L 3525 4397 
L 1831 0 
L 1172 0 
L 2766 4134 
L 525 4134 
L 525 4666 
z
" transform="scale(0.015625)"/>
       </defs>
       <use xlink:href="#DejaVuSans-37"/>
       <use xlink:href="#DejaVuSans-30" x="63.623047"/>
      </g>
     </g>
    </g>
    <g id="ytick_8">
     <g id="line2d_14">
      <g>
       <use xlink:href="#m3ce07d8afb" x="50.87" y="126.210972" style="stroke: #000000; stroke-width: 0.8"/>
      </g>
     </g>
     <g id="text_15">
      <!-- 80 -->
      <g transform="translate(31.145 130.010191) scale(0.1 -0.1)">
       <use xlink:href="#DejaVuSans-38"/>
       <use xlink:href="#DejaVuSans-30" x="63.623047"/>
      </g>
     </g>
    </g>
    <g id="ytick_9">
     <g id="line2d_15">
      <g>
       <use xlink:href="#m3ce07d8afb" x="50.87" y="88.521111" style="stroke: #000000; stroke-width: 0.8"/>
      </g>
     </g>
     <g id="text_16">
      <!-- 90 -->
      <g transform="translate(31.145 92.32033) scale(0.1 -0.1)">
       <defs>
        <path id="DejaVuSans-39" d="M 703 97 
L 703 672 
Q 941 559 1184 500 
Q 1428 441 1663 441 
Q 2288 441 2617 861 
Q 2947 1281 2994 2138 
Q 2813 1869 2534 1725 
Q 2256 1581 1919 1581 
Q 1219 1581 811 2004 
Q 403 2428 403 3163 
Q 403 3881 828 4315 
Q 1253 4750 1959 4750 
Q 2769 4750 3195 4129 
Q 3622 3509 3622 2328 
Q 3622 1225 3098 567 
Q 2575 -91 1691 -91 
Q 1453 -91 1209 -44 
Q 966 3 703 97 
z
M 1959 2075 
Q 2384 2075 2632 2365 
Q 2881 2656 2881 3163 
Q 2881 3666 2632 3958 
Q 2384 4250 1959 4250 
Q 1534 4250 1286 3958 
Q 1038 3666 1038 3163 
Q 1038 2656 1286 2365 
Q 1534 2075 1959 2075 
z
" transform="scale(0.015625)"/>
       </defs>
       <use xlink:href="#DejaVuSans-39"/>
       <use xlink:href="#DejaVuSans-30" x="63.623047"/>
      </g>
     </g>
    </g>
    <g id="ytick_10">
     <g id="line2d_16">
      <g>
       <use xlink:href="#m3ce07d8afb" x="50.87" y="50.83125" style="stroke: #000000; stroke-width: 0.8"/>
      </g>
     </g>
     <g id="text_17">
      <!-- 100 -->
      <g transform="translate(24.7825 54.630469) scale(0.1 -0.1)">
       <use xlink:href="#DejaVuSans-31"/>
       <use xlink:href="#DejaVuSans-30" x="63.623047"/>
       <use xlink:href="#DejaVuSans-30" x="127.246094"/>
      </g>
     </g>
    </g>
    <g id="text_18">
     <!-- Firing Rate [Hz] -->
     <g transform="translate(18.702813 259.052031) rotate(-90) scale(0.1 -0.1)">
      <defs>
       <path id="DejaVuSans-46" d="M 628 4666 
L 3309 4666 
L 3309 4134 
L 1259 4134 
L 1259 2759 
L 3109 2759 
L 3109 2228 
L 1259 2228 
L 1259 0 
L 628 0 
L 628 4666 
z
" transform="scale(0.015625)"/>
       <path id="DejaVuSans-69" d="M 603 3500 
L 1178 3500 
L 1178 0 
L 603 0 
L 603 3500 
z
M 603 4863 
L 1178 4863 
L 1178 4134 
L 603 4134 
L 603 4863 
z
" transform="scale(0.015625)"/>
       <path id="DejaVuSans-72" d="M 2631 2963 
Q 2534 3019 2420 3045 
Q 2306 3072 2169 3072 
Q 1681 3072 1420 2755 
Q 1159 2438 1159 1844 
L 1159 0 
L 581 0 
L 581 3500 
L 1159 3500 
L 1159 2956 
Q 1341 3275 1631 3429 
Q 1922 3584 2338 3584 
Q 2397 3584 2469 3576 
Q 2541 3569 2628 3553 
L 2631 2963 
z
" transform="scale(0.015625)"/>
       <path id="DejaVuSans-6e" d="M 3513 2113 
L 3513 0 
L 2938 0 
L 2938 2094 
Q 2938 2591 2744 2837 
Q 2550 3084 2163 3084 
Q 1697 3084 1428 2787 
Q 1159 2491 1159 1978 
L 1159 0 
L 581 0 
L 581 3500 
L 1159 3500 
L 1159 2956 
Q 1366 3272 1645 3428 
Q 1925 3584 2291 3584 
Q 2894 3584 3203 3211 
Q 3513 2838 3513 2113 
z
" transform="scale(0.015625)"/>
       <path id="DejaVuSans-67" d="M 2906 1791 
Q 2906 2416 2648 2759 
Q 2391 3103 1925 3103 
Q 1463 3103 1205 2759 
Q 947 2416 947 1791 
Q 947 1169 1205 825 
Q 1463 481 1925 481 
Q 2391 481 2648 825 
Q 2906 1169 2906 1791 
z
M 3481 434 
Q 3481 -459 3084 -895 
Q 2688 -1331 1869 -1331 
Q 1566 -1331 1297 -1286 
Q 1028 -1241 775 -1147 
L 775 -588 
Q 1028 -725 1275 -790 
Q 1522 -856 1778 -856 
Q 2344 -856 2625 -561 
Q 2906 -266 2906 331 
L 2906 616 
Q 2728 306 2450 153 
Q 2172 0 1784 0 
Q 1141 0 747 490 
Q 353 981 353 1791 
Q 353 2603 747 3093 
Q 1141 3584 1784 3584 
Q 2172 3584 2450 3431 
Q 2728 3278 2906 2969 
L 2906 3500 
L 3481 3500 
L 3481 434 
z
" transform="scale(0.015625)"/>
       <path id="DejaVuSans-61" d="M 2194 1759 
Q 1497 1759 1228 1600 
Q 959 1441 959 1056 
Q 959 750 1161 570 
Q 1363 391 1709 391 
Q 2188 391 2477 730 
Q 2766 1069 2766 1631 
L 2766 1759 
L 2194 1759 
z
M 3341 1997 
L 3341 0 
L 2766 0 
L 2766 531 
Q 2569 213 2275 61 
Q 1981 -91 1556 -91 
Q 1019 -91 701 211 
Q 384 513 384 1019 
Q 384 1609 779 1909 
Q 1175 2209 1959 2209 
L 2766 2209 
L 2766 2266 
Q 2766 2663 2505 2880 
Q 2244 3097 1772 3097 
Q 1472 3097 1187 3025 
Q 903 2953 641 2809 
L 641 3341 
Q 956 3463 1253 3523 
Q 1550 3584 1831 3584 
Q 2591 3584 2966 3190 
Q 3341 2797 3341 1997 
z
" transform="scale(0.015625)"/>
       <path id="DejaVuSans-74" d="M 1172 4494 
L 1172 3500 
L 2356 3500 
L 2356 3053 
L 1172 3053 
L 1172 1153 
Q 1172 725 1289 603 
Q 1406 481 1766 481 
L 2356 481 
L 2356 0 
L 1766 0 
Q 1100 0 847 248 
Q 594 497 594 1153 
L 594 3053 
L 172 3053 
L 172 3500 
L 594 3500 
L 594 4494 
L 1172 4494 
z
" transform="scale(0.015625)"/>
       <path id="DejaVuSans-65" d="M 3597 1894 
L 3597 1613 
L 953 1613 
Q 991 1019 1311 708 
Q 1631 397 2203 397 
Q 2534 397 2845 478 
Q 3156 559 3463 722 
L 3463 178 
Q 3153 47 2828 -22 
Q 2503 -91 2169 -91 
Q 1331 -91 842 396 
Q 353 884 353 1716 
Q 353 2575 817 3079 
Q 1281 3584 2069 3584 
Q 2775 3584 3186 3129 
Q 3597 2675 3597 1894 
z
M 3022 2063 
Q 3016 2534 2758 2815 
Q 2500 3097 2075 3097 
Q 1594 3097 1305 2825 
Q 1016 2553 972 2059 
L 3022 2063 
z
" transform="scale(0.015625)"/>
       <path id="DejaVuSans-48" d="M 628 4666 
L 1259 4666 
L 1259 2753 
L 3553 2753 
L 3553 4666 
L 4184 4666 
L 4184 0 
L 3553 0 
L 3553 2222 
L 1259 2222 
L 1259 0 
L 628 0 
L 628 4666 
z
" transform="scale(0.015625)"/>
       <path id="DejaVuSans-7a" d="M 353 3500 
L 3084 3500 
L 3084 2975 
L 922 459 
L 3084 459 
L 3084 0 
L 275 0 
L 275 525 
L 2438 3041 
L 353 3041 
L 353 3500 
z
" transform="scale(0.015625)"/>
      </defs>
      <use xlink:href="#DejaVuSans-46"/>
      <use xlink:href="#DejaVuSans-69" x="50.269531"/>
      <use xlink:href="#DejaVuSans-72" x="78.052734"/>
      <use xlink:href="#DejaVuSans-69" x="119.166016"/>
      <use xlink:href="#DejaVuSans-6e" x="146.949219"/>
      <use xlink:href="#DejaVuSans-67" x="210.328125"/>
      <use xlink:href="#DejaVuSans-20" x="273.804688"/>
      <use xlink:href="#DejaVuSans-52" x="305.591797"/>
      <use xlink:href="#DejaVuSans-61" x="372.824219"/>
      <use xlink:href="#DejaVuSans-74" x="434.103516"/>
      <use xlink:href="#DejaVuSans-65" x="473.3125"/>
      <use xlink:href="#DejaVuSans-20" x="534.835938"/>
      <use xlink:href="#DejaVuSans-5b" x="566.623047"/>
      <use xlink:href="#DejaVuSans-48" x="605.636719"/>
      <use xlink:href="#DejaVuSans-7a" x="680.832031"/>
      <use xlink:href="#DejaVuSans-5d" x="733.322266"/>
     </g>
    </g>
   </g>
   <g id="PathCollection_6">
    <path d="M 154.54785 50.83125 
L 149.633453 135.910954 
L 151.72889 201.78508 
L 155.123773 252.789023 
L 154.14634 292.279523 
L 151.374698 322.855584 
L 150.355775 335.338646 
" clip-path="url(#p3f7260796e)" style="fill: none; stroke: #000000; stroke-width: 1.5"/>
    <path d="M 150.934231 355.370009 
L 152.562409 364.859384 
L 158.88803 379.051534 
L 153.840733 390.04 
" clip-path="url(#p3f7260796e)" style="fill: none; stroke: #000000; stroke-width: 1.5"/>
   </g>
   <g id="PathCollection_7">
    <path d="M 179.120705 50.83125 
L 174.19968 111.378951 
L 172.987068 135.910954 
L 171.892582 201.78508 
L 174.19968 238.450002 
L 176.122562 252.789023 
L 182.23913 292.279523 
L 178.180106 301.968788 
" clip-path="url(#p3f7260796e)" style="fill: none; stroke: #000000; stroke-width: 1.5"/>
    <path d="M 171.563996 321.30996 
L 171.149974 322.855584 
L 161.866712 330.680834 
L 156.720285 346.529517 
L 161.866712 356.885981 
L 174.19968 357.238817 
L 186.532648 364.799632 
L 186.776332 364.859384 
L 198.865616 376.920853 
L 200.283693 379.051534 
L 200.390646 390.04 
" clip-path="url(#p3f7260796e)" style="fill: none; stroke: #000000; stroke-width: 1.5"/>
    <path d="M 187.380065 122.964421 
L 188.469622 135.910954 
L 186.532648 155.871602 
L 179.384706 135.910954 
L 183.502823 122.650906 
" clip-path="url(#p3f7260796e)" style="fill: none; stroke: #000000; stroke-width: 1.5"/>
   </g>
   <g id="PathCollection_8">
    <path d="M 285.196392 383.154078 
L 272.863424 383.320169 
L 260.530456 382.669709 
L 248.197488 383.182805 
L 247.589678 383.232928 
" clip-path="url(#p3f7260796e)" style="fill: none; stroke: #000000; stroke-width: 1.5"/>
    <path d="M 225.421367 388.870024 
L 223.531552 389.715148 
L 211.198584 386.560198 
L 208.73709 390.04 
" clip-path="url(#p3f7260796e)" style="fill: none; stroke: #000000; stroke-width: 1.5"/>
    <path d="M 285.196392 327.551772 
L 272.863424 326.0262 
L 260.530456 326.0262 
L 248.197488 325.598295 
L 235.86452 327.195805 
L 223.531552 328.286145 
L 222.934447 328.330221 
" clip-path="url(#p3f7260796e)" style="fill: none; stroke: #000000; stroke-width: 1.5"/>
    <path d="M 199.83943 331.868788 
L 198.865616 332.097881 
L 186.532648 334.159525 
L 178.828994 346.529517 
L 186.532648 353.715762 
L 198.865616 355.329632 
L 211.198584 360.360077 
L 223.531552 359.332237 
L 235.86452 359.628455 
L 248.197488 361.549824 
L 260.530456 362.459044 
L 272.863424 363.140959 
L 285.196392 360.754257 
" clip-path="url(#p3f7260796e)" style="fill: none; stroke: #000000; stroke-width: 1.5"/>
    <path d="M 242.13187 50.83125 
L 248.197488 72.065971 
L 249.228379 71.806518 
" clip-path="url(#p3f7260796e)" style="fill: none; stroke: #000000; stroke-width: 1.5"/>
    <path d="M 267.221559 77.270643 
L 272.863424 84.276375 
L 285.196392 88.196602 
" clip-path="url(#p3f7260796e)" style="fill: none; stroke: #000000; stroke-width: 1.5"/>
   </g>
   <g id="PathCollection_9">
    <path d="M 285.196392 342.733968 
L 272.863424 342.428853 
L 260.530456 342.428853 
L 248.197488 342.343273 
L 235.86452 342.662774 
L 223.531552 343.117194 
L 214.737937 343.238606 
" clip-path="url(#p3f7260796e)" style="fill: none; stroke: #000000; stroke-width: 1.5"/>
    <path d="M 215.057352 349.056295 
L 223.531552 348.924196 
L 235.86452 349.149304 
L 248.197488 349.533578 
L 260.530456 349.715422 
L 272.863424 349.851805 
L 285.196392 349.374465 
" clip-path="url(#p3f7260796e)" style="fill: none; stroke: #000000; stroke-width: 1.5"/>
   </g>
   <g id="patch_3">
    <path d="M 50.87 390.04 
L 50.87 50.83125 
" style="fill: none; stroke: #000000; stroke-width: 0.8; stroke-linejoin: miter; stroke-linecap: square"/>
   </g>
   <g id="patch_4">
    <path d="M 285.196392 390.04 
L 285.196392 50.83125 
" style="fill: none; stroke: #000000; stroke-width: 0.8; stroke-linejoin: miter; stroke-linecap: square"/>
   </g>
   <g id="patch_5">
    <path d="M 50.87 390.04 
L 285.196392 390.04 
" style="fill: none; stroke: #000000; stroke-width: 0.8; stroke-linejoin: miter; stroke-linecap: square"/>
   </g>
   <g id="patch_6">
    <path d="M 50.87 50.83125 
L 285.196392 50.83125 
" style="fill: none; stroke: #000000; stroke-width: 0.8; stroke-linejoin: miter; stroke-linecap: square"/>
   </g>
   <g id="text_19">
    <!-- Accuracy [%] -->
    <g transform="translate(128.349759 44.83125) scale(0.12 -0.12)">
     <defs>
      <path id="DejaVuSans-41" d="M 2188 4044 
L 1331 1722 
L 3047 1722 
L 2188 4044 
z
M 1831 4666 
L 2547 4666 
L 4325 0 
L 3669 0 
L 3244 1197 
L 1141 1197 
L 716 0 
L 50 0 
L 1831 4666 
z
" transform="scale(0.015625)"/>
      <path id="DejaVuSans-63" d="M 3122 3366 
L 3122 2828 
Q 2878 2963 2633 3030 
Q 2388 3097 2138 3097 
Q 1578 3097 1268 2742 
Q 959 2388 959 1747 
Q 959 1106 1268 751 
Q 1578 397 2138 397 
Q 2388 397 2633 464 
Q 2878 531 3122 666 
L 3122 134 
Q 2881 22 2623 -34 
Q 2366 -91 2075 -91 
Q 1284 -91 818 406 
Q 353 903 353 1747 
Q 353 2603 823 3093 
Q 1294 3584 2113 3584 
Q 2378 3584 2631 3529 
Q 2884 3475 3122 3366 
z
" transform="scale(0.015625)"/>
      <path id="DejaVuSans-75" d="M 544 1381 
L 544 3500 
L 1119 3500 
L 1119 1403 
Q 1119 906 1312 657 
Q 1506 409 1894 409 
Q 2359 409 2629 706 
Q 2900 1003 2900 1516 
L 2900 3500 
L 3475 3500 
L 3475 0 
L 2900 0 
L 2900 538 
Q 2691 219 2414 64 
Q 2138 -91 1772 -91 
Q 1169 -91 856 284 
Q 544 659 544 1381 
z
M 1991 3584 
L 1991 3584 
z
" transform="scale(0.015625)"/>
      <path id="DejaVuSans-79" d="M 2059 -325 
Q 1816 -950 1584 -1140 
Q 1353 -1331 966 -1331 
L 506 -1331 
L 506 -850 
L 844 -850 
Q 1081 -850 1212 -737 
Q 1344 -625 1503 -206 
L 1606 56 
L 191 3500 
L 800 3500 
L 1894 763 
L 2988 3500 
L 3597 3500 
L 2059 -325 
z
" transform="scale(0.015625)"/>
      <path id="DejaVuSans-25" d="M 4653 2053 
Q 4381 2053 4226 1822 
Q 4072 1591 4072 1178 
Q 4072 772 4226 539 
Q 4381 306 4653 306 
Q 4919 306 5073 539 
Q 5228 772 5228 1178 
Q 5228 1588 5073 1820 
Q 4919 2053 4653 2053 
z
M 4653 2450 
Q 5147 2450 5437 2106 
Q 5728 1763 5728 1178 
Q 5728 594 5436 251 
Q 5144 -91 4653 -91 
Q 4153 -91 3862 251 
Q 3572 594 3572 1178 
Q 3572 1766 3864 2108 
Q 4156 2450 4653 2450 
z
M 1428 4353 
Q 1159 4353 1004 4120 
Q 850 3888 850 3481 
Q 850 3069 1003 2837 
Q 1156 2606 1428 2606 
Q 1700 2606 1854 2837 
Q 2009 3069 2009 3481 
Q 2009 3884 1853 4118 
Q 1697 4353 1428 4353 
z
M 4250 4750 
L 4750 4750 
L 1831 -91 
L 1331 -91 
L 4250 4750 
z
M 1428 4750 
Q 1922 4750 2215 4408 
Q 2509 4066 2509 3481 
Q 2509 2891 2217 2550 
Q 1925 2209 1428 2209 
Q 931 2209 642 2551 
Q 353 2894 353 3481 
Q 353 4063 643 4406 
Q 934 4750 1428 4750 
z
" transform="scale(0.015625)"/>
     </defs>
     <use xlink:href="#DejaVuSans-41"/>
     <use xlink:href="#DejaVuSans-63" x="66.658203"/>
     <use xlink:href="#DejaVuSans-63" x="121.638672"/>
     <use xlink:href="#DejaVuSans-75" x="176.619141"/>
     <use xlink:href="#DejaVuSans-72" x="239.998047"/>
     <use xlink:href="#DejaVuSans-61" x="281.111328"/>
     <use xlink:href="#DejaVuSans-63" x="342.390625"/>
     <use xlink:href="#DejaVuSans-79" x="397.371094"/>
     <use xlink:href="#DejaVuSans-20" x="456.550781"/>
     <use xlink:href="#DejaVuSans-5b" x="488.337891"/>
     <use xlink:href="#DejaVuSans-25" x="527.351562"/>
     <use xlink:href="#DejaVuSans-5d" x="622.371094"/>
    </g>
   </g>
   <g id="text_20">
    <g clip-path="url(#p3f7260796e)">
     <!-- 25 -->
     <g transform="translate(146.665963 339.095153) rotate(-270.979906) scale(0.1 -0.1)">
      <use xlink:href="#DejaVuSans-32"/>
      <use xlink:href="#DejaVuSans-35" x="63.623047"/>
     </g>
    </g>
   </g>
   <g id="text_21">
    <g clip-path="url(#p3f7260796e)">
     <!-- 50 -->
     <g transform="translate(175.057615 318.352253) rotate(-73.66015) scale(0.1 -0.1)">
      <use xlink:href="#DejaVuSans-35"/>
      <use xlink:href="#DejaVuSans-30" x="63.623047"/>
     </g>
    </g>
   </g>
   <g id="text_22">
    <g clip-path="url(#p3f7260796e)">
     <!-- 50 -->
     <g transform="translate(179.939091 115.044629) rotate(-354.610282) scale(0.1 -0.1)">
      <use xlink:href="#DejaVuSans-35"/>
      <use xlink:href="#DejaVuSans-30" x="63.623047"/>
     </g>
    </g>
   </g>
   <g id="text_23">
    <g clip-path="url(#p3f7260796e)">
     <!-- 75 -->
     <g transform="translate(230.549719 388.655013) rotate(-16.525529) scale(0.1 -0.1)">
      <use xlink:href="#DejaVuSans-37"/>
      <use xlink:href="#DejaVuSans-35" x="63.623047"/>
     </g>
    </g>
   </g>
   <g id="text_24">
    <g clip-path="url(#p3f7260796e)">
     <!-- 75 -->
     <g transform="translate(205.420984 333.032515) rotate(-10.13585) scale(0.1 -0.1)">
      <use xlink:href="#DejaVuSans-37"/>
      <use xlink:href="#DejaVuSans-35" x="63.623047"/>
     </g>
    </g>
   </g>
   <g id="text_25">
    <g clip-path="url(#p3f7260796e)">
     <!-- 75 -->
     <g transform="translate(253.611713 69.438) rotate(-340.489366) scale(0.1 -0.1)">
      <use xlink:href="#DejaVuSans-37"/>
      <use xlink:href="#DejaVuSans-35" x="63.623047"/>
     </g>
    </g>
   </g>
   <g id="text_26">
    <g clip-path="url(#p3f7260796e)">
     <!-- 95 -->
     <g transform="translate(200.790032 340.290629) rotate(-272.446968) scale(0.1 -0.1)">
      <use xlink:href="#DejaVuSans-39"/>
      <use xlink:href="#DejaVuSans-35" x="63.623047"/>
     </g>
    </g>
   </g>
  </g>
  <g id="axes_2">
   <g id="patch_7">
    <path d="M 328.331392 390.04 
L 562.657784 390.04 
L 562.657784 50.83125 
L 328.331392 50.83125 
z
" style="fill: #ffffff"/>
   </g>
   <g id="PathCollection_10">
    <path d="M 340.66436 390.04 
L 352.997328 390.04 
L 365.330296 390.04 
L 377.663264 390.04 
L 389.996232 390.04 
L 402.3292 390.04 
L 414.662168 390.04 
L 415.765644 390.04 
L 414.662168 388.208948 
L 408.643006 379.051534 
L 407.82026 364.859384 
L 402.3292 360.226203 
L 393.510635 346.529517 
L 394.989949 322.855584 
L 402.3292 295.912323 
L 402.721378 292.279523 
L 402.3292 290.581007 
L 389.996232 272.082092 
L 386.630957 252.789023 
L 377.663264 237.013384 
L 365.794309 201.78508 
L 365.330296 190.115949 
L 362.069376 135.910954 
L 356.057153 50.83125 
L 352.997328 50.83125 
L 340.66436 50.83125 
L 328.331392 50.83125 
L 328.331392 135.910954 
L 328.331392 201.78508 
L 328.331392 252.789023 
L 328.331392 292.279523 
L 328.331392 322.855584 
L 328.331392 346.529517 
L 328.331392 364.859384 
L 328.331392 379.051534 
L 328.331392 390.04 
z
M 364.040708 292.279523 
L 365.330296 286.732961 
L 366.669556 292.279523 
L 365.330296 295.326765 
z
M 338.172597 135.910954 
L 340.66436 107.652338 
L 344.729028 135.910954 
L 340.66436 151.791324 
z
" clip-path="url(#pccfd981954)" style="fill: #482475"/>
   </g>
   <g id="PathCollection_11">
    <path d="M 414.662168 388.208948 
L 415.765644 390.04 
L 426.995136 390.04 
L 439.328104 390.04 
L 439.563232 390.04 
L 444.462928 379.051534 
L 439.328104 375.70045 
L 430.863125 364.859384 
L 426.995136 357.098253 
L 419.093312 346.529517 
L 419.899327 322.855584 
L 414.662168 310.75256 
L 411.44734 292.279523 
L 402.3292 252.789023 
L 404.14551 201.78508 
L 402.3292 188.958627 
L 397.181527 201.78508 
L 389.996232 210.73861 
L 385.1481 201.78508 
L 389.996232 180.110368 
L 395.023958 135.910954 
L 396.100608 50.83125 
L 389.996232 50.83125 
L 377.663264 50.83125 
L 365.330296 50.83125 
L 356.057153 50.83125 
L 362.069376 135.910954 
L 365.330296 190.115949 
L 365.794309 201.78508 
L 377.663264 237.013384 
L 386.630957 252.789023 
L 389.996232 272.082092 
L 402.3292 290.581007 
L 402.721378 292.279523 
L 402.3292 295.912323 
L 394.989949 322.855584 
L 393.510635 346.529517 
L 402.3292 360.226203 
L 407.82026 364.859384 
L 408.643006 379.051534 
z
" clip-path="url(#pccfd981954)" style="fill: #355f8d"/>
    <path d="M 365.330296 295.326765 
L 366.669556 292.279523 
L 365.330296 286.732961 
L 364.040708 292.279523 
z
" clip-path="url(#pccfd981954)" style="fill: #355f8d"/>
    <path d="M 340.66436 151.791324 
L 344.729028 135.910954 
L 340.66436 107.652338 
L 338.172597 135.910954 
z
" clip-path="url(#pccfd981954)" style="fill: #355f8d"/>
   </g>
   <g id="PathCollection_12">
    <path d="M 451.661072 390.04 
L 463.99404 390.04 
L 476.327008 390.04 
L 478.671972 390.04 
L 477.662646 379.051534 
L 476.327008 376.914524 
L 463.99404 368.352591 
L 463.364469 364.859384 
L 451.661072 358.88894 
L 439.328104 357.451327 
L 432.92381 346.529517 
L 439.328104 323.858982 
L 440.221212 322.855584 
L 446.759307 292.279523 
L 439.328104 263.266904 
L 434.068019 252.789023 
L 428.587587 201.78508 
L 426.995136 190.304899 
L 416.937291 135.910954 
L 414.662168 119.731863 
L 404.448644 50.83125 
L 402.3292 50.83125 
L 396.100608 50.83125 
L 395.023958 135.910954 
L 389.996232 180.110368 
L 385.1481 201.78508 
L 389.996232 210.73861 
L 397.181527 201.78508 
L 402.3292 188.958627 
L 404.14551 201.78508 
L 402.3292 252.789023 
L 411.44734 292.279523 
L 414.662168 310.75256 
L 419.899327 322.855584 
L 419.093312 346.529517 
L 426.995136 357.098253 
L 430.863125 364.859384 
L 439.328104 375.70045 
L 444.462928 379.051534 
L 439.563232 390.04 
z
" clip-path="url(#pccfd981954)" style="fill: #21918c"/>
   </g>
   <g id="PathCollection_13">
    <path d="M 488.659976 386.469908 
L 500.992944 388.298658 
L 513.325912 380.96173 
L 525.65888 379.836424 
L 534.908606 379.051534 
L 525.65888 373.729477 
L 517.950775 364.859384 
L 513.325912 363.821844 
L 500.992944 363.059463 
L 488.659976 364.224645 
L 476.327008 355.46411 
L 463.99404 353.336377 
L 453.779243 346.529517 
L 463.99404 331.56404 
L 476.327008 327.289498 
L 488.659976 323.423668 
L 493.593163 322.855584 
L 500.992944 317.74253 
L 513.325912 314.094535 
L 525.65888 305.795646 
L 537.991848 310.140012 
L 550.324816 310.140012 
L 562.657784 314.411614 
L 562.657784 292.279523 
L 562.657784 252.789023 
L 562.657784 201.78508 
L 562.657784 135.910954 
L 562.657784 119.367679 
L 550.324816 124.175823 
L 537.991848 109.506908 
L 525.65888 112.440691 
L 513.325912 77.902065 
L 500.992944 68.639117 
L 490.509921 50.83125 
L 488.659976 50.83125 
L 487.025459 50.83125 
L 476.327008 77.503197 
L 463.99404 55.870814 
L 451.661072 97.097438 
L 439.328104 74.301513 
L 435.311404 50.83125 
L 426.995136 50.83125 
L 414.662168 50.83125 
L 404.448644 50.83125 
L 414.662168 119.731863 
L 416.937291 135.910954 
L 426.995136 190.304899 
L 428.587587 201.78508 
L 434.068019 252.789023 
L 439.328104 263.266904 
L 446.759307 292.279523 
L 440.221212 322.855584 
L 439.328104 323.858982 
L 432.92381 346.529517 
L 439.328104 357.451327 
L 451.661072 358.88894 
L 463.364469 364.859384 
L 463.99404 368.352591 
L 476.327008 376.914524 
L 477.662646 379.051534 
L 478.671972 390.04 
L 486.867258 390.04 
z
" clip-path="url(#pccfd981954)" style="fill: #44bf70"/>
    <path d="M 550.324816 380.073717 
L 562.657784 379.600957 
L 562.657784 379.051534 
L 562.657784 371.955459 
L 550.324816 374.996634 
L 540.458442 379.051534 
z
" clip-path="url(#pccfd981954)" style="fill: #44bf70"/>
   </g>
   <g id="PathCollection_14">
    <path d="M 488.659976 390.04 
L 500.992944 390.04 
L 513.325912 390.04 
L 525.65888 390.04 
L 537.991848 390.04 
L 550.324816 390.04 
L 562.657784 390.04 
L 562.657784 379.600957 
L 550.324816 380.073717 
L 540.458442 379.051534 
L 550.324816 374.996634 
L 562.657784 371.955459 
L 562.657784 364.859384 
L 562.657784 346.529517 
L 562.657784 322.855584 
L 562.657784 314.411614 
L 550.324816 310.140012 
L 537.991848 310.140012 
L 525.65888 305.795646 
L 513.325912 314.094535 
L 500.992944 317.74253 
L 493.593163 322.855584 
L 488.659976 323.423668 
L 476.327008 327.289498 
L 463.99404 331.56404 
L 453.779243 346.529517 
L 463.99404 353.336377 
L 476.327008 355.46411 
L 488.659976 364.224645 
L 500.992944 363.059463 
L 513.325912 363.821844 
L 517.950775 364.859384 
L 525.65888 373.729477 
L 534.908606 379.051534 
L 525.65888 379.836424 
L 513.325912 380.96173 
L 500.992944 388.298658 
L 488.659976 386.469908 
L 486.867258 390.04 
z
" clip-path="url(#pccfd981954)" style="fill: #bddf26"/>
    <path d="M 439.328104 74.301513 
L 451.661072 97.097438 
L 463.99404 55.870814 
L 476.327008 77.503197 
L 487.025459 50.83125 
L 476.327008 50.83125 
L 463.99404 50.83125 
L 451.661072 50.83125 
L 439.328104 50.83125 
L 435.311404 50.83125 
z
" clip-path="url(#pccfd981954)" style="fill: #bddf26"/>
    <path d="M 500.992944 68.639117 
L 513.325912 77.902065 
L 525.65888 112.440691 
L 537.991848 109.506908 
L 550.324816 124.175823 
L 562.657784 119.367679 
L 562.657784 50.83125 
L 550.324816 50.83125 
L 537.991848 50.83125 
L 525.65888 50.83125 
L 513.325912 50.83125 
L 500.992944 50.83125 
L 490.509921 50.83125 
z
" clip-path="url(#pccfd981954)" style="fill: #bddf26"/>
   </g>
   <g id="matplotlib.axis_3">
    <g id="xtick_7">
     <g id="line2d_17">
      <g>
       <use xlink:href="#m1daad20416" x="328.331392" y="390.04" style="stroke: #000000; stroke-width: 0.8"/>
      </g>
     </g>
     <g id="text_27">
      <!-- −18 -->
      <g transform="translate(317.779048 404.638438) scale(0.1 -0.1)">
       <use xlink:href="#DejaVuSans-2212"/>
       <use xlink:href="#DejaVuSans-31" x="83.789062"/>
       <use xlink:href="#DejaVuSans-38" x="147.412109"/>
      </g>
     </g>
    </g>
    <g id="xtick_8">
     <g id="line2d_18">
      <g>
       <use xlink:href="#m1daad20416" x="375.196671" y="390.04" style="stroke: #000000; stroke-width: 0.8"/>
      </g>
     </g>
     <g id="text_28">
      <!-- −12 -->
      <g transform="translate(364.644327 404.638438) scale(0.1 -0.1)">
       <use xlink:href="#DejaVuSans-2212"/>
       <use xlink:href="#DejaVuSans-31" x="83.789062"/>
       <use xlink:href="#DejaVuSans-32" x="147.412109"/>
      </g>
     </g>
    </g>
    <g id="xtick_9">
     <g id="line2d_19">
      <g>
       <use xlink:href="#m1daad20416" x="422.061949" y="390.04" style="stroke: #000000; stroke-width: 0.8"/>
      </g>
     </g>
     <g id="text_29">
      <!-- −6 -->
      <g transform="translate(414.690855 404.638438) scale(0.1 -0.1)">
       <use xlink:href="#DejaVuSans-2212"/>
       <use xlink:href="#DejaVuSans-36" x="83.789062"/>
      </g>
     </g>
    </g>
    <g id="xtick_10">
     <g id="line2d_20">
      <g>
       <use xlink:href="#m1daad20416" x="468.927227" y="390.04" style="stroke: #000000; stroke-width: 0.8"/>
      </g>
     </g>
     <g id="text_30">
      <!-- 0 -->
      <g transform="translate(465.745977 404.638438) scale(0.1 -0.1)">
       <use xlink:href="#DejaVuSans-30"/>
      </g>
     </g>
    </g>
    <g id="xtick_11">
     <g id="line2d_21">
      <g>
       <use xlink:href="#m1daad20416" x="515.792506" y="390.04" style="stroke: #000000; stroke-width: 0.8"/>
      </g>
     </g>
     <g id="text_31">
      <!-- 6 -->
      <g transform="translate(512.611256 404.638438) scale(0.1 -0.1)">
       <use xlink:href="#DejaVuSans-36"/>
      </g>
     </g>
    </g>
    <g id="xtick_12">
     <g id="line2d_22">
      <g>
       <use xlink:href="#m1daad20416" x="562.657784" y="390.04" style="stroke: #000000; stroke-width: 0.8"/>
      </g>
     </g>
     <g id="text_32">
      <!-- 12 -->
      <g transform="translate(556.295284 404.638438) scale(0.1 -0.1)">
       <use xlink:href="#DejaVuSans-31"/>
       <use xlink:href="#DejaVuSans-32" x="63.623047"/>
      </g>
     </g>
    </g>
    <g id="text_33">
     <!-- SNR [dB] -->
     <g transform="translate(423.010213 418.316562) scale(0.1 -0.1)">
      <use xlink:href="#DejaVuSans-53"/>
      <use xlink:href="#DejaVuSans-4e" x="63.476562"/>
      <use xlink:href="#DejaVuSans-52" x="138.28125"/>
      <use xlink:href="#DejaVuSans-20" x="207.763672"/>
      <use xlink:href="#DejaVuSans-5b" x="239.550781"/>
      <use xlink:href="#DejaVuSans-64" x="278.564453"/>
      <use xlink:href="#DejaVuSans-42" x="342.041016"/>
      <use xlink:href="#DejaVuSans-5d" x="410.644531"/>
     </g>
    </g>
   </g>
   <g id="matplotlib.axis_4">
    <g id="ytick_11">
     <g id="line2d_23">
      <g>
       <use xlink:href="#m3ce07d8afb" x="328.331392" y="390.04" style="stroke: #000000; stroke-width: 0.8"/>
      </g>
     </g>
     <g id="text_34">
      <!-- 10 -->
      <g transform="translate(308.606392 393.839219) scale(0.1 -0.1)">
       <use xlink:href="#DejaVuSans-31"/>
       <use xlink:href="#DejaVuSans-30" x="63.623047"/>
      </g>
     </g>
    </g>
    <g id="ytick_12">
     <g id="line2d_24">
      <g>
       <use xlink:href="#m3ce07d8afb" x="328.331392" y="352.350139" style="stroke: #000000; stroke-width: 0.8"/>
      </g>
     </g>
     <g id="text_35">
      <!-- 20 -->
      <g transform="translate(308.606392 356.149358) scale(0.1 -0.1)">
       <use xlink:href="#DejaVuSans-32"/>
       <use xlink:href="#DejaVuSans-30" x="63.623047"/>
      </g>
     </g>
    </g>
    <g id="ytick_13">
     <g id="line2d_25">
      <g>
       <use xlink:href="#m3ce07d8afb" x="328.331392" y="314.660278" style="stroke: #000000; stroke-width: 0.8"/>
      </g>
     </g>
     <g id="text_36">
      <!-- 30 -->
      <g transform="translate(308.606392 318.459497) scale(0.1 -0.1)">
       <use xlink:href="#DejaVuSans-33"/>
       <use xlink:href="#DejaVuSans-30" x="63.623047"/>
      </g>
     </g>
    </g>
    <g id="ytick_14">
     <g id="line2d_26">
      <g>
       <use xlink:href="#m3ce07d8afb" x="328.331392" y="276.970417" style="stroke: #000000; stroke-width: 0.8"/>
      </g>
     </g>
     <g id="text_37">
      <!-- 40 -->
      <g transform="translate(308.606392 280.769635) scale(0.1 -0.1)">
       <use xlink:href="#DejaVuSans-34"/>
       <use xlink:href="#DejaVuSans-30" x="63.623047"/>
      </g>
     </g>
    </g>
    <g id="ytick_15">
     <g id="line2d_27">
      <g>
       <use xlink:href="#m3ce07d8afb" x="328.331392" y="239.280556" style="stroke: #000000; stroke-width: 0.8"/>
      </g>
     </g>
     <g id="text_38">
      <!-- 50 -->
      <g transform="translate(308.606392 243.079774) scale(0.1 -0.1)">
       <use xlink:href="#DejaVuSans-35"/>
       <use xlink:href="#DejaVuSans-30" x="63.623047"/>
      </g>
     </g>
    </g>
    <g id="ytick_16">
     <g id="line2d_28">
      <g>
       <use xlink:href="#m3ce07d8afb" x="328.331392" y="201.590694" style="stroke: #000000; stroke-width: 0.8"/>
      </g>
     </g>
     <g id="text_39">
      <!-- 60 -->
      <g transform="translate(308.606392 205.389913) scale(0.1 -0.1)">
       <use xlink:href="#DejaVuSans-36"/>
       <use xlink:href="#DejaVuSans-30" x="63.623047"/>
      </g>
     </g>
    </g>
    <g id="ytick_17">
     <g id="line2d_29">
      <g>
       <use xlink:href="#m3ce07d8afb" x="328.331392" y="163.900833" style="stroke: #000000; stroke-width: 0.8"/>
      </g>
     </g>
     <g id="text_40">
      <!-- 70 -->
      <g transform="translate(308.606392 167.700052) scale(0.1 -0.1)">
       <use xlink:href="#DejaVuSans-37"/>
       <use xlink:href="#DejaVuSans-30" x="63.623047"/>
      </g>
     </g>
    </g>
    <g id="ytick_18">
     <g id="line2d_30">
      <g>
       <use xlink:href="#m3ce07d8afb" x="328.331392" y="126.210972" style="stroke: #000000; stroke-width: 0.8"/>
      </g>
     </g>
     <g id="text_41">
      <!-- 80 -->
      <g transform="translate(308.606392 130.010191) scale(0.1 -0.1)">
       <use xlink:href="#DejaVuSans-38"/>
       <use xlink:href="#DejaVuSans-30" x="63.623047"/>
      </g>
     </g>
    </g>
    <g id="ytick_19">
     <g id="line2d_31">
      <g>
       <use xlink:href="#m3ce07d8afb" x="328.331392" y="88.521111" style="stroke: #000000; stroke-width: 0.8"/>
      </g>
     </g>
     <g id="text_42">
      <!-- 90 -->
      <g transform="translate(308.606392 92.32033) scale(0.1 -0.1)">
       <use xlink:href="#DejaVuSans-39"/>
       <use xlink:href="#DejaVuSans-30" x="63.623047"/>
      </g>
     </g>
    </g>
    <g id="ytick_20">
     <g id="line2d_32">
      <g>
       <use xlink:href="#m3ce07d8afb" x="328.331392" y="50.83125" style="stroke: #000000; stroke-width: 0.8"/>
      </g>
     </g>
     <g id="text_43">
      <!-- 100 -->
      <g transform="translate(302.243892 54.630469) scale(0.1 -0.1)">
       <use xlink:href="#DejaVuSans-31"/>
       <use xlink:href="#DejaVuSans-30" x="63.623047"/>
       <use xlink:href="#DejaVuSans-30" x="127.246094"/>
      </g>
     </g>
    </g>
   </g>
   <g id="PathCollection_15">
    <path d="M 359.007699 50.83125 
L 365.330296 120.238377 
L 370.310918 135.910954 
L 369.970423 201.78508 
L 377.663264 224.61824 
L 389.996232 246.552733 
L 391.825274 252.789023 
L 402.3292 281.133011 
L 402.616216 282.376072 
" clip-path="url(#pccfd981954)" style="fill: none; stroke: #000000; stroke-width: 1.5"/>
    <path d="M 403.817646 302.332086 
L 402.3292 316.119768 
L 400.494387 322.855584 
L 396.407643 346.529517 
L 402.3292 355.726672 
L 413.152924 364.859384 
L 414.430662 379.051534 
L 414.662168 379.403742 
L 421.072066 390.04 
" clip-path="url(#pccfd981954)" style="fill: none; stroke: #000000; stroke-width: 1.5"/>
    <path d="M 390.950041 50.83125 
L 390.408747 64.07025 
" clip-path="url(#pccfd981954)" style="fill: none; stroke: #000000; stroke-width: 1.5"/>
    <path d="M 388.114572 64.193697 
L 385.591601 50.83125 
" clip-path="url(#pccfd981954)" style="fill: none; stroke: #000000; stroke-width: 1.5"/>
   </g>
   <g id="PathCollection_16">
    <path d="M 399.534319 50.83125 
L 401.598676 135.910954 
L 402.3292 141.215722 
L 410.906219 201.78508 
L 414.662168 228.197836 
L 419.646039 252.789023 
L 426.995136 280.063444 
L 431.934447 292.279523 
L 430.858738 312.770288 
" clip-path="url(#pccfd981954)" style="fill: none; stroke: #000000; stroke-width: 1.5"/>
    <path d="M 429.616309 332.932572 
L 428.65428 346.529517 
L 439.328104 364.732533 
L 440.615283 364.859384 
L 451.661072 367.791065 
L 456.599323 379.051534 
L 451.661072 389.600511 
L 451.378412 390.04 
" clip-path="url(#pccfd981954)" style="fill: none; stroke: #000000; stroke-width: 1.5"/>
   </g>
   <g id="PathCollection_17">
    <path d="M 425.157862 50.83125 
L 426.995136 64.146927 
L 439.328104 135.910954 
L 439.328104 135.910954 
L 451.661072 182.813019 
L 457.714261 135.910954 
L 463.99404 106.266458 
L 472.128201 135.910954 
L 469.15456 191.700099 
" clip-path="url(#pccfd981954)" style="fill: none; stroke: #000000; stroke-width: 1.5"/>
    <path d="M 471.401949 211.594366 
L 476.327008 228.941759 
L 479.635208 252.789023 
L 484.297558 292.279523 
L 476.327008 311.867312 
L 469.326399 322.855584 
L 463.99404 325.082178 
L 451.661072 339.751134 
L 439.328104 346.529517 
L 451.661072 348.359037 
L 463.99404 356.284571 
L 476.327008 359.214433 
L 484.177696 364.859384 
L 488.659976 372.129706 
L 500.992944 372.319132 
L 507.657012 379.051534 
L 500.992944 382.203962 
L 488.659976 382.389802 
L 484.818436 390.04 
" clip-path="url(#pccfd981954)" style="fill: none; stroke: #000000; stroke-width: 1.5"/>
    <path d="M 517.610229 135.646865 
L 517.730544 135.910954 
L 513.325912 152.379486 
L 500.992944 146.889975 
L 498.277933 135.910954 
L 500.992944 133.323576 
L 503.539527 131.861498 
" clip-path="url(#pccfd981954)" style="fill: none; stroke: #000000; stroke-width: 1.5"/>
   </g>
   <g id="PathCollection_18">
    <path d="M 562.657784 389.902644 
L 550.324816 389.656681 
L 549.821782 389.666259 
" clip-path="url(#pccfd981954)" style="fill: none; stroke: #000000; stroke-width: 1.5"/>
    <path d="M 526.162146 389.65751 
L 525.65888 389.647555 
L 522.431641 390.04 
" clip-path="url(#pccfd981954)" style="fill: none; stroke: #000000; stroke-width: 1.5"/>
    <path d="M 562.657784 340.122115 
L 550.324816 339.511887 
L 537.991848 339.511887 
L 525.65888 339.340725 
L 513.325912 339.979729 
L 500.992944 340.759109 
L 490.769529 341.046066 
" clip-path="url(#pccfd981954)" style="fill: none; stroke: #000000; stroke-width: 1.5"/>
    <path d="M 491.662475 350.616964 
L 500.992944 350.410023 
L 513.325912 350.852599 
L 525.65888 351.621147 
L 537.991848 351.984834 
L 550.324816 352.2576 
L 562.657784 351.30292 
" clip-path="url(#pccfd981954)" style="fill: none; stroke: #000000; stroke-width: 1.5"/>
   </g>
   <g id="patch_8">
    <path d="M 328.331392 390.04 
L 328.331392 50.83125 
" style="fill: none; stroke: #000000; stroke-width: 0.8; stroke-linejoin: miter; stroke-linecap: square"/>
   </g>
   <g id="patch_9">
    <path d="M 562.657784 390.04 
L 562.657784 50.83125 
" style="fill: none; stroke: #000000; stroke-width: 0.8; stroke-linejoin: miter; stroke-linecap: square"/>
   </g>
   <g id="patch_10">
    <path d="M 328.331392 390.04 
L 562.657784 390.04 
" style="fill: none; stroke: #000000; stroke-width: 0.8; stroke-linejoin: miter; stroke-linecap: square"/>
   </g>
   <g id="patch_11">
    <path d="M 328.331392 50.83125 
L 562.657784 50.83125 
" style="fill: none; stroke: #000000; stroke-width: 0.8; stroke-linejoin: miter; stroke-linecap: square"/>
   </g>
   <g id="text_44">
    <!-- Precision (TPR) [%] -->
    <g transform="translate(388.396151 44.83125) scale(0.12 -0.12)">
     <defs>
      <path id="DejaVuSans-50" d="M 1259 4147 
L 1259 2394 
L 2053 2394 
Q 2494 2394 2734 2622 
Q 2975 2850 2975 3272 
Q 2975 3691 2734 3919 
Q 2494 4147 2053 4147 
L 1259 4147 
z
M 628 4666 
L 2053 4666 
Q 2838 4666 3239 4311 
Q 3641 3956 3641 3272 
Q 3641 2581 3239 2228 
Q 2838 1875 2053 1875 
L 1259 1875 
L 1259 0 
L 628 0 
L 628 4666 
z
" transform="scale(0.015625)"/>
      <path id="DejaVuSans-73" d="M 2834 3397 
L 2834 2853 
Q 2591 2978 2328 3040 
Q 2066 3103 1784 3103 
Q 1356 3103 1142 2972 
Q 928 2841 928 2578 
Q 928 2378 1081 2264 
Q 1234 2150 1697 2047 
L 1894 2003 
Q 2506 1872 2764 1633 
Q 3022 1394 3022 966 
Q 3022 478 2636 193 
Q 2250 -91 1575 -91 
Q 1294 -91 989 -36 
Q 684 19 347 128 
L 347 722 
Q 666 556 975 473 
Q 1284 391 1588 391 
Q 1994 391 2212 530 
Q 2431 669 2431 922 
Q 2431 1156 2273 1281 
Q 2116 1406 1581 1522 
L 1381 1569 
Q 847 1681 609 1914 
Q 372 2147 372 2553 
Q 372 3047 722 3315 
Q 1072 3584 1716 3584 
Q 2034 3584 2315 3537 
Q 2597 3491 2834 3397 
z
" transform="scale(0.015625)"/>
      <path id="DejaVuSans-6f" d="M 1959 3097 
Q 1497 3097 1228 2736 
Q 959 2375 959 1747 
Q 959 1119 1226 758 
Q 1494 397 1959 397 
Q 2419 397 2687 759 
Q 2956 1122 2956 1747 
Q 2956 2369 2687 2733 
Q 2419 3097 1959 3097 
z
M 1959 3584 
Q 2709 3584 3137 3096 
Q 3566 2609 3566 1747 
Q 3566 888 3137 398 
Q 2709 -91 1959 -91 
Q 1206 -91 779 398 
Q 353 888 353 1747 
Q 353 2609 779 3096 
Q 1206 3584 1959 3584 
z
" transform="scale(0.015625)"/>
      <path id="DejaVuSans-28" d="M 1984 4856 
Q 1566 4138 1362 3434 
Q 1159 2731 1159 2009 
Q 1159 1288 1364 580 
Q 1569 -128 1984 -844 
L 1484 -844 
Q 1016 -109 783 600 
Q 550 1309 550 2009 
Q 550 2706 781 3412 
Q 1013 4119 1484 4856 
L 1984 4856 
z
" transform="scale(0.015625)"/>
      <path id="DejaVuSans-54" d="M -19 4666 
L 3928 4666 
L 3928 4134 
L 2272 4134 
L 2272 0 
L 1638 0 
L 1638 4134 
L -19 4134 
L -19 4666 
z
" transform="scale(0.015625)"/>
      <path id="DejaVuSans-29" d="M 513 4856 
L 1013 4856 
Q 1481 4119 1714 3412 
Q 1947 2706 1947 2009 
Q 1947 1309 1714 600 
Q 1481 -109 1013 -844 
L 513 -844 
Q 928 -128 1133 580 
Q 1338 1288 1338 2009 
Q 1338 2731 1133 3434 
Q 928 4138 513 4856 
z
" transform="scale(0.015625)"/>
     </defs>
     <use xlink:href="#DejaVuSans-50"/>
     <use xlink:href="#DejaVuSans-72" x="58.552734"/>
     <use xlink:href="#DejaVuSans-65" x="97.416016"/>
     <use xlink:href="#DejaVuSans-63" x="158.939453"/>
     <use xlink:href="#DejaVuSans-69" x="213.919922"/>
     <use xlink:href="#DejaVuSans-73" x="241.703125"/>
     <use xlink:href="#DejaVuSans-69" x="293.802734"/>
     <use xlink:href="#DejaVuSans-6f" x="321.585938"/>
     <use xlink:href="#DejaVuSans-6e" x="382.767578"/>
     <use xlink:href="#DejaVuSans-20" x="446.146484"/>
     <use xlink:href="#DejaVuSans-28" x="477.933594"/>
     <use xlink:href="#DejaVuSans-54" x="516.947266"/>
     <use xlink:href="#DejaVuSans-50" x="578.03125"/>
     <use xlink:href="#DejaVuSans-52" x="638.333984"/>
     <use xlink:href="#DejaVuSans-29" x="707.816406"/>
     <use xlink:href="#DejaVuSans-20" x="746.830078"/>
     <use xlink:href="#DejaVuSans-5b" x="778.617188"/>
     <use xlink:href="#DejaVuSans-25" x="817.630859"/>
     <use xlink:href="#DejaVuSans-5d" x="912.650391"/>
    </g>
   </g>
   <g id="text_45">
    <g clip-path="url(#pccfd981954)">
     <!-- 25 -->
     <g transform="translate(401.819304 286.067665) rotate(-272.953727) scale(0.1 -0.1)">
      <use xlink:href="#DejaVuSans-32"/>
      <use xlink:href="#DejaVuSans-35" x="63.623047"/>
     </g>
    </g>
   </g>
   <g id="text_46">
    <g clip-path="url(#pccfd981954)">
     <!-- 25 -->
     <g transform="translate(383.819138 77.312184) rotate(-3.592521) scale(0.1 -0.1)">
      <use xlink:href="#DejaVuSans-32"/>
      <use xlink:href="#DejaVuSans-35" x="63.623047"/>
     </g>
    </g>
   </g>
   <g id="text_47">
    <g clip-path="url(#pccfd981954)">
     <!-- 50 -->
     <g transform="translate(432.749269 329.354757) rotate(-86.976852) scale(0.1 -0.1)">
      <use xlink:href="#DejaVuSans-35"/>
      <use xlink:href="#DejaVuSans-30" x="63.623047"/>
     </g>
    </g>
   </g>
   <g id="text_48">
    <g clip-path="url(#pccfd981954)">
     <!-- 75 -->
     <g transform="translate(465.257344 195.718107) rotate(-275.530053) scale(0.1 -0.1)">
      <use xlink:href="#DejaVuSans-37"/>
      <use xlink:href="#DejaVuSans-35" x="63.623047"/>
     </g>
    </g>
   </g>
   <g id="text_49">
    <g clip-path="url(#pccfd981954)">
     <!-- 75 -->
     <g transform="translate(506.429051 126.970039) rotate(-342.573188) scale(0.1 -0.1)">
      <use xlink:href="#DejaVuSans-37"/>
      <use xlink:href="#DejaVuSans-35" x="63.623047"/>
     </g>
    </g>
   </g>
   <g id="text_50">
    <g clip-path="url(#pccfd981954)">
     <!-- 95 -->
     <g transform="translate(531.628158 392.648137) rotate(-359.975277) scale(0.1 -0.1)">
      <use xlink:href="#DejaVuSans-39"/>
      <use xlink:href="#DejaVuSans-35" x="63.623047"/>
     </g>
    </g>
   </g>
   <g id="text_51">
    <g clip-path="url(#pccfd981954)">
     <!-- 95 -->
     <g transform="translate(478.120004 340.356152) rotate(-273.660213) scale(0.1 -0.1)">
      <use xlink:href="#DejaVuSans-39"/>
      <use xlink:href="#DejaVuSans-35" x="63.623047"/>
     </g>
    </g>
   </g>
  </g>
  <g id="axes_3">
   <g id="patch_12">
    <path d="M 605.792784 390.04 
L 793.253898 390.04 
L 793.253898 50.83125 
L 605.792784 50.83125 
z
" style="fill: #ffffff"/>
   </g>
   <g id="PathCollection_19">
    <path d="M 615.659159 390.04 
L 625.525533 390.04 
L 635.391908 390.04 
L 645.258282 390.04 
L 655.124656 390.04 
L 664.991031 390.04 
L 669.709732 390.04 
L 670.719893 379.051534 
L 672.58055 364.859384 
L 664.991031 350.759486 
L 663.473127 346.529517 
L 664.991031 342.077244 
L 674.4189 322.855584 
L 673.79077 292.279523 
L 674.857405 281.748723 
L 678.599823 252.789023 
L 677.323999 201.78508 
L 679.390604 135.910954 
L 681.904815 50.83125 
L 674.857405 50.83125 
L 664.991031 50.83125 
L 655.124656 50.83125 
L 645.258282 50.83125 
L 635.391908 50.83125 
L 625.525533 50.83125 
L 615.659159 50.83125 
L 605.792784 50.83125 
L 605.792784 135.910954 
L 605.792784 201.78508 
L 605.792784 252.789023 
L 605.792784 292.279523 
L 605.792784 322.855584 
L 605.792784 346.529517 
L 605.792784 364.859384 
L 605.792784 379.051534 
L 605.792784 390.04 
z
" clip-path="url(#pbcee7bae15)" style="fill: #482475"/>
   </g>
   <g id="PathCollection_20">
    <path d="M 674.857405 390.04 
L 684.72378 390.04 
L 684.72378 390.04 
L 688.750871 379.051534 
L 687.014188 364.859384 
L 685.558627 346.529517 
L 688.384347 322.855584 
L 694.590154 294.249025 
L 695.11871 292.279523 
L 696.845325 252.789023 
L 694.590154 226.464407 
L 691.630242 201.78508 
L 693.973506 135.910954 
L 694.590154 125.275991 
L 697.878945 50.83125 
L 694.590154 50.83125 
L 684.72378 50.83125 
L 681.904815 50.83125 
L 679.390604 135.910954 
L 677.323999 201.78508 
L 678.599823 252.789023 
L 674.857405 281.748723 
L 673.79077 292.279523 
L 674.4189 322.855584 
L 664.991031 342.077244 
L 663.473127 346.529517 
L 664.991031 350.759486 
L 672.58055 364.859384 
L 670.719893 379.051534 
L 669.709732 390.04 
z
" clip-path="url(#pbcee7bae15)" style="fill: #355f8d"/>
   </g>
   <g id="PathCollection_21">
    <path d="M 694.590154 386.495333 
L 701.73477 379.051534 
L 700.345539 364.859384 
L 694.590154 363.171106 
L 689.353386 346.529517 
L 694.590154 324.872425 
L 696.627083 322.855584 
L 703.927973 292.279523 
L 703.892736 252.789023 
L 702.097178 201.78508 
L 704.255174 135.910954 
L 704.456528 132.211837 
L 706.923122 135.910954 
L 714.322903 144.89379 
L 715.027644 135.910954 
L 714.322903 117.679589 
L 711.034111 50.83125 
L 704.456528 50.83125 
L 697.878945 50.83125 
L 694.590154 125.275991 
L 693.973506 135.910954 
L 691.630242 201.78508 
L 694.590154 226.464407 
L 696.845325 252.789023 
L 695.11871 292.279523 
L 694.590154 294.249025 
L 688.384347 322.855584 
L 685.558627 346.529517 
L 687.014188 364.859384 
L 688.750871 379.051534 
L 684.72378 390.04 
L 692.945758 390.04 
z
" clip-path="url(#pbcee7bae15)" style="fill: #21918c"/>
   </g>
   <g id="PathCollection_22">
    <path d="M 694.590154 390.04 
L 702.483253 390.04 
L 704.456528 387.926833 
L 714.322903 385.813667 
L 718.117662 390.04 
L 724.189277 390.04 
L 726.864904 390.04 
L 734.055652 380.196166 
L 743.922026 382.150845 
L 753.7884 380.799699 
L 763.654775 379.836424 
L 771.054556 379.051534 
L 763.654775 373.729477 
L 757.488291 364.859384 
L 753.7884 363.821844 
L 743.922026 363.821844 
L 738.988839 364.859384 
L 734.055652 370.18144 
L 730.355761 364.859384 
L 724.189277 363.193032 
L 714.322903 360.563321 
L 704.456528 346.927992 
L 694.590154 351.111984 
L 693.148145 346.529517 
L 694.590154 340.56597 
L 704.456528 345.629409 
L 714.322903 325.899158 
L 724.189277 323.857173 
L 734.055652 323.412617 
L 738.002201 322.855584 
L 743.922026 317.74253 
L 753.7884 314.094535 
L 763.654775 305.795646 
L 773.521149 310.140012 
L 783.387524 310.140012 
L 793.253898 314.411614 
L 793.253898 292.279523 
L 793.253898 252.789023 
L 793.253898 201.78508 
L 793.253898 135.910954 
L 793.253898 119.367679 
L 783.387524 124.175823 
L 773.521149 109.506908 
L 763.654775 112.440691 
L 753.7884 77.902065 
L 743.922026 56.908372 
L 741.455432 50.83125 
L 734.055652 50.83125 
L 724.189277 50.83125 
L 714.322903 50.83125 
L 711.034111 50.83125 
L 714.322903 117.679589 
L 715.027644 135.910954 
L 714.322903 144.89379 
L 706.923122 135.910954 
L 704.456528 132.211837 
L 704.255174 135.910954 
L 702.097178 201.78508 
L 703.892736 252.789023 
L 703.927973 292.279523 
L 696.627083 322.855584 
L 694.590154 324.872425 
L 689.353386 346.529517 
L 694.590154 363.171106 
L 700.345539 364.859384 
L 701.73477 379.051534 
L 694.590154 386.495333 
L 692.945758 390.04 
z
" clip-path="url(#pbcee7bae15)" style="fill: #44bf70"/>
    <path d="M 783.387524 380.073717 
L 793.253898 379.600957 
L 793.253898 379.051534 
L 793.253898 371.955459 
L 783.387524 374.996634 
L 775.494424 379.051534 
z
" clip-path="url(#pbcee7bae15)" style="fill: #44bf70"/>
   </g>
   <g id="PathCollection_23">
    <path d="M 704.456528 390.04 
L 714.322903 390.04 
L 718.117662 390.04 
L 714.322903 385.813667 
L 704.456528 387.926833 
L 702.483253 390.04 
z
" clip-path="url(#pbcee7bae15)" style="fill: #bddf26"/>
    <path d="M 734.055652 390.04 
L 743.922026 390.04 
L 753.7884 390.04 
L 763.654775 390.04 
L 773.521149 390.04 
L 783.387524 390.04 
L 793.253898 390.04 
L 793.253898 379.600957 
L 783.387524 380.073717 
L 775.494424 379.051534 
L 783.387524 374.996634 
L 793.253898 371.955459 
L 793.253898 364.859384 
L 793.253898 346.529517 
L 793.253898 322.855584 
L 793.253898 314.411614 
L 783.387524 310.140012 
L 773.521149 310.140012 
L 763.654775 305.795646 
L 753.7884 314.094535 
L 743.922026 317.74253 
L 738.002201 322.855584 
L 734.055652 323.412617 
L 724.189277 323.857173 
L 714.322903 325.899158 
L 704.456528 345.629409 
L 694.590154 340.56597 
L 693.148145 346.529517 
L 694.590154 351.111984 
L 704.456528 346.927992 
L 714.322903 360.563321 
L 724.189277 363.193032 
L 730.355761 364.859384 
L 734.055652 370.18144 
L 738.988839 364.859384 
L 743.922026 363.821844 
L 753.7884 363.821844 
L 757.488291 364.859384 
L 763.654775 373.729477 
L 771.054556 379.051534 
L 763.654775 379.836424 
L 753.7884 380.799699 
L 743.922026 382.150845 
L 734.055652 380.196166 
L 726.864904 390.04 
z
" clip-path="url(#pbcee7bae15)" style="fill: #bddf26"/>
    <path d="M 743.922026 56.908372 
L 753.7884 77.902065 
L 763.654775 112.440691 
L 773.521149 109.506908 
L 783.387524 124.175823 
L 793.253898 119.367679 
L 793.253898 50.83125 
L 783.387524 50.83125 
L 773.521149 50.83125 
L 763.654775 50.83125 
L 753.7884 50.83125 
L 743.922026 50.83125 
L 741.455432 50.83125 
z
" clip-path="url(#pbcee7bae15)" style="fill: #bddf26"/>
   </g>
   <g id="matplotlib.axis_5">
    <g id="xtick_13">
     <g id="line2d_33">
      <g>
       <use xlink:href="#m1daad20416" x="605.792784" y="390.04" style="stroke: #000000; stroke-width: 0.8"/>
      </g>
     </g>
     <g id="text_52">
      <!-- −18 -->
      <g transform="translate(595.240441 404.638438) scale(0.1 -0.1)">
       <use xlink:href="#DejaVuSans-2212"/>
       <use xlink:href="#DejaVuSans-31" x="83.789062"/>
       <use xlink:href="#DejaVuSans-38" x="147.412109"/>
      </g>
     </g>
    </g>
    <g id="xtick_14">
     <g id="line2d_34">
      <g>
       <use xlink:href="#m1daad20416" x="643.285007" y="390.04" style="stroke: #000000; stroke-width: 0.8"/>
      </g>
     </g>
     <g id="text_53">
      <!-- −12 -->
      <g transform="translate(632.732663 404.638438) scale(0.1 -0.1)">
       <use xlink:href="#DejaVuSans-2212"/>
       <use xlink:href="#DejaVuSans-31" x="83.789062"/>
       <use xlink:href="#DejaVuSans-32" x="147.412109"/>
      </g>
     </g>
    </g>
    <g id="xtick_15">
     <g id="line2d_35">
      <g>
       <use xlink:href="#m1daad20416" x="680.77723" y="390.04" style="stroke: #000000; stroke-width: 0.8"/>
      </g>
     </g>
     <g id="text_54">
      <!-- −6 -->
      <g transform="translate(673.406136 404.638438) scale(0.1 -0.1)">
       <use xlink:href="#DejaVuSans-2212"/>
       <use xlink:href="#DejaVuSans-36" x="83.789062"/>
      </g>
     </g>
    </g>
    <g id="xtick_16">
     <g id="line2d_36">
      <g>
       <use xlink:href="#m1daad20416" x="718.269453" y="390.04" style="stroke: #000000; stroke-width: 0.8"/>
      </g>
     </g>
     <g id="text_55">
      <!-- 0 -->
      <g transform="translate(715.088203 404.638438) scale(0.1 -0.1)">
       <use xlink:href="#DejaVuSans-30"/>
      </g>
     </g>
    </g>
    <g id="xtick_17">
     <g id="line2d_37">
      <g>
       <use xlink:href="#m1daad20416" x="755.761675" y="390.04" style="stroke: #000000; stroke-width: 0.8"/>
      </g>
     </g>
     <g id="text_56">
      <!-- 6 -->
      <g transform="translate(752.580425 404.638438) scale(0.1 -0.1)">
       <use xlink:href="#DejaVuSans-36"/>
      </g>
     </g>
    </g>
    <g id="xtick_18">
     <g id="line2d_38">
      <g>
       <use xlink:href="#m1daad20416" x="793.253898" y="390.04" style="stroke: #000000; stroke-width: 0.8"/>
      </g>
     </g>
     <g id="text_57">
      <!-- 12 -->
      <g transform="translate(786.891398 404.638438) scale(0.1 -0.1)">
       <use xlink:href="#DejaVuSans-31"/>
       <use xlink:href="#DejaVuSans-32" x="63.623047"/>
      </g>
     </g>
    </g>
    <g id="text_58">
     <!-- SNR [dB] -->
     <g transform="translate(677.038966 418.316562) scale(0.1 -0.1)">
      <use xlink:href="#DejaVuSans-53"/>
      <use xlink:href="#DejaVuSans-4e" x="63.476562"/>
      <use xlink:href="#DejaVuSans-52" x="138.28125"/>
      <use xlink:href="#DejaVuSans-20" x="207.763672"/>
      <use xlink:href="#DejaVuSans-5b" x="239.550781"/>
      <use xlink:href="#DejaVuSans-64" x="278.564453"/>
      <use xlink:href="#DejaVuSans-42" x="342.041016"/>
      <use xlink:href="#DejaVuSans-5d" x="410.644531"/>
     </g>
    </g>
   </g>
   <g id="matplotlib.axis_6">
    <g id="ytick_21">
     <g id="line2d_39">
      <g>
       <use xlink:href="#m3ce07d8afb" x="605.792784" y="390.04" style="stroke: #000000; stroke-width: 0.8"/>
      </g>
     </g>
     <g id="text_59">
      <!-- 10 -->
      <g transform="translate(586.067784 393.839219) scale(0.1 -0.1)">
       <use xlink:href="#DejaVuSans-31"/>
       <use xlink:href="#DejaVuSans-30" x="63.623047"/>
      </g>
     </g>
    </g>
    <g id="ytick_22">
     <g id="line2d_40">
      <g>
       <use xlink:href="#m3ce07d8afb" x="605.792784" y="352.350139" style="stroke: #000000; stroke-width: 0.8"/>
      </g>
     </g>
     <g id="text_60">
      <!-- 20 -->
      <g transform="translate(586.067784 356.149358) scale(0.1 -0.1)">
       <use xlink:href="#DejaVuSans-32"/>
       <use xlink:href="#DejaVuSans-30" x="63.623047"/>
      </g>
     </g>
    </g>
    <g id="ytick_23">
     <g id="line2d_41">
      <g>
       <use xlink:href="#m3ce07d8afb" x="605.792784" y="314.660278" style="stroke: #000000; stroke-width: 0.8"/>
      </g>
     </g>
     <g id="text_61">
      <!-- 30 -->
      <g transform="translate(586.067784 318.459497) scale(0.1 -0.1)">
       <use xlink:href="#DejaVuSans-33"/>
       <use xlink:href="#DejaVuSans-30" x="63.623047"/>
      </g>
     </g>
    </g>
    <g id="ytick_24">
     <g id="line2d_42">
      <g>
       <use xlink:href="#m3ce07d8afb" x="605.792784" y="276.970417" style="stroke: #000000; stroke-width: 0.8"/>
      </g>
     </g>
     <g id="text_62">
      <!-- 40 -->
      <g transform="translate(586.067784 280.769635) scale(0.1 -0.1)">
       <use xlink:href="#DejaVuSans-34"/>
       <use xlink:href="#DejaVuSans-30" x="63.623047"/>
      </g>
     </g>
    </g>
    <g id="ytick_25">
     <g id="line2d_43">
      <g>
       <use xlink:href="#m3ce07d8afb" x="605.792784" y="239.280556" style="stroke: #000000; stroke-width: 0.8"/>
      </g>
     </g>
     <g id="text_63">
      <!-- 50 -->
      <g transform="translate(586.067784 243.079774) scale(0.1 -0.1)">
       <use xlink:href="#DejaVuSans-35"/>
       <use xlink:href="#DejaVuSans-30" x="63.623047"/>
      </g>
     </g>
    </g>
    <g id="ytick_26">
     <g id="line2d_44">
      <g>
       <use xlink:href="#m3ce07d8afb" x="605.792784" y="201.590694" style="stroke: #000000; stroke-width: 0.8"/>
      </g>
     </g>
     <g id="text_64">
      <!-- 60 -->
      <g transform="translate(586.067784 205.389913) scale(0.1 -0.1)">
       <use xlink:href="#DejaVuSans-36"/>
       <use xlink:href="#DejaVuSans-30" x="63.623047"/>
      </g>
     </g>
    </g>
    <g id="ytick_27">
     <g id="line2d_45">
      <g>
       <use xlink:href="#m3ce07d8afb" x="605.792784" y="163.900833" style="stroke: #000000; stroke-width: 0.8"/>
      </g>
     </g>
     <g id="text_65">
      <!-- 70 -->
      <g transform="translate(586.067784 167.700052) scale(0.1 -0.1)">
       <use xlink:href="#DejaVuSans-37"/>
       <use xlink:href="#DejaVuSans-30" x="63.623047"/>
      </g>
     </g>
    </g>
    <g id="ytick_28">
     <g id="line2d_46">
      <g>
       <use xlink:href="#m3ce07d8afb" x="605.792784" y="126.210972" style="stroke: #000000; stroke-width: 0.8"/>
      </g>
     </g>
     <g id="text_66">
      <!-- 80 -->
      <g transform="translate(586.067784 130.010191) scale(0.1 -0.1)">
       <use xlink:href="#DejaVuSans-38"/>
       <use xlink:href="#DejaVuSans-30" x="63.623047"/>
      </g>
     </g>
    </g>
    <g id="ytick_29">
     <g id="line2d_47">
      <g>
       <use xlink:href="#m3ce07d8afb" x="605.792784" y="88.521111" style="stroke: #000000; stroke-width: 0.8"/>
      </g>
     </g>
     <g id="text_67">
      <!-- 90 -->
      <g transform="translate(586.067784 92.32033) scale(0.1 -0.1)">
       <use xlink:href="#DejaVuSans-39"/>
       <use xlink:href="#DejaVuSans-30" x="63.623047"/>
      </g>
     </g>
    </g>
    <g id="ytick_30">
     <g id="line2d_48">
      <g>
       <use xlink:href="#m3ce07d8afb" x="605.792784" y="50.83125" style="stroke: #000000; stroke-width: 0.8"/>
      </g>
     </g>
     <g id="text_68">
      <!-- 100 -->
      <g transform="translate(579.705284 54.630469) scale(0.1 -0.1)">
       <use xlink:href="#DejaVuSans-31"/>
       <use xlink:href="#DejaVuSans-30" x="63.623047"/>
       <use xlink:href="#DejaVuSans-30" x="127.246094"/>
      </g>
     </g>
    </g>
   </g>
   <g id="PathCollection_24">
    <path d="M 687.344535 50.83125 
L 684.72378 96.029843 
L 682.723839 135.910954 
L 683.490483 201.78508 
L 682.852571 252.789023 
L 678.850938 292.279523 
L 679.683349 322.855584 
L 677.120453 333.954123 
" clip-path="url(#pbcee7bae15)" style="fill: none; stroke: #000000; stroke-width: 1.5"/>
    <path d="M 675.230821 352.654598 
L 676.926161 364.859384 
L 674.857405 378.037809 
L 674.69827 379.051534 
L 674.857405 384.545767 
L 674.987226 390.04 
" clip-path="url(#pbcee7bae15)" style="fill: none; stroke: #000000; stroke-width: 1.5"/>
   </g>
   <g id="PathCollection_25">
    <path d="M 703.751787 50.83125 
L 699.221309 135.910954 
L 696.735018 201.78508 
L 700.36903 252.789023 
L 699.523341 292.279523 
L 697.194003 300.959095 
" clip-path="url(#pbcee7bae15)" style="fill: none; stroke: #000000; stroke-width: 1.5"/>
    <path d="M 692.456926 320.494967 
L 691.944822 322.855584 
L 687.456006 346.529517 
L 691.418819 364.859384 
L 693.784736 379.051534 
L 688.834769 390.04 
" clip-path="url(#pbcee7bae15)" style="fill: none; stroke: #000000; stroke-width: 1.5"/>
   </g>
   <g id="PathCollection_26">
    <path d="M 722.861111 390.04 
L 714.322903 380.53075 
L 713.050546 381.143902 
" clip-path="url(#pbcee7bae15)" style="fill: none; stroke: #000000; stroke-width: 1.5"/>
    <path d="M 722.012871 50.83125 
L 723.836907 135.910954 
L 724.189277 168.848017 
L 726.039222 201.78508 
L 728.026201 252.789023 
L 729.533563 292.279523 
L 724.189277 304.115771 
L 715.453286 313.838258 
" clip-path="url(#pbcee7bae15)" style="fill: none; stroke: #000000; stroke-width: 1.5"/>
    <path d="M 706.310753 331.320934 
L 704.456528 334.378055 
L 694.590154 336.642584 
L 692.199456 346.529517 
L 694.590154 354.126764 
L 704.456528 351.908934 
L 714.322903 364.143373 
L 716.789496 364.859384 
L 724.189277 376.686175 
L 725.833673 379.051534 
L 724.774571 390.04 
" clip-path="url(#pbcee7bae15)" style="fill: none; stroke: #000000; stroke-width: 1.5"/>
    <path d="M 757.215854 135.646865 
L 757.312106 135.910954 
L 753.7884 152.379486 
L 743.922026 146.889975 
L 734.055652 140.616249 
L 731.589058 135.910954 
L 734.055652 131.656969 
L 743.922026 132.872394 
L 745.805261 131.606977 
" clip-path="url(#pbcee7bae15)" style="fill: none; stroke: #000000; stroke-width: 1.5"/>
   </g>
   <g id="PathCollection_27">
    <path d="M 737.673322 390.04 
L 734.055652 388.780905 
L 733.135905 390.04 
" clip-path="url(#pbcee7bae15)" style="fill: none; stroke: #000000; stroke-width: 1.5"/>
    <path d="M 793.253898 389.902644 
L 783.387524 389.656681 
L 782.985096 389.666259 
" clip-path="url(#pbcee7bae15)" style="fill: none; stroke: #000000; stroke-width: 1.5"/>
    <path d="M 764.057387 389.65751 
L 763.654775 389.647555 
L 756.254994 390.04 
" clip-path="url(#pbcee7bae15)" style="fill: none; stroke: #000000; stroke-width: 1.5"/>
    <path d="M 793.253898 340.122115 
L 783.387524 339.511887 
L 773.521149 339.511887 
L 763.654775 339.340725 
L 753.7884 339.979729 
L 743.922026 340.38909 
L 743.516412 340.40394 
" clip-path="url(#pbcee7bae15)" style="fill: none; stroke: #000000; stroke-width: 1.5"/>
    <path d="M 724.589893 340.856918 
L 724.189277 340.861431 
L 714.322903 341.687698 
L 711.959084 346.529517 
L 714.322903 349.823165 
L 724.189277 350.695396 
L 734.055652 351.404481 
L 743.922026 350.852599 
L 753.7884 350.852599 
L 763.654775 351.621147 
L 773.521149 351.984834 
L 783.387524 352.2576 
L 793.253898 351.30292 
" clip-path="url(#pbcee7bae15)" style="fill: none; stroke: #000000; stroke-width: 1.5"/>
   </g>
   <g id="patch_13">
    <path d="M 605.792784 390.04 
L 605.792784 50.83125 
" style="fill: none; stroke: #000000; stroke-width: 0.8; stroke-linejoin: miter; stroke-linecap: square"/>
   </g>
   <g id="patch_14">
    <path d="M 793.253898 390.04 
L 793.253898 50.83125 
" style="fill: none; stroke: #000000; stroke-width: 0.8; stroke-linejoin: miter; stroke-linecap: square"/>
   </g>
   <g id="patch_15">
    <path d="M 605.792784 390.04 
L 793.253898 390.04 
" style="fill: none; stroke: #000000; stroke-width: 0.8; stroke-linejoin: miter; stroke-linecap: square"/>
   </g>
   <g id="patch_16">
    <path d="M 605.792784 50.83125 
L 793.253898 50.83125 
" style="fill: none; stroke: #000000; stroke-width: 0.8; stroke-linejoin: miter; stroke-linecap: square"/>
   </g>
   <g id="text_69">
    <!-- Recall (FPR) [%] -->
    <g transform="translate(651.506466 44.83125) scale(0.12 -0.12)">
     <defs>
      <path id="DejaVuSans-6c" d="M 603 4863 
L 1178 4863 
L 1178 0 
L 603 0 
L 603 4863 
z
" transform="scale(0.015625)"/>
     </defs>
     <use xlink:href="#DejaVuSans-52"/>
     <use xlink:href="#DejaVuSans-65" x="64.982422"/>
     <use xlink:href="#DejaVuSans-63" x="126.505859"/>
     <use xlink:href="#DejaVuSans-61" x="181.486328"/>
     <use xlink:href="#DejaVuSans-6c" x="242.765625"/>
     <use xlink:href="#DejaVuSans-6c" x="270.548828"/>
     <use xlink:href="#DejaVuSans-20" x="298.332031"/>
     <use xlink:href="#DejaVuSans-28" x="330.119141"/>
     <use xlink:href="#DejaVuSans-46" x="369.132812"/>
     <use xlink:href="#DejaVuSans-50" x="426.652344"/>
     <use xlink:href="#DejaVuSans-52" x="486.955078"/>
     <use xlink:href="#DejaVuSans-29" x="556.4375"/>
     <use xlink:href="#DejaVuSans-20" x="595.451172"/>
     <use xlink:href="#DejaVuSans-5b" x="627.238281"/>
     <use xlink:href="#DejaVuSans-25" x="666.251953"/>
     <use xlink:href="#DejaVuSans-5d" x="761.271484"/>
    </g>
   </g>
   <g id="text_70">
    <g clip-path="url(#pbcee7bae15)">
     <!-- 25 -->
     <g transform="translate(676.487128 350.49507) rotate(-80.145351) scale(0.1 -0.1)">
      <use xlink:href="#DejaVuSans-32"/>
      <use xlink:href="#DejaVuSans-35" x="63.623047"/>
     </g>
    </g>
   </g>
   <g id="text_71">
    <g clip-path="url(#pbcee7bae15)">
     <!-- 50 -->
     <g transform="translate(695.66117 317.51344) rotate(-75.437918) scale(0.1 -0.1)">
      <use xlink:href="#DejaVuSans-35"/>
      <use xlink:href="#DejaVuSans-30" x="63.623047"/>
     </g>
    </g>
   </g>
   <g id="text_72">
    <g clip-path="url(#pbcee7bae15)">
     <!-- 75 -->
     <g transform="translate(700.786625 391.169877) rotate(-34.603968) scale(0.1 -0.1)">
      <use xlink:href="#DejaVuSans-37"/>
      <use xlink:href="#DejaVuSans-35" x="63.623047"/>
     </g>
    </g>
   </g>
   <g id="text_73">
    <g clip-path="url(#pbcee7bae15)">
     <!-- 75 -->
     <g transform="translate(710.97401 329.774654) rotate(-62.658014) scale(0.1 -0.1)">
      <use xlink:href="#DejaVuSans-37"/>
      <use xlink:href="#DejaVuSans-35" x="63.623047"/>
     </g>
    </g>
   </g>
   <g id="text_74">
    <g clip-path="url(#pbcee7bae15)">
     <!-- 75 -->
     <g transform="translate(746.881393 126.866344) rotate(-341.71239) scale(0.1 -0.1)">
      <use xlink:href="#DejaVuSans-37"/>
      <use xlink:href="#DejaVuSans-35" x="63.623047"/>
     </g>
    </g>
   </g>
   <g id="text_75">
    <g clip-path="url(#pbcee7bae15)">
     <!-- 95 -->
     <g transform="translate(767.157459 392.648137) rotate(-359.975277) scale(0.1 -0.1)">
      <use xlink:href="#DejaVuSans-39"/>
      <use xlink:href="#DejaVuSans-35" x="63.623047"/>
     </g>
    </g>
   </g>
   <g id="text_76">
    <g clip-path="url(#pbcee7bae15)">
     <!-- 95 -->
     <g transform="translate(727.756369 343.651083) rotate(-1.279792) scale(0.1 -0.1)">
      <use xlink:href="#DejaVuSans-39"/>
      <use xlink:href="#DejaVuSans-35" x="63.623047"/>
     </g>
    </g>
   </g>
  </g>
  <g id="axes_4">
   <g id="patch_17">
    <path d="M 804.970218 390.04 
L 821.930655 390.04 
L 821.930655 50.83125 
L 804.970218 50.83125 
z
" style="fill: #ffffff"/>
   </g>
   <g id="QuadMesh_1">
    <path d="M 804.970218 390.04 
L 821.930655 390.04 
L 821.930655 322.19825 
L 804.970218 322.19825 
L 804.970218 390.04 
" clip-path="url(#pf149c9ddbe)" style="fill: #482475"/>
    <path d="M 804.970218 322.19825 
L 821.930655 322.19825 
L 821.930655 254.3565 
L 804.970218 254.3565 
L 804.970218 322.19825 
" clip-path="url(#pf149c9ddbe)" style="fill: #355f8d"/>
    <path d="M 804.970218 254.3565 
L 821.930655 254.3565 
L 821.930655 186.51475 
L 804.970218 186.51475 
L 804.970218 254.3565 
" clip-path="url(#pf149c9ddbe)" style="fill: #21918c"/>
    <path d="M 804.970218 186.51475 
L 821.930655 186.51475 
L 821.930655 118.673 
L 804.970218 118.673 
L 804.970218 186.51475 
" clip-path="url(#pf149c9ddbe)" style="fill: #44bf70"/>
    <path d="M 804.970218 118.673 
L 821.930655 118.673 
L 821.930655 50.83125 
L 804.970218 50.83125 
L 804.970218 118.673 
" clip-path="url(#pf149c9ddbe)" style="fill: #bddf26"/>
   </g>
   <g id="matplotlib.axis_7"/>
   <g id="matplotlib.axis_8">
    <g id="ytick_31">
     <g id="line2d_49">
      <defs>
       <path id="ma46fbdbf65" d="M 0 0 
L 3.5 0 
" style="stroke: #000000; stroke-width: 0.8"/>
      </defs>
      <g>
       <use xlink:href="#ma46fbdbf65" x="821.930655" y="390.04" style="stroke: #000000; stroke-width: 0.8"/>
      </g>
     </g>
     <g id="text_77">
      <!-- 0 -->
      <g transform="translate(828.930655 393.839219) scale(0.1 -0.1)">
       <use xlink:href="#DejaVuSans-30"/>
      </g>
     </g>
    </g>
    <g id="ytick_32">
     <g id="line2d_50">
      <g>
       <use xlink:href="#ma46fbdbf65" x="821.930655" y="322.19825" style="stroke: #000000; stroke-width: 0.8"/>
      </g>
     </g>
     <g id="text_78">
      <!-- 20 -->
      <g transform="translate(828.930655 325.997469) scale(0.1 -0.1)">
       <use xlink:href="#DejaVuSans-32"/>
       <use xlink:href="#DejaVuSans-30" x="63.623047"/>
      </g>
     </g>
    </g>
    <g id="ytick_33">
     <g id="line2d_51">
      <g>
       <use xlink:href="#ma46fbdbf65" x="821.930655" y="254.3565" style="stroke: #000000; stroke-width: 0.8"/>
      </g>
     </g>
     <g id="text_79">
      <!-- 40 -->
      <g transform="translate(828.930655 258.155719) scale(0.1 -0.1)">
       <use xlink:href="#DejaVuSans-34"/>
       <use xlink:href="#DejaVuSans-30" x="63.623047"/>
      </g>
     </g>
    </g>
    <g id="ytick_34">
     <g id="line2d_52">
      <g>
       <use xlink:href="#ma46fbdbf65" x="821.930655" y="186.51475" style="stroke: #000000; stroke-width: 0.8"/>
      </g>
     </g>
     <g id="text_80">
      <!-- 60 -->
      <g transform="translate(828.930655 190.313969) scale(0.1 -0.1)">
       <use xlink:href="#DejaVuSans-36"/>
       <use xlink:href="#DejaVuSans-30" x="63.623047"/>
      </g>
     </g>
    </g>
    <g id="ytick_35">
     <g id="line2d_53">
      <g>
       <use xlink:href="#ma46fbdbf65" x="821.930655" y="118.673" style="stroke: #000000; stroke-width: 0.8"/>
      </g>
     </g>
     <g id="text_81">
      <!-- 80 -->
      <g transform="translate(828.930655 122.472219) scale(0.1 -0.1)">
       <use xlink:href="#DejaVuSans-38"/>
       <use xlink:href="#DejaVuSans-30" x="63.623047"/>
      </g>
     </g>
    </g>
    <g id="ytick_36">
     <g id="line2d_54">
      <g>
       <use xlink:href="#ma46fbdbf65" x="821.930655" y="50.83125" style="stroke: #000000; stroke-width: 0.8"/>
      </g>
     </g>
     <g id="text_82">
      <!-- 100 -->
      <g transform="translate(828.930655 54.630469) scale(0.1 -0.1)">
       <use xlink:href="#DejaVuSans-31"/>
       <use xlink:href="#DejaVuSans-30" x="63.623047"/>
       <use xlink:href="#DejaVuSans-30" x="127.246094"/>
      </g>
     </g>
    </g>
   </g>
   <g id="LineCollection_1"/>
   <g id="patch_18">
    <path d="M 804.970218 390.04 
L 813.450436 390.04 
L 821.930655 390.04 
L 821.930655 50.83125 
L 813.450436 50.83125 
L 804.970218 50.83125 
L 804.970218 390.04 
z
" style="fill: none; stroke: #000000; stroke-width: 0.8; stroke-linejoin: miter; stroke-linecap: square"/>
   </g>
  </g>
  <g id="text_83">
   <!-- MTEO+RMS_BL+Smooth -->
   <g transform="translate(357.823125 17.758125) scale(0.12 -0.12)">
    <defs>
     <path id="DejaVuSans-4d" d="M 628 4666 
L 1569 4666 
L 2759 1491 
L 3956 4666 
L 4897 4666 
L 4897 0 
L 4281 0 
L 4281 4097 
L 3078 897 
L 2444 897 
L 1241 4097 
L 1241 0 
L 628 0 
L 628 4666 
z
" transform="scale(0.015625)"/>
     <path id="DejaVuSans-45" d="M 628 4666 
L 3578 4666 
L 3578 4134 
L 1259 4134 
L 1259 2753 
L 3481 2753 
L 3481 2222 
L 1259 2222 
L 1259 531 
L 3634 531 
L 3634 0 
L 628 0 
L 628 4666 
z
" transform="scale(0.015625)"/>
     <path id="DejaVuSans-4f" d="M 2522 4238 
Q 1834 4238 1429 3725 
Q 1025 3213 1025 2328 
Q 1025 1447 1429 934 
Q 1834 422 2522 422 
Q 3209 422 3611 934 
Q 4013 1447 4013 2328 
Q 4013 3213 3611 3725 
Q 3209 4238 2522 4238 
z
M 2522 4750 
Q 3503 4750 4090 4092 
Q 4678 3434 4678 2328 
Q 4678 1225 4090 567 
Q 3503 -91 2522 -91 
Q 1538 -91 948 565 
Q 359 1222 359 2328 
Q 359 3434 948 4092 
Q 1538 4750 2522 4750 
z
" transform="scale(0.015625)"/>
     <path id="DejaVuSans-2b" d="M 2944 4013 
L 2944 2272 
L 4684 2272 
L 4684 1741 
L 2944 1741 
L 2944 0 
L 2419 0 
L 2419 1741 
L 678 1741 
L 678 2272 
L 2419 2272 
L 2419 4013 
L 2944 4013 
z
" transform="scale(0.015625)"/>
     <path id="DejaVuSans-5f" d="M 3263 -1063 
L 3263 -1509 
L -63 -1509 
L -63 -1063 
L 3263 -1063 
z
" transform="scale(0.015625)"/>
     <path id="DejaVuSans-4c" d="M 628 4666 
L 1259 4666 
L 1259 531 
L 3531 531 
L 3531 0 
L 628 0 
L 628 4666 
z
" transform="scale(0.015625)"/>
     <path id="DejaVuSans-6d" d="M 3328 2828 
Q 3544 3216 3844 3400 
Q 4144 3584 4550 3584 
Q 5097 3584 5394 3201 
Q 5691 2819 5691 2113 
L 5691 0 
L 5113 0 
L 5113 2094 
Q 5113 2597 4934 2840 
Q 4756 3084 4391 3084 
Q 3944 3084 3684 2787 
Q 3425 2491 3425 1978 
L 3425 0 
L 2847 0 
L 2847 2094 
Q 2847 2600 2669 2842 
Q 2491 3084 2119 3084 
Q 1678 3084 1418 2786 
Q 1159 2488 1159 1978 
L 1159 0 
L 581 0 
L 581 3500 
L 1159 3500 
L 1159 2956 
Q 1356 3278 1631 3431 
Q 1906 3584 2284 3584 
Q 2666 3584 2933 3390 
Q 3200 3197 3328 2828 
z
" transform="scale(0.015625)"/>
     <path id="DejaVuSans-68" d="M 3513 2113 
L 3513 0 
L 2938 0 
L 2938 2094 
Q 2938 2591 2744 2837 
Q 2550 3084 2163 3084 
Q 1697 3084 1428 2787 
Q 1159 2491 1159 1978 
L 1159 0 
L 581 0 
L 581 4863 
L 1159 4863 
L 1159 2956 
Q 1366 3272 1645 3428 
Q 1925 3584 2291 3584 
Q 2894 3584 3203 3211 
Q 3513 2838 3513 2113 
z
" transform="scale(0.015625)"/>
    </defs>
    <use xlink:href="#DejaVuSans-4d"/>
    <use xlink:href="#DejaVuSans-54" x="86.279297"/>
    <use xlink:href="#DejaVuSans-45" x="147.363281"/>
    <use xlink:href="#DejaVuSans-4f" x="210.546875"/>
    <use xlink:href="#DejaVuSans-2b" x="289.257812"/>
    <use xlink:href="#DejaVuSans-52" x="373.046875"/>
    <use xlink:href="#DejaVuSans-4d" x="442.529297"/>
    <use xlink:href="#DejaVuSans-53" x="528.808594"/>
    <use xlink:href="#DejaVuSans-5f" x="592.285156"/>
    <use xlink:href="#DejaVuSans-42" x="642.285156"/>
    <use xlink:href="#DejaVuSans-4c" x="710.888672"/>
    <use xlink:href="#DejaVuSans-2b" x="766.601562"/>
    <use xlink:href="#DejaVuSans-53" x="850.390625"/>
    <use xlink:href="#DejaVuSans-6d" x="913.867188"/>
    <use xlink:href="#DejaVuSans-6f" x="1011.279297"/>
    <use xlink:href="#DejaVuSans-6f" x="1072.460938"/>
    <use xlink:href="#DejaVuSans-74" x="1133.642578"/>
    <use xlink:href="#DejaVuSans-68" x="1172.851562"/>
   </g>
  </g>
 </g>
 <defs>
  <clipPath id="p3f7260796e">
   <rect x="50.87" y="50.83125" width="234.326392" height="339.20875"/>
  </clipPath>
  <clipPath id="pccfd981954">
   <rect x="328.331392" y="50.83125" width="234.326392" height="339.20875"/>
  </clipPath>
  <clipPath id="pbcee7bae15">
   <rect x="605.792784" y="50.83125" width="187.461114" height="339.20875"/>
  </clipPath>
  <clipPath id="pf149c9ddbe">
   <rect x="804.970218" y="50.83125" width="16.960438" height="339.20875"/>
  </clipPath>
 </defs>
</svg>
