<?xml version="1.0" encoding="utf-8" standalone="no"?>
<!DOCTYPE svg PUBLIC "-//W3C//DTD SVG 1.1//EN"
  "http://www.w3.org/Graphics/SVG/1.1/DTD/svg11.dtd">
<svg xmlns:xlink="http://www.w3.org/1999/xlink" width="864pt" height="432pt" viewBox="0 0 864 432" xmlns="http://www.w3.org/2000/svg" version="1.1">
 <metadata>
  <rdf:RDF xmlns:dc="http://purl.org/dc/elements/1.1/" xmlns:cc="http://creativecommons.org/ns#" xmlns:rdf="http://www.w3.org/1999/02/22-rdf-syntax-ns#">
   <cc:Work>
    <dc:type rdf:resource="http://purl.org/dc/dcmitype/StillImage"/>
    <dc:date>2023-10-05T23:36:58.956995</dc:date>
    <dc:format>image/svg+xml</dc:format>
    <dc:creator>
     <cc:Agent>
      <dc:title>Matplotlib v3.7.2, https://matplotlib.org/</dc:title>
     </cc:Agent>
    </dc:creator>
   </cc:Work>
  </rdf:RDF>
 </metadata>
 <defs>
  <style type="text/css">*{stroke-linejoin: round; stroke-linecap: butt}</style>
 </defs>
 <g id="figure_1">
  <g id="patch_1">
   <path d="M 0 432 
L 864 432 
L 864 0 
L 0 0 
z
" style="fill: #ffffff"/>
  </g>
  <g id="axes_1">
   <g id="patch_2">
    <path d="M 50.87 390.04 
L 285.196392 390.04 
L 285.196392 50.83125 
L 50.87 50.83125 
z
" style="fill: #ffffff"/>
   </g>
   <g id="PathCollection_1">
    <path d="M 63.202968 390.04 
L 75.535936 390.04 
L 87.868904 390.04 
L 100.201872 390.04 
L 112.53484 390.04 
L 124.867808 390.04 
L 137.200776 390.04 
L 149.533744 390.04 
L 161.866712 390.04 
L 174.19968 390.04 
L 186.532648 390.04 
L 198.865616 390.04 
L 206.93403 390.04 
L 210.324629 379.051534 
L 198.865616 371.994537 
L 193.605606 364.859384 
L 187.775944 346.529517 
L 193.584868 322.855584 
L 192.308587 292.279523 
L 186.532648 259.580766 
L 183.243857 252.789023 
L 180.58223 201.78508 
L 186.532648 163.797835 
L 193.377925 135.910954 
L 192.787225 50.83125 
L 186.532648 50.83125 
L 174.19968 50.83125 
L 161.866712 50.83125 
L 149.533744 50.83125 
L 137.200776 50.83125 
L 124.867808 50.83125 
L 112.53484 50.83125 
L 100.201872 50.83125 
L 87.868904 50.83125 
L 75.535936 50.83125 
L 63.202968 50.83125 
L 50.87 50.83125 
L 50.87 135.910954 
L 50.87 201.78508 
L 50.87 252.789023 
L 50.87 292.279523 
L 50.87 322.855584 
L 50.87 346.529517 
L 50.87 364.859384 
L 50.87 379.051534 
L 50.87 390.04 
z
" clip-path="url(#p01cd21b958)" style="fill: #482475"/>
   </g>
   <g id="PathCollection_2">
    <path d="M 211.198584 390.04 
L 223.531552 390.04 
L 235.86452 390.04 
L 248.197488 390.04 
L 251.11774 390.04 
L 248.197488 388.068333 
L 241.467601 379.051534 
L 235.86452 369.275707 
L 231.659597 364.859384 
L 223.531552 360.238519 
L 211.198584 350.477966 
L 205.701933 346.529517 
L 211.198584 336.687675 
L 218.361373 322.855584 
L 218.08104 292.279523 
L 217.867039 252.789023 
L 212.257039 201.78508 
L 221.799576 135.910954 
L 220.153822 50.83125 
L 211.198584 50.83125 
L 198.865616 50.83125 
L 192.787225 50.83125 
L 193.377925 135.910954 
L 186.532648 163.797835 
L 180.58223 201.78508 
L 183.243857 252.789023 
L 186.532648 259.580766 
L 192.308587 292.279523 
L 193.584868 322.855584 
L 187.775944 346.529517 
L 193.605606 364.859384 
L 198.865616 371.994537 
L 210.324629 379.051534 
L 206.93403 390.04 
z
" clip-path="url(#p01cd21b958)" style="fill: #355f8d"/>
   </g>
   <g id="PathCollection_3">
    <path d="M 248.197488 388.068333 
L 251.11774 390.04 
L 260.530456 390.04 
L 272.863424 390.04 
L 275.079313 390.04 
L 285.196392 383.679891 
L 285.196392 379.051534 
L 285.196392 364.859384 
L 285.196392 364.433108 
L 272.863424 362.669641 
L 260.530456 361.295762 
L 248.197488 356.629231 
L 235.86452 356.935263 
L 225.832814 346.529517 
L 235.86452 328.09942 
L 248.197488 327.453545 
L 260.530456 323.851252 
L 271.939002 322.855584 
L 272.863424 322.478464 
L 285.196392 322.521197 
L 285.196392 292.279523 
L 285.196392 252.789023 
L 285.196392 201.78508 
L 285.196392 135.910954 
L 285.196392 63.940331 
L 272.863424 52.670657 
L 269.81002 50.83125 
L 260.530456 50.83125 
L 248.197488 50.83125 
L 235.86452 50.83125 
L 223.531552 50.83125 
L 220.153822 50.83125 
L 221.799576 135.910954 
L 212.257039 201.78508 
L 217.867039 252.789023 
L 218.08104 292.279523 
L 218.361373 322.855584 
L 211.198584 336.687675 
L 205.701933 346.529517 
L 211.198584 350.477966 
L 223.531552 360.238519 
L 231.659597 364.859384 
L 235.86452 369.275707 
L 241.467601 379.051534 
z
" clip-path="url(#p01cd21b958)" style="fill: #21918c"/>
   </g>
   <g id="PathCollection_4">
    <path d="M 285.196392 390.04 
L 285.196392 383.679891 
L 275.079313 390.04 
z
" clip-path="url(#p01cd21b958)" style="fill: #44bf70"/>
    <path d="M 235.86452 356.935263 
L 248.197488 356.629231 
L 260.530456 361.295762 
L 272.863424 362.669641 
L 285.196392 364.433108 
L 285.196392 355.481312 
L 272.863424 354.599579 
L 260.530456 353.127201 
L 248.197488 347.178122 
L 235.86452 347.841678 
L 234.599525 346.529517 
L 235.86452 344.205487 
L 248.197488 345.304454 
L 260.530456 336.396675 
L 272.863424 334.654367 
L 285.196392 334.654367 
L 285.196392 322.855584 
L 285.196392 322.521197 
L 272.863424 322.478464 
L 271.939002 322.855584 
L 260.530456 323.851252 
L 248.197488 327.453545 
L 235.86452 328.09942 
L 225.832814 346.529517 
z
" clip-path="url(#p01cd21b958)" style="fill: #44bf70"/>
    <path d="M 272.863424 52.670657 
L 285.196392 63.940331 
L 285.196392 50.83125 
L 272.863424 50.83125 
L 269.81002 50.83125 
z
" clip-path="url(#p01cd21b958)" style="fill: #44bf70"/>
   </g>
   <g id="PathCollection_5">
    <path d="M 235.86452 347.841678 
L 248.197488 347.178122 
L 260.530456 353.127201 
L 272.863424 354.599579 
L 285.196392 355.481312 
L 285.196392 346.529517 
L 285.196392 334.654367 
L 272.863424 334.654367 
L 260.530456 336.396675 
L 248.197488 345.304454 
L 235.86452 344.205487 
L 234.599525 346.529517 
z
" clip-path="url(#p01cd21b958)" style="fill: #bddf26"/>
   </g>
   <g id="matplotlib.axis_1">
    <g id="xtick_1">
     <g id="line2d_1">
      <defs>
       <path id="m5ad089bf08" d="M 0 0 
L 0 3.5 
" style="stroke: #000000; stroke-width: 0.8"/>
      </defs>
      <g>
       <use xlink:href="#m5ad089bf08" x="50.87" y="390.04" style="stroke: #000000; stroke-width: 0.8"/>
      </g>
     </g>
     <g id="text_1">
      <!-- −18 -->
      <g transform="translate(40.317656 404.638438) scale(0.1 -0.1)">
       <defs>
        <path id="DejaVuSans-2212" d="M 678 2272 
L 4684 2272 
L 4684 1741 
L 678 1741 
L 678 2272 
z
" transform="scale(0.015625)"/>
        <path id="DejaVuSans-31" d="M 794 531 
L 1825 531 
L 1825 4091 
L 703 3866 
L 703 4441 
L 1819 4666 
L 2450 4666 
L 2450 531 
L 3481 531 
L 3481 0 
L 794 0 
L 794 531 
z
" transform="scale(0.015625)"/>
        <path id="DejaVuSans-38" d="M 2034 2216 
Q 1584 2216 1326 1975 
Q 1069 1734 1069 1313 
Q 1069 891 1326 650 
Q 1584 409 2034 409 
Q 2484 409 2743 651 
Q 3003 894 3003 1313 
Q 3003 1734 2745 1975 
Q 2488 2216 2034 2216 
z
M 1403 2484 
Q 997 2584 770 2862 
Q 544 3141 544 3541 
Q 544 4100 942 4425 
Q 1341 4750 2034 4750 
Q 2731 4750 3128 4425 
Q 3525 4100 3525 3541 
Q 3525 3141 3298 2862 
Q 3072 2584 2669 2484 
Q 3125 2378 3379 2068 
Q 3634 1759 3634 1313 
Q 3634 634 3220 271 
Q 2806 -91 2034 -91 
Q 1263 -91 848 271 
Q 434 634 434 1313 
Q 434 1759 690 2068 
Q 947 2378 1403 2484 
z
M 1172 3481 
Q 1172 3119 1398 2916 
Q 1625 2713 2034 2713 
Q 2441 2713 2670 2916 
Q 2900 3119 2900 3481 
Q 2900 3844 2670 4047 
Q 2441 4250 2034 4250 
Q 1625 4250 1398 4047 
Q 1172 3844 1172 3481 
z
" transform="scale(0.015625)"/>
       </defs>
       <use xlink:href="#DejaVuSans-2212"/>
       <use xlink:href="#DejaVuSans-31" x="83.789062"/>
       <use xlink:href="#DejaVuSans-38" x="147.412109"/>
      </g>
     </g>
    </g>
    <g id="xtick_2">
     <g id="line2d_2">
      <g>
       <use xlink:href="#m5ad089bf08" x="97.735278" y="390.04" style="stroke: #000000; stroke-width: 0.8"/>
      </g>
     </g>
     <g id="text_2">
      <!-- −12 -->
      <g transform="translate(87.182935 404.638438) scale(0.1 -0.1)">
       <defs>
        <path id="DejaVuSans-32" d="M 1228 531 
L 3431 531 
L 3431 0 
L 469 0 
L 469 531 
Q 828 903 1448 1529 
Q 2069 2156 2228 2338 
Q 2531 2678 2651 2914 
Q 2772 3150 2772 3378 
Q 2772 3750 2511 3984 
Q 2250 4219 1831 4219 
Q 1534 4219 1204 4116 
Q 875 4013 500 3803 
L 500 4441 
Q 881 4594 1212 4672 
Q 1544 4750 1819 4750 
Q 2544 4750 2975 4387 
Q 3406 4025 3406 3419 
Q 3406 3131 3298 2873 
Q 3191 2616 2906 2266 
Q 2828 2175 2409 1742 
Q 1991 1309 1228 531 
z
" transform="scale(0.015625)"/>
       </defs>
       <use xlink:href="#DejaVuSans-2212"/>
       <use xlink:href="#DejaVuSans-31" x="83.789062"/>
       <use xlink:href="#DejaVuSans-32" x="147.412109"/>
      </g>
     </g>
    </g>
    <g id="xtick_3">
     <g id="line2d_3">
      <g>
       <use xlink:href="#m5ad089bf08" x="144.600557" y="390.04" style="stroke: #000000; stroke-width: 0.8"/>
      </g>
     </g>
     <g id="text_3">
      <!-- −6 -->
      <g transform="translate(137.229463 404.638438) scale(0.1 -0.1)">
       <defs>
        <path id="DejaVuSans-36" d="M 2113 2584 
Q 1688 2584 1439 2293 
Q 1191 2003 1191 1497 
Q 1191 994 1439 701 
Q 1688 409 2113 409 
Q 2538 409 2786 701 
Q 3034 994 3034 1497 
Q 3034 2003 2786 2293 
Q 2538 2584 2113 2584 
z
M 3366 4563 
L 3366 3988 
Q 3128 4100 2886 4159 
Q 2644 4219 2406 4219 
Q 1781 4219 1451 3797 
Q 1122 3375 1075 2522 
Q 1259 2794 1537 2939 
Q 1816 3084 2150 3084 
Q 2853 3084 3261 2657 
Q 3669 2231 3669 1497 
Q 3669 778 3244 343 
Q 2819 -91 2113 -91 
Q 1303 -91 875 529 
Q 447 1150 447 2328 
Q 447 3434 972 4092 
Q 1497 4750 2381 4750 
Q 2619 4750 2861 4703 
Q 3103 4656 3366 4563 
z
" transform="scale(0.015625)"/>
       </defs>
       <use xlink:href="#DejaVuSans-2212"/>
       <use xlink:href="#DejaVuSans-36" x="83.789062"/>
      </g>
     </g>
    </g>
    <g id="xtick_4">
     <g id="line2d_4">
      <g>
       <use xlink:href="#m5ad089bf08" x="191.465835" y="390.04" style="stroke: #000000; stroke-width: 0.8"/>
      </g>
     </g>
     <g id="text_4">
      <!-- 0 -->
      <g transform="translate(188.284585 404.638438) scale(0.1 -0.1)">
       <defs>
        <path id="DejaVuSans-30" d="M 2034 4250 
Q 1547 4250 1301 3770 
Q 1056 3291 1056 2328 
Q 1056 1369 1301 889 
Q 1547 409 2034 409 
Q 2525 409 2770 889 
Q 3016 1369 3016 2328 
Q 3016 3291 2770 3770 
Q 2525 4250 2034 4250 
z
M 2034 4750 
Q 2819 4750 3233 4129 
Q 3647 3509 3647 2328 
Q 3647 1150 3233 529 
Q 2819 -91 2034 -91 
Q 1250 -91 836 529 
Q 422 1150 422 2328 
Q 422 3509 836 4129 
Q 1250 4750 2034 4750 
z
" transform="scale(0.015625)"/>
       </defs>
       <use xlink:href="#DejaVuSans-30"/>
      </g>
     </g>
    </g>
    <g id="xtick_5">
     <g id="line2d_5">
      <g>
       <use xlink:href="#m5ad089bf08" x="238.331114" y="390.04" style="stroke: #000000; stroke-width: 0.8"/>
      </g>
     </g>
     <g id="text_5">
      <!-- 6 -->
      <g transform="translate(235.149864 404.638438) scale(0.1 -0.1)">
       <use xlink:href="#DejaVuSans-36"/>
      </g>
     </g>
    </g>
    <g id="xtick_6">
     <g id="line2d_6">
      <g>
       <use xlink:href="#m5ad089bf08" x="285.196392" y="390.04" style="stroke: #000000; stroke-width: 0.8"/>
      </g>
     </g>
     <g id="text_6">
      <!-- 12 -->
      <g transform="translate(278.833892 404.638438) scale(0.1 -0.1)">
       <use xlink:href="#DejaVuSans-31"/>
       <use xlink:href="#DejaVuSans-32" x="63.623047"/>
      </g>
     </g>
    </g>
    <g id="text_7">
     <!-- SNR [dB] -->
     <g transform="translate(145.548821 418.316562) scale(0.1 -0.1)">
      <defs>
       <path id="DejaVuSans-53" d="M 3425 4513 
L 3425 3897 
Q 3066 4069 2747 4153 
Q 2428 4238 2131 4238 
Q 1616 4238 1336 4038 
Q 1056 3838 1056 3469 
Q 1056 3159 1242 3001 
Q 1428 2844 1947 2747 
L 2328 2669 
Q 3034 2534 3370 2195 
Q 3706 1856 3706 1288 
Q 3706 609 3251 259 
Q 2797 -91 1919 -91 
Q 1588 -91 1214 -16 
Q 841 59 441 206 
L 441 856 
Q 825 641 1194 531 
Q 1563 422 1919 422 
Q 2459 422 2753 634 
Q 3047 847 3047 1241 
Q 3047 1584 2836 1778 
Q 2625 1972 2144 2069 
L 1759 2144 
Q 1053 2284 737 2584 
Q 422 2884 422 3419 
Q 422 4038 858 4394 
Q 1294 4750 2059 4750 
Q 2388 4750 2728 4690 
Q 3069 4631 3425 4513 
z
" transform="scale(0.015625)"/>
       <path id="DejaVuSans-4e" d="M 628 4666 
L 1478 4666 
L 3547 763 
L 3547 4666 
L 4159 4666 
L 4159 0 
L 3309 0 
L 1241 3903 
L 1241 0 
L 628 0 
L 628 4666 
z
" transform="scale(0.015625)"/>
       <path id="DejaVuSans-52" d="M 2841 2188 
Q 3044 2119 3236 1894 
Q 3428 1669 3622 1275 
L 4263 0 
L 3584 0 
L 2988 1197 
Q 2756 1666 2539 1819 
Q 2322 1972 1947 1972 
L 1259 1972 
L 1259 0 
L 628 0 
L 628 4666 
L 2053 4666 
Q 2853 4666 3247 4331 
Q 3641 3997 3641 3322 
Q 3641 2881 3436 2590 
Q 3231 2300 2841 2188 
z
M 1259 4147 
L 1259 2491 
L 2053 2491 
Q 2509 2491 2742 2702 
Q 2975 2913 2975 3322 
Q 2975 3731 2742 3939 
Q 2509 4147 2053 4147 
L 1259 4147 
z
" transform="scale(0.015625)"/>
       <path id="DejaVuSans-20" transform="scale(0.015625)"/>
       <path id="DejaVuSans-5b" d="M 550 4863 
L 1875 4863 
L 1875 4416 
L 1125 4416 
L 1125 -397 
L 1875 -397 
L 1875 -844 
L 550 -844 
L 550 4863 
z
" transform="scale(0.015625)"/>
       <path id="DejaVuSans-64" d="M 2906 2969 
L 2906 4863 
L 3481 4863 
L 3481 0 
L 2906 0 
L 2906 525 
Q 2725 213 2448 61 
Q 2172 -91 1784 -91 
Q 1150 -91 751 415 
Q 353 922 353 1747 
Q 353 2572 751 3078 
Q 1150 3584 1784 3584 
Q 2172 3584 2448 3432 
Q 2725 3281 2906 2969 
z
M 947 1747 
Q 947 1113 1208 752 
Q 1469 391 1925 391 
Q 2381 391 2643 752 
Q 2906 1113 2906 1747 
Q 2906 2381 2643 2742 
Q 2381 3103 1925 3103 
Q 1469 3103 1208 2742 
Q 947 2381 947 1747 
z
" transform="scale(0.015625)"/>
       <path id="DejaVuSans-42" d="M 1259 2228 
L 1259 519 
L 2272 519 
Q 2781 519 3026 730 
Q 3272 941 3272 1375 
Q 3272 1813 3026 2020 
Q 2781 2228 2272 2228 
L 1259 2228 
z
M 1259 4147 
L 1259 2741 
L 2194 2741 
Q 2656 2741 2882 2914 
Q 3109 3088 3109 3444 
Q 3109 3797 2882 3972 
Q 2656 4147 2194 4147 
L 1259 4147 
z
M 628 4666 
L 2241 4666 
Q 2963 4666 3353 4366 
Q 3744 4066 3744 3513 
Q 3744 3084 3544 2831 
Q 3344 2578 2956 2516 
Q 3422 2416 3680 2098 
Q 3938 1781 3938 1306 
Q 3938 681 3513 340 
Q 3088 0 2303 0 
L 628 0 
L 628 4666 
z
" transform="scale(0.015625)"/>
       <path id="DejaVuSans-5d" d="M 1947 4863 
L 1947 -844 
L 622 -844 
L 622 -397 
L 1369 -397 
L 1369 4416 
L 622 4416 
L 622 4863 
L 1947 4863 
z
" transform="scale(0.015625)"/>
      </defs>
      <use xlink:href="#DejaVuSans-53"/>
      <use xlink:href="#DejaVuSans-4e" x="63.476562"/>
      <use xlink:href="#DejaVuSans-52" x="138.28125"/>
      <use xlink:href="#DejaVuSans-20" x="207.763672"/>
      <use xlink:href="#DejaVuSans-5b" x="239.550781"/>
      <use xlink:href="#DejaVuSans-64" x="278.564453"/>
      <use xlink:href="#DejaVuSans-42" x="342.041016"/>
      <use xlink:href="#DejaVuSans-5d" x="410.644531"/>
     </g>
    </g>
   </g>
   <g id="matplotlib.axis_2">
    <g id="ytick_1">
     <g id="line2d_7">
      <defs>
       <path id="mf17f74e2b7" d="M 0 0 
L -3.5 0 
" style="stroke: #000000; stroke-width: 0.8"/>
      </defs>
      <g>
       <use xlink:href="#mf17f74e2b7" x="50.87" y="390.04" style="stroke: #000000; stroke-width: 0.8"/>
      </g>
     </g>
     <g id="text_8">
      <!-- 10 -->
      <g transform="translate(31.145 393.839219) scale(0.1 -0.1)">
       <use xlink:href="#DejaVuSans-31"/>
       <use xlink:href="#DejaVuSans-30" x="63.623047"/>
      </g>
     </g>
    </g>
    <g id="ytick_2">
     <g id="line2d_8">
      <g>
       <use xlink:href="#mf17f74e2b7" x="50.87" y="352.350139" style="stroke: #000000; stroke-width: 0.8"/>
      </g>
     </g>
     <g id="text_9">
      <!-- 20 -->
      <g transform="translate(31.145 356.149358) scale(0.1 -0.1)">
       <use xlink:href="#DejaVuSans-32"/>
       <use xlink:href="#DejaVuSans-30" x="63.623047"/>
      </g>
     </g>
    </g>
    <g id="ytick_3">
     <g id="line2d_9">
      <g>
       <use xlink:href="#mf17f74e2b7" x="50.87" y="314.660278" style="stroke: #000000; stroke-width: 0.8"/>
      </g>
     </g>
     <g id="text_10">
      <!-- 30 -->
      <g transform="translate(31.145 318.459497) scale(0.1 -0.1)">
       <defs>
        <path id="DejaVuSans-33" d="M 2597 2516 
Q 3050 2419 3304 2112 
Q 3559 1806 3559 1356 
Q 3559 666 3084 287 
Q 2609 -91 1734 -91 
Q 1441 -91 1130 -33 
Q 819 25 488 141 
L 488 750 
Q 750 597 1062 519 
Q 1375 441 1716 441 
Q 2309 441 2620 675 
Q 2931 909 2931 1356 
Q 2931 1769 2642 2001 
Q 2353 2234 1838 2234 
L 1294 2234 
L 1294 2753 
L 1863 2753 
Q 2328 2753 2575 2939 
Q 2822 3125 2822 3475 
Q 2822 3834 2567 4026 
Q 2313 4219 1838 4219 
Q 1578 4219 1281 4162 
Q 984 4106 628 3988 
L 628 4550 
Q 988 4650 1302 4700 
Q 1616 4750 1894 4750 
Q 2613 4750 3031 4423 
Q 3450 4097 3450 3541 
Q 3450 3153 3228 2886 
Q 3006 2619 2597 2516 
z
" transform="scale(0.015625)"/>
       </defs>
       <use xlink:href="#DejaVuSans-33"/>
       <use xlink:href="#DejaVuSans-30" x="63.623047"/>
      </g>
     </g>
    </g>
    <g id="ytick_4">
     <g id="line2d_10">
      <g>
       <use xlink:href="#mf17f74e2b7" x="50.87" y="276.970417" style="stroke: #000000; stroke-width: 0.8"/>
      </g>
     </g>
     <g id="text_11">
      <!-- 40 -->
      <g transform="translate(31.145 280.769635) scale(0.1 -0.1)">
       <defs>
        <path id="DejaVuSans-34" d="M 2419 4116 
L 825 1625 
L 2419 1625 
L 2419 4116 
z
M 2253 4666 
L 3047 4666 
L 3047 1625 
L 3713 1625 
L 3713 1100 
L 3047 1100 
L 3047 0 
L 2419 0 
L 2419 1100 
L 313 1100 
L 313 1709 
L 2253 4666 
z
" transform="scale(0.015625)"/>
       </defs>
       <use xlink:href="#DejaVuSans-34"/>
       <use xlink:href="#DejaVuSans-30" x="63.623047"/>
      </g>
     </g>
    </g>
    <g id="ytick_5">
     <g id="line2d_11">
      <g>
       <use xlink:href="#mf17f74e2b7" x="50.87" y="239.280556" style="stroke: #000000; stroke-width: 0.8"/>
      </g>
     </g>
     <g id="text_12">
      <!-- 50 -->
      <g transform="translate(31.145 243.079774) scale(0.1 -0.1)">
       <defs>
        <path id="DejaVuSans-35" d="M 691 4666 
L 3169 4666 
L 3169 4134 
L 1269 4134 
L 1269 2991 
Q 1406 3038 1543 3061 
Q 1681 3084 1819 3084 
Q 2600 3084 3056 2656 
Q 3513 2228 3513 1497 
Q 3513 744 3044 326 
Q 2575 -91 1722 -91 
Q 1428 -91 1123 -41 
Q 819 9 494 109 
L 494 744 
Q 775 591 1075 516 
Q 1375 441 1709 441 
Q 2250 441 2565 725 
Q 2881 1009 2881 1497 
Q 2881 1984 2565 2268 
Q 2250 2553 1709 2553 
Q 1456 2553 1204 2497 
Q 953 2441 691 2322 
L 691 4666 
z
" transform="scale(0.015625)"/>
       </defs>
       <use xlink:href="#DejaVuSans-35"/>
       <use xlink:href="#DejaVuSans-30" x="63.623047"/>
      </g>
     </g>
    </g>
    <g id="ytick_6">
     <g id="line2d_12">
      <g>
       <use xlink:href="#mf17f74e2b7" x="50.87" y="201.590694" style="stroke: #000000; stroke-width: 0.8"/>
      </g>
     </g>
     <g id="text_13">
      <!-- 60 -->
      <g transform="translate(31.145 205.389913) scale(0.1 -0.1)">
       <use xlink:href="#DejaVuSans-36"/>
       <use xlink:href="#DejaVuSans-30" x="63.623047"/>
      </g>
     </g>
    </g>
    <g id="ytick_7">
     <g id="line2d_13">
      <g>
       <use xlink:href="#mf17f74e2b7" x="50.87" y="163.900833" style="stroke: #000000; stroke-width: 0.8"/>
      </g>
     </g>
     <g id="text_14">
      <!-- 70 -->
      <g transform="translate(31.145 167.700052) scale(0.1 -0.1)">
       <defs>
        <path id="DejaVuSans-37" d="M 525 4666 
L 3525 4666 
L 3525 4397 
L 1831 0 
L 1172 0 
L 2766 4134 
L 525 4134 
L 525 4666 
z
" transform="scale(0.015625)"/>
       </defs>
       <use xlink:href="#DejaVuSans-37"/>
       <use xlink:href="#DejaVuSans-30" x="63.623047"/>
      </g>
     </g>
    </g>
    <g id="ytick_8">
     <g id="line2d_14">
      <g>
       <use xlink:href="#mf17f74e2b7" x="50.87" y="126.210972" style="stroke: #000000; stroke-width: 0.8"/>
      </g>
     </g>
     <g id="text_15">
      <!-- 80 -->
      <g transform="translate(31.145 130.010191) scale(0.1 -0.1)">
       <use xlink:href="#DejaVuSans-38"/>
       <use xlink:href="#DejaVuSans-30" x="63.623047"/>
      </g>
     </g>
    </g>
    <g id="ytick_9">
     <g id="line2d_15">
      <g>
       <use xlink:href="#mf17f74e2b7" x="50.87" y="88.521111" style="stroke: #000000; stroke-width: 0.8"/>
      </g>
     </g>
     <g id="text_16">
      <!-- 90 -->
      <g transform="translate(31.145 92.32033) scale(0.1 -0.1)">
       <defs>
        <path id="DejaVuSans-39" d="M 703 97 
L 703 672 
Q 941 559 1184 500 
Q 1428 441 1663 441 
Q 2288 441 2617 861 
Q 2947 1281 2994 2138 
Q 2813 1869 2534 1725 
Q 2256 1581 1919 1581 
Q 1219 1581 811 2004 
Q 403 2428 403 3163 
Q 403 3881 828 4315 
Q 1253 4750 1959 4750 
Q 2769 4750 3195 4129 
Q 3622 3509 3622 2328 
Q 3622 1225 3098 567 
Q 2575 -91 1691 -91 
Q 1453 -91 1209 -44 
Q 966 3 703 97 
z
M 1959 2075 
Q 2384 2075 2632 2365 
Q 2881 2656 2881 3163 
Q 2881 3666 2632 3958 
Q 2384 4250 1959 4250 
Q 1534 4250 1286 3958 
Q 1038 3666 1038 3163 
Q 1038 2656 1286 2365 
Q 1534 2075 1959 2075 
z
" transform="scale(0.015625)"/>
       </defs>
       <use xlink:href="#DejaVuSans-39"/>
       <use xlink:href="#DejaVuSans-30" x="63.623047"/>
      </g>
     </g>
    </g>
    <g id="ytick_10">
     <g id="line2d_16">
      <g>
       <use xlink:href="#mf17f74e2b7" x="50.87" y="50.83125" style="stroke: #000000; stroke-width: 0.8"/>
      </g>
     </g>
     <g id="text_17">
      <!-- 100 -->
      <g transform="translate(24.7825 54.630469) scale(0.1 -0.1)">
       <use xlink:href="#DejaVuSans-31"/>
       <use xlink:href="#DejaVuSans-30" x="63.623047"/>
       <use xlink:href="#DejaVuSans-30" x="127.246094"/>
      </g>
     </g>
    </g>
    <g id="text_18">
     <!-- Firing Rate [Hz] -->
     <g transform="translate(18.702813 259.052031) rotate(-90) scale(0.1 -0.1)">
      <defs>
       <path id="DejaVuSans-46" d="M 628 4666 
L 3309 4666 
L 3309 4134 
L 1259 4134 
L 1259 2759 
L 3109 2759 
L 3109 2228 
L 1259 2228 
L 1259 0 
L 628 0 
L 628 4666 
z
" transform="scale(0.015625)"/>
       <path id="DejaVuSans-69" d="M 603 3500 
L 1178 3500 
L 1178 0 
L 603 0 
L 603 3500 
z
M 603 4863 
L 1178 4863 
L 1178 4134 
L 603 4134 
L 603 4863 
z
" transform="scale(0.015625)"/>
       <path id="DejaVuSans-72" d="M 2631 2963 
Q 2534 3019 2420 3045 
Q 2306 3072 2169 3072 
Q 1681 3072 1420 2755 
Q 1159 2438 1159 1844 
L 1159 0 
L 581 0 
L 581 3500 
L 1159 3500 
L 1159 2956 
Q 1341 3275 1631 3429 
Q 1922 3584 2338 3584 
Q 2397 3584 2469 3576 
Q 2541 3569 2628 3553 
L 2631 2963 
z
" transform="scale(0.015625)"/>
       <path id="DejaVuSans-6e" d="M 3513 2113 
L 3513 0 
L 2938 0 
L 2938 2094 
Q 2938 2591 2744 2837 
Q 2550 3084 2163 3084 
Q 1697 3084 1428 2787 
Q 1159 2491 1159 1978 
L 1159 0 
L 581 0 
L 581 3500 
L 1159 3500 
L 1159 2956 
Q 1366 3272 1645 3428 
Q 1925 3584 2291 3584 
Q 2894 3584 3203 3211 
Q 3513 2838 3513 2113 
z
" transform="scale(0.015625)"/>
       <path id="DejaVuSans-67" d="M 2906 1791 
Q 2906 2416 2648 2759 
Q 2391 3103 1925 3103 
Q 1463 3103 1205 2759 
Q 947 2416 947 1791 
Q 947 1169 1205 825 
Q 1463 481 1925 481 
Q 2391 481 2648 825 
Q 2906 1169 2906 1791 
z
M 3481 434 
Q 3481 -459 3084 -895 
Q 2688 -1331 1869 -1331 
Q 1566 -1331 1297 -1286 
Q 1028 -1241 775 -1147 
L 775 -588 
Q 1028 -725 1275 -790 
Q 1522 -856 1778 -856 
Q 2344 -856 2625 -561 
Q 2906 -266 2906 331 
L 2906 616 
Q 2728 306 2450 153 
Q 2172 0 1784 0 
Q 1141 0 747 490 
Q 353 981 353 1791 
Q 353 2603 747 3093 
Q 1141 3584 1784 3584 
Q 2172 3584 2450 3431 
Q 2728 3278 2906 2969 
L 2906 3500 
L 3481 3500 
L 3481 434 
z
" transform="scale(0.015625)"/>
       <path id="DejaVuSans-61" d="M 2194 1759 
Q 1497 1759 1228 1600 
Q 959 1441 959 1056 
Q 959 750 1161 570 
Q 1363 391 1709 391 
Q 2188 391 2477 730 
Q 2766 1069 2766 1631 
L 2766 1759 
L 2194 1759 
z
M 3341 1997 
L 3341 0 
L 2766 0 
L 2766 531 
Q 2569 213 2275 61 
Q 1981 -91 1556 -91 
Q 1019 -91 701 211 
Q 384 513 384 1019 
Q 384 1609 779 1909 
Q 1175 2209 1959 2209 
L 2766 2209 
L 2766 2266 
Q 2766 2663 2505 2880 
Q 2244 3097 1772 3097 
Q 1472 3097 1187 3025 
Q 903 2953 641 2809 
L 641 3341 
Q 956 3463 1253 3523 
Q 1550 3584 1831 3584 
Q 2591 3584 2966 3190 
Q 3341 2797 3341 1997 
z
" transform="scale(0.015625)"/>
       <path id="DejaVuSans-74" d="M 1172 4494 
L 1172 3500 
L 2356 3500 
L 2356 3053 
L 1172 3053 
L 1172 1153 
Q 1172 725 1289 603 
Q 1406 481 1766 481 
L 2356 481 
L 2356 0 
L 1766 0 
Q 1100 0 847 248 
Q 594 497 594 1153 
L 594 3053 
L 172 3053 
L 172 3500 
L 594 3500 
L 594 4494 
L 1172 4494 
z
" transform="scale(0.015625)"/>
       <path id="DejaVuSans-65" d="M 3597 1894 
L 3597 1613 
L 953 1613 
Q 991 1019 1311 708 
Q 1631 397 2203 397 
Q 2534 397 2845 478 
Q 3156 559 3463 722 
L 3463 178 
Q 3153 47 2828 -22 
Q 2503 -91 2169 -91 
Q 1331 -91 842 396 
Q 353 884 353 1716 
Q 353 2575 817 3079 
Q 1281 3584 2069 3584 
Q 2775 3584 3186 3129 
Q 3597 2675 3597 1894 
z
M 3022 2063 
Q 3016 2534 2758 2815 
Q 2500 3097 2075 3097 
Q 1594 3097 1305 2825 
Q 1016 2553 972 2059 
L 3022 2063 
z
" transform="scale(0.015625)"/>
       <path id="DejaVuSans-48" d="M 628 4666 
L 1259 4666 
L 1259 2753 
L 3553 2753 
L 3553 4666 
L 4184 4666 
L 4184 0 
L 3553 0 
L 3553 2222 
L 1259 2222 
L 1259 0 
L 628 0 
L 628 4666 
z
" transform="scale(0.015625)"/>
       <path id="DejaVuSans-7a" d="M 353 3500 
L 3084 3500 
L 3084 2975 
L 922 459 
L 3084 459 
L 3084 0 
L 275 0 
L 275 525 
L 2438 3041 
L 353 3041 
L 353 3500 
z
" transform="scale(0.015625)"/>
      </defs>
      <use xlink:href="#DejaVuSans-46"/>
      <use xlink:href="#DejaVuSans-69" x="50.269531"/>
      <use xlink:href="#DejaVuSans-72" x="78.052734"/>
      <use xlink:href="#DejaVuSans-69" x="119.166016"/>
      <use xlink:href="#DejaVuSans-6e" x="146.949219"/>
      <use xlink:href="#DejaVuSans-67" x="210.328125"/>
      <use xlink:href="#DejaVuSans-20" x="273.804688"/>
      <use xlink:href="#DejaVuSans-52" x="305.591797"/>
      <use xlink:href="#DejaVuSans-61" x="372.824219"/>
      <use xlink:href="#DejaVuSans-74" x="434.103516"/>
      <use xlink:href="#DejaVuSans-65" x="473.3125"/>
      <use xlink:href="#DejaVuSans-20" x="534.835938"/>
      <use xlink:href="#DejaVuSans-5b" x="566.623047"/>
      <use xlink:href="#DejaVuSans-48" x="605.636719"/>
      <use xlink:href="#DejaVuSans-7a" x="680.832031"/>
      <use xlink:href="#DejaVuSans-5d" x="733.322266"/>
     </g>
    </g>
   </g>
   <g id="PathCollection_6">
    <path d="M 202.137391 50.83125 
L 199.016745 135.910954 
L 201.147847 201.78508 
L 198.865616 222.841753 
L 192.912409 201.78508 
L 186.532648 186.547659 
L 184.14582 201.78508 
L 186.532648 224.727811 
L 190.353479 242.854339 
" clip-path="url(#p01cd21b958)" style="fill: none; stroke: #000000; stroke-width: 1.5"/>
    <path d="M 194.093911 262.785431 
L 198.865616 291.758846 
L 198.930143 292.279523 
L 201.218131 322.855584 
L 198.865616 327.141367 
L 191.436761 346.529517 
L 198.865616 363.694121 
L 204.625121 364.859384 
L 211.198584 366.902495 
L 219.418473 379.051534 
L 215.759275 390.04 
" clip-path="url(#p01cd21b958)" style="fill: none; stroke: #000000; stroke-width: 1.5"/>
   </g>
   <g id="PathCollection_7">
    <path d="M 285.196392 296.522615 
L 272.863424 293.157399 
L 260.530456 298.319679 
L 248.197488 294.057828 
L 235.86452 310.41429 
L 231.349911 322.855584 
L 223.531552 336.108813 
L 219.883138 343.148803 
" clip-path="url(#p01cd21b958)" style="fill: none; stroke: #000000; stroke-width: 1.5"/>
    <path d="M 231.873494 358.071965 
L 235.86452 361.482055 
L 248.197488 361.354786 
L 258.72148 364.859384 
L 260.530456 371.660423 
L 272.863424 373.756031 
L 281.76088 379.051534 
L 272.863424 382.034117 
L 265.646831 390.04 
" clip-path="url(#p01cd21b958)" style="fill: none; stroke: #000000; stroke-width: 1.5"/>
    <path d="M 230.879011 50.83125 
L 235.86452 133.484821 
L 236.394106 135.910954 
L 235.86452 139.244623 
L 223.531552 184.115914 
L 220.80824 201.78508 
L 221.992299 209.484376 
" clip-path="url(#p01cd21b958)" style="fill: none; stroke: #000000; stroke-width: 1.5"/>
    <path d="M 226.250549 229.316174 
L 232.747901 252.789023 
L 235.86452 264.03641 
L 248.197488 289.810411 
L 260.530456 279.484601 
L 272.863424 290.599861 
L 285.196392 281.453051 
" clip-path="url(#p01cd21b958)" style="fill: none; stroke: #000000; stroke-width: 1.5"/>
   </g>
   <g id="PathCollection_8">
    <path d="M 285.196392 331.685579 
L 272.863424 331.685579 
L 260.530456 333.260319 
L 248.197488 340.841727 
L 239.460407 340.372208 
" clip-path="url(#p01cd21b958)" style="fill: none; stroke: #000000; stroke-width: 1.5"/>
    <path d="M 242.207603 349.819765 
L 248.197488 349.5409 
L 260.530456 355.169341 
L 272.863424 356.617095 
L 285.196392 357.719261 
" clip-path="url(#p01cd21b958)" style="fill: none; stroke: #000000; stroke-width: 1.5"/>
   </g>
   <g id="PathCollection_9">
    <path d="M 285.196392 343.560729 
L 272.863424 343.560729 
L 270.852429 343.926798 
" clip-path="url(#p01cd21b958)" style="fill: none; stroke: #000000; stroke-width: 1.5"/>
    <path d="M 271.141681 348.331168 
L 272.863424 348.547032 
L 285.196392 348.767466 
" clip-path="url(#p01cd21b958)" style="fill: none; stroke: #000000; stroke-width: 1.5"/>
   </g>
   <g id="patch_3">
    <path d="M 50.87 390.04 
L 50.87 50.83125 
" style="fill: none; stroke: #000000; stroke-width: 0.8; stroke-linejoin: miter; stroke-linecap: square"/>
   </g>
   <g id="patch_4">
    <path d="M 285.196392 390.04 
L 285.196392 50.83125 
" style="fill: none; stroke: #000000; stroke-width: 0.8; stroke-linejoin: miter; stroke-linecap: square"/>
   </g>
   <g id="patch_5">
    <path d="M 50.87 390.04 
L 285.196392 390.04 
" style="fill: none; stroke: #000000; stroke-width: 0.8; stroke-linejoin: miter; stroke-linecap: square"/>
   </g>
   <g id="patch_6">
    <path d="M 50.87 50.83125 
L 285.196392 50.83125 
" style="fill: none; stroke: #000000; stroke-width: 0.8; stroke-linejoin: miter; stroke-linecap: square"/>
   </g>
   <g id="text_19">
    <!-- Accuracy [%] -->
    <g transform="translate(128.349759 44.83125) scale(0.12 -0.12)">
     <defs>
      <path id="DejaVuSans-41" d="M 2188 4044 
L 1331 1722 
L 3047 1722 
L 2188 4044 
z
M 1831 4666 
L 2547 4666 
L 4325 0 
L 3669 0 
L 3244 1197 
L 1141 1197 
L 716 0 
L 50 0 
L 1831 4666 
z
" transform="scale(0.015625)"/>
      <path id="DejaVuSans-63" d="M 3122 3366 
L 3122 2828 
Q 2878 2963 2633 3030 
Q 2388 3097 2138 3097 
Q 1578 3097 1268 2742 
Q 959 2388 959 1747 
Q 959 1106 1268 751 
Q 1578 397 2138 397 
Q 2388 397 2633 464 
Q 2878 531 3122 666 
L 3122 134 
Q 2881 22 2623 -34 
Q 2366 -91 2075 -91 
Q 1284 -91 818 406 
Q 353 903 353 1747 
Q 353 2603 823 3093 
Q 1294 3584 2113 3584 
Q 2378 3584 2631 3529 
Q 2884 3475 3122 3366 
z
" transform="scale(0.015625)"/>
      <path id="DejaVuSans-75" d="M 544 1381 
L 544 3500 
L 1119 3500 
L 1119 1403 
Q 1119 906 1312 657 
Q 1506 409 1894 409 
Q 2359 409 2629 706 
Q 2900 1003 2900 1516 
L 2900 3500 
L 3475 3500 
L 3475 0 
L 2900 0 
L 2900 538 
Q 2691 219 2414 64 
Q 2138 -91 1772 -91 
Q 1169 -91 856 284 
Q 544 659 544 1381 
z
M 1991 3584 
L 1991 3584 
z
" transform="scale(0.015625)"/>
      <path id="DejaVuSans-79" d="M 2059 -325 
Q 1816 -950 1584 -1140 
Q 1353 -1331 966 -1331 
L 506 -1331 
L 506 -850 
L 844 -850 
Q 1081 -850 1212 -737 
Q 1344 -625 1503 -206 
L 1606 56 
L 191 3500 
L 800 3500 
L 1894 763 
L 2988 3500 
L 3597 3500 
L 2059 -325 
z
" transform="scale(0.015625)"/>
      <path id="DejaVuSans-25" d="M 4653 2053 
Q 4381 2053 4226 1822 
Q 4072 1591 4072 1178 
Q 4072 772 4226 539 
Q 4381 306 4653 306 
Q 4919 306 5073 539 
Q 5228 772 5228 1178 
Q 5228 1588 5073 1820 
Q 4919 2053 4653 2053 
z
M 4653 2450 
Q 5147 2450 5437 2106 
Q 5728 1763 5728 1178 
Q 5728 594 5436 251 
Q 5144 -91 4653 -91 
Q 4153 -91 3862 251 
Q 3572 594 3572 1178 
Q 3572 1766 3864 2108 
Q 4156 2450 4653 2450 
z
M 1428 4353 
Q 1159 4353 1004 4120 
Q 850 3888 850 3481 
Q 850 3069 1003 2837 
Q 1156 2606 1428 2606 
Q 1700 2606 1854 2837 
Q 2009 3069 2009 3481 
Q 2009 3884 1853 4118 
Q 1697 4353 1428 4353 
z
M 4250 4750 
L 4750 4750 
L 1831 -91 
L 1331 -91 
L 4250 4750 
z
M 1428 4750 
Q 1922 4750 2215 4408 
Q 2509 4066 2509 3481 
Q 2509 2891 2217 2550 
Q 1925 2209 1428 2209 
Q 931 2209 642 2551 
Q 353 2894 353 3481 
Q 353 4063 643 4406 
Q 934 4750 1428 4750 
z
" transform="scale(0.015625)"/>
     </defs>
     <use xlink:href="#DejaVuSans-41"/>
     <use xlink:href="#DejaVuSans-63" x="66.658203"/>
     <use xlink:href="#DejaVuSans-63" x="121.638672"/>
     <use xlink:href="#DejaVuSans-75" x="176.619141"/>
     <use xlink:href="#DejaVuSans-72" x="239.998047"/>
     <use xlink:href="#DejaVuSans-61" x="281.111328"/>
     <use xlink:href="#DejaVuSans-63" x="342.390625"/>
     <use xlink:href="#DejaVuSans-79" x="397.371094"/>
     <use xlink:href="#DejaVuSans-20" x="456.550781"/>
     <use xlink:href="#DejaVuSans-5b" x="488.337891"/>
     <use xlink:href="#DejaVuSans-25" x="527.351562"/>
     <use xlink:href="#DejaVuSans-5d" x="622.371094"/>
    </g>
   </g>
   <g id="text_20">
    <g clip-path="url(#p01cd21b958)">
     <!-- 25 -->
     <g transform="translate(188.712848 246.945449) rotate(-279.137293) scale(0.1 -0.1)">
      <use xlink:href="#DejaVuSans-32"/>
      <use xlink:href="#DejaVuSans-35" x="63.623047"/>
     </g>
    </g>
   </g>
   <g id="text_21">
    <g clip-path="url(#p01cd21b958)">
     <!-- 50 -->
     <g transform="translate(217.055018 348.464348) rotate(-315.601574) scale(0.1 -0.1)">
      <use xlink:href="#DejaVuSans-35"/>
      <use xlink:href="#DejaVuSans-30" x="63.623047"/>
     </g>
    </g>
   </g>
   <g id="text_22">
    <g clip-path="url(#p01cd21b958)">
     <!-- 50 -->
     <g transform="translate(219.666223 213.73529) rotate(-280.427198) scale(0.1 -0.1)">
      <use xlink:href="#DejaVuSans-35"/>
      <use xlink:href="#DejaVuSans-30" x="63.623047"/>
     </g>
    </g>
   </g>
   <g id="text_23">
    <g clip-path="url(#p01cd21b958)">
     <!-- 75 -->
     <g transform="translate(228.363914 340.895499) rotate(-282.22361) scale(0.1 -0.1)">
      <use xlink:href="#DejaVuSans-37"/>
      <use xlink:href="#DejaVuSans-35" x="63.623047"/>
     </g>
    </g>
   </g>
   <g id="text_24">
    <g clip-path="url(#p01cd21b958)">
     <!-- 95 -->
     <g transform="translate(256.392998 340.363754) rotate(-273.797727) scale(0.1 -0.1)">
      <use xlink:href="#DejaVuSans-39"/>
      <use xlink:href="#DejaVuSans-35" x="63.623047"/>
     </g>
    </g>
   </g>
  </g>
  <g id="axes_2">
   <g id="patch_7">
    <path d="M 328.331392 390.04 
L 562.657784 390.04 
L 562.657784 50.83125 
L 328.331392 50.83125 
z
" style="fill: #ffffff"/>
   </g>
   <g id="PathCollection_10">
    <path d="M 340.66436 390.04 
L 352.997328 390.04 
L 365.330296 390.04 
L 377.663264 390.04 
L 389.996232 390.04 
L 402.3292 390.04 
L 414.662168 390.04 
L 426.995136 390.04 
L 439.328104 390.04 
L 451.661072 390.04 
L 463.99404 390.04 
L 476.327008 390.04 
L 481.322346 390.04 
L 479.600975 379.051534 
L 476.327008 377.300179 
L 466.032097 364.859384 
L 463.99404 360.506401 
L 454.544238 346.529517 
L 451.661072 340.396841 
L 444.361969 322.855584 
L 447.581706 292.279523 
L 440.428333 252.789023 
L 439.328104 246.095761 
L 426.995136 215.58183 
L 421.787883 201.78508 
L 414.662168 162.54092 
L 402.3292 159.569277 
L 392.89121 135.910954 
L 402.3292 92.928491 
L 406.749848 50.83125 
L 402.3292 50.83125 
L 389.996232 50.83125 
L 377.663264 50.83125 
L 365.330296 50.83125 
L 354.212464 50.83125 
L 352.997328 60.985924 
L 350.672132 50.83125 
L 340.66436 50.83125 
L 328.331392 50.83125 
L 328.331392 135.910954 
L 328.331392 201.78508 
L 328.331392 252.789023 
L 328.331392 292.279523 
L 328.331392 322.855584 
L 328.331392 346.529517 
L 328.331392 364.859384 
L 328.331392 379.051534 
L 328.331392 390.04 
z
" clip-path="url(#p944fa34394)" style="fill: #482475"/>
   </g>
   <g id="PathCollection_11">
    <path d="M 488.659976 390.04 
L 500.992944 390.04 
L 513.325912 390.04 
L 522.319079 390.04 
L 514.456325 379.051534 
L 513.325912 377.214181 
L 501.227007 364.859384 
L 500.992944 364.698529 
L 488.659976 355.436354 
L 476.327008 349.842993 
L 474.536145 346.529517 
L 476.327008 340.216468 
L 483.016076 322.855584 
L 477.992769 292.279523 
L 476.327008 285.275004 
L 463.99404 257.614437 
L 459.4008 252.789023 
L 456.276519 201.78508 
L 451.661072 156.313029 
L 447.628387 135.910954 
L 439.328104 50.83125 
L 439.328104 50.83125 
L 426.995136 50.83125 
L 414.662168 50.83125 
L 406.749848 50.83125 
L 402.3292 92.928491 
L 392.89121 135.910954 
L 402.3292 159.569277 
L 414.662168 162.54092 
L 421.787883 201.78508 
L 426.995136 215.58183 
L 439.328104 246.095761 
L 440.428333 252.789023 
L 447.581706 292.279523 
L 444.361969 322.855584 
L 451.661072 340.396841 
L 454.544238 346.529517 
L 463.99404 360.506401 
L 466.032097 364.859384 
L 476.327008 377.300179 
L 479.600975 379.051534 
L 481.322346 390.04 
z
" clip-path="url(#p944fa34394)" style="fill: #355f8d"/>
    <path d="M 352.997328 60.985924 
L 354.212464 50.83125 
L 352.997328 50.83125 
L 350.672132 50.83125 
z
" clip-path="url(#p944fa34394)" style="fill: #355f8d"/>
   </g>
   <g id="PathCollection_12">
    <path d="M 525.65888 390.04 
L 537.991848 390.04 
L 545.097043 390.04 
L 544.948907 379.051534 
L 537.991848 372.461718 
L 534.245584 364.859384 
L 525.65888 359.665998 
L 513.325912 359.001497 
L 501.321972 346.529517 
L 506.634354 322.855584 
L 508.121671 292.279523 
L 500.992944 286.487583 
L 494.671375 252.789023 
L 488.659976 236.859158 
L 483.328951 201.78508 
L 476.327008 157.469759 
L 473.731625 135.910954 
L 463.99404 72.491088 
L 460.337973 50.83125 
L 451.661072 50.83125 
L 439.328104 50.83125 
L 447.628387 135.910954 
L 451.661072 156.313029 
L 456.276519 201.78508 
L 459.4008 252.789023 
L 463.99404 257.614437 
L 476.327008 285.275004 
L 477.992769 292.279523 
L 483.016076 322.855584 
L 476.327008 340.216468 
L 474.536145 346.529517 
L 476.327008 349.842993 
L 488.659976 355.436354 
L 500.992944 364.698529 
L 501.227007 364.859384 
L 513.325912 377.214181 
L 514.456325 379.051534 
L 522.319079 390.04 
z
" clip-path="url(#p944fa34394)" style="fill: #21918c"/>
   </g>
   <g id="PathCollection_13">
    <path d="M 550.324816 390.04 
L 560.811852 390.04 
L 562.657784 388.36222 
L 562.657784 379.051534 
L 562.657784 364.859384 
L 562.657784 360.685814 
L 550.324816 358.608429 
L 537.991848 355.662293 
L 525.65888 347.524705 
L 513.325912 348.489399 
L 511.439579 346.529517 
L 513.325912 341.564349 
L 525.65888 343.438432 
L 537.991848 329.573426 
L 550.324816 327.514003 
L 562.657784 327.514003 
L 562.657784 322.855584 
L 562.657784 292.279523 
L 562.657784 252.789023 
L 562.657784 201.78508 
L 562.657784 135.910954 
L 562.657784 50.83125 
L 550.324816 50.83125 
L 537.991848 50.83125 
L 525.65888 50.83125 
L 513.325912 50.83125 
L 500.992944 50.83125 
L 488.659976 50.83125 
L 476.327008 50.83125 
L 463.99404 50.83125 
L 460.337973 50.83125 
L 463.99404 72.491088 
L 473.731625 135.910954 
L 476.327008 157.469759 
L 483.328951 201.78508 
L 488.659976 236.859158 
L 494.671375 252.789023 
L 500.992944 286.487583 
L 508.121671 292.279523 
L 506.634354 322.855584 
L 501.321972 346.529517 
L 513.325912 359.001497 
L 525.65888 359.665998 
L 534.245584 364.859384 
L 537.991848 372.461718 
L 544.948907 379.051534 
L 545.097043 390.04 
z
" clip-path="url(#p944fa34394)" style="fill: #44bf70"/>
   </g>
   <g id="PathCollection_14">
    <path d="M 562.657784 390.04 
L 562.657784 388.36222 
L 560.811852 390.04 
z
" clip-path="url(#p944fa34394)" style="fill: #bddf26"/>
    <path d="M 513.325912 348.489399 
L 525.65888 347.524705 
L 537.991848 355.662293 
L 550.324816 358.608429 
L 562.657784 360.685814 
L 562.657784 346.529517 
L 562.657784 327.514003 
L 550.324816 327.514003 
L 537.991848 329.573426 
L 525.65888 343.438432 
L 513.325912 341.564349 
L 511.439579 346.529517 
z
" clip-path="url(#p944fa34394)" style="fill: #bddf26"/>
   </g>
   <g id="matplotlib.axis_3">
    <g id="xtick_7">
     <g id="line2d_17">
      <g>
       <use xlink:href="#m5ad089bf08" x="328.331392" y="390.04" style="stroke: #000000; stroke-width: 0.8"/>
      </g>
     </g>
     <g id="text_25">
      <!-- −18 -->
      <g transform="translate(317.779048 404.638438) scale(0.1 -0.1)">
       <use xlink:href="#DejaVuSans-2212"/>
       <use xlink:href="#DejaVuSans-31" x="83.789062"/>
       <use xlink:href="#DejaVuSans-38" x="147.412109"/>
      </g>
     </g>
    </g>
    <g id="xtick_8">
     <g id="line2d_18">
      <g>
       <use xlink:href="#m5ad089bf08" x="375.196671" y="390.04" style="stroke: #000000; stroke-width: 0.8"/>
      </g>
     </g>
     <g id="text_26">
      <!-- −12 -->
      <g transform="translate(364.644327 404.638438) scale(0.1 -0.1)">
       <use xlink:href="#DejaVuSans-2212"/>
       <use xlink:href="#DejaVuSans-31" x="83.789062"/>
       <use xlink:href="#DejaVuSans-32" x="147.412109"/>
      </g>
     </g>
    </g>
    <g id="xtick_9">
     <g id="line2d_19">
      <g>
       <use xlink:href="#m5ad089bf08" x="422.061949" y="390.04" style="stroke: #000000; stroke-width: 0.8"/>
      </g>
     </g>
     <g id="text_27">
      <!-- −6 -->
      <g transform="translate(414.690855 404.638438) scale(0.1 -0.1)">
       <use xlink:href="#DejaVuSans-2212"/>
       <use xlink:href="#DejaVuSans-36" x="83.789062"/>
      </g>
     </g>
    </g>
    <g id="xtick_10">
     <g id="line2d_20">
      <g>
       <use xlink:href="#m5ad089bf08" x="468.927227" y="390.04" style="stroke: #000000; stroke-width: 0.8"/>
      </g>
     </g>
     <g id="text_28">
      <!-- 0 -->
      <g transform="translate(465.745977 404.638438) scale(0.1 -0.1)">
       <use xlink:href="#DejaVuSans-30"/>
      </g>
     </g>
    </g>
    <g id="xtick_11">
     <g id="line2d_21">
      <g>
       <use xlink:href="#m5ad089bf08" x="515.792506" y="390.04" style="stroke: #000000; stroke-width: 0.8"/>
      </g>
     </g>
     <g id="text_29">
      <!-- 6 -->
      <g transform="translate(512.611256 404.638438) scale(0.1 -0.1)">
       <use xlink:href="#DejaVuSans-36"/>
      </g>
     </g>
    </g>
    <g id="xtick_12">
     <g id="line2d_22">
      <g>
       <use xlink:href="#m5ad089bf08" x="562.657784" y="390.04" style="stroke: #000000; stroke-width: 0.8"/>
      </g>
     </g>
     <g id="text_30">
      <!-- 12 -->
      <g transform="translate(556.295284 404.638438) scale(0.1 -0.1)">
       <use xlink:href="#DejaVuSans-31"/>
       <use xlink:href="#DejaVuSans-32" x="63.623047"/>
      </g>
     </g>
    </g>
    <g id="text_31">
     <!-- SNR [dB] -->
     <g transform="translate(423.010213 418.316562) scale(0.1 -0.1)">
      <use xlink:href="#DejaVuSans-53"/>
      <use xlink:href="#DejaVuSans-4e" x="63.476562"/>
      <use xlink:href="#DejaVuSans-52" x="138.28125"/>
      <use xlink:href="#DejaVuSans-20" x="207.763672"/>
      <use xlink:href="#DejaVuSans-5b" x="239.550781"/>
      <use xlink:href="#DejaVuSans-64" x="278.564453"/>
      <use xlink:href="#DejaVuSans-42" x="342.041016"/>
      <use xlink:href="#DejaVuSans-5d" x="410.644531"/>
     </g>
    </g>
   </g>
   <g id="matplotlib.axis_4">
    <g id="ytick_11">
     <g id="line2d_23">
      <g>
       <use xlink:href="#mf17f74e2b7" x="328.331392" y="390.04" style="stroke: #000000; stroke-width: 0.8"/>
      </g>
     </g>
     <g id="text_32">
      <!-- 10 -->
      <g transform="translate(308.606392 393.839219) scale(0.1 -0.1)">
       <use xlink:href="#DejaVuSans-31"/>
       <use xlink:href="#DejaVuSans-30" x="63.623047"/>
      </g>
     </g>
    </g>
    <g id="ytick_12">
     <g id="line2d_24">
      <g>
       <use xlink:href="#mf17f74e2b7" x="328.331392" y="352.350139" style="stroke: #000000; stroke-width: 0.8"/>
      </g>
     </g>
     <g id="text_33">
      <!-- 20 -->
      <g transform="translate(308.606392 356.149358) scale(0.1 -0.1)">
       <use xlink:href="#DejaVuSans-32"/>
       <use xlink:href="#DejaVuSans-30" x="63.623047"/>
      </g>
     </g>
    </g>
    <g id="ytick_13">
     <g id="line2d_25">
      <g>
       <use xlink:href="#mf17f74e2b7" x="328.331392" y="314.660278" style="stroke: #000000; stroke-width: 0.8"/>
      </g>
     </g>
     <g id="text_34">
      <!-- 30 -->
      <g transform="translate(308.606392 318.459497) scale(0.1 -0.1)">
       <use xlink:href="#DejaVuSans-33"/>
       <use xlink:href="#DejaVuSans-30" x="63.623047"/>
      </g>
     </g>
    </g>
    <g id="ytick_14">
     <g id="line2d_26">
      <g>
       <use xlink:href="#mf17f74e2b7" x="328.331392" y="276.970417" style="stroke: #000000; stroke-width: 0.8"/>
      </g>
     </g>
     <g id="text_35">
      <!-- 40 -->
      <g transform="translate(308.606392 280.769635) scale(0.1 -0.1)">
       <use xlink:href="#DejaVuSans-34"/>
       <use xlink:href="#DejaVuSans-30" x="63.623047"/>
      </g>
     </g>
    </g>
    <g id="ytick_15">
     <g id="line2d_27">
      <g>
       <use xlink:href="#mf17f74e2b7" x="328.331392" y="239.280556" style="stroke: #000000; stroke-width: 0.8"/>
      </g>
     </g>
     <g id="text_36">
      <!-- 50 -->
      <g transform="translate(308.606392 243.079774) scale(0.1 -0.1)">
       <use xlink:href="#DejaVuSans-35"/>
       <use xlink:href="#DejaVuSans-30" x="63.623047"/>
      </g>
     </g>
    </g>
    <g id="ytick_16">
     <g id="line2d_28">
      <g>
       <use xlink:href="#mf17f74e2b7" x="328.331392" y="201.590694" style="stroke: #000000; stroke-width: 0.8"/>
      </g>
     </g>
     <g id="text_37">
      <!-- 60 -->
      <g transform="translate(308.606392 205.389913) scale(0.1 -0.1)">
       <use xlink:href="#DejaVuSans-36"/>
       <use xlink:href="#DejaVuSans-30" x="63.623047"/>
      </g>
     </g>
    </g>
    <g id="ytick_17">
     <g id="line2d_29">
      <g>
       <use xlink:href="#mf17f74e2b7" x="328.331392" y="163.900833" style="stroke: #000000; stroke-width: 0.8"/>
      </g>
     </g>
     <g id="text_38">
      <!-- 70 -->
      <g transform="translate(308.606392 167.700052) scale(0.1 -0.1)">
       <use xlink:href="#DejaVuSans-37"/>
       <use xlink:href="#DejaVuSans-30" x="63.623047"/>
      </g>
     </g>
    </g>
    <g id="ytick_18">
     <g id="line2d_30">
      <g>
       <use xlink:href="#mf17f74e2b7" x="328.331392" y="126.210972" style="stroke: #000000; stroke-width: 0.8"/>
      </g>
     </g>
     <g id="text_39">
      <!-- 80 -->
      <g transform="translate(308.606392 130.010191) scale(0.1 -0.1)">
       <use xlink:href="#DejaVuSans-38"/>
       <use xlink:href="#DejaVuSans-30" x="63.623047"/>
      </g>
     </g>
    </g>
    <g id="ytick_19">
     <g id="line2d_31">
      <g>
       <use xlink:href="#mf17f74e2b7" x="328.331392" y="88.521111" style="stroke: #000000; stroke-width: 0.8"/>
      </g>
     </g>
     <g id="text_40">
      <!-- 90 -->
      <g transform="translate(308.606392 92.32033) scale(0.1 -0.1)">
       <use xlink:href="#DejaVuSans-39"/>
       <use xlink:href="#DejaVuSans-30" x="63.623047"/>
      </g>
     </g>
    </g>
    <g id="ytick_20">
     <g id="line2d_32">
      <g>
       <use xlink:href="#mf17f74e2b7" x="328.331392" y="50.83125" style="stroke: #000000; stroke-width: 0.8"/>
      </g>
     </g>
     <g id="text_41">
      <!-- 100 -->
      <g transform="translate(302.243892 54.630469) scale(0.1 -0.1)">
       <use xlink:href="#DejaVuSans-31"/>
       <use xlink:href="#DejaVuSans-30" x="63.623047"/>
       <use xlink:href="#DejaVuSans-30" x="127.246094"/>
      </g>
     </g>
    </g>
   </g>
   <g id="PathCollection_15">
    <path d="M 411.999368 50.83125 
L 414.662168 96.947461 
L 426.995136 96.833648 
L 432.293229 135.910954 
L 429.897011 201.78508 
L 439.328104 226.402125 
L 443.665546 252.789023 
L 450.462105 283.175929 
" clip-path="url(#p944fa34394)" style="fill: none; stroke: #000000; stroke-width: 1.5"/>
    <path d="M 453.80486 302.334798 
L 451.661072 322.855584 
L 462.79094 346.529517 
L 463.99404 348.308981 
L 471.742901 364.859384 
L 476.327008 370.399008 
L 488.659976 375.701001 
L 491.441684 379.051534 
L 490.625561 390.04 
" clip-path="url(#p944fa34394)" style="fill: none; stroke: #000000; stroke-width: 1.5"/>
   </g>
   <g id="PathCollection_16">
    <path d="M 454.473031 50.83125 
L 463.99404 107.237079 
L 468.396672 135.910954 
L 463.99404 173.596318 
L 461.048421 201.78508 
L 463.99404 223.349692 
L 471.142606 210.850183 
" clip-path="url(#p944fa34394)" style="fill: none; stroke: #000000; stroke-width: 1.5"/>
    <path d="M 476.629575 211.877247 
L 477.856125 252.789023 
L 486.506658 292.279523 
L 488.659976 303.480334 
L 494.425248 322.855584 
L 489.136706 346.529517 
L 500.992944 355.308662 
L 513.325912 364.257546 
L 518.778051 364.859384 
L 523.040397 379.051534 
L 525.65888 382.072586 
L 537.088098 390.04 
" clip-path="url(#p944fa34394)" style="fill: none; stroke: #000000; stroke-width: 1.5"/>
   </g>
   <g id="PathCollection_17">
    <path d="M 562.657784 384.727029 
L 556.812332 390.04 
" clip-path="url(#p944fa34394)" style="fill: none; stroke: #000000; stroke-width: 1.5"/>
    <path d="M 562.657784 322.545507 
L 550.324816 322.50274 
L 549.499537 322.855584 
L 537.991848 324.325112 
L 525.65888 334.010624 
L 513.325912 334.90651 
L 512.557137 336.930065 
" clip-path="url(#p944fa34394)" style="fill: none; stroke: #000000; stroke-width: 1.5"/>
    <path d="M 518.159158 350.898983 
L 525.65888 350.560028 
L 537.991848 358.489104 
L 550.324816 361.628157 
L 562.657784 364.224888 
" clip-path="url(#p944fa34394)" style="fill: none; stroke: #000000; stroke-width: 1.5"/>
    <path d="M 488.235472 50.83125 
L 488.659976 55.333167 
L 492.342121 50.83125 
" clip-path="url(#p944fa34394)" style="fill: none; stroke: #000000; stroke-width: 1.5"/>
    <path d="M 503.390807 50.83125 
L 513.325912 93.239922 
L 525.65888 88.229834 
L 532.817113 75.684427 
" clip-path="url(#p944fa34394)" style="fill: none; stroke: #000000; stroke-width: 1.5"/>
    <path d="M 547.089161 60.202179 
L 550.324816 57.921225 
L 562.657784 63.593206 
" clip-path="url(#p944fa34394)" style="fill: none; stroke: #000000; stroke-width: 1.5"/>
   </g>
   <g id="PathCollection_18">
    <path d="M 562.657784 341.775638 
L 550.324816 341.775638 
L 547.580498 342.563963 
" clip-path="url(#p944fa34394)" style="fill: none; stroke: #000000; stroke-width: 1.5"/>
    <path d="M 548.327442 349.165837 
L 550.324816 349.549245 
L 562.657784 350.068591 
" clip-path="url(#p944fa34394)" style="fill: none; stroke: #000000; stroke-width: 1.5"/>
   </g>
   <g id="patch_8">
    <path d="M 328.331392 390.04 
L 328.331392 50.83125 
" style="fill: none; stroke: #000000; stroke-width: 0.8; stroke-linejoin: miter; stroke-linecap: square"/>
   </g>
   <g id="patch_9">
    <path d="M 562.657784 390.04 
L 562.657784 50.83125 
" style="fill: none; stroke: #000000; stroke-width: 0.8; stroke-linejoin: miter; stroke-linecap: square"/>
   </g>
   <g id="patch_10">
    <path d="M 328.331392 390.04 
L 562.657784 390.04 
" style="fill: none; stroke: #000000; stroke-width: 0.8; stroke-linejoin: miter; stroke-linecap: square"/>
   </g>
   <g id="patch_11">
    <path d="M 328.331392 50.83125 
L 562.657784 50.83125 
" style="fill: none; stroke: #000000; stroke-width: 0.8; stroke-linejoin: miter; stroke-linecap: square"/>
   </g>
   <g id="text_42">
    <!-- Precision (TPR) [%] -->
    <g transform="translate(388.396151 44.83125) scale(0.12 -0.12)">
     <defs>
      <path id="DejaVuSans-50" d="M 1259 4147 
L 1259 2394 
L 2053 2394 
Q 2494 2394 2734 2622 
Q 2975 2850 2975 3272 
Q 2975 3691 2734 3919 
Q 2494 4147 2053 4147 
L 1259 4147 
z
M 628 4666 
L 2053 4666 
Q 2838 4666 3239 4311 
Q 3641 3956 3641 3272 
Q 3641 2581 3239 2228 
Q 2838 1875 2053 1875 
L 1259 1875 
L 1259 0 
L 628 0 
L 628 4666 
z
" transform="scale(0.015625)"/>
      <path id="DejaVuSans-73" d="M 2834 3397 
L 2834 2853 
Q 2591 2978 2328 3040 
Q 2066 3103 1784 3103 
Q 1356 3103 1142 2972 
Q 928 2841 928 2578 
Q 928 2378 1081 2264 
Q 1234 2150 1697 2047 
L 1894 2003 
Q 2506 1872 2764 1633 
Q 3022 1394 3022 966 
Q 3022 478 2636 193 
Q 2250 -91 1575 -91 
Q 1294 -91 989 -36 
Q 684 19 347 128 
L 347 722 
Q 666 556 975 473 
Q 1284 391 1588 391 
Q 1994 391 2212 530 
Q 2431 669 2431 922 
Q 2431 1156 2273 1281 
Q 2116 1406 1581 1522 
L 1381 1569 
Q 847 1681 609 1914 
Q 372 2147 372 2553 
Q 372 3047 722 3315 
Q 1072 3584 1716 3584 
Q 2034 3584 2315 3537 
Q 2597 3491 2834 3397 
z
" transform="scale(0.015625)"/>
      <path id="DejaVuSans-6f" d="M 1959 3097 
Q 1497 3097 1228 2736 
Q 959 2375 959 1747 
Q 959 1119 1226 758 
Q 1494 397 1959 397 
Q 2419 397 2687 759 
Q 2956 1122 2956 1747 
Q 2956 2369 2687 2733 
Q 2419 3097 1959 3097 
z
M 1959 3584 
Q 2709 3584 3137 3096 
Q 3566 2609 3566 1747 
Q 3566 888 3137 398 
Q 2709 -91 1959 -91 
Q 1206 -91 779 398 
Q 353 888 353 1747 
Q 353 2609 779 3096 
Q 1206 3584 1959 3584 
z
" transform="scale(0.015625)"/>
      <path id="DejaVuSans-28" d="M 1984 4856 
Q 1566 4138 1362 3434 
Q 1159 2731 1159 2009 
Q 1159 1288 1364 580 
Q 1569 -128 1984 -844 
L 1484 -844 
Q 1016 -109 783 600 
Q 550 1309 550 2009 
Q 550 2706 781 3412 
Q 1013 4119 1484 4856 
L 1984 4856 
z
" transform="scale(0.015625)"/>
      <path id="DejaVuSans-54" d="M -19 4666 
L 3928 4666 
L 3928 4134 
L 2272 4134 
L 2272 0 
L 1638 0 
L 1638 4134 
L -19 4134 
L -19 4666 
z
" transform="scale(0.015625)"/>
      <path id="DejaVuSans-29" d="M 513 4856 
L 1013 4856 
Q 1481 4119 1714 3412 
Q 1947 2706 1947 2009 
Q 1947 1309 1714 600 
Q 1481 -109 1013 -844 
L 513 -844 
Q 928 -128 1133 580 
Q 1338 1288 1338 2009 
Q 1338 2731 1133 3434 
Q 928 4138 513 4856 
z
" transform="scale(0.015625)"/>
     </defs>
     <use xlink:href="#DejaVuSans-50"/>
     <use xlink:href="#DejaVuSans-72" x="58.552734"/>
     <use xlink:href="#DejaVuSans-65" x="97.416016"/>
     <use xlink:href="#DejaVuSans-63" x="158.939453"/>
     <use xlink:href="#DejaVuSans-69" x="213.919922"/>
     <use xlink:href="#DejaVuSans-73" x="241.703125"/>
     <use xlink:href="#DejaVuSans-69" x="293.802734"/>
     <use xlink:href="#DejaVuSans-6f" x="321.585938"/>
     <use xlink:href="#DejaVuSans-6e" x="382.767578"/>
     <use xlink:href="#DejaVuSans-20" x="446.146484"/>
     <use xlink:href="#DejaVuSans-28" x="477.933594"/>
     <use xlink:href="#DejaVuSans-54" x="516.947266"/>
     <use xlink:href="#DejaVuSans-50" x="578.03125"/>
     <use xlink:href="#DejaVuSans-52" x="638.333984"/>
     <use xlink:href="#DejaVuSans-29" x="707.816406"/>
     <use xlink:href="#DejaVuSans-20" x="746.830078"/>
     <use xlink:href="#DejaVuSans-5b" x="778.617188"/>
     <use xlink:href="#DejaVuSans-25" x="817.630859"/>
     <use xlink:href="#DejaVuSans-5d" x="912.650391"/>
    </g>
   </g>
   <g id="text_43">
    <g clip-path="url(#p944fa34394)">
     <!-- 25 -->
     <g transform="translate(450.845976 286.620842) rotate(-281.872674) scale(0.1 -0.1)">
      <use xlink:href="#DejaVuSans-32"/>
      <use xlink:href="#DejaVuSans-35" x="63.623047"/>
     </g>
    </g>
   </g>
   <g id="text_44">
    <g clip-path="url(#p944fa34394)">
     <!-- 50 -->
     <g transform="translate(469.522256 203.123324) rotate(-347.679921) scale(0.1 -0.1)">
      <use xlink:href="#DejaVuSans-35"/>
      <use xlink:href="#DejaVuSans-30" x="63.623047"/>
     </g>
    </g>
   </g>
   <g id="text_45">
    <g clip-path="url(#p944fa34394)">
     <!-- 75 -->
     <g transform="translate(504.886477 340.881031) rotate(-282.018117) scale(0.1 -0.1)">
      <use xlink:href="#DejaVuSans-37"/>
      <use xlink:href="#DejaVuSans-35" x="63.623047"/>
     </g>
    </g>
   </g>
   <g id="text_46">
    <g clip-path="url(#p944fa34394)">
     <!-- 75 -->
     <g transform="translate(536.212726 73.318273) rotate(-51.689142) scale(0.1 -0.1)">
      <use xlink:href="#DejaVuSans-37"/>
      <use xlink:href="#DejaVuSans-35" x="63.623047"/>
     </g>
    </g>
   </g>
   <g id="text_47">
    <g clip-path="url(#p944fa34394)">
     <!-- 95 -->
     <g transform="translate(533.535763 340.52824) rotate(-276.631376) scale(0.1 -0.1)">
      <use xlink:href="#DejaVuSans-39"/>
      <use xlink:href="#DejaVuSans-35" x="63.623047"/>
     </g>
    </g>
   </g>
  </g>
  <g id="axes_3">
   <g id="patch_12">
    <path d="M 605.792784 390.04 
L 793.253898 390.04 
L 793.253898 50.83125 
L 605.792784 50.83125 
z
" style="fill: #ffffff"/>
   </g>
   <g id="PathCollection_19">
    <path d="M 615.659159 390.04 
L 625.525533 390.04 
L 635.391908 390.04 
L 645.258282 390.04 
L 655.124656 390.04 
L 664.991031 390.04 
L 674.857405 390.04 
L 684.72378 390.04 
L 690.361708 390.04 
L 694.590154 383.44692 
L 695.576791 379.051534 
L 694.590154 376.686175 
L 690.935941 364.859384 
L 688.206029 346.529517 
L 694.590154 326.196214 
L 695.362305 322.855584 
L 702.629422 292.279523 
L 700.974279 252.789023 
L 704.456528 228.30713 
L 706.831767 201.78508 
L 714.322903 145.517598 
L 716.704441 135.910954 
L 714.322903 61.466213 
L 713.774771 50.83125 
L 704.456528 50.83125 
L 694.590154 50.83125 
L 684.72378 50.83125 
L 674.857405 50.83125 
L 664.991031 50.83125 
L 655.124656 50.83125 
L 645.258282 50.83125 
L 635.391908 50.83125 
L 625.525533 50.83125 
L 615.659159 50.83125 
L 605.792784 50.83125 
L 605.792784 135.910954 
L 605.792784 201.78508 
L 605.792784 252.789023 
L 605.792784 292.279523 
L 605.792784 322.855584 
L 605.792784 346.529517 
L 605.792784 364.859384 
L 605.792784 379.051534 
L 605.792784 390.04 
z
" clip-path="url(#pa7ab2722b9)" style="fill: #482475"/>
   </g>
   <g id="PathCollection_20">
    <path d="M 694.590154 390.04 
L 704.456528 390.04 
L 711.771254 390.04 
L 713.226639 379.051534 
L 714.322903 369.5901 
L 714.702379 364.859384 
L 714.739792 346.529517 
L 722.519583 322.855584 
L 722.986061 292.279523 
L 722.339332 252.789023 
L 724.189277 244.288365 
L 730.229915 201.78508 
L 734.055652 151.720745 
L 735.905597 135.910954 
L 734.844962 50.83125 
L 734.055652 50.83125 
L 724.189277 50.83125 
L 714.322903 50.83125 
L 713.774771 50.83125 
L 714.322903 61.466213 
L 716.704441 135.910954 
L 714.322903 145.517598 
L 706.831767 201.78508 
L 704.456528 228.30713 
L 700.974279 252.789023 
L 702.629422 292.279523 
L 695.362305 322.855584 
L 694.590154 326.196214 
L 688.206029 346.529517 
L 690.935941 364.859384 
L 694.590154 376.686175 
L 695.576791 379.051534 
L 694.590154 383.44692 
L 690.361708 390.04 
z
" clip-path="url(#pa7ab2722b9)" style="fill: #355f8d"/>
   </g>
   <g id="PathCollection_21">
    <path d="M 714.322903 390.04 
L 724.189277 390.04 
L 725.350027 390.04 
L 734.055652 379.051534 
L 734.055652 379.051534 
L 734.055652 379.051534 
L 724.189277 364.859384 
L 724.189277 364.859384 
L 721.687943 346.529517 
L 724.189277 339.827485 
L 734.055652 324.427435 
L 735.397479 322.855584 
L 742.761276 292.279523 
L 743.922026 276.483323 
L 745.401982 252.789023 
L 743.922026 245.138431 
L 740.427685 201.78508 
L 743.922026 174.471418 
L 751.815126 135.910954 
L 750.581829 50.83125 
L 743.922026 50.83125 
L 734.844962 50.83125 
L 735.905597 135.910954 
L 734.055652 151.720745 
L 730.229915 201.78508 
L 724.189277 244.288365 
L 722.339332 252.789023 
L 722.986061 292.279523 
L 722.519583 322.855584 
L 714.739792 346.529517 
L 714.702379 364.859384 
L 714.322903 369.5901 
L 713.226639 379.051534 
L 711.771254 390.04 
z
" clip-path="url(#pa7ab2722b9)" style="fill: #21918c"/>
   </g>
   <g id="PathCollection_22">
    <path d="M 734.055652 390.04 
L 735.756751 390.04 
L 743.922026 382.912346 
L 753.7884 382.819008 
L 763.654775 379.051534 
L 772.111667 390.04 
L 773.521149 390.04 
L 783.387524 390.04 
L 783.387524 390.04 
L 793.253898 386.54367 
L 793.253898 379.051534 
L 793.253898 364.859384 
L 793.253898 360.849725 
L 783.387524 359.437874 
L 773.521149 359.812029 
L 763.654775 359.179707 
L 753.7884 362.193221 
L 743.922026 357.083076 
L 734.995306 346.529517 
L 743.922026 337.022567 
L 753.7884 328.658393 
L 763.654775 329.286029 
L 773.521149 328.391642 
L 783.387524 327.514003 
L 793.253898 327.514003 
L 793.253898 322.855584 
L 793.253898 292.279523 
L 793.253898 252.789023 
L 793.253898 201.78508 
L 793.253898 135.910954 
L 793.253898 50.83125 
L 783.387524 50.83125 
L 773.521149 50.83125 
L 763.654775 50.83125 
L 753.7884 50.83125 
L 750.581829 50.83125 
L 751.815126 135.910954 
L 743.922026 174.471418 
L 740.427685 201.78508 
L 743.922026 245.138431 
L 745.401982 252.789023 
L 743.922026 276.483323 
L 742.761276 292.279523 
L 735.397479 322.855584 
L 734.055652 324.427435 
L 724.189277 339.827485 
L 721.687943 346.529517 
L 724.189277 364.859384 
L 724.189277 364.859384 
L 734.055652 379.051534 
L 734.055652 379.051534 
L 734.055652 379.051534 
L 725.350027 390.04 
z
" clip-path="url(#pa7ab2722b9)" style="fill: #44bf70"/>
   </g>
   <g id="PathCollection_23">
    <path d="M 743.922026 390.04 
L 753.7884 390.04 
L 763.654775 390.04 
L 772.111667 390.04 
L 763.654775 379.051534 
L 753.7884 382.819008 
L 743.922026 382.912346 
L 735.756751 390.04 
z
" clip-path="url(#pa7ab2722b9)" style="fill: #bddf26"/>
    <path d="M 793.253898 390.04 
L 793.253898 386.54367 
L 783.387524 390.04 
z
" clip-path="url(#pa7ab2722b9)" style="fill: #bddf26"/>
    <path d="M 743.922026 357.083076 
L 753.7884 362.193221 
L 763.654775 359.179707 
L 773.521149 359.812029 
L 783.387524 359.437874 
L 793.253898 360.849725 
L 793.253898 346.529517 
L 793.253898 327.514003 
L 783.387524 327.514003 
L 773.521149 328.391642 
L 763.654775 329.286029 
L 753.7884 328.658393 
L 743.922026 337.022567 
L 734.995306 346.529517 
z
" clip-path="url(#pa7ab2722b9)" style="fill: #bddf26"/>
   </g>
   <g id="matplotlib.axis_5">
    <g id="xtick_13">
     <g id="line2d_33">
      <g>
       <use xlink:href="#m5ad089bf08" x="605.792784" y="390.04" style="stroke: #000000; stroke-width: 0.8"/>
      </g>
     </g>
     <g id="text_48">
      <!-- −18 -->
      <g transform="translate(595.240441 404.638438) scale(0.1 -0.1)">
       <use xlink:href="#DejaVuSans-2212"/>
       <use xlink:href="#DejaVuSans-31" x="83.789062"/>
       <use xlink:href="#DejaVuSans-38" x="147.412109"/>
      </g>
     </g>
    </g>
    <g id="xtick_14">
     <g id="line2d_34">
      <g>
       <use xlink:href="#m5ad089bf08" x="643.285007" y="390.04" style="stroke: #000000; stroke-width: 0.8"/>
      </g>
     </g>
     <g id="text_49">
      <!-- −12 -->
      <g transform="translate(632.732663 404.638438) scale(0.1 -0.1)">
       <use xlink:href="#DejaVuSans-2212"/>
       <use xlink:href="#DejaVuSans-31" x="83.789062"/>
       <use xlink:href="#DejaVuSans-32" x="147.412109"/>
      </g>
     </g>
    </g>
    <g id="xtick_15">
     <g id="line2d_35">
      <g>
       <use xlink:href="#m5ad089bf08" x="680.77723" y="390.04" style="stroke: #000000; stroke-width: 0.8"/>
      </g>
     </g>
     <g id="text_50">
      <!-- −6 -->
      <g transform="translate(673.406136 404.638438) scale(0.1 -0.1)">
       <use xlink:href="#DejaVuSans-2212"/>
       <use xlink:href="#DejaVuSans-36" x="83.789062"/>
      </g>
     </g>
    </g>
    <g id="xtick_16">
     <g id="line2d_36">
      <g>
       <use xlink:href="#m5ad089bf08" x="718.269453" y="390.04" style="stroke: #000000; stroke-width: 0.8"/>
      </g>
     </g>
     <g id="text_51">
      <!-- 0 -->
      <g transform="translate(715.088203 404.638438) scale(0.1 -0.1)">
       <use xlink:href="#DejaVuSans-30"/>
      </g>
     </g>
    </g>
    <g id="xtick_17">
     <g id="line2d_37">
      <g>
       <use xlink:href="#m5ad089bf08" x="755.761675" y="390.04" style="stroke: #000000; stroke-width: 0.8"/>
      </g>
     </g>
     <g id="text_52">
      <!-- 6 -->
      <g transform="translate(752.580425 404.638438) scale(0.1 -0.1)">
       <use xlink:href="#DejaVuSans-36"/>
      </g>
     </g>
    </g>
    <g id="xtick_18">
     <g id="line2d_38">
      <g>
       <use xlink:href="#m5ad089bf08" x="793.253898" y="390.04" style="stroke: #000000; stroke-width: 0.8"/>
      </g>
     </g>
     <g id="text_53">
      <!-- 12 -->
      <g transform="translate(786.891398 404.638438) scale(0.1 -0.1)">
       <use xlink:href="#DejaVuSans-31"/>
       <use xlink:href="#DejaVuSans-32" x="63.623047"/>
      </g>
     </g>
    </g>
    <g id="text_54">
     <!-- SNR [dB] -->
     <g transform="translate(677.038966 418.316562) scale(0.1 -0.1)">
      <use xlink:href="#DejaVuSans-53"/>
      <use xlink:href="#DejaVuSans-4e" x="63.476562"/>
      <use xlink:href="#DejaVuSans-52" x="138.28125"/>
      <use xlink:href="#DejaVuSans-20" x="207.763672"/>
      <use xlink:href="#DejaVuSans-5b" x="239.550781"/>
      <use xlink:href="#DejaVuSans-64" x="278.564453"/>
      <use xlink:href="#DejaVuSans-42" x="342.041016"/>
      <use xlink:href="#DejaVuSans-5d" x="410.644531"/>
     </g>
    </g>
   </g>
   <g id="matplotlib.axis_6">
    <g id="ytick_21">
     <g id="line2d_39">
      <g>
       <use xlink:href="#mf17f74e2b7" x="605.792784" y="390.04" style="stroke: #000000; stroke-width: 0.8"/>
      </g>
     </g>
     <g id="text_55">
      <!-- 10 -->
      <g transform="translate(586.067784 393.839219) scale(0.1 -0.1)">
       <use xlink:href="#DejaVuSans-31"/>
       <use xlink:href="#DejaVuSans-30" x="63.623047"/>
      </g>
     </g>
    </g>
    <g id="ytick_22">
     <g id="line2d_40">
      <g>
       <use xlink:href="#mf17f74e2b7" x="605.792784" y="352.350139" style="stroke: #000000; stroke-width: 0.8"/>
      </g>
     </g>
     <g id="text_56">
      <!-- 20 -->
      <g transform="translate(586.067784 356.149358) scale(0.1 -0.1)">
       <use xlink:href="#DejaVuSans-32"/>
       <use xlink:href="#DejaVuSans-30" x="63.623047"/>
      </g>
     </g>
    </g>
    <g id="ytick_23">
     <g id="line2d_41">
      <g>
       <use xlink:href="#mf17f74e2b7" x="605.792784" y="314.660278" style="stroke: #000000; stroke-width: 0.8"/>
      </g>
     </g>
     <g id="text_57">
      <!-- 30 -->
      <g transform="translate(586.067784 318.459497) scale(0.1 -0.1)">
       <use xlink:href="#DejaVuSans-33"/>
       <use xlink:href="#DejaVuSans-30" x="63.623047"/>
      </g>
     </g>
    </g>
    <g id="ytick_24">
     <g id="line2d_42">
      <g>
       <use xlink:href="#mf17f74e2b7" x="605.792784" y="276.970417" style="stroke: #000000; stroke-width: 0.8"/>
      </g>
     </g>
     <g id="text_58">
      <!-- 40 -->
      <g transform="translate(586.067784 280.769635) scale(0.1 -0.1)">
       <use xlink:href="#DejaVuSans-34"/>
       <use xlink:href="#DejaVuSans-30" x="63.623047"/>
      </g>
     </g>
    </g>
    <g id="ytick_25">
     <g id="line2d_43">
      <g>
       <use xlink:href="#mf17f74e2b7" x="605.792784" y="239.280556" style="stroke: #000000; stroke-width: 0.8"/>
      </g>
     </g>
     <g id="text_59">
      <!-- 50 -->
      <g transform="translate(586.067784 243.079774) scale(0.1 -0.1)">
       <use xlink:href="#DejaVuSans-35"/>
       <use xlink:href="#DejaVuSans-30" x="63.623047"/>
      </g>
     </g>
    </g>
    <g id="ytick_26">
     <g id="line2d_44">
      <g>
       <use xlink:href="#mf17f74e2b7" x="605.792784" y="201.590694" style="stroke: #000000; stroke-width: 0.8"/>
      </g>
     </g>
     <g id="text_60">
      <!-- 60 -->
      <g transform="translate(586.067784 205.389913) scale(0.1 -0.1)">
       <use xlink:href="#DejaVuSans-36"/>
       <use xlink:href="#DejaVuSans-30" x="63.623047"/>
      </g>
     </g>
    </g>
    <g id="ytick_27">
     <g id="line2d_45">
      <g>
       <use xlink:href="#mf17f74e2b7" x="605.792784" y="163.900833" style="stroke: #000000; stroke-width: 0.8"/>
      </g>
     </g>
     <g id="text_61">
      <!-- 70 -->
      <g transform="translate(586.067784 167.700052) scale(0.1 -0.1)">
       <use xlink:href="#DejaVuSans-37"/>
       <use xlink:href="#DejaVuSans-30" x="63.623047"/>
      </g>
     </g>
    </g>
    <g id="ytick_28">
     <g id="line2d_46">
      <g>
       <use xlink:href="#mf17f74e2b7" x="605.792784" y="126.210972" style="stroke: #000000; stroke-width: 0.8"/>
      </g>
     </g>
     <g id="text_62">
      <!-- 80 -->
      <g transform="translate(586.067784 130.010191) scale(0.1 -0.1)">
       <use xlink:href="#DejaVuSans-38"/>
       <use xlink:href="#DejaVuSans-30" x="63.623047"/>
      </g>
     </g>
    </g>
    <g id="ytick_29">
     <g id="line2d_47">
      <g>
       <use xlink:href="#mf17f74e2b7" x="605.792784" y="88.521111" style="stroke: #000000; stroke-width: 0.8"/>
      </g>
     </g>
     <g id="text_63">
      <!-- 90 -->
      <g transform="translate(586.067784 92.32033) scale(0.1 -0.1)">
       <use xlink:href="#DejaVuSans-39"/>
       <use xlink:href="#DejaVuSans-30" x="63.623047"/>
      </g>
     </g>
    </g>
    <g id="ytick_30">
     <g id="line2d_48">
      <g>
       <use xlink:href="#mf17f74e2b7" x="605.792784" y="50.83125" style="stroke: #000000; stroke-width: 0.8"/>
      </g>
     </g>
     <g id="text_64">
      <!-- 100 -->
      <g transform="translate(579.705284 54.630469) scale(0.1 -0.1)">
       <use xlink:href="#DejaVuSans-31"/>
       <use xlink:href="#DejaVuSans-30" x="63.623047"/>
       <use xlink:href="#DejaVuSans-30" x="127.246094"/>
      </g>
     </g>
    </g>
   </g>
   <g id="PathCollection_24">
    <path d="M 724.589265 50.83125 
L 724.189277 62.433028 
L 720.957189 135.910954 
L 714.322903 162.672318 
L 709.11565 201.78508 
L 704.867627 252.789023 
L 712.678507 292.279523 
L 704.456528 306.3611 
L 702.934994 313.047349 
" clip-path="url(#pa7ab2722b9)" style="fill: none; stroke: #000000; stroke-width: 1.5"/>
    <path d="M 698.769401 332.736268 
L 696.07011 346.529517 
L 704.456528 360.693505 
L 705.105632 364.859384 
L 704.456528 369.29443 
L 701.743275 379.051534 
L 704.456528 384.545767 
L 705.392133 390.04 
" clip-path="url(#pa7ab2722b9)" style="fill: none; stroke: #000000; stroke-width: 1.5"/>
   </g>
   <g id="PathCollection_25">
    <path d="M 744.415345 50.83125 
L 743.922026 107.551053 
L 743.613702 135.910954 
L 735.288948 201.78508 
L 735.573555 252.789023 
L 734.055652 264.072023 
L 730.76686 292.279523 
L 729.585625 312.779266 
" clip-path="url(#pa7ab2722b9)" style="fill: none; stroke: #000000; stroke-width: 1.5"/>
    <path d="M 723.892228 331.315017 
L 718.213867 346.529517 
L 719.445828 364.859384 
L 724.189277 378.505682 
L 724.568753 379.051534 
L 724.189277 379.600957 
L 717.725101 390.04 
" clip-path="url(#pa7ab2722b9)" style="fill: none; stroke: #000000; stroke-width: 1.5"/>
   </g>
   <g id="PathCollection_26">
    <path d="M 793.253898 383.421946 
L 783.387524 386.115548 
L 775.459187 379.051534 
L 773.521149 372.546798 
L 764.265524 371.084316 
" clip-path="url(#pa7ab2722b9)" style="fill: none; stroke: #000000; stroke-width: 1.5"/>
    <path d="M 765.997076 362.579117 
L 773.521149 363.132657 
L 783.387524 362.664963 
L 793.253898 364.429777 
" clip-path="url(#pa7ab2722b9)" style="fill: none; stroke: #000000; stroke-width: 1.5"/>
    <path d="M 793.253898 322.545507 
L 783.387524 322.50274 
L 782.565326 322.855584 
L 773.521149 323.857173 
L 763.654775 324.887181 
L 753.7884 323.905434 
L 743.922026 330.767995 
L 736.656593 338.814228 
" clip-path="url(#pa7ab2722b9)" style="fill: none; stroke: #000000; stroke-width: 1.5"/>
    <path d="M 736.128018 354.676284 
L 743.922026 364.026208 
L 746.38862 364.859384 
L 748.855213 379.051534 
L 743.922026 379.200026 
L 734.055652 388.208589 
L 732.604714 390.04 
" clip-path="url(#pa7ab2722b9)" style="fill: none; stroke: #000000; stroke-width: 1.5"/>
    <path d="M 785.854117 50.83125 
L 793.253898 63.593206 
" clip-path="url(#pa7ab2722b9)" style="fill: none; stroke: #000000; stroke-width: 1.5"/>
   </g>
   <g id="PathCollection_27">
    <path d="M 793.253898 341.775638 
L 783.387524 341.775638 
L 773.521149 341.995048 
L 763.654775 342.482576 
L 758.499404 342.709711 
" clip-path="url(#pa7ab2722b9)" style="fill: none; stroke: #000000; stroke-width: 1.5"/>
    <path d="M 758.788422 349.595676 
L 763.654775 349.498439 
L 773.521149 349.850145 
L 783.387524 349.756606 
L 793.253898 350.109569 
" clip-path="url(#pa7ab2722b9)" style="fill: none; stroke: #000000; stroke-width: 1.5"/>
   </g>
   <g id="patch_13">
    <path d="M 605.792784 390.04 
L 605.792784 50.83125 
" style="fill: none; stroke: #000000; stroke-width: 0.8; stroke-linejoin: miter; stroke-linecap: square"/>
   </g>
   <g id="patch_14">
    <path d="M 793.253898 390.04 
L 793.253898 50.83125 
" style="fill: none; stroke: #000000; stroke-width: 0.8; stroke-linejoin: miter; stroke-linecap: square"/>
   </g>
   <g id="patch_15">
    <path d="M 605.792784 390.04 
L 793.253898 390.04 
" style="fill: none; stroke: #000000; stroke-width: 0.8; stroke-linejoin: miter; stroke-linecap: square"/>
   </g>
   <g id="patch_16">
    <path d="M 605.792784 50.83125 
L 793.253898 50.83125 
" style="fill: none; stroke: #000000; stroke-width: 0.8; stroke-linejoin: miter; stroke-linecap: square"/>
   </g>
   <g id="text_65">
    <!-- Recall (FPR) [%] -->
    <g transform="translate(651.506466 44.83125) scale(0.12 -0.12)">
     <defs>
      <path id="DejaVuSans-6c" d="M 603 4863 
L 1178 4863 
L 1178 0 
L 603 0 
L 603 4863 
z
" transform="scale(0.015625)"/>
     </defs>
     <use xlink:href="#DejaVuSans-52"/>
     <use xlink:href="#DejaVuSans-65" x="64.982422"/>
     <use xlink:href="#DejaVuSans-63" x="126.505859"/>
     <use xlink:href="#DejaVuSans-61" x="181.486328"/>
     <use xlink:href="#DejaVuSans-6c" x="242.765625"/>
     <use xlink:href="#DejaVuSans-6c" x="270.548828"/>
     <use xlink:href="#DejaVuSans-20" x="298.332031"/>
     <use xlink:href="#DejaVuSans-28" x="330.119141"/>
     <use xlink:href="#DejaVuSans-46" x="369.132812"/>
     <use xlink:href="#DejaVuSans-50" x="426.652344"/>
     <use xlink:href="#DejaVuSans-52" x="486.955078"/>
     <use xlink:href="#DejaVuSans-29" x="556.4375"/>
     <use xlink:href="#DejaVuSans-20" x="595.451172"/>
     <use xlink:href="#DejaVuSans-5b" x="627.238281"/>
     <use xlink:href="#DejaVuSans-25" x="666.251953"/>
     <use xlink:href="#DejaVuSans-5d" x="761.271484"/>
    </g>
   </g>
   <g id="text_66">
    <g clip-path="url(#pa7ab2722b9)">
     <!-- 25 -->
     <g transform="translate(701.987687 329.670654) rotate(-77.229176) scale(0.1 -0.1)">
      <use xlink:href="#DejaVuSans-32"/>
      <use xlink:href="#DejaVuSans-35" x="63.623047"/>
     </g>
    </g>
   </g>
   <g id="text_67">
    <g clip-path="url(#pa7ab2722b9)">
     <!-- 50 -->
     <g transform="translate(729.573909 329.767306) rotate(-71.25932) scale(0.1 -0.1)">
      <use xlink:href="#DejaVuSans-35"/>
      <use xlink:href="#DejaVuSans-30" x="63.623047"/>
     </g>
    </g>
   </g>
   <g id="text_68">
    <g clip-path="url(#pa7ab2722b9)">
     <!-- 75 -->
     <g transform="translate(758.476017 371.626691) rotate(-79.183041) scale(0.1 -0.1)">
      <use xlink:href="#DejaVuSans-37"/>
      <use xlink:href="#DejaVuSans-35" x="63.623047"/>
     </g>
    </g>
   </g>
   <g id="text_69">
    <g clip-path="url(#pa7ab2722b9)">
     <!-- 75 -->
     <g transform="translate(733.104852 352.997391) rotate(-87.705471) scale(0.1 -0.1)">
      <use xlink:href="#DejaVuSans-37"/>
      <use xlink:href="#DejaVuSans-35" x="63.623047"/>
     </g>
    </g>
   </g>
   <g id="text_70">
    <g clip-path="url(#pa7ab2722b9)">
     <!-- 95 -->
     <g transform="translate(747.397352 340.297945) rotate(-272.585029) scale(0.1 -0.1)">
      <use xlink:href="#DejaVuSans-39"/>
      <use xlink:href="#DejaVuSans-35" x="63.623047"/>
     </g>
    </g>
   </g>
  </g>
  <g id="axes_4">
   <g id="patch_17">
    <path d="M 804.970218 390.04 
L 821.930655 390.04 
L 821.930655 50.83125 
L 804.970218 50.83125 
z
" style="fill: #ffffff"/>
   </g>
   <g id="QuadMesh_1">
    <path d="M 804.970218 390.04 
L 821.930655 390.04 
L 821.930655 322.19825 
L 804.970218 322.19825 
L 804.970218 390.04 
" clip-path="url(#p19fd603825)" style="fill: #482475"/>
    <path d="M 804.970218 322.19825 
L 821.930655 322.19825 
L 821.930655 254.3565 
L 804.970218 254.3565 
L 804.970218 322.19825 
" clip-path="url(#p19fd603825)" style="fill: #355f8d"/>
    <path d="M 804.970218 254.3565 
L 821.930655 254.3565 
L 821.930655 186.51475 
L 804.970218 186.51475 
L 804.970218 254.3565 
" clip-path="url(#p19fd603825)" style="fill: #21918c"/>
    <path d="M 804.970218 186.51475 
L 821.930655 186.51475 
L 821.930655 118.673 
L 804.970218 118.673 
L 804.970218 186.51475 
" clip-path="url(#p19fd603825)" style="fill: #44bf70"/>
    <path d="M 804.970218 118.673 
L 821.930655 118.673 
L 821.930655 50.83125 
L 804.970218 50.83125 
L 804.970218 118.673 
" clip-path="url(#p19fd603825)" style="fill: #bddf26"/>
   </g>
   <g id="matplotlib.axis_7"/>
   <g id="matplotlib.axis_8">
    <g id="ytick_31">
     <g id="line2d_49">
      <defs>
       <path id="med0a463b7f" d="M 0 0 
L 3.5 0 
" style="stroke: #000000; stroke-width: 0.8"/>
      </defs>
      <g>
       <use xlink:href="#med0a463b7f" x="821.930655" y="390.04" style="stroke: #000000; stroke-width: 0.8"/>
      </g>
     </g>
     <g id="text_71">
      <!-- 0 -->
      <g transform="translate(828.930655 393.839219) scale(0.1 -0.1)">
       <use xlink:href="#DejaVuSans-30"/>
      </g>
     </g>
    </g>
    <g id="ytick_32">
     <g id="line2d_50">
      <g>
       <use xlink:href="#med0a463b7f" x="821.930655" y="322.19825" style="stroke: #000000; stroke-width: 0.8"/>
      </g>
     </g>
     <g id="text_72">
      <!-- 20 -->
      <g transform="translate(828.930655 325.997469) scale(0.1 -0.1)">
       <use xlink:href="#DejaVuSans-32"/>
       <use xlink:href="#DejaVuSans-30" x="63.623047"/>
      </g>
     </g>
    </g>
    <g id="ytick_33">
     <g id="line2d_51">
      <g>
       <use xlink:href="#med0a463b7f" x="821.930655" y="254.3565" style="stroke: #000000; stroke-width: 0.8"/>
      </g>
     </g>
     <g id="text_73">
      <!-- 40 -->
      <g transform="translate(828.930655 258.155719) scale(0.1 -0.1)">
       <use xlink:href="#DejaVuSans-34"/>
       <use xlink:href="#DejaVuSans-30" x="63.623047"/>
      </g>
     </g>
    </g>
    <g id="ytick_34">
     <g id="line2d_52">
      <g>
       <use xlink:href="#med0a463b7f" x="821.930655" y="186.51475" style="stroke: #000000; stroke-width: 0.8"/>
      </g>
     </g>
     <g id="text_74">
      <!-- 60 -->
      <g transform="translate(828.930655 190.313969) scale(0.1 -0.1)">
       <use xlink:href="#DejaVuSans-36"/>
       <use xlink:href="#DejaVuSans-30" x="63.623047"/>
      </g>
     </g>
    </g>
    <g id="ytick_35">
     <g id="line2d_53">
      <g>
       <use xlink:href="#med0a463b7f" x="821.930655" y="118.673" style="stroke: #000000; stroke-width: 0.8"/>
      </g>
     </g>
     <g id="text_75">
      <!-- 80 -->
      <g transform="translate(828.930655 122.472219) scale(0.1 -0.1)">
       <use xlink:href="#DejaVuSans-38"/>
       <use xlink:href="#DejaVuSans-30" x="63.623047"/>
      </g>
     </g>
    </g>
    <g id="ytick_36">
     <g id="line2d_54">
      <g>
       <use xlink:href="#med0a463b7f" x="821.930655" y="50.83125" style="stroke: #000000; stroke-width: 0.8"/>
      </g>
     </g>
     <g id="text_76">
      <!-- 100 -->
      <g transform="translate(828.930655 54.630469) scale(0.1 -0.1)">
       <use xlink:href="#DejaVuSans-31"/>
       <use xlink:href="#DejaVuSans-30" x="63.623047"/>
       <use xlink:href="#DejaVuSans-30" x="127.246094"/>
      </g>
     </g>
    </g>
   </g>
   <g id="LineCollection_1"/>
   <g id="patch_18">
    <path d="M 804.970218 390.04 
L 813.450436 390.04 
L 821.930655 390.04 
L 821.930655 50.83125 
L 813.450436 50.83125 
L 804.970218 50.83125 
L 804.970218 390.04 
z
" style="fill: none; stroke: #000000; stroke-width: 0.8; stroke-linejoin: miter; stroke-linecap: square"/>
   </g>
  </g>
  <g id="text_77">
   <!-- NEO+RMS_BL+Smooth -->
   <g transform="translate(362.175938 17.758125) scale(0.12 -0.12)">
    <defs>
     <path id="DejaVuSans-45" d="M 628 4666 
L 3578 4666 
L 3578 4134 
L 1259 4134 
L 1259 2753 
L 3481 2753 
L 3481 2222 
L 1259 2222 
L 1259 531 
L 3634 531 
L 3634 0 
L 628 0 
L 628 4666 
z
" transform="scale(0.015625)"/>
     <path id="DejaVuSans-4f" d="M 2522 4238 
Q 1834 4238 1429 3725 
Q 1025 3213 1025 2328 
Q 1025 1447 1429 934 
Q 1834 422 2522 422 
Q 3209 422 3611 934 
Q 4013 1447 4013 2328 
Q 4013 3213 3611 3725 
Q 3209 4238 2522 4238 
z
M 2522 4750 
Q 3503 4750 4090 4092 
Q 4678 3434 4678 2328 
Q 4678 1225 4090 567 
Q 3503 -91 2522 -91 
Q 1538 -91 948 565 
Q 359 1222 359 2328 
Q 359 3434 948 4092 
Q 1538 4750 2522 4750 
z
" transform="scale(0.015625)"/>
     <path id="DejaVuSans-2b" d="M 2944 4013 
L 2944 2272 
L 4684 2272 
L 4684 1741 
L 2944 1741 
L 2944 0 
L 2419 0 
L 2419 1741 
L 678 1741 
L 678 2272 
L 2419 2272 
L 2419 4013 
L 2944 4013 
z
" transform="scale(0.015625)"/>
     <path id="DejaVuSans-4d" d="M 628 4666 
L 1569 4666 
L 2759 1491 
L 3956 4666 
L 4897 4666 
L 4897 0 
L 4281 0 
L 4281 4097 
L 3078 897 
L 2444 897 
L 1241 4097 
L 1241 0 
L 628 0 
L 628 4666 
z
" transform="scale(0.015625)"/>
     <path id="DejaVuSans-5f" d="M 3263 -1063 
L 3263 -1509 
L -63 -1509 
L -63 -1063 
L 3263 -1063 
z
" transform="scale(0.015625)"/>
     <path id="DejaVuSans-4c" d="M 628 4666 
L 1259 4666 
L 1259 531 
L 3531 531 
L 3531 0 
L 628 0 
L 628 4666 
z
" transform="scale(0.015625)"/>
     <path id="DejaVuSans-6d" d="M 3328 2828 
Q 3544 3216 3844 3400 
Q 4144 3584 4550 3584 
Q 5097 3584 5394 3201 
Q 5691 2819 5691 2113 
L 5691 0 
L 5113 0 
L 5113 2094 
Q 5113 2597 4934 2840 
Q 4756 3084 4391 3084 
Q 3944 3084 3684 2787 
Q 3425 2491 3425 1978 
L 3425 0 
L 2847 0 
L 2847 2094 
Q 2847 2600 2669 2842 
Q 2491 3084 2119 3084 
Q 1678 3084 1418 2786 
Q 1159 2488 1159 1978 
L 1159 0 
L 581 0 
L 581 3500 
L 1159 3500 
L 1159 2956 
Q 1356 3278 1631 3431 
Q 1906 3584 2284 3584 
Q 2666 3584 2933 3390 
Q 3200 3197 3328 2828 
z
" transform="scale(0.015625)"/>
     <path id="DejaVuSans-68" d="M 3513 2113 
L 3513 0 
L 2938 0 
L 2938 2094 
Q 2938 2591 2744 2837 
Q 2550 3084 2163 3084 
Q 1697 3084 1428 2787 
Q 1159 2491 1159 1978 
L 1159 0 
L 581 0 
L 581 4863 
L 1159 4863 
L 1159 2956 
Q 1366 3272 1645 3428 
Q 1925 3584 2291 3584 
Q 2894 3584 3203 3211 
Q 3513 2838 3513 2113 
z
" transform="scale(0.015625)"/>
    </defs>
    <use xlink:href="#DejaVuSans-4e"/>
    <use xlink:href="#DejaVuSans-45" x="74.804688"/>
    <use xlink:href="#DejaVuSans-4f" x="137.988281"/>
    <use xlink:href="#DejaVuSans-2b" x="216.699219"/>
    <use xlink:href="#DejaVuSans-52" x="300.488281"/>
    <use xlink:href="#DejaVuSans-4d" x="369.970703"/>
    <use xlink:href="#DejaVuSans-53" x="456.25"/>
    <use xlink:href="#DejaVuSans-5f" x="519.726562"/>
    <use xlink:href="#DejaVuSans-42" x="569.726562"/>
    <use xlink:href="#DejaVuSans-4c" x="638.330078"/>
    <use xlink:href="#DejaVuSans-2b" x="694.042969"/>
    <use xlink:href="#DejaVuSans-53" x="777.832031"/>
    <use xlink:href="#DejaVuSans-6d" x="841.308594"/>
    <use xlink:href="#DejaVuSans-6f" x="938.720703"/>
    <use xlink:href="#DejaVuSans-6f" x="999.902344"/>
    <use xlink:href="#DejaVuSans-74" x="1061.083984"/>
    <use xlink:href="#DejaVuSans-68" x="1100.292969"/>
   </g>
  </g>
 </g>
 <defs>
  <clipPath id="p01cd21b958">
   <rect x="50.87" y="50.83125" width="234.326392" height="339.20875"/>
  </clipPath>
  <clipPath id="p944fa34394">
   <rect x="328.331392" y="50.83125" width="234.326392" height="339.20875"/>
  </clipPath>
  <clipPath id="pa7ab2722b9">
   <rect x="605.792784" y="50.83125" width="187.461114" height="339.20875"/>
  </clipPath>
  <clipPath id="p19fd603825">
   <rect x="804.970218" y="50.83125" width="16.960438" height="339.20875"/>
  </clipPath>
 </defs>
</svg>
